<?xml version="1.0" encoding="UTF-8"?> <svg xmlns="http://www.w3.org/2000/svg" width="264" height="276" viewBox="0 0 264 276" fill="none"><path d="M16.3582 273.436C16.9854 273.801 16.9854 274.376 16.3582 274.742C15.7311 275.107 14.7381 275.107 14.111 274.742C13.4838 274.376 13.4838 273.801 14.111 273.436C14.7381 273.07 15.7311 273.07 16.3582 273.436Z" fill="black"></path><path d="M22.2381 270.041C22.8653 270.406 22.8653 270.981 22.2381 271.347C21.611 271.712 20.618 271.712 19.9909 271.347C19.3637 270.981 19.3637 270.406 19.9909 270.041C20.618 269.675 21.611 269.675 22.2381 270.041Z" fill="black"></path><path d="M28.117 266.646C28.7442 267.011 28.7442 267.586 28.117 267.952C27.4899 268.317 26.4969 268.317 25.8698 267.952C25.2426 267.586 25.2426 267.011 25.8698 266.646C26.4969 266.28 27.4899 266.28 28.117 266.646Z" fill="black"></path><path d="M33.9969 263.251C34.624 263.616 34.624 264.191 33.9969 264.557C33.3698 264.922 32.3768 264.922 31.7497 264.557C31.1225 264.191 31.1225 263.616 31.7497 263.251C32.3768 262.885 33.3698 262.885 33.9969 263.251Z" fill="black"></path><path d="M39.8758 259.856C40.503 260.221 40.503 260.796 39.8758 261.162C39.2487 261.527 38.2557 261.527 37.6286 261.162C37.0014 260.796 37.0014 260.221 37.6286 259.856C38.2557 259.49 39.2487 259.49 39.8758 259.856Z" fill="black"></path><path d="M45.7557 256.487C46.3828 256.853 46.3828 257.427 45.7557 257.793C45.1286 258.159 44.1356 258.159 43.5084 257.793C42.8813 257.427 42.8813 256.853 43.5084 256.487C44.1356 256.121 45.1286 256.121 45.7557 256.487Z" fill="black"></path><path d="M51.6346 253.092C52.2617 253.457 52.2617 254.032 51.6346 254.397C51.0075 254.763 50.0145 254.763 49.3873 254.397C48.7602 254.032 48.7602 253.457 49.3873 253.092C50.0145 252.726 51.0075 252.726 51.6346 253.092Z" fill="black"></path><path d="M57.5145 249.697C58.1416 250.062 58.1416 250.637 57.5145 251.002C56.8873 251.368 55.8944 251.368 55.2672 251.002C54.6401 250.637 54.6401 250.062 55.2672 249.697C55.8944 249.331 56.8873 249.331 57.5145 249.697Z" fill="black"></path><path d="M63.3934 246.302C64.0205 246.667 64.0205 247.242 63.3934 247.607C62.7663 247.973 61.7733 247.973 61.1461 247.607C60.519 247.242 60.519 246.667 61.1461 246.302C61.7733 245.936 62.7663 245.936 63.3934 246.302Z" fill="black"></path><path d="M69.2733 242.907C69.9004 243.272 69.9004 243.847 69.2733 244.212C68.6461 244.578 67.6532 244.578 67.026 244.212C66.3989 243.847 66.3989 243.272 67.026 242.907C67.6532 242.541 68.6461 242.541 69.2733 242.907Z" fill="black"></path><path d="M75.1532 239.512C75.7803 239.877 75.7803 240.452 75.1532 240.817C74.526 241.183 73.533 241.183 72.9059 240.817C72.2788 240.452 72.2788 239.877 72.9059 239.512C73.533 239.146 74.526 239.146 75.1532 239.512Z" fill="black"></path><path d="M81.0321 236.117C81.6592 236.482 81.6592 237.057 81.0321 237.422C80.4049 237.788 79.4119 237.788 78.7848 237.422C78.1577 237.057 78.1577 236.482 78.7848 236.117C79.4119 235.751 80.4049 235.751 81.0321 236.117Z" fill="black"></path><path d="M86.8856 232.747C87.5127 233.113 87.5127 233.688 86.8856 234.053C86.2584 234.419 85.2655 234.419 84.6383 234.053C84.0112 233.688 84.0112 233.113 84.6383 232.747C85.2655 232.382 86.2584 232.382 86.8856 232.747Z" fill="black"></path><path d="M92.7645 229.352C93.3916 229.718 93.3916 230.293 92.7645 230.658C92.1373 231.024 91.1444 231.024 90.5172 230.658C89.8901 230.293 89.8901 229.718 90.5172 229.352C91.1444 228.987 92.1373 228.987 92.7645 229.352Z" fill="black"></path><path d="M98.6444 225.957C99.2715 226.323 99.2715 226.897 98.6444 227.263C98.0172 227.629 97.0243 227.629 96.3971 227.263C95.77 226.897 95.77 226.323 96.3971 225.957C97.0243 225.592 98.0172 225.592 98.6444 225.957Z" fill="black"></path><path d="M10.4793 270.041C11.1065 270.406 11.1065 270.981 10.4793 271.347C9.85219 271.712 8.85921 271.712 8.23207 271.347C7.60493 270.981 7.60493 270.406 8.23207 270.041C8.85921 269.675 9.85219 269.675 10.4793 270.041Z" fill="black"></path><path d="M16.3582 266.646C16.9854 267.011 16.9854 267.586 16.3582 267.952C15.7311 268.317 14.7381 268.317 14.111 267.952C13.4838 267.586 13.4838 267.011 14.111 266.646C14.7381 266.28 15.7311 266.28 16.3582 266.646Z" fill="black"></path><path d="M22.2381 263.251C22.8653 263.616 22.8653 264.191 22.2381 264.557C21.611 264.922 20.618 264.922 19.9909 264.557C19.3637 264.191 19.3637 263.616 19.9909 263.251C20.618 262.885 21.611 262.885 22.2381 263.251Z" fill="black"></path><path d="M28.117 259.856C28.7442 260.221 28.7442 260.796 28.117 261.162C27.4899 261.527 26.4969 261.527 25.8698 261.162C25.2426 260.796 25.2426 260.221 25.8698 259.856C26.4969 259.49 27.4899 259.49 28.117 259.856Z" fill="black"></path><path d="M33.9969 256.487C34.624 256.853 34.624 257.427 33.9969 257.793C33.3698 258.159 32.3768 258.159 31.7497 257.793C31.1225 257.427 31.1225 256.853 31.7497 256.487C32.3768 256.121 33.3698 256.121 33.9969 256.487Z" fill="black"></path><path d="M39.8758 253.092C40.503 253.457 40.503 254.032 39.8758 254.397C39.2487 254.763 38.2557 254.763 37.6286 254.397C37.0014 254.032 37.0014 253.457 37.6286 253.092C38.2557 252.726 39.2487 252.726 39.8758 253.092Z" fill="black"></path><path d="M45.7557 249.697C46.3828 250.062 46.3828 250.637 45.7557 251.002C45.1286 251.368 44.1356 251.368 43.5084 251.002C42.8813 250.637 42.8813 250.062 43.5084 249.697C44.1356 249.331 45.1286 249.331 45.7557 249.697Z" fill="black"></path><path d="M51.6346 246.302C52.2617 246.667 52.2617 247.242 51.6346 247.607C51.0075 247.973 50.0145 247.973 49.3873 247.607C48.7602 247.242 48.7602 246.667 49.3873 246.302C50.0145 245.936 51.0075 245.936 51.6346 246.302Z" fill="black"></path><path d="M57.5145 242.907C58.1416 243.272 58.1416 243.847 57.5145 244.212C56.8873 244.578 55.8944 244.578 55.2672 244.212C54.6401 243.847 54.6401 243.272 55.2672 242.907C55.8944 242.541 56.8873 242.541 57.5145 242.907Z" fill="black"></path><path d="M63.3934 239.512C64.0205 239.877 64.0205 240.452 63.3934 240.817C62.7663 241.183 61.7733 241.183 61.1461 240.817C60.519 240.452 60.519 239.877 61.1461 239.512C61.7733 239.146 62.7663 239.146 63.3934 239.512Z" fill="black"></path><path d="M69.2733 236.117C69.9004 236.482 69.9004 237.057 69.2733 237.422C68.6461 237.788 67.6532 237.788 67.026 237.422C66.3989 237.057 66.3989 236.482 67.026 236.117C67.6532 235.751 68.6461 235.751 69.2733 236.117Z" fill="black"></path><path d="M75.1532 232.747C75.7803 233.113 75.7803 233.688 75.1532 234.053C74.526 234.419 73.533 234.419 72.9059 234.053C72.2788 233.688 72.2788 233.113 72.9059 232.747C73.533 232.382 74.526 232.382 75.1532 232.747Z" fill="black"></path><path d="M81.0321 229.352C81.6592 229.718 81.6592 230.293 81.0321 230.658C80.4049 231.024 79.4119 231.024 78.7848 230.658C78.1577 230.293 78.1577 229.718 78.7848 229.352C79.4119 228.987 80.4049 228.987 81.0321 229.352Z" fill="black"></path><path d="M86.8856 225.957C87.5127 226.323 87.5127 226.897 86.8856 227.263C86.2584 227.629 85.2655 227.629 84.6383 227.263C84.0112 226.897 84.0112 226.323 84.6383 225.957C85.2655 225.592 86.2584 225.592 86.8856 225.957Z" fill="black"></path><path d="M92.7645 222.562C93.3916 222.928 93.3916 223.502 92.7645 223.868C92.1373 224.234 91.1444 224.234 90.5172 223.868C89.8901 223.502 89.8901 222.928 90.5172 222.562C91.1444 222.197 92.1373 222.197 92.7645 222.562Z" fill="black"></path><path d="M4.59944 266.646C5.22658 267.011 5.22658 267.586 4.59944 267.952C3.9723 268.317 2.97933 268.317 2.35219 267.952C1.72505 267.586 1.72505 267.011 2.35219 266.646C2.97933 266.28 3.9723 266.28 4.59944 266.646Z" fill="black"></path><path d="M10.4793 263.251C11.1065 263.616 11.1065 264.191 10.4793 264.557C9.85219 264.922 8.85921 264.922 8.23207 264.557C7.60493 264.191 7.60493 263.616 8.23207 263.251C8.85921 262.885 9.85219 262.885 10.4793 263.251Z" fill="black"></path><path d="M16.3582 259.856C16.9854 260.221 16.9854 260.796 16.3582 261.162C15.7311 261.527 14.7381 261.527 14.111 261.162C13.4838 260.796 13.4838 260.221 14.111 259.856C14.7381 259.49 15.7311 259.49 16.3582 259.856Z" fill="black"></path><path d="M22.2381 256.487C22.8653 256.853 22.8653 257.427 22.2381 257.793C21.611 258.159 20.618 258.159 19.9909 257.793C19.3637 257.427 19.3637 256.853 19.9909 256.487C20.618 256.121 21.611 256.121 22.2381 256.487Z" fill="black"></path><path d="M28.117 253.092C28.7442 253.457 28.7442 254.032 28.117 254.397C27.4899 254.763 26.4969 254.763 25.8698 254.397C25.2426 254.032 25.2426 253.457 25.8698 253.092C26.4969 252.726 27.4899 252.726 28.117 253.092Z" fill="black"></path><path d="M33.9969 249.697C34.624 250.062 34.624 250.637 33.9969 251.002C33.3698 251.368 32.3768 251.368 31.7497 251.002C31.1225 250.637 31.1225 250.062 31.7497 249.697C32.3768 249.331 33.3698 249.331 33.9969 249.697Z" fill="black"></path><path d="M39.8758 246.302C40.503 246.667 40.503 247.242 39.8758 247.607C39.2487 247.973 38.2557 247.973 37.6286 247.607C37.0014 247.242 37.0014 246.667 37.6286 246.302C38.2557 245.936 39.2487 245.936 39.8758 246.302Z" fill="black"></path><path d="M45.7557 242.907C46.3828 243.272 46.3828 243.847 45.7557 244.212C45.1286 244.578 44.1356 244.578 43.5084 244.212C42.8813 243.847 42.8813 243.272 43.5084 242.907C44.1356 242.541 45.1286 242.541 45.7557 242.907Z" fill="black"></path><path d="M51.6346 239.512C52.2617 239.877 52.2617 240.452 51.6346 240.817C51.0075 241.183 50.0145 241.183 49.3873 240.817C48.7602 240.452 48.7602 239.877 49.3873 239.512C50.0145 239.146 51.0075 239.146 51.6346 239.512Z" fill="black"></path><path d="M57.5145 236.117C58.1416 236.482 58.1416 237.057 57.5145 237.422C56.8873 237.788 55.8944 237.788 55.2672 237.422C54.6401 237.057 54.6401 236.482 55.2672 236.117C55.8944 235.751 56.8873 235.751 57.5145 236.117Z" fill="black"></path><path d="M63.3934 232.747C64.0205 233.113 64.0205 233.688 63.3934 234.053C62.7663 234.419 61.7733 234.419 61.1461 234.053C60.519 233.688 60.519 233.113 61.1461 232.747C61.7733 232.382 62.7663 232.382 63.3934 232.747Z" fill="black"></path><path d="M69.2733 229.352C69.9004 229.718 69.9004 230.293 69.2733 230.658C68.6461 231.024 67.6532 231.024 67.026 230.658C66.3989 230.293 66.3989 229.718 67.026 229.352C67.6532 228.987 68.6461 228.987 69.2733 229.352Z" fill="black"></path><path d="M75.1532 225.957C75.7803 226.323 75.7803 226.897 75.1532 227.263C74.526 227.629 73.533 227.629 72.9059 227.263C72.2788 226.897 72.2788 226.323 72.9059 225.957C73.533 225.592 74.526 225.592 75.1532 225.957Z" fill="black"></path><path d="M81.0321 222.562C81.6592 222.928 81.6592 223.502 81.0321 223.868C80.4049 224.234 79.4119 224.234 78.7848 223.868C78.1577 223.502 78.1577 222.928 78.7848 222.562C79.4119 222.197 80.4049 222.197 81.0321 222.562Z" fill="black"></path><path d="M86.8856 219.167C87.5127 219.533 87.5127 220.107 86.8856 220.473C86.2584 220.839 85.2655 220.839 84.6383 220.473C84.0112 220.107 84.0112 219.533 84.6383 219.167C85.2655 218.802 86.2584 218.802 86.8856 219.167Z" fill="black"></path><path d="M4.59944 259.856C5.22658 260.221 5.22658 260.796 4.59944 261.162C3.9723 261.527 2.97933 261.527 2.35219 261.162C1.72505 260.796 1.72505 260.221 2.35219 259.856C2.97933 259.49 3.9723 259.49 4.59944 259.856Z" fill="black"></path><path d="M10.4793 256.487C11.1065 256.853 11.1065 257.427 10.4793 257.793C9.85219 258.159 8.85921 258.159 8.23207 257.793C7.60493 257.427 7.60493 256.853 8.23207 256.487C8.85921 256.121 9.85219 256.121 10.4793 256.487Z" fill="black"></path><path d="M16.3582 253.092C16.9854 253.457 16.9854 254.032 16.3582 254.397C15.7311 254.763 14.7381 254.763 14.111 254.397C13.4838 254.032 13.4838 253.457 14.111 253.092C14.7381 252.726 15.7311 252.726 16.3582 253.092Z" fill="black"></path><path d="M39.8758 239.512C40.503 239.877 40.503 240.452 39.8758 240.817C39.2487 241.183 38.2557 241.183 37.6286 240.817C37.0014 240.452 37.0014 239.877 37.6286 239.512C38.2557 239.146 39.2487 239.146 39.8758 239.512Z" fill="black"></path><path d="M45.7557 236.117C46.3828 236.482 46.3828 237.057 45.7557 237.422C45.1286 237.788 44.1356 237.788 43.5084 237.422C42.8813 237.057 42.8813 236.482 43.5084 236.117C44.1356 235.751 45.1286 235.751 45.7557 236.117Z" fill="black"></path><path d="M51.6346 232.747C52.2617 233.113 52.2617 233.688 51.6346 234.053C51.0075 234.419 50.0145 234.419 49.3873 234.053C48.7602 233.688 48.7602 233.113 49.3873 232.747C50.0145 232.382 51.0075 232.382 51.6346 232.747Z" fill="black"></path><path d="M75.1532 219.167C75.7803 219.533 75.7803 220.107 75.1532 220.473C74.526 220.839 73.533 220.839 72.9059 220.473C72.2788 220.107 72.2788 219.533 72.9059 219.167C73.533 218.802 74.526 218.802 75.1532 219.167Z" fill="black"></path><path d="M81.0321 215.772C81.6592 216.138 81.6592 216.712 81.0321 217.078C80.4049 217.444 79.4119 217.444 78.7848 217.078C78.1577 216.712 78.1577 216.138 78.7848 215.772C79.4119 215.407 80.4049 215.407 81.0321 215.772Z" fill="black"></path><path d="M4.59944 253.092C5.22658 253.457 5.22658 254.032 4.59944 254.397C3.9723 254.763 2.97933 254.763 2.35219 254.397C1.72505 254.032 1.72505 253.457 2.35219 253.092C2.97933 252.726 3.9723 252.726 4.59944 253.092Z" fill="black"></path><path d="M10.4793 249.697C11.1065 250.062 11.1065 250.637 10.4793 251.002C9.85219 251.368 8.85921 251.368 8.23207 251.002C7.60493 250.637 7.60493 250.062 8.23207 249.697C8.85921 249.331 9.85219 249.331 10.4793 249.697Z" fill="black"></path><path d="M39.8758 232.747C40.503 233.113 40.503 233.688 39.8758 234.053C39.2487 234.419 38.2557 234.419 37.6286 234.053C37.0014 233.688 37.0014 233.113 37.6286 232.747C38.2557 232.382 39.2487 232.382 39.8758 232.747Z" fill="black"></path><path d="M45.7557 229.352C46.3828 229.718 46.3828 230.293 45.7557 230.658C45.1286 231.024 44.1356 231.024 43.5084 230.658C42.8813 230.293 42.8813 229.718 43.5084 229.352C44.1356 228.987 45.1286 228.987 45.7557 229.352Z" fill="black"></path><path d="M75.1532 212.377C75.7803 212.743 75.7803 213.317 75.1532 213.683C74.526 214.049 73.533 214.049 72.9059 213.683C72.2788 213.317 72.2788 212.743 72.9059 212.377C73.533 212.012 74.526 212.012 75.1532 212.377Z" fill="black"></path><path d="M28.3524 272.887C28.9795 273.253 28.9795 273.828 28.3524 274.193C27.7252 274.559 26.7323 274.559 26.1051 274.193C25.478 273.828 25.478 273.253 26.1051 272.887C26.7323 272.522 27.7252 272.522 28.3524 272.887Z" fill="black"></path><path d="M34.2323 269.492C34.8594 269.858 34.8594 270.433 34.2323 270.798C33.6051 271.164 32.6121 271.164 31.985 270.798C31.3579 270.433 31.3579 269.858 31.985 269.492C32.6121 269.127 33.6051 269.127 34.2323 269.492Z" fill="black"></path><path d="M40.1112 266.097C40.7383 266.463 40.7383 267.038 40.1112 267.403C39.484 267.769 38.4911 267.769 37.8639 267.403C37.2368 267.038 37.2368 266.463 37.8639 266.097C38.4911 265.732 39.484 265.732 40.1112 266.097Z" fill="black"></path><path d="M45.991 262.729C46.6182 263.094 46.6182 263.669 45.991 264.035C45.3639 264.4 44.3709 264.4 43.7438 264.035C43.1167 263.669 43.1167 263.094 43.7438 262.729C44.3709 262.363 45.3639 262.363 45.991 262.729Z" fill="black"></path><path d="M51.87 259.333C52.4971 259.699 52.4971 260.273 51.87 260.639C51.2428 261.005 50.2498 261.005 49.6227 260.639C48.9956 260.273 48.9956 259.699 49.6227 259.333C50.2498 258.968 51.2428 258.968 51.87 259.333Z" fill="black"></path><path d="M57.7498 255.938C58.377 256.304 58.377 256.878 57.7498 257.244C57.1227 257.61 56.1297 257.61 55.5026 257.244C54.8754 256.878 54.8754 256.304 55.5026 255.938C56.1297 255.573 57.1227 255.573 57.7498 255.938Z" fill="black"></path><path d="M63.6287 252.543C64.2559 252.909 64.2559 253.483 63.6287 253.849C63.0016 254.215 62.0086 254.215 61.3815 253.849C60.7543 253.483 60.7543 252.909 61.3815 252.543C62.0086 252.178 63.0016 252.178 63.6287 252.543Z" fill="black"></path><path d="M69.4823 249.148C70.1094 249.514 70.1094 250.088 69.4823 250.454C68.8551 250.82 67.8621 250.82 67.235 250.454C66.6079 250.088 66.6079 249.514 67.235 249.148C67.8621 248.783 68.8551 248.783 69.4823 249.148Z" fill="black"></path><path d="M75.3621 245.753C75.9893 246.119 75.9893 246.693 75.3621 247.059C74.735 247.425 73.742 247.425 73.1149 247.059C72.4877 246.693 72.4877 246.119 73.1149 245.753C73.742 245.388 74.735 245.388 75.3621 245.753Z" fill="black"></path><path d="M81.241 242.358C81.8682 242.724 81.8682 243.298 81.241 243.664C80.6139 244.03 79.6209 244.03 78.9938 243.664C78.3667 243.298 78.3667 242.724 78.9938 242.358C79.6209 241.993 80.6139 241.993 81.241 242.358Z" fill="black"></path><path d="M87.1209 238.963C87.7481 239.329 87.7481 239.903 87.1209 240.269C86.4938 240.635 85.5008 240.635 84.8737 240.269C84.2465 239.903 84.2465 239.329 84.8737 238.963C85.5008 238.598 86.4938 238.598 87.1209 238.963Z" fill="black"></path><path d="M92.9998 235.594C93.627 235.96 93.627 236.534 92.9998 236.9C92.3727 237.265 91.3797 237.265 90.7526 236.9C90.1254 236.534 90.1254 235.96 90.7526 235.594C91.3797 235.228 92.3727 235.228 92.9998 235.594Z" fill="black"></path><path d="M98.8797 232.199C99.5069 232.565 99.5069 233.139 98.8797 233.505C98.2526 233.87 97.2596 233.87 96.6325 233.505C96.0053 233.139 96.0053 232.565 96.6325 232.199C97.2596 231.833 98.2526 231.833 98.8797 232.199Z" fill="black"></path><path d="M104.759 230.11C104.131 230.475 103.139 230.475 102.511 230.11C101.884 229.744 101.884 229.17 102.511 228.804C103.139 228.438 104.131 228.438 104.759 228.804C105.386 229.17 105.386 229.744 104.759 230.11Z" fill="black"></path><path d="M104.55 222.615C105.177 222.98 105.177 223.555 104.55 223.92C103.922 224.286 102.93 224.286 102.302 223.92C101.675 223.555 101.675 222.98 102.302 222.615C102.93 222.249 103.922 222.249 104.55 222.615Z" fill="black"></path><path d="M110.43 219.22C111.057 219.585 111.057 220.16 110.43 220.525C109.802 220.891 108.809 220.891 108.182 220.525C107.555 220.16 107.555 219.585 108.182 219.22C108.809 218.854 109.802 218.854 110.43 219.22Z" fill="black"></path><path d="M116.308 215.825C116.936 216.19 116.936 216.765 116.308 217.13C115.681 217.496 114.688 217.496 114.061 217.13C113.434 216.765 113.434 216.19 114.061 215.825C114.688 215.459 115.681 215.459 116.308 215.825Z" fill="black"></path><path d="M122.188 212.429C122.815 212.795 122.815 213.37 122.188 213.735C121.561 214.101 120.568 214.101 119.941 213.735C119.314 213.37 119.314 212.795 119.941 212.429C120.568 212.064 121.561 212.064 122.188 212.429Z" fill="black"></path><path d="M128.068 209.034C128.695 209.4 128.695 209.975 128.068 210.34C127.441 210.706 126.448 210.706 125.821 210.34C125.194 209.975 125.194 209.4 125.821 209.034C126.448 208.669 127.441 208.669 128.068 209.034Z" fill="black"></path><path d="M133.947 205.639C134.574 206.005 134.574 206.58 133.947 206.945C133.32 207.311 132.327 207.311 131.7 206.945C131.073 206.58 131.073 206.005 131.7 205.639C132.327 205.274 133.32 205.274 133.947 205.639Z" fill="black"></path><path d="M139.827 202.244C140.454 202.61 140.454 203.185 139.827 203.55C139.2 203.916 138.207 203.916 137.58 203.55C136.953 203.185 136.953 202.61 137.58 202.244C138.207 201.879 139.2 201.879 139.827 202.244Z" fill="black"></path><path d="M145.68 198.875C146.307 199.241 146.307 199.815 145.68 200.181C145.052 200.547 144.059 200.547 143.432 200.181C142.805 199.815 142.805 199.241 143.432 198.875C144.059 198.51 145.052 198.51 145.68 198.875Z" fill="black"></path><path d="M151.559 195.48C152.187 195.846 152.187 196.42 151.559 196.786C150.932 197.152 149.939 197.152 149.312 196.786C148.685 196.42 148.685 195.846 149.312 195.48C149.939 195.115 150.932 195.115 151.559 195.48Z" fill="black"></path><path d="M157.438 192.085C158.065 192.451 158.065 193.025 157.438 193.391C156.811 193.757 155.818 193.757 155.191 193.391C154.564 193.025 154.564 192.451 155.191 192.085C155.818 191.72 156.811 191.72 157.438 192.085Z" fill="black"></path><path d="M163.318 188.69C163.945 189.056 163.945 189.63 163.318 189.996C162.691 190.362 161.698 190.362 161.071 189.996C160.444 189.63 160.444 189.056 161.071 188.69C161.698 188.325 162.691 188.325 163.318 188.69Z" fill="black"></path><path d="M169.198 185.295C169.825 185.661 169.825 186.235 169.198 186.601C168.571 186.967 167.578 186.967 166.951 186.601C166.324 186.235 166.324 185.661 166.951 185.295C167.578 184.93 168.571 184.93 169.198 185.295Z" fill="black"></path><path d="M175.077 181.9C175.704 182.266 175.704 182.84 175.077 183.206C174.45 183.572 173.457 183.572 172.83 183.206C172.203 182.84 172.203 182.266 172.83 181.9C173.457 181.535 174.45 181.535 175.077 181.9Z" fill="black"></path><path d="M180.956 178.505C181.583 178.871 181.583 179.445 180.956 179.811C180.329 180.177 179.336 180.177 178.709 179.811C178.081 179.445 178.081 178.871 178.709 178.505C179.336 178.14 180.329 178.14 180.956 178.505Z" fill="black"></path><path d="M186.836 175.11C187.463 175.475 187.463 176.05 186.836 176.415C186.209 176.781 185.216 176.781 184.589 176.415C183.961 176.05 183.961 175.475 184.589 175.11C185.216 174.744 186.209 174.744 186.836 175.11Z" fill="black"></path><path d="M192.716 171.741C193.343 172.107 193.343 172.681 192.716 173.047C192.089 173.412 191.096 173.412 190.468 173.047C189.841 172.681 189.841 172.107 190.468 171.741C191.096 171.375 192.089 171.375 192.716 171.741Z" fill="black"></path><path d="M198.595 168.346C199.222 168.712 199.222 169.286 198.595 169.652C197.967 170.017 196.974 170.017 196.347 169.652C195.72 169.286 195.72 168.712 196.347 168.346C196.974 167.98 197.967 167.98 198.595 168.346Z" fill="black"></path><path d="M96.4235 219.22C97.0506 218.854 98.0436 218.854 98.6707 219.22C99.2979 219.585 99.2979 220.16 98.6707 220.525C98.0436 220.891 97.0506 220.891 96.4235 220.525C95.7963 220.16 95.7963 219.585 96.4235 219.22Z" fill="black"></path><path d="M104.55 215.825C105.177 216.19 105.177 216.765 104.55 217.13C103.922 217.496 102.93 217.496 102.302 217.13C101.675 216.765 101.675 216.19 102.302 215.825C102.93 215.459 103.922 215.459 104.55 215.825Z" fill="black"></path><path d="M110.43 212.429C111.057 212.795 111.057 213.37 110.43 213.735C109.802 214.101 108.809 214.101 108.182 213.735C107.555 213.37 107.555 212.795 108.182 212.429C108.809 212.064 109.802 212.064 110.43 212.429Z" fill="black"></path><path d="M116.308 209.034C116.936 209.4 116.936 209.975 116.308 210.34C115.681 210.706 114.688 210.706 114.061 210.34C113.434 209.975 113.434 209.4 114.061 209.034C114.688 208.669 115.681 208.669 116.308 209.034Z" fill="black"></path><path d="M122.188 205.639C122.815 206.005 122.815 206.58 122.188 206.945C121.561 207.311 120.568 207.311 119.941 206.945C119.314 206.58 119.314 206.005 119.941 205.639C120.568 205.274 121.561 205.274 122.188 205.639Z" fill="black"></path><path d="M128.068 202.244C128.695 202.61 128.695 203.185 128.068 203.55C127.441 203.916 126.448 203.916 125.821 203.55C125.194 203.185 125.194 202.61 125.821 202.244C126.448 201.879 127.441 201.879 128.068 202.244Z" fill="black"></path><path d="M133.947 198.875C134.574 199.241 134.574 199.815 133.947 200.181C133.32 200.547 132.327 200.547 131.7 200.181C131.073 199.815 131.073 199.241 131.7 198.875C132.327 198.51 133.32 198.51 133.947 198.875Z" fill="black"></path><path d="M139.827 195.48C140.454 195.846 140.454 196.42 139.827 196.786C139.2 197.152 138.207 197.152 137.58 196.786C136.953 196.42 136.953 195.846 137.58 195.48C138.207 195.115 139.2 195.115 139.827 195.48Z" fill="black"></path><path d="M145.68 192.085C146.307 192.451 146.307 193.025 145.68 193.391C145.052 193.757 144.059 193.757 143.432 193.391C142.805 193.025 142.805 192.451 143.432 192.085C144.059 191.72 145.052 191.72 145.68 192.085Z" fill="black"></path><path d="M151.559 188.69C152.187 189.056 152.187 189.63 151.559 189.996C150.932 190.362 149.939 190.362 149.312 189.996C148.685 189.63 148.685 189.056 149.312 188.69C149.939 188.325 150.932 188.325 151.559 188.69Z" fill="black"></path><path d="M157.438 185.295C158.065 185.661 158.065 186.235 157.438 186.601C156.811 186.967 155.818 186.967 155.191 186.601C154.564 186.235 154.564 185.661 155.191 185.295C155.818 184.93 156.811 184.93 157.438 185.295Z" fill="black"></path><path d="M163.318 181.9C163.945 182.266 163.945 182.84 163.318 183.206C162.691 183.572 161.698 183.572 161.071 183.206C160.444 182.84 160.444 182.266 161.071 181.9C161.698 181.535 162.691 181.535 163.318 181.9Z" fill="black"></path><path d="M169.198 178.505C169.825 178.871 169.825 179.445 169.198 179.811C168.571 180.177 167.578 180.177 166.951 179.811C166.324 179.445 166.324 178.871 166.951 178.505C167.578 178.14 168.571 178.14 169.198 178.505Z" fill="black"></path><path d="M175.077 175.11C175.704 175.475 175.704 176.05 175.077 176.415C174.45 176.781 173.457 176.781 172.83 176.415C172.203 176.05 172.203 175.475 172.83 175.11C173.457 174.744 174.45 174.744 175.077 175.11Z" fill="black"></path><path d="M180.957 171.741C181.584 172.107 181.584 172.681 180.957 173.047C180.33 173.412 179.337 173.412 178.71 173.047C178.082 172.681 178.082 172.107 178.71 171.741C179.337 171.375 180.33 171.375 180.957 171.741Z" fill="black"></path><path d="M186.836 168.346C187.463 168.712 187.463 169.286 186.836 169.652C186.209 170.017 185.216 170.017 184.589 169.652C183.961 169.286 183.961 168.712 184.589 168.346C185.216 167.98 186.209 167.98 186.836 168.346Z" fill="black"></path><path d="M192.716 164.951C193.343 165.317 193.343 165.891 192.716 166.257C192.089 166.622 191.096 166.622 190.468 166.257C189.841 165.891 189.841 165.317 190.468 164.951C191.096 164.585 192.089 164.585 192.716 164.951Z" fill="black"></path><path d="M90.5436 215.825C91.1707 215.459 92.1637 215.459 92.7908 215.825C93.418 216.19 93.418 216.765 92.7908 217.13C92.1637 217.496 91.1707 217.496 90.5436 217.13C89.9165 216.765 89.9165 216.19 90.5436 215.825Z" fill="black"></path><path d="M98.6707 212.429C99.2979 212.795 99.2979 213.37 98.6707 213.735C98.0436 214.101 97.0506 214.101 96.4235 213.735C95.7963 213.37 95.7963 212.795 96.4235 212.429C97.0506 212.064 98.0436 212.064 98.6707 212.429Z" fill="black"></path><path d="M104.55 209.034C105.177 209.4 105.177 209.975 104.55 210.34C103.922 210.706 102.93 210.706 102.302 210.34C101.675 209.975 101.675 209.4 102.302 209.034C102.93 208.669 103.922 208.669 104.55 209.034Z" fill="black"></path><path d="M110.43 205.639C111.057 206.005 111.057 206.58 110.43 206.945C109.802 207.311 108.809 207.311 108.182 206.945C107.555 206.58 107.555 206.005 108.182 205.639C108.809 205.274 109.802 205.274 110.43 205.639Z" fill="black"></path><path d="M116.308 202.244C116.936 202.61 116.936 203.185 116.308 203.55C115.681 203.916 114.688 203.916 114.061 203.55C113.434 203.185 113.434 202.61 114.061 202.244C114.688 201.879 115.681 201.879 116.308 202.244Z" fill="black"></path><path d="M122.188 198.875C122.815 199.241 122.815 199.815 122.188 200.181C121.561 200.547 120.568 200.547 119.941 200.181C119.314 199.815 119.314 199.241 119.941 198.875C120.568 198.51 121.561 198.51 122.188 198.875Z" fill="black"></path><path d="M128.068 195.48C128.695 195.846 128.695 196.42 128.068 196.786C127.441 197.152 126.448 197.152 125.821 196.786C125.194 196.42 125.194 195.846 125.821 195.48C126.448 195.115 127.441 195.115 128.068 195.48Z" fill="black"></path><path d="M133.947 192.085C134.574 192.451 134.574 193.025 133.947 193.391C133.32 193.757 132.327 193.757 131.7 193.391C131.073 193.025 131.073 192.451 131.7 192.085C132.327 191.72 133.32 191.72 133.947 192.085Z" fill="black"></path><path d="M139.827 188.69C140.454 189.056 140.454 189.63 139.827 189.996C139.2 190.362 138.207 190.362 137.58 189.996C136.953 189.63 136.953 189.056 137.58 188.69C138.207 188.325 139.2 188.325 139.827 188.69Z" fill="black"></path><path d="M145.68 185.295C146.307 185.661 146.307 186.235 145.68 186.601C145.052 186.967 144.059 186.967 143.432 186.601C142.805 186.235 142.805 185.661 143.432 185.295C144.059 184.93 145.052 184.93 145.68 185.295Z" fill="black"></path><path d="M151.559 181.9C152.187 182.266 152.187 182.84 151.559 183.206C150.932 183.572 149.939 183.572 149.312 183.206C148.685 182.84 148.685 182.266 149.312 181.9C149.939 181.535 150.932 181.535 151.559 181.9Z" fill="black"></path><path d="M157.438 178.505C158.065 178.871 158.065 179.445 157.438 179.811C156.811 180.177 155.818 180.177 155.191 179.811C154.564 179.445 154.564 178.871 155.191 178.505C155.818 178.14 156.811 178.14 157.438 178.505Z" fill="black"></path><path d="M163.318 175.11C163.945 175.475 163.945 176.05 163.318 176.415C162.691 176.781 161.698 176.781 161.071 176.415C160.444 176.05 160.444 175.475 161.071 175.11C161.698 174.744 162.691 174.744 163.318 175.11Z" fill="black"></path><path d="M169.198 171.741C169.825 172.107 169.825 172.681 169.198 173.047C168.571 173.412 167.578 173.412 166.951 173.047C166.324 172.681 166.324 172.107 166.951 171.741C167.578 171.375 168.571 171.375 169.198 171.741Z" fill="black"></path><path d="M175.077 168.346C175.704 168.712 175.704 169.286 175.077 169.652C174.45 170.017 173.457 170.017 172.83 169.652C172.203 169.286 172.203 168.712 172.83 168.346C173.457 167.98 174.45 167.98 175.077 168.346Z" fill="black"></path><path d="M180.957 164.951C181.584 165.317 181.584 165.891 180.957 166.257C180.33 166.622 179.337 166.622 178.71 166.257C178.082 165.891 178.082 165.317 178.71 164.951C179.337 164.585 180.33 164.585 180.957 164.951Z" fill="black"></path><path d="M186.836 161.556C187.463 161.922 187.463 162.496 186.836 162.862C186.209 163.227 185.216 163.227 184.589 162.862C183.961 162.496 183.961 161.922 184.589 161.556C185.216 161.19 186.209 161.19 186.836 161.556Z" fill="black"></path><path d="M84.6647 212.429C85.2918 212.064 86.2848 212.064 86.9119 212.429C87.5391 212.795 87.5391 213.37 86.9119 213.735C86.2848 214.101 85.2918 214.101 84.6647 213.735C84.0376 213.37 84.0376 212.795 84.6647 212.429Z" fill="black"></path><path d="M108.183 198.875C108.81 198.51 109.803 198.51 110.43 198.875C111.057 199.241 111.057 199.815 110.43 200.181C109.803 200.547 108.81 200.547 108.183 200.181V198.875Z" fill="black"></path><path d="M116.308 195.48C116.936 195.846 116.936 196.42 116.308 196.786C115.681 197.152 114.688 197.152 114.061 196.786C113.434 196.42 113.434 195.846 114.061 195.48C114.688 195.115 115.681 195.115 116.308 195.48Z" fill="black"></path><path d="M122.188 192.085C122.815 192.451 122.815 193.025 122.188 193.391C121.561 193.757 120.568 193.757 119.941 193.391C119.314 193.025 119.314 192.451 119.941 192.085C120.568 191.72 121.561 191.72 122.188 192.085Z" fill="black"></path><path d="M128.068 189.996C127.441 190.361 126.448 190.361 125.821 189.996C125.194 189.63 125.194 189.056 125.821 188.69L128.068 189.996Z" fill="black"></path><path d="M151.559 175.11C152.187 175.475 152.187 176.05 151.559 176.415C150.932 176.781 149.939 176.781 149.312 176.415C148.685 176.05 148.685 175.475 149.312 175.11C149.939 174.744 150.932 174.744 151.559 175.11Z" fill="black"></path><path d="M157.438 171.741C158.065 172.107 158.065 172.681 157.438 173.047C156.811 173.412 155.818 173.412 155.191 173.047C154.564 172.681 154.564 172.107 155.191 171.741C155.818 171.375 156.811 171.375 157.438 171.741Z" fill="black"></path><path d="M163.318 168.346C163.945 168.712 163.945 169.286 163.318 169.652C162.691 170.017 161.698 170.017 161.071 169.652C160.444 169.286 160.444 168.712 161.071 168.346C161.698 167.98 162.691 167.98 163.318 168.346Z" fill="black"></path><path d="M78.7848 209.034C79.4119 208.669 80.4049 208.669 81.0321 209.034C81.6592 209.4 81.6592 209.975 81.0321 210.34C80.4049 210.706 79.4119 210.706 78.7848 210.34C78.1577 209.975 78.1577 209.4 78.7848 209.034Z" fill="black"></path><path d="M108.183 192.085C108.81 191.72 109.803 191.72 110.43 192.085C111.057 192.451 111.057 193.025 110.43 193.391C109.803 193.757 108.81 193.757 108.183 193.391V192.085Z" fill="black"></path><path d="M116.308 188.69C116.936 189.056 116.936 189.63 116.308 189.996C115.681 190.362 114.688 190.362 114.061 189.996C113.434 189.63 113.434 189.056 114.061 188.69C114.688 188.325 115.681 188.325 116.308 188.69Z" fill="black"></path><path d="M151.559 168.346C152.187 168.712 152.187 169.286 151.559 169.652C150.932 170.017 149.939 170.017 149.312 169.652C148.685 169.286 148.685 168.712 149.312 168.346C149.939 167.98 150.932 167.98 151.559 168.346Z" fill="black"></path><path d="M157.438 164.951C158.065 165.317 158.065 165.891 157.438 166.257C156.811 166.622 155.818 166.622 155.191 166.257C154.564 165.891 154.564 165.317 155.191 164.951C155.818 164.585 156.811 164.585 157.438 164.951Z" fill="black"></path><path d="M75.1004 205.613C75.7276 205.979 75.7276 206.553 75.1004 206.919C74.4733 207.285 73.4803 207.285 72.8532 206.919C72.226 206.553 72.226 205.979 72.8532 205.613H75.1004Z" fill="black"></path><path d="M108.391 225.461C109.018 225.096 110.011 225.096 110.639 225.461C111.266 225.827 111.266 226.401 110.639 226.767C110.011 227.133 109.018 227.133 108.391 226.767C107.764 226.401 107.764 225.827 108.391 225.461Z" fill="black"></path><path d="M116.544 222.066C117.171 222.432 117.171 223.006 116.544 223.372C115.917 223.738 114.924 223.738 114.297 223.372C113.669 223.006 113.669 222.432 114.297 222.066C114.924 221.701 115.917 221.701 116.544 222.066Z" fill="black"></path><path d="M122.424 218.671C123.051 219.037 123.051 219.611 122.424 219.977C121.797 220.343 120.804 220.343 120.176 219.977C119.549 219.611 119.549 219.037 120.176 218.671C120.804 218.306 121.797 218.306 122.424 218.671Z" fill="black"></path><path d="M128.277 215.276C128.904 215.642 128.904 216.216 128.277 216.582C127.65 216.948 126.657 216.948 126.03 216.582C125.403 216.216 125.403 215.642 126.03 215.276C126.657 214.911 127.65 214.911 128.277 215.276Z" fill="black"></path><path d="M134.156 211.881C134.783 212.247 134.783 212.821 134.156 213.187C133.529 213.553 132.536 213.553 131.909 213.187C131.282 212.821 131.282 212.247 131.909 211.881C132.536 211.516 133.529 211.516 134.156 211.881Z" fill="black"></path><path d="M140.036 208.486C140.663 208.852 140.663 209.426 140.036 209.792C139.409 210.158 138.416 210.158 137.789 209.792C137.162 209.426 137.162 208.852 137.789 208.486C138.416 208.121 139.409 208.121 140.036 208.486Z" fill="black"></path><path d="M145.915 205.091C146.542 205.457 146.542 206.031 145.915 206.397C145.288 206.763 144.295 206.763 143.668 206.397C143.04 206.031 143.04 205.457 143.668 205.091C144.295 204.725 145.288 204.725 145.915 205.091Z" fill="black"></path><path d="M151.795 201.722C152.422 202.088 152.422 202.662 151.795 203.028C151.168 203.393 150.175 203.393 149.548 203.028C148.92 202.662 148.92 202.088 149.548 201.722C150.175 201.356 151.168 201.356 151.795 201.722Z" fill="black"></path><path d="M157.674 198.327C158.301 198.693 158.301 199.267 157.674 199.633C157.047 199.998 156.054 199.998 155.426 199.633C154.799 199.267 154.799 198.693 155.426 198.327C156.054 197.961 157.047 197.961 157.674 198.327Z" fill="black"></path><path d="M163.554 194.932C164.181 195.298 164.181 195.872 163.554 196.238C162.926 196.603 161.933 196.603 161.306 196.238C160.679 195.872 160.679 195.298 161.306 194.932C161.933 194.566 162.926 194.566 163.554 194.932Z" fill="black"></path><path d="M169.432 191.537C170.06 191.903 170.06 192.477 169.432 192.843C168.805 193.208 167.812 193.208 167.185 192.843C166.558 192.477 166.558 191.903 167.185 191.537C167.812 191.171 168.805 191.171 169.432 191.537Z" fill="black"></path><path d="M175.312 188.142C175.939 188.508 175.939 189.082 175.312 189.448C174.685 189.813 173.692 189.813 173.065 189.448C172.438 189.082 172.438 188.508 173.065 188.142C173.692 187.776 174.685 187.776 175.312 188.142Z" fill="black"></path><path d="M181.192 184.746C181.819 185.112 181.819 185.687 181.192 186.052C180.565 186.418 179.572 186.418 178.945 186.052C178.318 185.687 178.318 185.112 178.945 184.746C179.572 184.381 180.565 184.381 181.192 184.746Z" fill="black"></path><path d="M187.071 181.351C187.698 181.717 187.698 182.292 187.071 182.657C186.444 183.023 185.451 183.023 184.824 182.657C184.197 182.292 184.197 181.717 184.824 181.351C185.451 180.986 186.444 180.986 187.071 181.351Z" fill="black"></path><path d="M192.951 179.262C192.324 179.628 191.331 179.628 190.704 179.262C190.077 178.897 190.077 178.322 190.704 177.956C191.331 177.591 192.324 177.591 192.951 177.956C193.578 178.322 193.578 178.897 192.951 179.262Z" fill="black"></path><path d="M198.83 174.588C199.457 174.953 199.457 175.528 198.83 175.893C198.203 176.259 197.21 176.259 196.583 175.893C195.956 175.528 195.956 174.953 196.583 174.588C197.21 174.222 198.203 174.222 198.83 174.588Z" fill="black"></path><path d="M204.71 171.193C205.337 171.558 205.337 172.133 204.71 172.498C204.083 172.864 203.09 172.864 202.463 172.498C201.835 172.133 201.835 171.558 202.463 171.193C203.09 170.827 204.083 170.827 204.71 171.193Z" fill="black"></path><path d="M204.526 164.977C205.153 165.342 205.153 165.917 204.526 166.283C203.899 166.648 202.906 166.648 202.279 166.283C201.652 165.917 201.652 165.342 202.279 164.977C202.906 164.611 203.899 164.611 204.526 164.977Z" fill="black"></path><path d="M210.406 161.582C211.033 161.947 211.033 162.522 210.406 162.888C209.779 163.253 208.786 163.253 208.159 162.888C207.532 162.522 207.532 161.947 208.159 161.582C208.786 161.216 209.779 161.216 210.406 161.582Z" fill="black"></path><path d="M216.286 158.187C216.913 158.552 216.913 159.127 216.286 159.493C215.659 159.858 214.666 159.858 214.039 159.493C213.412 159.127 213.412 158.552 214.039 158.187C214.666 157.821 215.659 157.821 216.286 158.187Z" fill="black"></path><path d="M222.139 154.792C222.766 155.157 222.766 155.732 222.139 156.098C221.511 156.463 220.518 156.463 219.891 156.098C219.264 155.732 219.264 155.157 219.891 154.792C220.518 154.426 221.511 154.426 222.139 154.792Z" fill="black"></path><path d="M228.018 151.423C228.646 151.788 228.646 152.363 228.018 152.728C227.391 153.094 226.398 153.094 225.771 152.728C225.144 152.363 225.144 151.788 225.771 151.423C226.398 151.057 227.391 151.057 228.018 151.423Z" fill="black"></path><path d="M233.897 148.028C234.524 148.393 234.524 148.968 233.897 149.333C233.27 149.699 232.277 149.699 231.65 149.333C231.023 148.968 231.023 148.393 231.65 148.028C232.277 147.662 233.27 147.662 233.897 148.028Z" fill="black"></path><path d="M239.777 144.633C240.404 144.998 240.404 145.573 239.777 145.938C239.15 146.304 238.157 146.304 237.53 145.938C236.903 145.573 236.903 144.998 237.53 144.633C238.157 144.267 239.15 144.267 239.777 144.633Z" fill="black"></path><path d="M245.657 141.238C246.284 141.603 246.284 142.178 245.657 142.543C245.03 142.909 244.037 142.909 243.41 142.543C242.783 142.178 242.783 141.603 243.41 141.238C244.037 140.872 245.03 140.872 245.657 141.238Z" fill="black"></path><path d="M251.536 137.843C252.163 138.208 252.163 138.783 251.536 139.148C250.909 139.514 249.916 139.514 249.289 139.148C248.662 138.783 248.662 138.208 249.289 137.843C249.916 137.477 250.909 137.477 251.536 137.843Z" fill="black"></path><path d="M257.416 134.448C258.043 134.813 258.043 135.388 257.416 135.753C256.789 136.119 255.796 136.119 255.169 135.753C254.541 135.388 254.541 134.813 255.169 134.448C255.796 134.082 256.789 134.082 257.416 134.448Z" fill="black"></path><path d="M263.295 131.053C263.922 131.418 263.922 131.993 263.295 132.358C262.668 132.724 261.675 132.724 261.048 132.358C260.42 131.993 260.42 131.418 261.048 131.053C261.675 130.687 262.668 130.687 263.295 131.053Z" fill="black"></path><path d="M196.374 161.582C197.001 161.216 197.994 161.216 198.621 161.582C199.248 161.947 199.248 162.522 198.621 162.888C197.994 163.253 197.001 163.253 196.374 162.888C195.747 162.522 195.747 161.947 196.374 161.582Z" fill="black"></path><path d="M204.526 158.187C205.153 158.552 205.153 159.127 204.526 159.493C203.899 159.858 202.906 159.858 202.279 159.493C201.652 159.127 201.652 158.552 202.279 158.187C202.906 157.821 203.899 157.821 204.526 158.187Z" fill="black"></path><path d="M210.406 154.792C211.033 155.157 211.033 155.732 210.406 156.098C209.779 156.463 208.786 156.463 208.159 156.098C207.532 155.732 207.532 155.157 208.159 154.792C208.786 154.426 209.779 154.426 210.406 154.792Z" fill="black"></path><path d="M216.286 151.423C216.913 151.788 216.913 152.363 216.286 152.728C215.659 153.094 214.666 153.094 214.039 152.728C213.412 152.363 213.412 151.788 214.039 151.423C214.666 151.057 215.659 151.057 216.286 151.423Z" fill="black"></path><path d="M222.139 148.028C222.766 148.393 222.766 148.968 222.139 149.333C221.511 149.699 220.518 149.699 219.891 149.333C219.264 148.968 219.264 148.393 219.891 148.028C220.518 147.662 221.511 147.662 222.139 148.028Z" fill="black"></path><path d="M228.018 144.633C228.646 144.998 228.646 145.573 228.018 145.938C227.391 146.304 226.398 146.304 225.771 145.938C225.144 145.573 225.144 144.998 225.771 144.633C226.398 144.267 227.391 144.267 228.018 144.633Z" fill="black"></path><path d="M233.897 141.238C234.524 141.603 234.524 142.178 233.897 142.543C233.27 142.909 232.277 142.909 231.65 142.543C231.023 142.178 231.023 141.603 231.65 141.238C232.277 140.872 233.27 140.872 233.897 141.238Z" fill="black"></path><path d="M239.777 137.843C240.404 138.208 240.404 138.783 239.777 139.148C239.15 139.514 238.157 139.514 237.53 139.148C236.903 138.783 236.903 138.208 237.53 137.843C238.157 137.477 239.15 137.477 239.777 137.843Z" fill="black"></path><path d="M245.657 134.448C246.284 134.813 246.284 135.388 245.657 135.753C245.03 136.119 244.037 136.119 243.41 135.753C242.783 135.388 242.783 134.813 243.41 134.448C244.037 134.082 245.03 134.082 245.657 134.448Z" fill="black"></path><path d="M251.536 131.053C252.163 131.418 252.163 131.993 251.536 132.358C250.909 132.724 249.916 132.724 249.289 132.358C248.662 131.993 248.662 131.418 249.289 131.053C249.916 130.687 250.909 130.687 251.536 131.053Z" fill="black"></path><path d="M257.416 127.658C258.043 128.023 258.043 128.598 257.416 128.963C256.789 129.329 255.796 129.329 255.169 128.963C254.541 128.598 254.541 128.023 255.169 127.658C255.796 127.292 256.789 127.292 257.416 127.658Z" fill="black"></path><path d="M263.295 124.288C263.922 124.654 263.922 125.229 263.295 125.594C262.668 125.96 261.675 125.96 261.048 125.594C260.42 125.229 260.42 124.654 261.048 124.288C261.675 123.923 262.668 123.923 263.295 124.288Z" fill="black"></path><path d="M190.495 158.187C191.122 157.821 192.115 157.821 192.742 158.187C193.369 158.552 193.369 159.127 192.742 159.493C192.115 159.858 191.122 159.858 190.495 159.493C189.868 159.127 189.868 158.552 190.495 158.187Z" fill="black"></path><path d="M198.647 154.792C199.274 155.157 199.274 155.732 198.647 156.098C198.02 156.463 197.027 156.463 196.4 156.098C195.773 155.732 195.773 155.157 196.4 154.792C197.027 154.426 198.02 154.426 198.647 154.792Z" fill="black"></path><path d="M204.526 151.423C205.153 151.788 205.153 152.363 204.526 152.728C203.899 153.094 202.906 153.094 202.279 152.728C201.652 152.363 201.652 151.788 202.279 151.423C202.906 151.057 203.899 151.057 204.526 151.423Z" fill="black"></path><path d="M210.406 148.028C211.033 148.393 211.033 148.968 210.406 149.333C209.779 149.699 208.786 149.699 208.159 149.333C207.532 148.968 207.532 148.393 208.159 148.028C208.786 147.662 209.779 147.662 210.406 148.028Z" fill="black"></path><path d="M216.286 144.633C216.913 144.998 216.913 145.573 216.286 145.938C215.659 146.304 214.666 146.304 214.039 145.938C213.412 145.573 213.412 144.998 214.039 144.633C214.666 144.267 215.659 144.267 216.286 144.633Z" fill="black"></path><path d="M222.139 141.238C222.766 141.603 222.766 142.178 222.139 142.543C221.511 142.909 220.518 142.909 219.891 142.543C219.264 142.178 219.264 141.603 219.891 141.238C220.518 140.872 221.511 140.872 222.139 141.238Z" fill="black"></path><path d="M228.018 137.843C228.646 138.208 228.646 138.783 228.018 139.148C227.391 139.514 226.398 139.514 225.771 139.148C225.144 138.783 225.144 138.208 225.771 137.843C226.398 137.477 227.391 137.477 228.018 137.843Z" fill="black"></path><path d="M233.897 134.448C234.524 134.813 234.524 135.388 233.897 135.753C233.27 136.119 232.277 136.119 231.65 135.753C231.023 135.388 231.023 134.813 231.65 134.448C232.277 134.082 233.27 134.082 233.897 134.448Z" fill="black"></path><path d="M239.777 131.053C240.404 131.418 240.404 131.993 239.777 132.358C239.15 132.724 238.157 132.724 237.53 132.358C236.903 131.993 236.903 131.418 237.53 131.053C238.157 130.687 239.15 130.687 239.777 131.053Z" fill="black"></path><path d="M243.41 127.658C244.037 127.292 245.03 127.292 245.657 127.658C246.284 128.023 246.284 128.598 245.657 128.963C245.03 129.329 244.037 129.329 243.41 128.963C242.783 128.598 242.783 128.023 243.41 127.658Z" fill="black"></path><path d="M249.289 124.288C249.916 123.923 250.909 123.923 251.536 124.288C252.163 124.654 252.163 125.229 251.536 125.594C250.909 125.96 249.916 125.96 249.289 125.594C248.662 125.229 248.662 124.654 249.289 124.288Z" fill="black"></path><path d="M255.169 120.893C255.796 120.528 256.789 120.528 257.416 120.893C258.043 121.259 258.043 121.834 257.416 122.199C256.789 122.565 255.796 122.565 255.169 122.199C254.541 121.834 254.541 121.259 255.169 120.893Z" fill="black"></path><path d="M184.641 154.818C185.268 154.452 186.261 154.452 186.888 154.818C187.516 155.183 187.516 155.758 186.888 156.123C186.261 156.489 185.268 156.489 184.641 156.123C184.014 155.758 184.014 155.183 184.641 154.818Z" fill="black"></path><path d="M192.767 151.423C193.395 151.788 193.395 152.363 192.767 152.728C192.14 153.094 191.147 153.094 190.52 152.728C189.893 152.363 189.893 151.788 190.52 151.423C191.147 151.057 192.14 151.057 192.767 151.423Z" fill="black"></path><path d="M198.647 148.028C199.274 148.393 199.274 148.968 198.647 149.333C198.02 149.699 197.027 149.699 196.4 149.333C195.773 148.968 195.773 148.393 196.4 148.028C197.027 147.662 198.02 147.662 198.647 148.028Z" fill="black"></path><path d="M214.012 137.843C214.639 137.477 215.632 137.477 216.259 137.843C216.886 138.208 216.886 138.783 216.259 139.148C215.632 139.514 214.639 139.514 214.012 139.148V137.843Z" fill="black"></path><path d="M222.139 134.448C222.766 134.813 222.766 135.388 222.139 135.753C221.511 136.119 220.518 136.119 219.891 135.753C219.264 135.388 219.264 134.813 219.891 134.448C220.518 134.082 221.511 134.082 222.139 134.448Z" fill="black"></path><path d="M228.018 131.053C228.646 131.418 228.646 131.993 228.018 132.358C227.391 132.724 226.398 132.724 225.771 132.358C225.144 131.993 225.144 131.418 225.771 131.053C226.398 130.687 227.391 130.687 228.018 131.053Z" fill="black"></path><path d="M233.897 127.658C234.524 128.023 234.524 128.598 233.897 128.963C233.27 129.329 232.277 129.329 231.65 128.963C231.023 128.598 231.023 128.023 231.65 127.658C232.277 127.292 233.27 127.292 233.897 127.658Z" fill="black"></path><path d="M186.888 148.028C187.516 148.393 187.516 148.968 186.888 149.333C186.261 149.699 185.268 149.699 184.641 149.333C184.014 148.968 184.014 148.393 184.641 148.028C185.268 147.662 186.261 147.662 186.888 148.028Z" fill="black"></path><path d="M192.767 145.912C192.14 146.278 191.147 146.278 190.52 145.912C189.893 145.547 189.893 144.972 190.52 144.606L192.767 145.912Z" fill="black"></path><path d="M216.285 131.052C216.912 131.418 216.912 131.992 216.285 132.358C215.658 132.724 214.665 132.724 214.038 132.358L216.285 131.052Z" fill="black"></path><path d="M222.139 127.658C222.766 128.023 222.766 128.598 222.139 128.963C221.511 129.329 220.518 129.329 219.891 128.963C219.264 128.598 219.264 128.023 219.891 127.658C220.518 127.292 221.511 127.292 222.139 127.658Z" fill="black"></path><path d="M228.018 124.289C228.646 124.654 228.646 125.229 228.018 125.594C227.391 125.96 226.398 125.96 225.771 125.594C225.144 125.229 225.144 124.654 225.771 124.289H228.018Z" fill="black"></path><path d="M208.368 167.824C208.995 167.458 209.988 167.458 210.615 167.824C211.242 168.189 211.242 168.764 210.615 169.129C209.988 169.495 208.995 169.495 208.368 169.129C207.741 168.764 207.741 168.189 208.368 167.824Z" fill="black"></path><path d="M216.495 164.429C217.122 164.794 217.122 165.369 216.495 165.734C215.868 166.1 214.875 166.1 214.248 165.734C213.621 165.369 213.621 164.794 214.248 164.429C214.875 164.063 215.868 164.063 216.495 164.429Z" fill="black"></path><path d="M222.374 161.033C223.001 161.399 223.001 161.974 222.374 162.339C221.747 162.705 220.754 162.705 220.127 162.339C219.499 161.974 219.499 161.399 220.127 161.033C220.754 160.668 221.747 160.668 222.374 161.033Z" fill="black"></path><path d="M228.254 157.638C228.881 158.004 228.881 158.579 228.254 158.944C227.627 159.31 226.634 159.31 226.006 158.944C225.379 158.579 225.379 158.004 226.006 157.638C226.634 157.273 227.627 157.273 228.254 157.638Z" fill="black"></path><path d="M234.133 154.269C234.76 154.635 234.76 155.21 234.133 155.575C233.506 155.941 232.513 155.941 231.885 155.575C231.258 155.21 231.258 154.635 231.885 154.269C232.513 153.904 233.506 153.904 234.133 154.269Z" fill="black"></path><path d="M240.013 150.874C240.64 151.24 240.64 151.814 240.013 152.18C239.385 152.546 238.392 152.546 237.765 152.18C237.138 151.814 237.138 151.24 237.765 150.874C238.392 150.509 239.385 150.509 240.013 150.874Z" fill="black"></path><path d="M245.891 147.479C246.519 147.845 246.519 148.419 245.891 148.785C245.264 149.151 244.271 149.151 243.644 148.785C243.017 148.419 243.017 147.845 243.644 147.479C244.271 147.114 245.264 147.114 245.891 147.479Z" fill="black"></path><path d="M251.771 144.084C252.398 144.45 252.398 145.024 251.771 145.39C251.144 145.756 250.151 145.756 249.524 145.39C248.897 145.024 248.897 144.45 249.524 144.084C250.151 143.719 251.144 143.719 251.771 144.084Z" fill="black"></path><path d="M257.65 140.689C258.277 141.055 258.277 141.629 257.65 141.995C257.023 142.361 256.03 142.361 255.403 141.995C254.776 141.629 254.776 141.055 255.403 140.689C256.03 140.324 257.023 140.324 257.65 140.689Z" fill="black"></path><path d="M263.53 137.294C264.157 137.66 264.157 138.234 263.53 138.6C262.903 138.966 261.91 138.966 261.283 138.6C260.656 138.234 260.656 137.66 261.283 137.294C261.91 136.929 262.903 136.929 263.53 137.294Z" fill="black"></path><path d="M259.349 121.964V61.1141C259.349 60.2261 258.617 59.521 257.755 59.521H218.219C217.592 59.521 217.069 60.0433 217.069 60.6701V121.964V122.147C217.331 123.113 217.461 123.479 218.402 124.027L234.655 133.403C236.615 134.526 240.064 134.395 242.338 133.089L257.494 124.341C258.67 123.662 259.349 122.983 259.349 121.964Z" fill="#FEBD33"></path><path d="M234.656 85.2976L220.989 77.4106V126.3L238.21 134.761V86.055C236.877 86.0811 235.596 85.8461 234.656 85.2976V85.2976Z" fill="#FFEECC"></path><path d="M238 135.283C236.563 135.283 235.178 134.97 234.106 134.369L217.853 124.994C216.573 124.262 216.338 123.583 216.024 122.46L215.972 122.147V60.6703C215.972 59.4428 216.991 58.4243 218.219 58.4243H257.755C259.244 58.4243 260.446 59.6256 260.446 61.1142V121.964C260.446 123.688 259.166 124.654 258.042 125.281L242.886 134.03C241.475 134.839 239.698 135.257 238 135.257V135.283ZM218.219 60.6442L218.167 121.99C218.376 122.748 218.376 122.774 218.951 123.087L235.204 132.463C236.824 133.403 239.829 133.246 241.763 132.149L256.919 123.401C258.121 122.695 258.225 122.304 258.225 121.99V61.1142C258.225 60.8531 257.99 60.618 257.729 60.618H218.193L218.219 60.6442Z" fill="black"></path><path d="M234.655 70.9596L218.402 61.584C216.442 60.461 216.677 58.4762 218.951 57.1704L234.106 48.4216C236.38 47.1158 239.803 46.9591 241.789 48.1082L258.042 57.4838C260.002 58.6068 259.767 60.5916 257.494 61.8974L242.338 70.6462C240.064 71.952 236.641 72.1087 234.655 70.9596Z" fill="#FEBD33"></path><path d="M258.251 65.9717C258.251 65.9717 258.121 65.8673 258.016 65.815L241.763 56.4394C239.803 55.3164 236.354 55.447 234.08 56.7528L218.925 65.5016C218.637 65.6583 218.376 65.8411 218.141 66.0501V69.7846C218.141 69.7846 218.271 69.8891 218.376 69.9413L234.629 79.3169C236.589 80.4399 240.038 80.3093 242.312 79.0035L257.468 70.2547C257.755 70.098 258.016 69.9152 258.251 69.7063V65.9717Z" fill="#FFEECC"></path><path d="M238 72.8401C236.563 72.8401 235.178 72.5268 234.106 71.9261L217.853 62.5505C216.651 61.8454 215.972 60.8268 215.972 59.6778C215.972 58.372 216.86 57.1184 218.402 56.2305L233.558 47.4816C236.171 45.9669 240.012 45.8363 242.338 47.1683L258.591 56.5438C259.793 57.249 260.473 58.2675 260.473 59.4166C260.473 60.7224 259.584 61.9759 258.042 62.8639L242.886 71.6127C241.475 72.4223 239.698 72.8401 238 72.8401V72.8401ZM238.47 48.4218C237.164 48.4218 235.753 48.7352 234.681 49.362L219.525 58.1108C218.559 58.6853 218.193 59.286 218.193 59.6516C218.193 60.0956 218.689 60.4612 218.977 60.6179L235.23 69.9935C236.85 70.9337 239.855 70.777 241.789 69.6801L256.945 60.9313C257.912 60.3568 258.278 59.7561 258.278 59.3905C258.278 58.9465 257.781 58.5809 257.494 58.4242L241.24 49.0486C240.509 48.6307 239.516 48.4218 238.47 48.4218Z" fill="black"></path><path d="M223.863 142.857V109.559C223.863 108.671 223.131 107.966 222.269 107.966H182.733C182.106 107.966 181.583 108.489 181.583 109.115V142.857V143.04C181.844 144.006 181.975 144.372 182.916 144.92L199.169 154.296C201.129 155.419 204.578 155.288 206.852 153.982L222.007 145.234C223.183 144.555 223.863 143.876 223.863 142.857Z" fill="#FEBD33"></path><path d="M199.169 133.742L185.503 125.855V147.192L202.723 155.654V134.5C201.39 134.526 200.11 134.291 199.169 133.742Z" fill="#FFEECC"></path><path d="M202.514 156.15C201.076 156.15 199.692 155.837 198.62 155.236L182.367 145.86C181.086 145.129 180.851 144.45 180.538 143.327L180.485 143.014V109.089C180.485 107.862 181.504 106.843 182.733 106.843H222.269C223.758 106.843 224.96 108.045 224.96 109.533V142.831C224.96 144.555 223.68 145.521 222.556 146.148L207.4 154.896C205.989 155.706 204.212 156.124 202.514 156.124V156.15ZM182.733 109.063L182.68 142.857C182.889 143.614 182.889 143.641 183.464 143.954L199.718 153.329C201.338 154.27 204.343 154.113 206.277 153.016L221.432 144.267C222.634 143.562 222.739 143.17 222.739 142.857V109.559C222.739 109.298 222.504 109.063 222.242 109.063H182.706H182.733Z" fill="black"></path><path d="M199.169 119.405L182.916 110.029C180.956 108.906 181.191 106.922 183.464 105.616L198.62 96.8669C200.894 95.5612 204.317 95.4045 206.303 96.5536L222.556 105.929C224.516 107.052 224.281 109.037 222.007 110.343L206.851 119.092C204.578 120.397 201.155 120.554 199.169 119.405Z" fill="#FEBD33"></path><path d="M222.765 114.391C222.765 114.391 222.635 114.286 222.53 114.234L206.277 104.858C204.317 103.735 200.867 103.866 198.594 105.172L183.438 113.921C183.151 114.077 182.889 114.26 182.654 114.469V118.204C182.654 118.204 182.785 118.308 182.889 118.36L199.143 127.736C201.103 128.859 204.552 128.728 206.825 127.422L221.981 118.674C222.269 118.517 222.53 118.334 222.765 118.125V114.391Z" fill="#FFEECC"></path><path d="M202.514 121.259C201.076 121.259 199.692 120.946 198.62 120.345L182.367 110.969C181.165 110.264 180.485 109.246 180.485 108.097C180.485 106.791 181.374 105.537 182.916 104.649L198.071 95.9006C200.685 94.3859 204.526 94.2553 206.851 95.5872L223.105 104.963C224.307 105.668 224.986 106.686 224.986 107.836C224.986 109.141 224.098 110.395 222.556 111.283L207.4 120.032C205.989 120.841 204.212 121.259 202.514 121.259ZM202.984 96.8408C201.677 96.8408 200.266 97.1541 199.195 97.7809L184.039 106.53C183.072 107.104 182.706 107.705 182.706 108.071C182.706 108.515 183.203 108.88 183.49 109.037L199.744 118.412C201.364 119.353 204.369 119.196 206.303 118.099L221.459 109.35C222.425 108.776 222.791 108.175 222.791 107.809C222.791 107.365 222.295 107 222.007 106.843L205.754 97.4675C205.022 97.0497 204.029 96.8408 202.984 96.8408V96.8408Z" fill="black"></path><path d="M188.953 163.227V14.889C188.953 14.001 188.221 13.2959 187.359 13.2959H147.823C147.195 13.2959 146.673 13.8182 146.673 14.445V163.227V163.41C146.934 164.376 147.065 164.742 148.006 165.29L164.259 174.666C166.219 175.789 169.668 175.658 171.941 174.352L187.097 165.604C188.273 164.925 188.953 164.246 188.953 163.227V163.227Z" fill="#FEBD33"></path><path d="M164.259 39.0725L150.593 31.1855V167.563L167.813 176.024V39.8299C166.48 39.856 165.2 39.621 164.259 39.0725Z" fill="#FFEECC"></path><path d="M167.604 176.52C166.166 176.52 164.781 176.207 163.71 175.606L147.457 166.231C146.176 165.499 145.941 164.82 145.627 163.697L145.575 163.384V14.4452C145.575 13.2177 146.594 12.1992 147.822 12.1992H187.358C188.848 12.1992 190.05 13.4005 190.05 14.8892V163.227C190.05 164.951 188.769 165.917 187.646 166.544L172.49 175.293C171.079 176.102 169.302 176.52 167.604 176.52V176.52ZM147.822 14.4191L147.77 163.227C147.979 163.985 147.979 164.011 148.554 164.324L164.808 173.7C166.428 174.64 169.433 174.483 171.366 173.386L186.522 164.637C187.724 163.932 187.829 163.541 187.829 163.227V14.8892C187.829 14.628 187.594 14.393 187.332 14.393H147.796L147.822 14.4191Z" fill="black"></path><path d="M164.259 24.735L148.005 15.3594C146.046 14.2364 146.281 12.2516 148.554 10.9458L163.71 2.19703C165.983 0.891236 169.407 0.734541 171.392 1.88364L187.646 11.2592C189.606 12.3822 189.371 14.367 187.097 15.6728L171.941 24.4216C169.668 25.7274 166.245 25.8841 164.259 24.735V24.735Z" fill="#FEBD33"></path><path d="M187.855 19.7466C187.855 19.7466 187.724 19.6422 187.62 19.5899L171.366 10.2143C169.407 9.09135 165.957 9.22193 163.684 10.5277L148.528 19.2765C148.241 19.4332 147.979 19.616 147.744 19.825V23.5595C147.744 23.5595 147.875 23.664 147.979 23.7162L164.233 33.0918C166.193 34.2148 169.642 34.0842 171.915 32.7784L187.071 24.0296C187.359 23.8729 187.62 23.6901 187.855 23.4812V19.7466V19.7466Z" fill="#FFEECC"></path><path d="M167.577 26.6153C166.14 26.6153 164.755 26.3019 163.684 25.7012L147.43 16.3256C146.228 15.6205 145.549 14.602 145.549 13.4529C145.549 12.1471 146.437 10.8935 147.979 10.0056L163.135 1.23067C165.748 -0.284052 169.589 -0.414631 171.915 0.917277L188.168 10.2929C189.37 10.998 190.05 12.0165 190.05 13.1656C190.05 14.4714 189.161 15.725 187.62 16.6129L172.464 25.3617C171.053 26.1713 169.276 26.5892 167.577 26.5892V26.6153ZM168.047 2.19695C166.741 2.19695 165.33 2.51035 164.259 3.13713L149.103 11.8859C148.136 12.4605 147.77 13.0612 147.77 13.4268C147.77 13.8707 148.266 14.2364 148.554 14.3931L164.807 23.7687C166.427 24.7088 169.432 24.5521 171.366 23.4553L186.522 14.7065C187.489 14.1319 187.855 13.5312 187.855 13.1656C187.855 12.7216 187.358 12.356 187.071 12.1993L170.817 2.82374C170.086 2.40588 169.093 2.19695 168.047 2.19695V2.19695Z" fill="black"></path><path d="M152.134 184.381V140.298C152.134 139.41 151.429 138.705 150.54 138.705H111.004C110.377 138.705 109.854 139.227 109.854 139.854V184.381V184.564C110.116 185.53 110.246 185.896 111.187 186.444L127.441 195.82C129.4 196.943 132.85 196.812 135.123 195.507L150.279 186.758C151.455 186.079 152.134 185.4 152.134 184.381V184.381Z" fill="#FEBD33"></path><path d="M127.466 164.481L113.8 156.594V188.716L131.02 197.178V165.238C129.687 165.264 128.407 165.029 127.466 164.481V164.481Z" fill="#FFEECC"></path><path d="M130.785 197.674C129.348 197.674 127.963 197.361 126.892 196.76L110.638 187.384C109.358 186.653 109.123 185.974 108.809 184.851L108.757 184.538V139.828C108.757 138.6 109.776 137.582 111.004 137.582H150.54C152.03 137.582 153.232 138.783 153.232 140.271V184.355C153.232 186.079 151.951 187.045 150.828 187.672L135.672 196.421C134.261 197.23 132.484 197.648 130.785 197.648V197.674ZM111.004 139.801L110.952 184.355C111.161 185.112 111.161 185.139 111.736 185.452L127.989 194.828C129.609 195.768 132.614 195.611 134.548 194.514L149.704 185.765C150.906 185.06 151.01 184.668 151.01 184.355V140.271C151.01 140.01 150.801 139.775 150.514 139.775H110.978L111.004 139.801Z" fill="black"></path><path d="M127.467 150.143L111.213 140.768C109.254 139.645 109.489 137.66 111.762 136.354L126.918 127.605C129.191 126.299 132.615 126.143 134.6 127.292L150.854 136.667C152.814 137.79 152.579 139.775 150.305 141.081L135.149 149.83C132.876 151.136 129.453 151.292 127.467 150.143V150.143Z" fill="#FEBD33"></path><path d="M151.063 145.155C151.063 145.155 150.932 145.05 150.828 144.998L134.574 135.623C132.615 134.5 129.165 134.63 126.892 135.936L111.736 144.685C111.449 144.841 111.187 145.024 110.952 145.233V148.968C110.952 148.968 111.083 149.072 111.187 149.124L127.441 158.5C129.401 159.623 132.85 159.492 135.123 158.187L150.279 149.438C150.567 149.281 150.828 149.098 151.063 148.889V145.155Z" fill="#FFEECC"></path><path d="M130.785 151.997C129.348 151.997 127.963 151.684 126.892 151.083L110.638 141.708C109.436 141.003 108.757 139.984 108.757 138.835C108.757 137.529 109.645 136.276 111.187 135.388L126.343 126.639C128.956 125.124 132.797 124.994 135.123 126.325L151.376 135.701C152.578 136.406 153.258 137.425 153.258 138.574C153.258 139.88 152.369 141.133 150.828 142.021L135.672 150.77C134.261 151.58 132.484 151.997 130.785 151.997V151.997ZM131.256 127.579C129.949 127.579 128.538 127.892 127.467 128.519L112.311 137.268C111.344 137.843 110.978 138.443 110.978 138.809C110.978 139.253 111.474 139.618 111.762 139.775L128.015 149.151C129.635 150.091 132.64 149.934 134.574 148.837L149.73 140.089C150.697 139.514 151.063 138.913 151.063 138.548C151.063 138.104 150.566 137.738 150.279 137.581L134.025 128.206C133.294 127.788 132.301 127.579 131.256 127.579V127.579Z" fill="black"></path><path d="M115.342 204.987V108.227C115.342 107.339 114.611 106.634 113.748 106.634H74.2123C73.5851 106.634 73.0625 107.157 73.0625 107.783V204.987V205.169C73.3238 206.136 73.4545 206.501 74.3952 207.05L90.6486 216.425C92.6084 217.548 96.0577 217.418 98.331 216.112L113.487 207.363C114.663 206.684 115.342 206.005 115.342 204.987V204.987Z" fill="#FEBD33"></path><path d="M90.6489 132.411L76.9824 124.524V209.322L94.2027 217.784V133.168C92.87 133.194 91.5896 132.959 90.6489 132.411Z" fill="#FFEECC"></path><path d="M93.9932 218.28C92.556 218.28 91.171 217.966 90.0997 217.366L73.8463 207.99C72.5659 207.259 72.3307 206.58 72.0171 205.457L71.9648 205.143V107.784C71.9648 106.556 72.9839 105.538 74.2121 105.538H113.748C115.238 105.538 116.44 106.739 116.44 108.228V204.987C116.44 206.71 115.159 207.677 114.036 208.304L98.8796 217.052C97.4686 217.862 95.6917 218.28 93.9932 218.28V218.28ZM74.2121 107.731L74.1598 204.987C74.3689 205.744 74.3689 205.77 74.9438 206.084L91.1972 215.459C92.8173 216.399 95.8223 216.243 97.756 215.146L112.912 206.397C114.114 205.692 114.218 205.3 114.218 204.987V108.228C114.218 107.966 113.983 107.731 113.722 107.731H74.186H74.2121Z" fill="black"></path><path d="M90.6484 118.073L74.395 108.697C72.4352 107.574 72.6704 105.59 74.9438 104.284L90.0997 95.5349C92.3731 94.2291 95.7962 94.0724 97.7821 95.2215L114.036 104.597C115.995 105.72 115.76 107.705 113.487 109.011L98.3309 117.76C96.0575 119.065 92.6344 119.222 90.6484 118.073V118.073Z" fill="#FEBD33"></path><path d="M114.245 113.085C114.245 113.085 114.114 112.981 114.009 112.928L97.7561 103.553C95.7963 102.43 92.347 102.56 90.0736 103.866L74.9177 112.615C74.6303 112.772 74.369 112.954 74.1338 113.163V116.898C74.1338 116.898 74.2644 117.002 74.369 117.055L90.6224 126.43C92.5822 127.553 96.0314 127.423 98.3048 126.117L113.461 117.368C113.748 117.211 114.009 117.028 114.245 116.82V113.085V113.085Z" fill="#FFEECC"></path><path d="M93.9668 119.953C92.5296 119.953 91.1447 119.64 90.0733 119.039L73.8199 109.664C72.6179 108.959 71.9385 107.94 71.9385 106.791C71.9385 105.485 72.8269 104.232 74.3686 103.344L89.5245 94.5949C92.1376 93.0802 95.9789 92.9496 98.3045 94.2815L114.558 103.657C115.76 104.362 116.439 105.381 116.439 106.53C116.439 107.836 115.551 109.089 114.009 109.977L98.8533 118.726C97.4422 119.536 95.6653 119.953 93.9668 119.953ZM94.4371 95.5351C93.1306 95.5351 91.7195 95.8485 90.6482 96.4753L75.4923 105.224C74.5254 105.799 74.1596 106.399 74.1596 106.765C74.1596 107.209 74.6561 107.575 74.9435 107.731L91.1969 117.107C92.817 118.047 95.8221 117.89 97.7558 116.793L112.912 108.045C113.878 107.47 114.244 106.869 114.244 106.504C114.244 106.06 113.748 105.694 113.46 105.537L97.207 96.1619C96.4753 95.744 95.4824 95.5351 94.4371 95.5351V95.5351Z" fill="black"></path><path d="M79.6733 226.297V171.506C79.6733 170.618 78.9416 169.913 78.0793 169.913H38.5433C37.9162 169.913 37.3936 170.435 37.3936 171.062V226.297V226.48C37.6549 227.446 37.7855 227.812 38.7262 228.36L54.9796 237.736C56.9394 238.859 60.3887 238.728 62.6621 237.423L77.818 228.674C78.9939 227.995 79.6733 227.316 79.6733 226.297V226.297Z" fill="#FEBD33"></path><path d="M54.9799 195.689L41.3135 187.802V230.632L58.5337 239.094V196.447C57.201 196.473 55.9206 196.238 54.9799 195.689V195.689Z" fill="#FFEECC"></path><path d="M58.3242 239.59C56.887 239.59 55.5021 239.277 54.4307 238.676L38.1773 229.3C36.8969 228.569 36.6617 227.89 36.3482 226.767L36.2959 226.454V171.036C36.2959 169.809 37.315 168.79 38.5432 168.79H78.0791C79.5686 168.79 80.7706 169.991 80.7706 171.48V226.271C80.7706 227.995 79.4902 228.961 78.3666 229.588L63.2107 238.337C61.7996 239.146 60.0227 239.564 58.3242 239.564V239.59ZM38.5432 171.01L38.4909 226.271C38.6999 227.028 38.6999 227.055 39.2748 227.368L55.5282 236.744C57.1483 237.684 60.1534 237.527 62.087 236.43L77.2429 227.681C78.445 226.976 78.5495 226.584 78.5495 226.271V171.48C78.5495 171.219 78.3143 170.984 78.053 170.984H38.5432V171.01Z" fill="black"></path><path d="M54.9795 181.352L38.7261 171.976C36.7663 170.853 37.0014 168.868 39.2748 167.563L54.4307 158.814C56.7041 157.508 60.1273 157.351 62.1132 158.5L78.3666 167.876C80.3264 168.999 80.0912 170.984 77.8178 172.29L62.6619 181.038C60.3886 182.344 56.9654 182.501 54.9795 181.352Z" fill="#FEBD33"></path><path d="M78.5757 176.364C78.5757 176.364 78.445 176.259 78.3405 176.207L62.0871 166.832C60.1273 165.709 56.678 165.839 54.4047 167.145L39.2488 175.894C38.9613 176.05 38.7 176.233 38.4648 176.442V180.177C38.4648 180.177 38.5955 180.281 38.7 180.333L54.9534 189.709C56.9132 190.832 60.3625 190.701 62.6359 189.396L77.7918 180.647C78.0792 180.49 78.3405 180.307 78.5757 180.098V176.364Z" fill="#FFEECC"></path><path d="M58.2978 183.232C56.8606 183.232 55.4757 182.919 54.4043 182.318L38.151 172.943C36.9489 172.237 36.2695 171.219 36.2695 170.07C36.2695 168.764 37.158 167.51 38.6997 166.623L53.8556 157.874C56.4687 156.359 60.3099 156.228 62.6356 157.56L78.889 166.936C80.091 167.641 80.7704 168.66 80.7704 169.809C80.7704 171.114 79.8819 172.368 78.3402 173.256L63.1843 182.005C61.7732 182.814 59.9963 183.232 58.2978 183.232V183.232ZM58.7682 158.814C57.4616 158.814 56.0506 159.127 54.9792 159.754L39.8233 168.503C38.8565 169.077 38.4907 169.678 38.4907 170.044C38.4907 170.488 38.9871 170.853 39.2746 171.01L55.528 180.386C57.1481 181.326 60.1531 181.169 62.0868 180.072L77.2427 171.323C78.2095 170.749 78.5754 170.148 78.5754 169.783C78.5754 169.339 78.0789 168.973 77.7915 168.816L61.5381 159.441C60.8064 159.023 59.8134 158.814 58.7682 158.814V158.814Z" fill="black"></path><path d="M43.3774 246.563V225.043C43.3774 224.155 42.6457 223.45 41.7834 223.45H2.24741C1.62027 223.45 1.09766 223.973 1.09766 224.599V246.589V246.772C1.35896 247.738 1.48962 248.104 2.43033 248.652L18.6837 258.028C20.6435 259.151 24.0928 259.02 26.3662 257.714L41.5221 248.965C42.698 248.286 43.3774 247.607 43.3774 246.589V246.563Z" fill="#FEBD33"></path><path d="M18.684 249.227L5.01758 241.34V250.898L22.2378 259.36V249.958C20.9051 249.984 19.6247 249.749 18.684 249.201V249.227Z" fill="#FFEECC"></path><path d="M22.0283 259.856C20.5911 259.856 19.2062 259.542 18.1348 258.942L1.88142 249.566C0.60101 248.835 0.365832 248.156 0.0522617 247.033L0 246.72V224.547C0 223.32 1.0191 222.301 2.24725 222.301H41.7832C43.2727 222.301 44.4747 223.503 44.4747 224.991V246.511C44.4747 248.234 43.1943 249.201 42.0707 249.827L26.9148 258.576C25.5037 259.386 23.7268 259.804 22.0283 259.804V259.856ZM2.24725 224.547L2.19499 246.563C2.40404 247.32 2.40404 247.346 2.97892 247.66L19.2323 257.035C20.8524 257.976 23.8575 257.819 25.7911 256.722L40.947 247.973C42.1491 247.268 42.2536 246.876 42.2536 246.563V225.043C42.2536 224.782 42.0184 224.547 41.7571 224.547H2.24725Z" fill="black"></path><path d="M18.6836 234.889L2.43019 225.514C0.470371 224.391 0.705549 222.406 2.97893 221.1L18.1348 212.351C20.4082 211.046 23.8314 210.889 25.8173 212.038L42.0707 221.414C44.0305 222.537 43.7953 224.521 41.5219 225.827L26.366 234.576C24.0927 235.882 20.6695 236.038 18.6836 234.889Z" fill="#FEBD33"></path><path d="M42.3062 229.875C42.3062 229.875 42.1755 229.771 42.071 229.718L25.8176 220.343C23.8578 219.22 20.4085 219.35 18.1351 220.656L2.97924 229.405C2.6918 229.562 2.43049 229.744 2.19531 229.953V233.688C2.19531 233.688 2.32597 233.792 2.43049 233.845L18.6839 243.22C20.6437 244.343 24.093 244.213 26.3664 242.907L41.5222 234.158C41.8097 234.001 42.071 233.819 42.3062 233.61V229.875V229.875Z" fill="#FFEECC"></path><path d="M22.0283 236.743C20.5911 236.743 19.2062 236.43 18.1348 235.829L1.88142 226.454C0.679402 225.749 0 224.73 0 223.581C0 222.275 0.888449 221.022 2.43017 220.134L17.5861 211.385C20.1991 209.87 24.0404 209.74 26.366 211.072L42.6194 220.447C43.8214 221.152 44.5008 222.171 44.5008 223.32C44.5008 224.626 43.6124 225.879 42.0707 226.767L26.9148 235.516C25.5037 236.326 23.7268 236.743 22.0283 236.743V236.743ZM22.4987 212.325C21.1921 212.325 19.7811 212.639 18.7097 213.265L3.5538 222.014C2.58695 222.589 2.22112 223.189 2.22112 223.555C2.22112 223.999 2.71761 224.365 3.00505 224.521L19.2584 233.897C20.8786 234.837 23.8836 234.68 25.8173 233.583L40.9732 224.835C41.94 224.26 42.3059 223.659 42.3059 223.294C42.3059 222.85 41.8094 222.484 41.5219 222.327L25.2685 212.952C24.5369 212.534 23.5439 212.325 22.4987 212.325V212.325Z" fill="black"></path><path d="M81.9453 76.521C81.324 76.8837 81.324 77.4536 81.9453 77.8163C82.5666 78.1789 83.5504 78.1789 84.1717 77.8163C84.793 77.4536 84.793 76.8837 84.1717 76.521C83.5504 76.1584 82.5666 76.1584 81.9453 76.521Z" fill="black"></path><path d="M76.1211 73.1534C75.4997 73.516 75.4997 74.0859 76.1211 74.4486C76.7424 74.8113 77.7262 74.8113 78.3475 74.4486C78.9688 74.0859 78.9688 73.516 78.3475 73.1534C77.7262 72.7907 76.7424 72.7907 76.1211 73.1534Z" fill="black"></path><path d="M87.7705 73.1534C87.1491 73.516 87.1491 74.0859 87.7705 74.4486C88.3918 74.8113 89.3756 74.8113 89.9969 74.4486C90.6182 74.0859 90.6182 73.516 89.9969 73.1534C89.3756 72.7907 88.3918 72.7907 87.7705 73.1534Z" fill="black"></path><path d="M81.9453 69.7857C81.324 70.1483 81.324 70.7183 81.9453 71.0809C82.5666 71.4436 83.5504 71.4436 84.1717 71.0809C84.793 70.7183 84.793 70.1483 84.1717 69.7857C83.5504 69.423 82.5666 69.423 81.9453 69.7857Z" fill="black"></path><path d="M105.245 76.521C104.624 76.8837 104.624 77.4536 105.245 77.8163C105.866 78.1789 106.85 78.1789 107.472 77.8163C108.093 77.4536 108.093 76.8837 107.472 76.521C106.85 76.1584 105.866 76.1584 105.245 76.521Z" fill="black"></path><path d="M99.4209 73.1534C98.7995 73.516 98.7995 74.0859 99.4209 74.4486C100.042 74.8113 101.026 74.8113 101.647 74.4486C102.269 74.0859 102.269 73.516 101.647 73.1534C101.026 72.7907 100.042 72.7907 99.4209 73.1534Z" fill="black"></path><path d="M93.5957 69.7857C92.9743 70.1483 92.9743 70.7183 93.5957 71.0809C94.217 71.4436 95.2008 71.4436 95.8221 71.0809C96.4434 70.7183 96.4434 70.1483 95.8221 69.7857C95.2008 69.423 94.217 69.423 93.5957 69.7857Z" fill="black"></path><path d="M87.7705 66.418C87.1491 66.7807 87.1491 67.3506 87.7705 67.7132C88.3918 68.0759 89.3756 68.0759 89.9969 67.7132C90.6182 67.3506 90.6182 66.7807 89.9969 66.418C89.3756 66.0553 88.3918 66.0553 87.7705 66.418Z" fill="black"></path><path d="M81.9453 63.0762C81.324 63.4389 81.324 64.0088 81.9453 64.3715C82.5666 64.7341 83.5504 64.7341 84.1717 64.3715C84.793 64.0088 84.793 63.4389 84.1717 63.0762C83.5504 62.7135 82.5666 62.7135 81.9453 63.0762Z" fill="black"></path><path d="M76.1211 59.7085C75.4997 60.0712 75.4997 60.6411 76.1211 61.0038C76.7424 61.3664 77.7262 61.3664 78.3475 61.0038C78.9688 60.6411 78.9688 60.0712 78.3475 59.7085C77.7262 59.3459 76.7424 59.3459 76.1211 59.7085Z" fill="black"></path><path d="M70.2959 56.3409C69.6745 56.7035 69.6745 57.2734 70.2959 57.6361C70.9172 57.9988 71.901 57.9988 72.5223 57.6361C73.1436 57.2734 73.1436 56.7035 72.5223 56.3409C71.901 55.9782 70.9172 55.9782 70.2959 56.3409Z" fill="black"></path><path d="M64.4707 52.9732C63.8493 53.3358 63.8493 53.9058 64.4707 54.2684C65.092 54.6311 66.0758 54.6311 66.6971 54.2684C67.3184 53.9058 67.3184 53.3358 66.6971 52.9732C66.0758 52.6105 65.092 52.6105 64.4707 52.9732Z" fill="black"></path><path d="M58.6455 49.6055C58.0241 49.9682 58.0241 50.5381 58.6455 50.9007C59.2668 51.2634 60.2506 51.2634 60.8719 50.9007C61.4932 50.5381 61.4932 49.9682 60.8719 49.6055C60.2506 49.2428 59.2668 49.2428 58.6455 49.6055Z" fill="black"></path><path d="M116.895 76.521C116.274 76.8837 116.274 77.4536 116.895 77.8163C117.517 78.1789 118.501 78.1789 119.122 77.8163C119.743 77.4536 119.743 76.8837 119.122 76.521C118.501 76.1584 117.517 76.1584 116.895 76.521Z" fill="black"></path><path d="M111.07 73.1534C110.449 73.516 110.449 74.0859 111.07 74.4486C111.692 74.8113 112.675 74.8113 113.297 74.4486C113.918 74.0859 113.918 73.516 113.297 73.1534C112.675 72.7907 111.692 72.7907 111.07 73.1534Z" fill="black"></path><path d="M105.245 69.7857C104.624 70.1483 104.624 70.7183 105.245 71.0809C105.866 71.4436 106.85 71.4436 107.472 71.0809C108.093 70.7183 108.093 70.1483 107.472 69.7857C106.85 69.423 105.866 69.423 105.245 69.7857Z" fill="black"></path><path d="M99.4201 66.418C98.7987 66.7806 98.7987 67.3505 99.4201 67.7132C100.041 68.0759 101.025 68.0759 101.646 67.7132L99.4201 66.418Z" fill="black"></path><path d="M89.9971 59.7085C89.3757 59.3459 88.392 59.3459 87.7706 59.7085C87.1493 60.0712 87.1493 60.6411 87.7706 61.0038C88.392 61.3664 89.3757 61.3664 89.9971 61.0038V59.7085Z" fill="black"></path><path d="M81.9453 56.3409C81.324 56.7035 81.324 57.2734 81.9453 57.6361C82.5666 57.9988 83.5504 57.9988 84.1717 57.6361C84.793 57.2734 84.793 56.7035 84.1717 56.3409C83.5504 55.9782 82.5666 55.9782 81.9453 56.3409Z" fill="black"></path><path d="M76.1211 52.9732C75.4997 53.3358 75.4997 53.9058 76.1211 54.2684C76.7424 54.6311 77.7262 54.6311 78.3475 54.2684C78.9688 53.9058 78.9688 53.3358 78.3475 52.9732C77.7262 52.6105 76.7424 52.6105 76.1211 52.9732Z" fill="black"></path><path d="M70.2959 49.6055C69.6745 49.9682 69.6745 50.5381 70.2959 50.9007C70.9172 51.2634 71.901 51.2634 72.5223 50.9007C73.1436 50.5381 73.1436 49.9682 72.5223 49.6055C71.901 49.2428 70.9172 49.2428 70.2959 49.6055Z" fill="black"></path><path d="M64.4707 46.2383C63.8493 46.601 63.8493 47.1709 64.4707 47.5336C65.092 47.8962 66.0758 47.8962 66.6971 47.5336C67.3184 47.1709 67.3184 46.601 66.6971 46.2383C66.0758 45.8756 65.092 45.8756 64.4707 46.2383Z" fill="black"></path><path d="M122.72 73.1534C122.098 73.516 122.098 74.0859 122.72 74.4486C123.341 74.8113 124.325 74.8113 124.946 74.4486C125.567 74.0859 125.567 73.516 124.946 73.1534C124.325 72.7907 123.341 72.7907 122.72 73.1534Z" fill="black"></path><path d="M116.895 69.7857C116.274 70.1483 116.274 70.7183 116.895 71.0809C117.517 71.4436 118.501 71.4436 119.122 71.0809C119.743 70.7183 119.743 70.1483 119.122 69.7857C118.501 69.423 117.517 69.423 116.895 69.7857Z" fill="black"></path><path d="M89.9971 52.9732C89.3757 52.6105 88.392 52.6105 87.7706 52.9732C87.1493 53.3358 87.1493 53.9058 87.7706 54.2684C88.392 54.6311 89.3757 54.6311 89.9971 54.2684V52.9732Z" fill="black"></path><path d="M81.9453 49.6055C81.324 49.9682 81.324 50.5381 81.9453 50.9007C82.5666 51.2634 83.5504 51.2634 84.1717 50.9007C84.793 50.5381 84.793 49.9682 84.1717 49.6055C83.5504 49.2428 82.5666 49.2428 81.9453 49.6055Z" fill="black"></path><path d="M78.3475 46.2383C77.7262 45.8756 76.7424 45.8756 76.1211 46.2383C75.4997 46.601 75.4997 47.1709 76.1211 47.5336C76.7424 47.8962 77.7262 47.8962 78.3475 47.5336C78.9688 47.1709 78.9688 46.601 78.3475 46.2383Z" fill="black"></path><path d="M70.296 42.8706C69.6747 43.2333 69.6747 43.8032 70.296 44.1659C70.9174 44.5285 71.9011 44.5285 72.5225 44.1659L70.296 42.8706Z" fill="black"></path><path d="M130.771 69.7857C130.15 69.423 129.166 69.423 128.545 69.7857C127.924 70.1483 127.924 70.7183 128.545 71.0809C129.166 71.4436 130.15 71.4436 130.771 71.0809V69.7857V69.7857Z" fill="black"></path><path d="M55.0477 46.2901C54.4264 45.9274 53.4426 45.9274 52.8213 46.2901C52.1999 46.6527 52.1999 47.2226 52.8213 47.5853C53.4426 47.948 54.4264 47.948 55.0477 47.5853C55.669 47.2226 55.669 46.6527 55.0477 46.2901Z" fill="black"></path><path d="M46.9961 42.9224C46.3747 43.2851 46.3747 43.855 46.9961 44.2176C47.6174 44.5803 48.6012 44.5803 49.2225 44.2176C49.8438 43.855 49.8438 43.2851 49.2225 42.9224C48.6012 42.5597 47.6174 42.5597 46.9961 42.9224Z" fill="black"></path><path d="M41.1709 39.5547C40.5495 39.9174 40.5495 40.4873 41.1709 40.85C41.7922 41.2126 42.776 41.2126 43.3973 40.85C44.0186 40.4873 44.0186 39.9174 43.3973 39.5547C42.776 39.192 41.7922 39.192 41.1709 39.5547Z" fill="black"></path><path d="M60.8719 42.9224C60.2506 42.5597 59.2668 42.5597 58.6455 42.9224C58.0241 43.2851 58.0241 43.855 58.6455 44.2176C59.2668 44.5803 60.2506 44.5803 60.8719 44.2176C61.4932 43.855 61.4932 43.2851 60.8719 42.9224Z" fill="black"></path><path d="M52.8213 39.5547C52.1999 39.9174 52.1999 40.4873 52.8213 40.85C53.4426 41.2126 54.4264 41.2126 55.0477 40.85C55.669 40.4873 55.669 39.9174 55.0477 39.5547C54.4264 39.192 53.4426 39.192 52.8213 39.5547Z" fill="black"></path><path d="M46.9961 36.187C46.3747 36.5497 46.3747 37.1196 46.9961 37.4823C47.6174 37.845 48.6012 37.845 49.2225 37.4823C49.8438 37.1196 49.8438 36.5497 49.2225 36.187C48.6012 35.8244 47.6174 35.8244 46.9961 36.187Z" fill="black"></path><path d="M41.1709 32.8194C40.5495 33.182 40.5495 33.7519 41.1709 34.1146C41.7922 34.4773 42.776 34.4773 43.3973 34.1146C44.0186 33.7519 44.0186 33.182 43.3973 32.8194C42.776 32.4567 41.7922 32.4567 41.1709 32.8194Z" fill="black"></path><path d="M55.0469 32.8194C54.4255 32.4567 53.4418 32.4567 52.8205 32.8194C52.1991 33.182 52.1991 33.7519 52.8205 34.1146C53.4418 34.4773 54.4255 34.4773 55.0469 34.1146V32.8194Z" fill="black"></path><path d="M46.9962 29.4775C46.3749 29.8402 46.3749 30.4101 46.9962 30.7728C47.6176 31.1355 48.6013 31.1355 49.2227 30.7728L46.9962 29.4775Z" fill="black"></path><path d="M130.072 62.8434L88.3916 57.1702L100.067 52.1964L45.3907 22.5093L58.6197 14.7637L111.458 45.6942L120.157 38.5963L129.943 62.6102L130.02 62.7138L130.072 62.8434Z" fill="#FEBD33"></path><path d="M130.746 65.2007L89.7383 61.1077L101.414 56.1598L46.7114 26.4468L59.9405 18.7012L112.805 49.6577L121.504 42.5338L131.29 66.5477L131.341 66.6772L131.419 66.7809L130.746 65.2007Z" fill="#FFEECC"></path><path d="M44.7178 22.1205L58.62 13.9863L111.407 44.891L120.468 37.5081L130.771 62.2474L130.694 71.9358L87.7187 66.2108V56.7296L89.2203 56.1079L44.7178 31.3427V22.1205ZM119.898 39.71L111.536 46.523L58.62 15.5406L46.763 22.4832L101.621 52.2739L90.903 56.8332L128.985 62.0142L119.898 39.71V39.71Z" fill="black"></path></svg> 