<?xml version="1.0" encoding="utf-8"?>
<!-- Generator: Adobe Illustrator 27.0.0, SVG Export Plug-In . SVG Version: 6.00 Build 0)  -->
<svg version="1.1" id="Layer_1" xmlns="http://www.w3.org/2000/svg" xmlns:xlink="http://www.w3.org/1999/xlink" x="0px" y="0px"
	 viewBox="0 0 326.06 77.04" style="enable-background:new 0 0 326.06 77.04;" xml:space="preserve">
<style type="text/css">
	.st0{fill:#429CD6;}
	.st1{opacity:0.75;fill:url(#SVGID_1_);}
	.st2{fill:#DD2C59;}
	.st3{opacity:0.75;fill:url(#SVGID_00000072275851796678188400000015739270225490373311_);}
	.st4{fill:url(#SVGID_00000129890190368484697050000016756705202881311918_);}
	.st5{font-family:'PlusJakartaSans-ExtraLight';}
	.st6{font-size:17px;}
</style>
<g>
	<path class="st0" d="M14.31,68.49L14.31,68.49c-7.08-4.83-9.09-14.77-4.48-22.2l20.19-32.53c4.61-7.43,14.09-9.53,21.17-4.7l0,0
		c7.08,4.83,9.09,14.77,4.48,22.2L35.48,63.8C30.87,71.23,21.39,73.33,14.31,68.49z"/>
	
		<linearGradient id="SVGID_1_" gradientUnits="userSpaceOnUse" x1="20.9432" y1="58.4169" x2="48.6452" y2="13.9224" gradientTransform="matrix(0.8782 0.1872 0.1872 0.7125 -9.6183 14.7779)">
		<stop  offset="0.0214" style="stop-color:#0A8DCD;stop-opacity:0.3"/>
		<stop  offset="0.2238" style="stop-color:#276793;stop-opacity:0.4401"/>
		<stop  offset="0.4845" style="stop-color:#224261;stop-opacity:0.6205"/>
		<stop  offset="0.7103" style="stop-color:#1A2842;stop-opacity:0.7768"/>
		<stop  offset="0.8896" style="stop-color:#121832;stop-opacity:0.9008"/>
		<stop  offset="1" style="stop-color:#0F112B;stop-opacity:0.9773"/>
	</linearGradient>
	<path class="st1" d="M18.05,63.14L18.05,63.14c-7.12-4.77-10.74-12.23-8.09-16.66l7.27-12.12c2.66-4.43,10.59-4.15,17.71,0.62l0,0
		c7.12,4.77,10.74,12.23,8.09,16.66l-7.27,12.12C33.1,68.18,25.17,67.91,18.05,63.14z"/>
	<path class="st2" d="M55.12,61.97L55.12,61.97c-7.5-5.12-9.13-14.71-5.39-20.73L67.7,12.29c4.1-6.61,13.17-8.05,20.25-3.22l0,0
		c7.08,4.83,9.5,14.11,5.39,20.73L75.38,58.75C71.27,65.36,62.2,66.8,55.12,61.97z"/>
	
		<linearGradient id="SVGID_00000097458242023358727600000005442422848497948314_" gradientUnits="userSpaceOnUse" x1="84.9971" y1="16.6349" x2="59.2569" y2="52.8548" gradientTransform="matrix(0.8796 0.185 0.185 0.7157 7.34 -11.2774)">
		<stop  offset="0" style="stop-color:#EE1C4C;stop-opacity:0.3"/>
		<stop  offset="0.1461" style="stop-color:#D02347;stop-opacity:0.398"/>
		<stop  offset="0.4481" style="stop-color:#972839;stop-opacity:0.6005"/>
		<stop  offset="0.8763" style="stop-color:#4C1A1F;stop-opacity:0.8877"/>
		<stop  offset="1" style="stop-color:#381215;stop-opacity:0.9707"/>
	</linearGradient>
	<path style="opacity:0.75;fill:url(#SVGID_00000097458242023358727600000005442422848497948314_);" d="M67.49,42.97L67.49,42.97
		c-7.54-5.05-11.02-11.77-9.12-14.94l9.15-15.24c2.09-3.48,9.56-2.43,16.68,2.34l0,0c7.12,4.77,10.69,11.79,8.6,15.27l-9.37,15.25
		C81.35,49.14,74.62,47.74,67.49,42.97z"/>
	
		<linearGradient id="SVGID_00000045581389346509965590000014764310186654662788_" gradientUnits="userSpaceOnUse" x1="51.0806" y1="72.0383" x2="51.0806" y2="4.1946">
		<stop  offset="0.026" style="stop-color:#92278F"/>
		<stop  offset="0.4146" style="stop-color:#662D91"/>
		<stop  offset="0.9137" style="stop-color:#3A53A4"/>
	</linearGradient>
	<path style="fill:url(#SVGID_00000045581389346509965590000014764310186654662788_);" d="M36.96,45.76l12.12,18.48
		c0,0,12.04,16.87,22.31,0.98l18.79-30.29c0,0-16.44,14.75-25.92-5.57c-5.15-11.05-8.35-16.04-9.94-17.68c0,0-12.39-16.37-22.77-0.7
		L11.97,43.2C11.97,43.2,25.87,31.9,36.96,45.76z"/>
</g>
<text transform="matrix(1.2876 0 0 1 112.8379 65.5998)" class="st5 st6">DIGITAL SERVICES</text>
<path d="M142.4,39.7c0,0.39-0.07,0.75-0.21,1.05c-0.14,0.31-0.34,0.57-0.58,0.77c-0.24,0.21-0.53,0.36-0.86,0.45
	c-0.33,0.09-0.67,0.14-1,0.14h-3c-0.62,0-1.16-0.06-1.62-0.18c-0.45-0.12-0.87-0.34-1.26-0.66c-0.38-0.32-0.76-0.75-1.11-1.29
	c-0.36-0.54-0.76-1.24-1.2-2.1l-8.62-15.56c-0.5-0.93-1.01-1.92-1.53-3c-0.52-1.07-0.98-2.11-1.39-3.12h-0.05
	c0.07,1.23,0.12,2.46,0.16,3.69c0.04,1.23,0.05,2.49,0.05,3.79v17.41c0,0.17-0.05,0.33-0.15,0.46c-0.1,0.14-0.27,0.25-0.51,0.35
	c-0.24,0.09-0.57,0.17-0.98,0.22c-0.41,0.05-0.94,0.08-1.58,0.08c-0.62,0-1.14-0.03-1.55-0.08c-0.41-0.05-0.73-0.12-0.96-0.22
	c-0.23-0.09-0.39-0.21-0.48-0.35c-0.09-0.14-0.13-0.29-0.13-0.46V11.2c0-0.81,0.25-1.41,0.74-1.81c0.49-0.4,1.09-0.6,1.81-0.6h3.77
	c0.68,0,1.25,0.06,1.71,0.17c0.46,0.11,0.88,0.3,1.24,0.55c0.37,0.26,0.71,0.61,1.03,1.07c0.32,0.45,0.65,1.02,0.99,1.68l6.75,12.16
	c0.39,0.74,0.78,1.46,1.16,2.17c0.38,0.71,0.75,1.42,1.11,2.14c0.36,0.71,0.7,1.41,1.04,2.1c0.34,0.69,0.67,1.37,0.99,2.06h0.03
	c-0.05-1.2-0.09-2.45-0.12-3.75c-0.03-1.3-0.04-2.55-0.04-3.73V9.79c0-0.17,0.05-0.33,0.16-0.46c0.11-0.14,0.29-0.26,0.54-0.36
	c0.25-0.1,0.58-0.18,0.99-0.22c0.41-0.04,0.94-0.06,1.58-0.06c0.61,0,1.11,0.02,1.52,0.06c0.41,0.04,0.73,0.12,0.95,0.22
	c0.22,0.1,0.38,0.22,0.47,0.36c0.09,0.14,0.13,0.29,0.13,0.46V39.7z"/>
<path d="M157.01,41.14c0,0.17-0.06,0.33-0.17,0.46c-0.12,0.14-0.31,0.25-0.58,0.33c-0.27,0.09-0.62,0.15-1.07,0.21
	c-0.45,0.05-1.02,0.08-1.71,0.08c-0.68,0-1.24-0.03-1.7-0.08c-0.46-0.05-0.82-0.12-1.09-0.21c-0.27-0.09-0.46-0.2-0.57-0.33
	c-0.12-0.14-0.18-0.29-0.18-0.46V9.71c0-0.17,0.06-0.33,0.18-0.46c0.12-0.14,0.31-0.25,0.59-0.33c0.28-0.09,0.64-0.15,1.08-0.21
	c0.45-0.05,1.01-0.08,1.69-0.08c0.7,0,1.27,0.03,1.71,0.08c0.45,0.05,0.8,0.12,1.07,0.21c0.27,0.09,0.46,0.2,0.58,0.33
	c0.12,0.14,0.17,0.29,0.17,0.46V41.14z"/>
<path d="M185.08,32.09c0,1.75-0.34,3.28-1.02,4.6c-0.68,1.32-1.6,2.42-2.76,3.31c-1.16,0.88-2.52,1.55-4.07,1.99
	c-1.55,0.45-3.21,0.67-4.98,0.67c-1.19,0-2.31-0.09-3.33-0.28c-1.03-0.19-1.93-0.42-2.72-0.68c-0.79-0.27-1.44-0.54-1.97-0.84
	c-0.53-0.29-0.91-0.55-1.14-0.77c-0.23-0.22-0.4-0.54-0.5-0.96c-0.1-0.42-0.15-1.02-0.15-1.81c0-0.53,0.02-0.98,0.05-1.34
	c0.04-0.36,0.09-0.65,0.18-0.87c0.08-0.22,0.19-0.38,0.32-0.48c0.13-0.09,0.29-0.14,0.47-0.14c0.25,0,0.6,0.14,1.06,0.42
	c0.46,0.28,1.04,0.6,1.75,0.94c0.71,0.34,1.57,0.66,2.56,0.94c0.99,0.28,2.14,0.42,3.44,0.42c0.86,0,1.62-0.1,2.3-0.3
	c0.68-0.2,1.25-0.48,1.73-0.84s0.83-0.81,1.08-1.34c0.25-0.53,0.38-1.12,0.38-1.77c0-0.75-0.21-1.4-0.64-1.94
	c-0.43-0.54-0.99-1.02-1.67-1.44c-0.69-0.42-1.47-0.81-2.34-1.18c-0.87-0.37-1.78-0.76-2.7-1.17c-0.93-0.41-1.83-0.88-2.7-1.4
	c-0.88-0.52-1.66-1.15-2.34-1.88c-0.69-0.73-1.25-1.59-1.67-2.59c-0.43-0.99-0.64-2.19-0.64-3.57c0-1.59,0.31-3,0.92-4.21
	c0.61-1.21,1.45-2.21,2.49-3.01c1.04-0.8,2.28-1.39,3.69-1.79c1.42-0.39,2.92-0.59,4.51-0.59c0.82,0,1.64,0.06,2.46,0.18
	c0.82,0.12,1.59,0.28,2.3,0.49c0.71,0.21,1.35,0.44,1.9,0.69s0.92,0.47,1.1,0.64c0.18,0.17,0.3,0.32,0.36,0.44
	c0.06,0.12,0.12,0.28,0.16,0.48c0.04,0.2,0.08,0.45,0.09,0.75c0.02,0.3,0.03,0.67,0.03,1.12c0,0.5-0.01,0.92-0.04,1.26
	c-0.03,0.34-0.07,0.63-0.13,0.85c-0.06,0.22-0.15,0.39-0.27,0.49c-0.12,0.1-0.27,0.15-0.47,0.15c-0.2,0-0.51-0.12-0.94-0.36
	c-0.43-0.24-0.95-0.5-1.58-0.78c-0.62-0.28-1.35-0.54-2.17-0.77c-0.82-0.23-1.72-0.35-2.7-0.35c-0.77,0-1.44,0.09-2.01,0.27
	c-0.57,0.18-1.05,0.43-1.43,0.75c-0.38,0.32-0.67,0.7-0.86,1.14c-0.19,0.45-0.28,0.92-0.28,1.41c0,0.74,0.21,1.38,0.63,1.92
	c0.42,0.54,0.98,1.02,1.69,1.44c0.7,0.42,1.5,0.81,2.4,1.18c0.89,0.37,1.8,0.76,2.73,1.17c0.93,0.41,1.84,0.88,2.73,1.4
	c0.89,0.52,1.69,1.15,2.38,1.88c0.7,0.73,1.26,1.59,1.69,2.57C184.87,29.59,185.08,30.75,185.08,32.09z"/>
<path d="M219.02,39.7c0,0.39-0.07,0.75-0.21,1.05c-0.14,0.31-0.33,0.57-0.58,0.77c-0.24,0.21-0.53,0.36-0.86,0.45
	c-0.33,0.09-0.66,0.14-1,0.14h-3c-0.62,0-1.16-0.06-1.62-0.18c-0.45-0.12-0.87-0.34-1.26-0.66c-0.38-0.32-0.75-0.75-1.11-1.29
	c-0.36-0.54-0.76-1.24-1.2-2.1l-8.62-15.56c-0.5-0.93-1.01-1.92-1.52-3c-0.52-1.07-0.98-2.11-1.39-3.12h-0.05
	c0.07,1.23,0.12,2.46,0.16,3.69c0.04,1.23,0.05,2.49,0.05,3.79v17.41c0,0.17-0.05,0.33-0.15,0.46c-0.1,0.14-0.27,0.25-0.51,0.35
	c-0.24,0.09-0.57,0.17-0.98,0.22c-0.41,0.05-0.94,0.08-1.58,0.08c-0.62,0-1.14-0.03-1.55-0.08c-0.41-0.05-0.73-0.12-0.96-0.22
	c-0.23-0.09-0.39-0.21-0.48-0.35c-0.09-0.14-0.13-0.29-0.13-0.46V11.2c0-0.81,0.25-1.41,0.74-1.81c0.49-0.4,1.09-0.6,1.81-0.6h3.77
	c0.68,0,1.25,0.06,1.71,0.17c0.46,0.11,0.88,0.3,1.25,0.55c0.36,0.26,0.71,0.61,1.03,1.07c0.32,0.45,0.65,1.02,0.99,1.68l6.74,12.16
	c0.39,0.74,0.78,1.46,1.16,2.17c0.38,0.71,0.75,1.42,1.11,2.14c0.36,0.71,0.7,1.41,1.04,2.1c0.34,0.69,0.67,1.37,0.99,2.06h0.03
	c-0.05-1.2-0.09-2.45-0.12-3.75c-0.03-1.3-0.04-2.55-0.04-3.73V9.79c0-0.17,0.05-0.33,0.16-0.46c0.11-0.14,0.29-0.26,0.54-0.36
	c0.25-0.1,0.58-0.18,0.99-0.22c0.41-0.04,0.94-0.06,1.58-0.06c0.61,0,1.12,0.02,1.53,0.06c0.41,0.04,0.73,0.12,0.95,0.22
	c0.22,0.1,0.38,0.22,0.47,0.36c0.09,0.14,0.13,0.29,0.13,0.46V39.7z"/>
<path d="M254.94,39.55c0.21,0.62,0.35,1.11,0.4,1.47s-0.02,0.63-0.21,0.81c-0.2,0.18-0.54,0.29-1.04,0.34
	c-0.5,0.04-1.19,0.06-2.06,0.06c-0.91,0-1.62-0.01-2.13-0.04c-0.51-0.03-0.9-0.08-1.16-0.15c-0.27-0.08-0.45-0.18-0.56-0.32
	c-0.11-0.14-0.2-0.32-0.27-0.54l-8.86-25l-6.48,18.31l-2.19,6.51c-0.07,0.24-0.17,0.44-0.28,0.6c-0.12,0.16-0.3,0.29-0.56,0.39
	c-0.26,0.09-0.62,0.16-1.1,0.19c-0.47,0.03-1.09,0.05-1.86,0.05c-0.82,0-1.46-0.03-1.93-0.08c-0.46-0.05-0.78-0.18-0.96-0.37
	c-0.18-0.2-0.24-0.48-0.19-0.84s0.19-0.84,0.4-1.44l10.68-29.53c0.11-0.29,0.23-0.53,0.37-0.71c0.14-0.18,0.37-0.32,0.68-0.41
	c0.31-0.09,0.75-0.15,1.3-0.18c0.55-0.03,1.28-0.04,2.19-0.04c1.05,0,1.89,0.01,2.52,0.04c0.62,0.03,1.11,0.09,1.46,0.18
	c0.35,0.09,0.6,0.24,0.75,0.42c0.15,0.19,0.28,0.45,0.39,0.77L254.94,39.55z M239.04,15.14h-0.03"/>
<path d="M280.31,32.09c0,1.75-0.34,3.28-1.02,4.6c-0.68,1.32-1.6,2.42-2.76,3.31c-1.16,0.88-2.52,1.55-4.07,1.99
	c-1.55,0.45-3.21,0.67-4.98,0.67c-1.19,0-2.31-0.09-3.33-0.28c-1.03-0.19-1.93-0.42-2.72-0.68c-0.79-0.27-1.44-0.54-1.97-0.84
	c-0.53-0.29-0.91-0.55-1.14-0.77c-0.23-0.22-0.4-0.54-0.5-0.96c-0.1-0.42-0.15-1.02-0.15-1.81c0-0.53,0.02-0.98,0.05-1.34
	c0.04-0.36,0.09-0.65,0.18-0.87c0.08-0.22,0.19-0.38,0.32-0.48c0.13-0.09,0.29-0.14,0.47-0.14c0.25,0,0.6,0.14,1.06,0.42
	c0.46,0.28,1.04,0.6,1.75,0.94c0.71,0.34,1.57,0.66,2.56,0.94c0.99,0.28,2.14,0.42,3.44,0.42c0.86,0,1.62-0.1,2.3-0.3
	c0.68-0.2,1.25-0.48,1.73-0.84c0.47-0.36,0.83-0.81,1.08-1.34c0.25-0.53,0.38-1.12,0.38-1.77c0-0.75-0.21-1.4-0.64-1.94
	c-0.43-0.54-0.99-1.02-1.67-1.44c-0.69-0.42-1.47-0.81-2.34-1.18c-0.87-0.37-1.78-0.76-2.7-1.17c-0.93-0.41-1.83-0.88-2.7-1.4
	c-0.88-0.52-1.66-1.15-2.34-1.88c-0.69-0.73-1.25-1.59-1.67-2.59c-0.43-0.99-0.64-2.19-0.64-3.57c0-1.59,0.31-3,0.92-4.21
	c0.61-1.21,1.45-2.21,2.49-3.01c1.04-0.8,2.28-1.39,3.69-1.79c1.42-0.39,2.92-0.59,4.51-0.59c0.82,0,1.64,0.06,2.46,0.18
	c0.82,0.12,1.59,0.28,2.3,0.49c0.71,0.21,1.35,0.44,1.9,0.69c0.55,0.26,0.92,0.47,1.1,0.64c0.18,0.17,0.3,0.32,0.36,0.44
	c0.06,0.12,0.12,0.28,0.16,0.48c0.04,0.2,0.08,0.45,0.09,0.75c0.02,0.3,0.03,0.67,0.03,1.12c0,0.5-0.01,0.92-0.04,1.26
	c-0.03,0.34-0.07,0.63-0.13,0.85c-0.06,0.22-0.15,0.39-0.27,0.49c-0.12,0.1-0.27,0.15-0.47,0.15c-0.2,0-0.51-0.12-0.94-0.36
	c-0.43-0.24-0.95-0.5-1.58-0.78c-0.62-0.28-1.35-0.54-2.17-0.77c-0.82-0.23-1.72-0.35-2.7-0.35c-0.77,0-1.44,0.09-2.01,0.27
	c-0.57,0.18-1.05,0.43-1.43,0.75c-0.38,0.32-0.67,0.7-0.86,1.14c-0.19,0.45-0.28,0.92-0.28,1.41c0,0.74,0.21,1.38,0.63,1.92
	c0.42,0.54,0.98,1.02,1.69,1.44c0.7,0.42,1.5,0.81,2.4,1.18c0.89,0.37,1.8,0.76,2.73,1.17c0.93,0.41,1.84,0.88,2.73,1.4
	c0.89,0.52,1.69,1.15,2.38,1.88c0.7,0.73,1.26,1.59,1.69,2.57C280.09,29.59,280.31,30.75,280.31,32.09z"/>
<path d="M306.22,32.09c0,1.75-0.34,3.28-1.02,4.6c-0.68,1.32-1.6,2.42-2.76,3.31c-1.16,0.88-2.52,1.55-4.07,1.99
	c-1.55,0.45-3.21,0.67-4.98,0.67c-1.19,0-2.31-0.09-3.33-0.28c-1.03-0.19-1.93-0.42-2.72-0.68c-0.79-0.27-1.44-0.54-1.97-0.84
	c-0.53-0.29-0.91-0.55-1.14-0.77c-0.23-0.22-0.4-0.54-0.5-0.96c-0.1-0.42-0.15-1.02-0.15-1.81c0-0.53,0.02-0.98,0.05-1.34
	c0.04-0.36,0.09-0.65,0.18-0.87c0.08-0.22,0.19-0.38,0.32-0.48c0.13-0.09,0.29-0.14,0.47-0.14c0.25,0,0.6,0.14,1.06,0.42
	c0.46,0.28,1.04,0.6,1.75,0.94c0.71,0.34,1.57,0.66,2.56,0.94c0.99,0.28,2.14,0.42,3.44,0.42c0.86,0,1.62-0.1,2.3-0.3
	c0.68-0.2,1.25-0.48,1.73-0.84c0.47-0.36,0.83-0.81,1.08-1.34c0.25-0.53,0.38-1.12,0.38-1.77c0-0.75-0.21-1.4-0.64-1.94
	c-0.43-0.54-0.99-1.02-1.67-1.44c-0.69-0.42-1.47-0.81-2.34-1.18c-0.87-0.37-1.78-0.76-2.7-1.17c-0.93-0.41-1.83-0.88-2.7-1.4
	c-0.88-0.52-1.66-1.15-2.34-1.88c-0.69-0.73-1.25-1.59-1.67-2.59c-0.43-0.99-0.64-2.19-0.64-3.57c0-1.59,0.31-3,0.92-4.21
	c0.61-1.21,1.45-2.21,2.49-3.01c1.04-0.8,2.28-1.39,3.69-1.79c1.42-0.39,2.92-0.59,4.51-0.59c0.82,0,1.64,0.06,2.46,0.18
	c0.82,0.12,1.59,0.28,2.3,0.49c0.71,0.21,1.35,0.44,1.9,0.69s0.92,0.47,1.1,0.64c0.18,0.17,0.3,0.32,0.36,0.44
	c0.06,0.12,0.12,0.28,0.16,0.48c0.04,0.2,0.08,0.45,0.09,0.75c0.02,0.3,0.03,0.67,0.03,1.12c0,0.5-0.01,0.92-0.04,1.26
	c-0.03,0.34-0.07,0.63-0.13,0.85c-0.06,0.22-0.15,0.39-0.27,0.49c-0.12,0.1-0.27,0.15-0.47,0.15c-0.2,0-0.51-0.12-0.94-0.36
	c-0.43-0.24-0.95-0.5-1.58-0.78c-0.62-0.28-1.35-0.54-2.17-0.77c-0.82-0.23-1.72-0.35-2.7-0.35c-0.77,0-1.44,0.09-2.01,0.27
	c-0.57,0.18-1.05,0.43-1.43,0.75c-0.38,0.32-0.67,0.7-0.86,1.14c-0.19,0.45-0.28,0.92-0.28,1.41c0,0.74,0.21,1.38,0.63,1.92
	c0.42,0.54,0.98,1.02,1.69,1.44c0.7,0.42,1.5,0.81,2.4,1.18c0.89,0.37,1.8,0.76,2.73,1.17c0.93,0.41,1.84,0.88,2.73,1.4
	c0.89,0.52,1.69,1.15,2.38,1.88c0.7,0.73,1.26,1.59,1.69,2.57C306,29.59,306.22,30.75,306.22,32.09z"/>
</svg>
