<?xml version="1.0" encoding="UTF-8"?> <svg xmlns="http://www.w3.org/2000/svg" width="493" height="380" viewBox="0 0 493 380" fill="none"><g clip-path="url(#clip0_1526_3757)"><path d="M444.407 302.432L329.037 240.366L255.78 200.955C249.005 197.307 240.573 197.307 233.798 200.955L-99 380H-87.2722L236.73 205.687C241.696 203.007 247.882 203.007 252.848 205.687L276.458 218.392L200.592 259.203C164.749 278.484 145.011 305.281 145.011 334.641C145.011 349.961 150.37 365.321 160.485 379.987H167.513C156.655 365.321 150.875 349.922 150.875 334.641C150.875 307.307 169.575 282.196 203.524 263.935L282.322 221.543L369.607 268.497L332.488 288.484L313.746 278.406L310.393 280.209L329.135 290.288L299.802 306.092L281.032 295.987L277.679 297.791L296.463 307.896L266.765 323.896L248.149 313.883L244.796 315.687L263.412 325.7L222.266 347.856L248.079 361.739C239.858 366.968 234.331 373.216 231.918 380H238.203C240.798 374.406 246.129 369.203 253.802 364.824L282.028 380H293.755L259.849 361.752C272.208 356.249 287.386 353.49 302.593 353.49C319.764 353.49 336.935 357.007 350.01 364.039C358.441 368.575 364.22 374.066 366.97 380H373.255C370.449 372.144 363.477 364.968 352.942 359.307C325.698 344.654 281.677 344.392 253.816 358.51L234.008 347.856L375.485 271.673L519.824 349.321L462.841 380.013H474.555L485.539 374.105L496.523 380.013H503.215L488.878 372.301L525.688 352.484L576.878 380.026H588.606L444.435 302.471L444.407 302.432Z" fill="#FFEECC"></path><path d="M418.048 366.574C418.539 366.836 418.539 367.267 418.048 367.529C417.557 367.79 416.757 367.79 416.266 367.529C415.775 367.267 415.775 366.836 416.266 366.574C416.757 366.313 417.557 366.313 418.048 366.574Z" fill="black"></path><path d="M422.719 364.065C423.21 364.326 423.21 364.758 422.719 365.019C422.228 365.28 421.429 365.28 420.938 365.019C420.447 364.758 420.447 364.326 420.938 364.065C421.429 363.803 422.228 363.803 422.719 364.065Z" fill="black"></path><path d="M427.377 361.555C427.868 361.816 427.868 362.248 427.377 362.509C426.886 362.771 426.086 362.771 425.595 362.509C425.104 362.248 425.104 361.816 425.595 361.555C426.086 361.294 426.886 361.294 427.377 361.555Z" fill="black"></path><path d="M432.048 359.045C432.539 359.307 432.539 359.738 432.048 359.999C431.557 360.261 430.757 360.261 430.266 359.999C429.775 359.738 429.775 359.307 430.266 359.045C430.757 358.784 431.557 358.784 432.048 359.045Z" fill="black"></path><path d="M436.706 356.535C437.197 356.797 437.197 357.228 436.706 357.49C436.215 357.751 435.415 357.751 434.924 357.49C434.433 357.228 434.433 356.797 434.924 356.535C435.415 356.274 436.215 356.274 436.706 356.535Z" fill="black"></path><path d="M441.377 354.026C441.868 354.287 441.868 354.718 441.377 354.98C440.886 355.241 440.087 355.241 439.596 354.98C439.105 354.718 439.105 354.287 439.596 354.026C440.087 353.764 440.886 353.764 441.377 354.026Z" fill="black"></path><path d="M446.035 351.516C446.526 351.777 446.526 352.209 446.035 352.47C445.544 352.732 444.744 352.732 444.253 352.47C443.762 352.209 443.762 351.777 444.253 351.516C444.744 351.254 445.544 351.254 446.035 351.516Z" fill="black"></path><path d="M450.706 349.006C451.197 349.268 451.197 349.699 450.706 349.96C450.215 350.222 449.415 350.222 448.924 349.96C448.433 349.699 448.433 349.268 448.924 349.006C449.415 348.745 450.215 348.745 450.706 349.006Z" fill="black"></path><path d="M455.364 346.496C455.855 346.758 455.855 347.189 455.364 347.451C454.873 347.712 454.073 347.712 453.582 347.451C453.091 347.189 453.091 346.758 453.582 346.496C454.073 346.235 454.873 346.235 455.364 346.496Z" fill="black"></path><path d="M460.035 343.987C460.526 344.248 460.526 344.679 460.035 344.941C459.544 345.202 458.744 345.202 458.253 344.941C457.762 344.679 457.762 344.248 458.253 343.987C458.744 343.725 459.544 343.725 460.035 343.987Z" fill="black"></path><path d="M408.719 366.574C409.21 366.836 409.21 367.267 408.719 367.529C408.228 367.79 407.428 367.79 406.937 367.529C406.446 367.267 406.446 366.836 406.937 366.574C407.428 366.313 408.228 366.313 408.719 366.574Z" fill="black"></path><path d="M413.376 364.065C413.867 364.326 413.867 364.758 413.376 365.019C412.885 365.28 412.086 365.28 411.595 365.019C411.104 364.758 411.104 364.326 411.595 364.065C412.086 363.803 412.885 363.803 413.376 364.065Z" fill="black"></path><path d="M418.048 361.555C418.539 361.816 418.539 362.248 418.048 362.509C417.557 362.771 416.757 362.771 416.266 362.509C415.775 362.248 415.775 361.816 416.266 361.555C416.757 361.294 417.557 361.294 418.048 361.555Z" fill="black"></path><path d="M422.719 359.045C423.21 359.307 423.21 359.738 422.719 359.999C422.228 360.261 421.429 360.261 420.938 359.999C420.447 359.738 420.447 359.307 420.938 359.045C421.429 358.784 422.228 358.784 422.719 359.045Z" fill="black"></path><path d="M427.377 356.535C427.868 356.797 427.868 357.228 427.377 357.49C426.886 357.751 426.086 357.751 425.595 357.49C425.104 357.228 425.104 356.797 425.595 356.535C426.086 356.274 426.886 356.274 427.377 356.535Z" fill="black"></path><path d="M432.048 354.026C432.539 354.287 432.539 354.718 432.048 354.98C431.557 355.241 430.757 355.241 430.266 354.98C429.775 354.718 429.775 354.287 430.266 354.026C430.757 353.764 431.557 353.764 432.048 354.026Z" fill="black"></path><path d="M436.706 351.516C437.197 351.777 437.197 352.209 436.706 352.47C436.215 352.732 435.415 352.732 434.924 352.47C434.433 352.209 434.433 351.777 434.924 351.516C435.415 351.254 436.215 351.254 436.706 351.516Z" fill="black"></path><path d="M441.377 349.006C441.868 349.268 441.868 349.699 441.377 349.96C440.886 350.222 440.087 350.222 439.596 349.96C439.105 349.699 439.105 349.268 439.596 349.006C440.087 348.745 440.886 348.745 441.377 349.006Z" fill="black"></path><path d="M446.035 346.496C446.526 346.758 446.526 347.189 446.035 347.451C445.544 347.712 444.744 347.712 444.253 347.451C443.762 347.189 443.762 346.758 444.253 346.496C444.744 346.235 445.544 346.235 446.035 346.496Z" fill="black"></path><path d="M450.706 343.987C451.197 344.248 451.197 344.679 450.706 344.941C450.215 345.202 449.415 345.202 448.924 344.941C448.433 344.679 448.433 344.248 448.924 343.987C449.415 343.725 450.215 343.725 450.706 343.987Z" fill="black"></path><path d="M455.364 341.477C455.855 341.738 455.855 342.17 455.364 342.431C454.873 342.693 454.073 342.693 453.582 342.431C453.091 342.17 453.091 341.738 453.582 341.477C454.073 341.215 454.873 341.215 455.364 341.477Z" fill="black"></path><path d="M404.047 364.065C404.538 364.326 404.538 364.758 404.047 365.019C403.556 365.28 402.757 365.28 402.266 365.019C401.775 364.758 401.775 364.326 402.266 364.065C402.757 363.803 403.556 363.803 404.047 364.065Z" fill="black"></path><path d="M408.719 361.555C409.21 361.816 409.21 362.248 408.719 362.509C408.228 362.771 407.428 362.771 406.937 362.509C406.446 362.248 406.446 361.816 406.937 361.555C407.428 361.294 408.228 361.294 408.719 361.555Z" fill="black"></path><path d="M413.39 359.045C413.881 359.307 413.881 359.738 413.39 359.999C412.899 360.261 412.1 360.261 411.609 359.999C411.118 359.738 411.118 359.307 411.609 359.045C412.1 358.784 412.899 358.784 413.39 359.045Z" fill="black"></path><path d="M418.048 356.535C418.539 356.797 418.539 357.228 418.048 357.49C417.557 357.751 416.757 357.751 416.266 357.49C415.775 357.228 415.775 356.797 416.266 356.535C416.757 356.274 417.557 356.274 418.048 356.535Z" fill="black"></path><path d="M422.719 354.026C423.21 354.287 423.21 354.718 422.719 354.98C422.228 355.241 421.429 355.241 420.938 354.98C420.447 354.718 420.447 354.287 420.938 354.026C421.429 353.764 422.228 353.764 422.719 354.026Z" fill="black"></path><path d="M427.377 351.516C427.868 351.777 427.868 352.209 427.377 352.47C426.886 352.732 426.086 352.732 425.595 352.47C425.104 352.209 425.104 351.777 425.595 351.516C426.086 351.254 426.886 351.254 427.377 351.516Z" fill="black"></path><path d="M432.048 349.006C432.539 349.268 432.539 349.699 432.048 349.96C431.557 350.222 430.757 350.222 430.266 349.96C429.775 349.699 429.775 349.268 430.266 349.006C430.757 348.745 431.557 348.745 432.048 349.006Z" fill="black"></path><path d="M436.706 346.496C437.197 346.758 437.197 347.189 436.706 347.451C436.215 347.712 435.415 347.712 434.924 347.451C434.433 347.189 434.433 346.758 434.924 346.496C435.415 346.235 436.215 346.235 436.706 346.496Z" fill="black"></path><path d="M441.377 343.987C441.868 344.248 441.868 344.679 441.377 344.941C440.886 345.202 440.087 345.202 439.596 344.941C439.105 344.679 439.105 344.248 439.596 343.987C440.087 343.725 440.886 343.725 441.377 343.987Z" fill="black"></path><path d="M446.035 341.477C446.526 341.738 446.526 342.17 446.035 342.431C445.544 342.693 444.744 342.693 444.253 342.431C443.762 342.17 443.762 341.738 444.253 341.477C444.744 341.215 445.544 341.215 446.035 341.477Z" fill="black"></path><path d="M450.706 338.967C451.197 339.229 451.197 339.66 450.706 339.921C450.215 340.183 449.415 340.183 448.924 339.921C448.433 339.66 448.433 339.229 448.924 338.967C449.415 338.706 450.215 338.706 450.706 338.967Z" fill="black"></path><path d="M399.39 361.555C399.881 361.816 399.881 362.248 399.39 362.509C398.899 362.771 398.099 362.771 397.608 362.509C397.117 362.248 397.117 361.816 397.608 361.555C398.099 361.294 398.899 361.294 399.39 361.555Z" fill="black"></path><path d="M404.047 359.045C404.538 359.307 404.538 359.738 404.047 359.999C403.556 360.261 402.757 360.261 402.266 359.999C401.775 359.738 401.775 359.307 402.266 359.045C402.757 358.784 403.556 358.784 404.047 359.045Z" fill="black"></path><path d="M413.39 354.026C413.881 354.287 413.881 354.718 413.39 354.98C412.899 355.241 412.1 355.241 411.609 354.98C411.118 354.718 411.118 354.287 411.609 354.026C412.1 353.764 412.899 353.764 413.39 354.026Z" fill="black"></path><path d="M418.048 351.516C418.539 351.777 418.539 352.209 418.048 352.47C417.557 352.732 416.757 352.732 416.266 352.47C415.775 352.209 415.775 351.777 416.266 351.516C416.757 351.254 417.557 351.254 418.048 351.516Z" fill="black"></path><path d="M422.719 349.006C423.21 349.268 423.21 349.699 422.719 349.96C422.228 350.222 421.429 350.222 420.938 349.96C420.447 349.699 420.447 349.268 420.938 349.006C421.429 348.745 422.228 348.745 422.719 349.006Z" fill="black"></path><path d="M427.377 346.496C427.868 346.758 427.868 347.189 427.377 347.451C426.886 347.712 426.086 347.712 425.595 347.451C425.104 347.189 425.104 346.758 425.595 346.496C426.086 346.235 426.886 346.235 427.377 346.496Z" fill="black"></path><path d="M432.048 343.987C432.539 344.248 432.539 344.679 432.048 344.941C431.557 345.202 430.757 345.202 430.266 344.941C429.775 344.679 429.775 344.248 430.266 343.987C430.757 343.725 431.557 343.725 432.048 343.987Z" fill="black"></path><path d="M436.706 341.477C437.197 341.738 437.197 342.17 436.706 342.431C436.215 342.693 435.415 342.693 434.924 342.431C434.433 342.17 434.433 341.738 434.924 341.477C435.415 341.215 436.215 341.215 436.706 341.477Z" fill="black"></path><path d="M441.377 338.967C441.868 339.229 441.868 339.66 441.377 339.921C440.886 340.183 440.087 340.183 439.596 339.921C439.105 339.66 439.105 339.229 439.596 338.967C440.087 338.706 440.886 338.706 441.377 338.967Z" fill="black"></path><path d="M446.035 336.457C446.526 336.719 446.526 337.15 446.035 337.412C445.544 337.673 444.744 337.673 444.253 337.412C443.762 337.15 443.762 336.719 444.253 336.457C444.744 336.196 445.544 336.196 446.035 336.457Z" fill="black"></path><path d="M394.676 359.019C395.167 359.281 395.167 359.712 394.676 359.974C394.185 360.235 393.386 360.235 392.895 359.974C392.404 359.712 392.404 359.281 392.895 359.019C393.386 358.758 394.185 358.758 394.676 359.019Z" fill="black"></path><path d="M399.348 356.51C399.839 356.771 399.839 357.202 399.348 357.464C398.857 357.725 398.057 357.725 397.566 357.464C397.075 357.202 397.075 356.771 397.566 356.51C398.057 356.248 398.857 356.248 399.348 356.51Z" fill="black"></path><path d="M404.019 354C404.51 354.261 404.51 354.693 404.019 354.954C403.528 355.215 402.729 355.215 402.238 354.954C401.747 354.693 401.747 354.261 402.238 354C402.729 353.738 403.528 353.738 404.019 354Z" fill="black"></path><path d="M408.677 351.49C409.168 351.751 409.168 352.183 408.677 352.444C408.186 352.706 407.386 352.706 406.895 352.444C406.404 352.183 406.404 351.751 406.895 351.49C407.386 351.229 408.186 351.229 408.677 351.49Z" fill="black"></path><path d="M413.348 348.98C413.839 349.241 413.839 349.673 413.348 349.934C412.857 350.195 412.057 350.195 411.566 349.934C411.075 349.673 411.075 349.241 411.566 348.98C412.057 348.718 412.857 348.718 413.348 348.98Z" fill="black"></path><path d="M418.006 346.47C418.497 346.731 418.497 347.163 418.006 347.424C417.515 347.686 416.715 347.686 416.224 347.424C415.733 347.163 415.733 346.731 416.224 346.47C416.715 346.209 417.515 346.209 418.006 346.47Z" fill="black"></path><path d="M422.677 343.96C423.168 344.222 423.168 344.653 422.677 344.914C422.186 345.176 421.387 345.176 420.896 344.914C420.405 344.653 420.405 344.222 420.896 343.96C421.387 343.699 422.186 343.699 422.677 343.96Z" fill="black"></path><path d="M427.335 341.45C427.826 341.712 427.826 342.143 427.335 342.405C426.844 342.666 426.044 342.666 425.553 342.405C425.062 342.143 425.062 341.712 425.553 341.45C426.044 341.189 426.844 341.189 427.335 341.45Z" fill="black"></path><path d="M432.006 338.941C432.497 339.202 432.497 339.633 432.006 339.895C431.515 340.156 430.715 340.156 430.224 339.895C429.733 339.633 429.733 339.202 430.224 338.941C430.715 338.679 431.515 338.679 432.006 338.941Z" fill="black"></path><path d="M436.664 336.431C437.155 336.692 437.155 337.124 436.664 337.385C436.173 337.647 435.373 337.647 434.882 337.385C434.391 337.124 434.391 336.692 434.882 336.431C435.373 336.17 436.173 336.17 436.664 336.431Z" fill="black"></path><path d="M441.335 333.921C441.826 334.183 441.826 334.614 441.335 334.875C440.844 335.137 440.044 335.137 439.553 334.875C439.062 334.614 439.062 334.183 439.553 333.921C440.044 333.66 440.844 333.66 441.335 333.921V333.921Z" fill="black"></path><path d="M390.019 356.51C390.51 356.771 390.51 357.202 390.019 357.464C389.528 357.725 388.728 357.725 388.237 357.464C387.746 357.202 387.746 356.771 388.237 356.51C388.728 356.248 389.528 356.248 390.019 356.51Z" fill="black"></path><path d="M394.676 354C395.167 354.261 395.167 354.693 394.676 354.954C394.185 355.215 393.386 355.215 392.895 354.954C392.404 354.693 392.404 354.261 392.895 354C393.386 353.738 394.185 353.738 394.676 354Z" fill="black"></path><path d="M399.348 351.49C399.839 351.751 399.839 352.183 399.348 352.444C398.857 352.706 398.057 352.706 397.566 352.444C397.075 352.183 397.075 351.751 397.566 351.49C398.057 351.229 398.857 351.229 399.348 351.49Z" fill="black"></path><path d="M404.019 348.98C404.51 349.241 404.51 349.673 404.019 349.934C403.528 350.195 402.729 350.195 402.238 349.934C401.747 349.673 401.747 349.241 402.238 348.98C402.729 348.718 403.528 348.718 404.019 348.98Z" fill="black"></path><path d="M408.677 346.47C409.168 346.731 409.168 347.163 408.677 347.424C408.186 347.686 407.386 347.686 406.895 347.424C406.404 347.163 406.404 346.731 406.895 346.47C407.386 346.209 408.186 346.209 408.677 346.47Z" fill="black"></path><path d="M413.348 343.96C413.839 344.222 413.839 344.653 413.348 344.914C412.857 345.176 412.057 345.176 411.566 344.914C411.075 344.653 411.075 344.222 411.566 343.96C412.057 343.699 412.857 343.699 413.348 343.96Z" fill="black"></path><path d="M418.006 341.45C418.497 341.712 418.497 342.143 418.006 342.405C417.515 342.666 416.715 342.666 416.224 342.405C415.733 342.143 415.733 341.712 416.224 341.45C416.715 341.189 417.515 341.189 418.006 341.45Z" fill="black"></path><path d="M422.677 338.941C423.168 339.202 423.168 339.633 422.677 339.895C422.186 340.156 421.387 340.156 420.896 339.895C420.405 339.633 420.405 339.202 420.896 338.941C421.387 338.679 422.186 338.679 422.677 338.941Z" fill="black"></path><path d="M427.335 336.431C427.826 336.692 427.826 337.124 427.335 337.385C426.844 337.647 426.044 337.647 425.553 337.385C425.062 337.124 425.062 336.692 425.553 336.431C426.044 336.17 426.844 336.17 427.335 336.431Z" fill="black"></path><path d="M432.006 333.921C432.497 334.183 432.497 334.614 432.006 334.875C431.515 335.137 430.715 335.137 430.224 334.875C429.733 334.614 429.733 334.183 430.224 333.921C430.715 333.66 431.515 333.66 432.006 333.921V333.921Z" fill="black"></path><path d="M436.664 331.411C437.155 331.673 437.155 332.104 436.664 332.366C436.173 332.627 435.373 332.627 434.882 332.366C434.391 332.104 434.391 331.673 434.882 331.411C435.373 331.15 436.173 331.15 436.664 331.411Z" fill="black"></path><path d="M385.347 354C385.838 354.261 385.838 354.693 385.347 354.954C384.856 355.215 384.057 355.215 383.566 354.954C383.075 354.693 383.075 354.261 383.566 354C384.057 353.738 384.856 353.738 385.347 354Z" fill="black"></path><path d="M390.019 351.49C390.51 351.751 390.51 352.183 390.019 352.444C389.528 352.706 388.728 352.706 388.237 352.444C387.746 352.183 387.746 351.751 388.237 351.49C388.728 351.229 389.528 351.229 390.019 351.49Z" fill="black"></path><path d="M394.676 348.98C395.167 349.241 395.167 349.673 394.676 349.934C394.185 350.195 393.386 350.195 392.895 349.934C392.404 349.673 392.404 349.241 392.895 348.98C393.386 348.718 394.185 348.718 394.676 348.98Z" fill="black"></path><path d="M399.348 346.47C399.839 346.731 399.839 347.163 399.348 347.424C398.857 347.686 398.057 347.686 397.566 347.424C397.075 347.163 397.075 346.731 397.566 346.47C398.057 346.209 398.857 346.209 399.348 346.47Z" fill="black"></path><path d="M404.019 343.96C404.51 344.222 404.51 344.653 404.019 344.914C403.528 345.176 402.729 345.176 402.238 344.914C401.747 344.653 401.747 344.222 402.238 343.96C402.729 343.699 403.528 343.699 404.019 343.96Z" fill="black"></path><path d="M408.677 341.45C409.168 341.712 409.168 342.143 408.677 342.405C408.186 342.666 407.386 342.666 406.895 342.405C406.404 342.143 406.404 341.712 406.895 341.45C407.386 341.189 408.186 341.189 408.677 341.45Z" fill="black"></path><path d="M413.348 338.941C413.839 339.202 413.839 339.633 413.348 339.895C412.857 340.156 412.057 340.156 411.566 339.895C411.075 339.633 411.075 339.202 411.566 338.941C412.057 338.679 412.857 338.679 413.348 338.941Z" fill="black"></path><path d="M418.006 336.431C418.497 336.692 418.497 337.124 418.006 337.385C417.515 337.647 416.715 337.647 416.224 337.385C415.733 337.124 415.733 336.692 416.224 336.431C416.715 336.17 417.515 336.17 418.006 336.431Z" fill="black"></path><path d="M422.677 333.921C423.168 334.183 423.168 334.614 422.677 334.875C422.186 335.137 421.387 335.137 420.896 334.875C420.405 334.614 420.405 334.183 420.896 333.921C421.387 333.66 422.186 333.66 422.677 333.921V333.921Z" fill="black"></path><path d="M427.335 331.411C427.826 331.673 427.826 332.104 427.335 332.366C426.844 332.627 426.044 332.627 425.553 332.366C425.062 332.104 425.062 331.673 425.553 331.411C426.044 331.15 426.844 331.15 427.335 331.411Z" fill="black"></path><path d="M432.006 328.902C432.497 329.163 432.497 329.594 432.006 329.856C431.515 330.117 430.715 330.117 430.224 329.856C429.733 329.594 429.733 329.163 430.224 328.902C430.715 328.64 431.515 328.64 432.006 328.902Z" fill="black"></path><path d="M380.69 351.49C381.181 351.751 381.181 352.183 380.69 352.444C380.199 352.706 379.399 352.706 378.908 352.444C378.417 352.183 378.417 351.751 378.908 351.49C379.399 351.229 380.199 351.229 380.69 351.49Z" fill="black"></path><path d="M385.347 348.98C385.838 349.241 385.838 349.673 385.347 349.934C384.856 350.195 384.057 350.195 383.566 349.934C383.075 349.673 383.075 349.241 383.566 348.98C384.057 348.718 384.856 348.718 385.347 348.98Z" fill="black"></path><path d="M390.019 346.47C390.51 346.731 390.51 347.163 390.019 347.424C389.528 347.686 388.728 347.686 388.237 347.424C387.746 347.163 387.746 346.731 388.237 346.47C388.728 346.209 389.528 346.209 390.019 346.47Z" fill="black"></path><path d="M394.676 343.96C395.167 344.222 395.167 344.653 394.676 344.914C394.185 345.176 393.386 345.176 392.895 344.914C392.404 344.653 392.404 344.222 392.895 343.96C393.386 343.699 394.185 343.699 394.676 343.96Z" fill="black"></path><path d="M399.348 341.45C399.839 341.712 399.839 342.143 399.348 342.405C398.857 342.666 398.057 342.666 397.566 342.405C397.075 342.143 397.075 341.712 397.566 341.45C398.057 341.189 398.857 341.189 399.348 341.45Z" fill="black"></path><path d="M404.019 338.941C404.51 339.202 404.51 339.633 404.019 339.895C403.528 340.156 402.729 340.156 402.238 339.895C401.747 339.633 401.747 339.202 402.238 338.941C402.729 338.679 403.528 338.679 404.019 338.941Z" fill="black"></path><path d="M408.677 336.431C409.168 336.692 409.168 337.124 408.677 337.385C408.186 337.647 407.386 337.647 406.895 337.385C406.404 337.124 406.404 336.692 406.895 336.431C407.386 336.17 408.186 336.17 408.677 336.431Z" fill="black"></path><path d="M413.348 333.921C413.839 334.183 413.839 334.614 413.348 334.875C412.857 335.137 412.057 335.137 411.566 334.875C411.075 334.614 411.075 334.183 411.566 333.921C412.057 333.66 412.857 333.66 413.348 333.921V333.921Z" fill="black"></path><path d="M418.006 331.411C418.497 331.673 418.497 332.104 418.006 332.366C417.515 332.627 416.715 332.627 416.224 332.366C415.733 332.104 415.733 331.673 416.224 331.411C416.715 331.15 417.515 331.15 418.006 331.411Z" fill="black"></path><path d="M422.677 328.902C423.168 329.163 423.168 329.594 422.677 329.856C422.186 330.117 421.387 330.117 420.896 329.856C420.405 329.594 420.405 329.163 420.896 328.902C421.387 328.64 422.186 328.64 422.677 328.902Z" fill="black"></path><path d="M427.335 326.392C427.826 326.653 427.826 327.085 427.335 327.346C426.844 327.608 426.044 327.608 425.553 327.346C425.062 327.085 425.062 326.653 425.553 326.392C426.044 326.13 426.844 326.13 427.335 326.392Z" fill="black"></path><path d="M376.018 348.98C376.509 349.241 376.509 349.673 376.018 349.934C375.527 350.195 374.728 350.195 374.237 349.934C373.746 349.673 373.746 349.241 374.237 348.98C374.728 348.718 375.527 348.718 376.018 348.98Z" fill="black"></path><path d="M380.69 346.47C381.181 346.731 381.181 347.163 380.69 347.424C380.199 347.686 379.399 347.686 378.908 347.424C378.417 347.163 378.417 346.731 378.908 346.47C379.399 346.209 380.199 346.209 380.69 346.47Z" fill="black"></path><path d="M385.347 343.96C385.838 344.222 385.838 344.653 385.347 344.914C384.856 345.176 384.057 345.176 383.566 344.914C383.075 344.653 383.075 344.222 383.566 343.96C384.057 343.699 384.856 343.699 385.347 343.96Z" fill="black"></path><path d="M390.019 341.45C390.51 341.712 390.51 342.143 390.019 342.405C389.528 342.666 388.728 342.666 388.237 342.405C387.746 342.143 387.746 341.712 388.237 341.45C388.728 341.189 389.528 341.189 390.019 341.45Z" fill="black"></path><path d="M394.676 338.941C395.167 339.202 395.167 339.633 394.676 339.895C394.185 340.156 393.386 340.156 392.895 339.895C392.404 339.633 392.404 339.202 392.895 338.941C393.386 338.679 394.185 338.679 394.676 338.941Z" fill="black"></path><path d="M399.348 336.431C399.839 336.692 399.839 337.124 399.348 337.385C398.857 337.647 398.057 337.647 397.566 337.385C397.075 337.124 397.075 336.692 397.566 336.431C398.057 336.17 398.857 336.17 399.348 336.431Z" fill="black"></path><path d="M404.019 333.921C404.51 334.183 404.51 334.614 404.019 334.875C403.528 335.137 402.729 335.137 402.238 334.875C401.747 334.614 401.747 334.183 402.238 333.921C402.729 333.66 403.528 333.66 404.019 333.921V333.921Z" fill="black"></path><path d="M408.677 331.411C409.168 331.673 409.168 332.104 408.677 332.366C408.186 332.627 407.386 332.627 406.895 332.366C406.404 332.104 406.404 331.673 406.895 331.411C407.386 331.15 408.186 331.15 408.677 331.411Z" fill="black"></path><path d="M413.348 328.902C413.839 329.163 413.839 329.594 413.348 329.856C412.857 330.117 412.057 330.117 411.566 329.856C411.075 329.594 411.075 329.163 411.566 328.902C412.057 328.64 412.857 328.64 413.348 328.902Z" fill="black"></path><path d="M418.006 326.392C418.497 326.653 418.497 327.085 418.006 327.346C417.515 327.608 416.715 327.608 416.224 327.346C415.733 327.085 415.733 326.653 416.224 326.392C416.715 326.13 417.515 326.13 418.006 326.392Z" fill="black"></path><path d="M422.677 323.882C423.168 324.144 423.168 324.575 422.677 324.836C422.186 325.098 421.387 325.098 420.896 324.836C420.405 324.575 420.405 324.144 420.896 323.882C421.387 323.621 422.186 323.621 422.677 323.882Z" fill="black"></path><path d="M371.361 346.47C371.852 346.731 371.852 347.163 371.361 347.424C370.87 347.686 370.07 347.686 369.579 347.424C369.088 347.163 369.088 346.731 369.579 346.47C370.07 346.209 370.87 346.209 371.361 346.47Z" fill="black"></path><path d="M376.018 343.96C376.509 344.222 376.509 344.653 376.018 344.914C375.527 345.176 374.728 345.176 374.237 344.914C373.746 344.653 373.746 344.222 374.237 343.96C374.728 343.699 375.527 343.699 376.018 343.96Z" fill="black"></path><path d="M380.69 341.45C381.181 341.712 381.181 342.143 380.69 342.405C380.199 342.666 379.399 342.666 378.908 342.405C378.417 342.143 378.417 341.712 378.908 341.45C379.399 341.189 380.199 341.189 380.69 341.45Z" fill="black"></path><path d="M385.347 338.941C385.838 339.202 385.838 339.633 385.347 339.895C384.856 340.156 384.057 340.156 383.566 339.895C383.075 339.633 383.075 339.202 383.566 338.941C384.057 338.679 384.856 338.679 385.347 338.941Z" fill="black"></path><path d="M390.019 336.431C390.51 336.692 390.51 337.124 390.019 337.385C389.528 337.647 388.728 337.647 388.237 337.385C387.746 337.124 387.746 336.692 388.237 336.431C388.728 336.17 389.528 336.17 390.019 336.431Z" fill="black"></path><path d="M394.676 333.921C395.167 334.183 395.167 334.614 394.676 334.875C394.185 335.137 393.386 335.137 392.895 334.875C392.404 334.614 392.404 334.183 392.895 333.921C393.386 333.66 394.185 333.66 394.676 333.921V333.921Z" fill="black"></path><path d="M399.348 331.411C399.839 331.673 399.839 332.104 399.348 332.366C398.857 332.627 398.057 332.627 397.566 332.366C397.075 332.104 397.075 331.673 397.566 331.411C398.057 331.15 398.857 331.15 399.348 331.411Z" fill="black"></path><path d="M404.019 328.902C404.51 329.163 404.51 329.594 404.019 329.856C403.528 330.117 402.729 330.117 402.238 329.856C401.747 329.594 401.747 329.163 402.238 328.902C402.729 328.64 403.528 328.64 404.019 328.902Z" fill="black"></path><path d="M408.677 326.392C409.168 326.653 409.168 327.085 408.677 327.346C408.186 327.608 407.386 327.608 406.895 327.346C406.404 327.085 406.404 326.653 406.895 326.392C407.386 326.13 408.186 326.13 408.677 326.392Z" fill="black"></path><path d="M413.348 323.882C413.839 324.144 413.839 324.575 413.348 324.836C412.857 325.098 412.057 325.098 411.566 324.836C411.075 324.575 411.075 324.144 411.566 323.882C412.057 323.621 412.857 323.621 413.348 323.882Z" fill="black"></path><path d="M418.006 321.372C418.497 321.634 418.497 322.065 418.006 322.327C417.515 322.588 416.715 322.588 416.224 322.327C415.733 322.065 415.733 321.634 416.224 321.372C416.715 321.111 417.515 321.111 418.006 321.372Z" fill="black"></path><path d="M366.689 343.96C367.18 344.222 367.18 344.653 366.689 344.914C366.198 345.176 365.399 345.176 364.908 344.914C364.417 344.653 364.417 344.222 364.908 343.96C365.399 343.699 366.198 343.699 366.689 343.96Z" fill="black"></path><path d="M371.361 341.45C371.852 341.712 371.852 342.143 371.361 342.405C370.87 342.666 370.07 342.666 369.579 342.405C369.088 342.143 369.088 341.712 369.579 341.45C370.07 341.189 370.87 341.189 371.361 341.45Z" fill="black"></path><path d="M376.018 338.941C376.509 339.202 376.509 339.633 376.018 339.895C375.527 340.156 374.728 340.156 374.237 339.895C373.746 339.633 373.746 339.202 374.237 338.941C374.728 338.679 375.527 338.679 376.018 338.941Z" fill="black"></path><path d="M380.69 336.431C381.181 336.692 381.181 337.124 380.69 337.385C380.199 337.647 379.399 337.647 378.908 337.385C378.417 337.124 378.417 336.692 378.908 336.431C379.399 336.17 380.199 336.17 380.69 336.431Z" fill="black"></path><path d="M385.347 333.921C385.838 334.183 385.838 334.614 385.347 334.875C384.856 335.137 384.057 335.137 383.566 334.875C383.075 334.614 383.075 334.183 383.566 333.921C384.057 333.66 384.856 333.66 385.347 333.921V333.921Z" fill="black"></path><path d="M390.019 331.411C390.51 331.673 390.51 332.104 390.019 332.366C389.528 332.627 388.728 332.627 388.237 332.366C387.746 332.104 387.746 331.673 388.237 331.411C388.728 331.15 389.528 331.15 390.019 331.411Z" fill="black"></path><path d="M394.676 328.902C395.167 329.163 395.167 329.594 394.676 329.856C394.185 330.117 393.386 330.117 392.895 329.856C392.404 329.594 392.404 329.163 392.895 328.902C393.386 328.64 394.185 328.64 394.676 328.902Z" fill="black"></path><path d="M399.348 326.392C399.839 326.653 399.839 327.085 399.348 327.346C398.857 327.608 398.057 327.608 397.566 327.346C397.075 327.085 397.075 326.653 397.566 326.392C398.057 326.13 398.857 326.13 399.348 326.392Z" fill="black"></path><path d="M404.019 323.882C404.51 324.144 404.51 324.575 404.019 324.836C403.528 325.098 402.729 325.098 402.238 324.836C401.747 324.575 401.747 324.144 402.238 323.882C402.729 323.621 403.528 323.621 404.019 323.882Z" fill="black"></path><path d="M408.677 321.372C409.168 321.634 409.168 322.065 408.677 322.327C408.186 322.588 407.386 322.588 406.895 322.327C406.404 322.065 406.404 321.634 406.895 321.372C407.386 321.111 408.186 321.111 408.677 321.372Z" fill="black"></path><path d="M413.348 318.862C413.839 319.124 413.839 319.555 413.348 319.816C412.857 320.078 412.057 320.078 411.566 319.816C411.075 319.555 411.075 319.124 411.566 318.862C412.057 318.601 412.857 318.601 413.348 318.862Z" fill="black"></path><path d="M366.689 338.941C367.18 339.202 367.18 339.633 366.689 339.895C366.198 340.156 365.399 340.156 364.908 339.895C364.417 339.633 364.417 339.202 364.908 338.941C365.399 338.679 366.198 338.679 366.689 338.941Z" fill="black"></path><path d="M369.579 337.385C369.088 337.124 369.088 336.692 369.579 336.431C370.07 336.17 370.87 336.17 371.361 336.431C371.852 336.692 371.852 337.124 371.361 337.385C370.87 337.647 370.07 337.647 369.579 337.385C370.07 337.647 369.088 337.124 369.579 337.385Z" fill="black"></path><path d="M376.018 333.921C376.509 334.183 376.509 334.614 376.018 334.875C375.527 335.137 374.728 335.137 374.237 334.875C373.746 334.614 373.746 334.183 374.237 333.921C374.728 333.66 375.527 333.66 376.018 333.921V333.921Z" fill="black"></path><path d="M380.69 331.411C381.181 331.673 381.181 332.104 380.69 332.366C380.199 332.627 379.399 332.627 378.908 332.366C378.417 332.104 378.417 331.673 378.908 331.411C379.399 331.15 380.199 331.15 380.69 331.411Z" fill="black"></path><path d="M385.347 328.902C385.838 329.163 385.838 329.594 385.347 329.856C384.856 330.117 384.057 330.117 383.566 329.856C383.075 329.594 383.075 329.163 383.566 328.902C384.057 328.64 384.856 328.64 385.347 328.902Z" fill="black"></path><path d="M390.019 326.392C390.51 326.653 390.51 327.085 390.019 327.346C389.528 327.608 388.728 327.608 388.237 327.346C387.746 327.085 387.746 326.653 388.237 326.392C388.728 326.13 389.528 326.13 390.019 326.392Z" fill="black"></path><path d="M394.676 323.882C395.167 324.144 395.167 324.575 394.676 324.836C394.185 325.098 393.386 325.098 392.895 324.836C392.404 324.575 392.404 324.144 392.895 323.882C393.386 323.621 394.185 323.621 394.676 323.882Z" fill="black"></path><path d="M399.348 321.372C399.839 321.634 399.839 322.065 399.348 322.327C398.857 322.588 398.057 322.588 397.566 322.327C397.075 322.065 397.075 321.634 397.566 321.372C398.057 321.111 398.857 321.111 399.348 321.372Z" fill="black"></path><path d="M404.019 318.862C404.51 319.124 404.51 319.555 404.019 319.816C403.528 320.078 402.729 320.078 402.238 319.816C401.747 319.555 401.747 319.124 402.238 318.862C402.729 318.601 403.528 318.601 404.019 318.862Z" fill="black"></path><path d="M408.677 316.352C409.168 316.614 409.168 317.045 408.677 317.307C408.186 317.568 407.386 317.568 406.895 317.307C406.404 317.045 406.404 316.614 406.895 316.352C407.386 316.091 408.186 316.091 408.677 316.352Z" fill="black"></path><path d="M371.319 331.385C371.81 331.646 371.81 332.078 371.319 332.339C370.828 332.601 370.028 332.601 369.537 332.339C369.046 332.078 370.828 331.11 371.319 331.385Z" fill="black"></path><path d="M375.976 328.875C376.467 329.137 376.467 329.568 375.976 329.83C375.485 330.091 374.686 330.091 374.195 329.83C373.704 329.568 373.704 329.137 374.195 328.875C374.686 328.614 375.485 328.614 375.976 328.875Z" fill="black"></path><path d="M380.648 326.366C381.139 326.627 381.139 327.058 380.648 327.32C380.157 327.581 379.357 327.581 378.866 327.32C378.375 327.058 378.375 326.627 378.866 326.366C379.357 326.104 380.157 326.104 380.648 326.366Z" fill="black"></path><path d="M385.319 323.856C385.81 324.117 385.81 324.549 385.319 324.81C384.828 325.071 384.029 325.071 383.538 324.81C383.047 324.549 383.047 324.117 383.538 323.856C384.029 323.594 384.828 323.594 385.319 323.856Z" fill="black"></path><path d="M389.977 321.346C390.468 321.607 390.468 322.039 389.977 322.3C389.486 322.562 388.686 322.562 388.195 322.3C387.704 322.039 387.704 321.607 388.195 321.346C388.686 321.085 389.486 321.085 389.977 321.346Z" fill="black"></path><path d="M394.648 318.836C395.139 319.098 395.139 319.529 394.648 319.79C394.157 320.052 393.358 320.052 392.867 319.79C392.376 319.529 392.376 319.098 392.867 318.836C393.358 318.575 394.157 318.575 394.648 318.836Z" fill="black"></path><path d="M399.306 316.326C399.797 316.588 399.797 317.019 399.306 317.281C398.815 317.542 398.015 317.542 397.524 317.281C397.033 317.019 397.033 316.588 397.524 316.326C398.015 316.065 398.815 316.065 399.306 316.326Z" fill="black"></path><path d="M403.977 313.817C404.468 314.078 404.468 314.509 403.977 314.771C403.486 315.032 402.686 315.032 402.195 314.771C401.704 314.509 401.704 314.078 402.195 313.817C402.686 313.555 403.486 313.555 403.977 313.817Z" fill="black"></path><path d="M375.976 323.856C376.467 324.117 376.467 324.548 375.976 324.81C375.485 325.071 374.686 325.071 374.195 324.81C373.704 324.548 375.485 323.581 375.976 323.856Z" fill="black"></path><path d="M380.648 321.346C381.139 321.607 381.139 322.039 380.648 322.3C380.157 322.562 379.357 322.562 378.866 322.3C378.375 322.039 378.375 321.607 378.866 321.346C379.357 321.085 380.157 321.085 380.648 321.346Z" fill="black"></path><path d="M385.319 318.836C385.81 319.098 385.81 319.529 385.319 319.79C384.828 320.052 384.029 320.052 383.538 319.79C383.047 319.529 383.047 319.098 383.538 318.836C384.029 318.575 384.828 318.575 385.319 318.836Z" fill="black"></path><path d="M389.977 316.326C390.468 316.588 390.468 317.019 389.977 317.281C389.486 317.542 388.686 317.542 388.195 317.281C387.704 317.019 387.704 316.588 388.195 316.326C388.686 316.065 389.486 316.065 389.977 316.326Z" fill="black"></path><path d="M394.648 313.817C395.139 314.078 395.139 314.509 394.648 314.771C394.157 315.032 393.358 315.032 392.867 314.771C392.376 314.509 392.376 314.078 392.867 313.817C393.358 313.555 394.157 313.555 394.648 313.817Z" fill="black"></path><path d="M397.524 311.307C398.015 311.045 398.815 311.045 399.306 311.307C399.797 311.568 399.797 312 399.306 312.261C398.815 312.523 398.015 312.523 397.524 312.261C397.033 312 397.033 311.568 397.524 311.307C397.033 311.568 398.015 311.045 397.524 311.307Z" fill="black"></path><path d="M462.925 341.503C463.416 341.241 464.215 341.241 464.706 341.503C465.197 341.764 465.197 342.196 464.706 342.457C464.215 342.718 463.416 342.718 462.925 342.457C462.434 342.196 462.434 341.764 462.925 341.503Z" fill="black"></path><path d="M469.378 338.993C469.869 339.254 469.869 339.686 469.378 339.947C468.887 340.209 468.087 340.209 467.596 339.947C467.105 339.686 467.105 339.254 467.596 338.993C468.087 338.732 468.887 338.732 469.378 338.993Z" fill="black"></path><path d="M458.253 338.993C458.744 338.732 459.544 338.732 460.035 338.993C460.526 339.254 460.526 339.686 460.035 339.947C459.544 340.209 458.744 340.209 458.253 339.947C457.762 339.686 457.762 339.254 458.253 338.993Z" fill="black"></path><path d="M464.706 336.483C465.197 336.745 465.197 337.176 464.706 337.437C464.215 337.699 463.416 337.699 462.925 337.437C462.434 337.176 462.434 336.745 462.925 336.483C463.416 336.222 464.215 336.222 464.706 336.483Z" fill="black"></path><path d="M469.378 333.973C469.869 334.235 469.869 334.666 469.378 334.928C468.887 335.189 468.087 335.189 467.596 334.928C467.105 334.666 467.105 334.235 467.596 333.973C468.087 333.712 468.887 333.712 469.378 333.973V333.973Z" fill="black"></path><path d="M453.596 336.496C454.087 336.235 454.886 336.235 455.377 336.496C455.868 336.758 455.868 337.189 455.377 337.451C454.886 337.712 454.087 337.712 453.596 337.451C453.105 337.189 453.105 336.758 453.596 336.496Z" fill="black"></path><path d="M460.049 333.973C460.54 334.235 460.54 334.666 460.049 334.928C459.558 335.189 458.758 335.189 458.267 334.928C457.776 334.666 457.776 334.235 458.267 333.973C458.758 333.712 459.558 333.712 460.049 333.973V333.973Z" fill="black"></path><path d="M464.706 331.464C465.197 331.725 465.197 332.156 464.706 332.418C464.215 332.679 463.416 332.679 462.925 332.418C462.434 332.156 462.434 331.725 462.925 331.464C463.416 331.202 464.215 331.202 464.706 331.464Z" fill="black"></path><path d="M469.378 328.954C469.869 329.215 469.869 329.647 469.378 329.908C468.887 330.17 468.087 330.17 467.596 329.908C467.105 329.647 467.105 329.215 467.596 328.954C468.087 328.692 468.887 328.692 469.378 328.954Z" fill="black"></path><path d="M448.924 333.987C449.415 333.725 450.215 333.725 450.706 333.987C451.197 334.248 451.197 334.679 450.706 334.941C450.215 335.202 449.415 335.202 448.924 334.941C448.433 334.679 448.433 334.248 448.924 333.987V333.987Z" fill="black"></path><path d="M455.377 331.464C455.868 331.725 455.868 332.156 455.377 332.418C454.886 332.679 454.087 332.679 453.596 332.418C453.105 332.156 453.105 331.725 453.596 331.464C454.087 331.202 454.886 331.202 455.377 331.464Z" fill="black"></path><path d="M460.049 328.954C460.54 329.215 460.54 329.647 460.049 329.908C459.558 330.17 458.758 330.17 458.267 329.908C457.776 329.647 457.776 329.215 458.267 328.954C458.758 328.692 459.558 328.692 460.049 328.954Z" fill="black"></path><path d="M464.706 326.444C465.197 326.706 465.197 327.137 464.706 327.398C464.215 327.66 463.416 327.66 462.925 327.398C462.434 327.137 462.434 326.706 462.925 326.444C463.416 326.183 464.215 326.183 464.706 326.444Z" fill="black"></path><path d="M444.225 331.45C444.716 331.189 445.516 331.189 446.007 331.45C446.498 331.712 446.498 332.143 446.007 332.405C445.516 332.666 444.716 332.666 444.225 332.405C443.734 332.143 443.734 331.712 444.225 331.45Z" fill="black"></path><path d="M450.678 328.928C451.169 329.189 451.169 329.62 450.678 329.882C450.187 330.143 449.388 330.143 448.897 329.882C448.406 329.62 448.406 329.189 448.897 328.928C449.388 328.666 450.187 328.666 450.678 328.928Z" fill="black"></path><path d="M455.35 326.418C455.841 326.679 455.841 327.111 455.35 327.372C454.859 327.633 454.059 327.633 453.568 327.372C453.077 327.111 453.077 326.679 453.568 326.418C454.059 326.156 454.859 326.156 455.35 326.418Z" fill="black"></path><path d="M460.007 323.908C460.498 324.169 460.498 324.601 460.007 324.862C459.516 325.124 458.716 325.124 458.225 324.862C457.734 324.601 457.734 324.169 458.225 323.908C458.716 323.647 459.516 323.647 460.007 323.908Z" fill="black"></path><path d="M439.553 328.941C440.044 328.679 440.844 328.679 441.335 328.941C441.826 329.202 441.826 329.634 441.335 329.895C440.844 330.156 440.044 330.156 439.553 329.895C439.062 329.634 439.062 329.202 439.553 328.941Z" fill="black"></path><path d="M446.007 326.418C446.498 326.679 446.498 327.111 446.007 327.372C445.516 327.633 444.716 327.633 444.225 327.372C443.734 327.111 443.734 326.679 444.225 326.418C444.716 326.156 445.516 326.156 446.007 326.418Z" fill="black"></path><path d="M450.678 323.908C451.169 324.17 451.169 324.601 450.678 324.863C450.187 325.124 449.388 325.124 448.897 324.863C448.406 324.601 448.406 324.17 448.897 323.908C449.388 323.647 450.187 323.647 450.678 323.908Z" fill="black"></path><path d="M455.35 321.398C455.841 321.66 455.841 322.091 455.35 322.352C454.859 322.614 454.059 322.614 453.568 322.352C453.077 322.091 453.077 321.66 453.568 321.398C454.059 321.137 454.859 321.137 455.35 321.398Z" fill="black"></path><path d="M434.896 326.431C435.387 326.17 436.186 326.17 436.677 326.431C437.168 326.692 437.168 327.124 436.677 327.385C436.186 327.647 435.387 327.647 434.896 327.385C434.405 327.124 434.405 326.692 434.896 326.431Z" fill="black"></path><path d="M441.349 323.908C441.84 324.169 441.84 324.601 441.349 324.862C440.858 325.124 440.058 325.124 439.567 324.862C439.076 324.601 439.076 324.169 439.567 323.908C440.058 323.647 440.858 323.647 441.349 323.908Z" fill="black"></path><path d="M446.007 321.398C446.498 321.66 446.498 322.091 446.007 322.352C445.516 322.614 444.716 322.614 444.225 322.352C443.734 322.091 443.734 321.66 444.225 321.398C444.716 321.137 445.516 321.137 446.007 321.398Z" fill="black"></path><path d="M450.678 318.888C451.169 319.15 451.169 319.581 450.678 319.843C450.187 320.104 449.388 320.104 448.897 319.843C448.406 319.581 448.406 319.15 448.897 318.888C449.388 318.627 450.187 318.627 450.678 318.888Z" fill="black"></path><path d="M455.35 316.379C455.841 316.64 455.841 317.072 455.35 317.333C454.859 317.594 454.059 317.594 453.568 317.333C453.077 317.072 453.077 316.64 453.568 316.379C454.059 316.117 454.859 316.117 455.35 316.379Z" fill="black"></path><path d="M460.007 313.869C460.498 314.13 460.498 314.562 460.007 314.823C459.516 315.085 458.716 315.085 458.225 314.823C457.734 314.562 457.734 314.13 458.225 313.869C458.716 313.607 459.516 313.607 460.007 313.869Z" fill="black"></path><path d="M464.678 311.359C465.169 311.621 465.169 312.052 464.678 312.313C464.187 312.575 463.388 312.575 462.897 312.313C462.406 312.052 462.406 311.621 462.897 311.359C463.388 311.098 464.187 311.098 464.678 311.359Z" fill="black"></path><path d="M469.336 308.849C469.827 309.111 469.827 309.542 469.336 309.804C468.845 310.065 468.045 310.065 467.554 309.804C467.063 309.542 467.063 309.111 467.554 308.849C468.045 308.588 468.845 308.588 469.336 308.849Z" fill="black"></path><path d="M474.007 306.34C474.498 306.601 474.498 307.032 474.007 307.294C473.516 307.555 472.717 307.555 472.226 307.294C471.735 307.032 471.735 306.601 472.226 306.34C472.717 306.078 473.516 306.078 474.007 306.34Z" fill="black"></path><path d="M478.665 303.83C479.156 304.091 479.156 304.523 478.665 304.784C478.174 305.046 477.374 305.046 476.883 304.784C476.392 304.523 476.392 304.091 476.883 303.83C477.374 303.568 478.174 303.568 478.665 303.83Z" fill="black"></path><path d="M483.336 301.32C483.827 301.581 483.827 302.012 483.336 302.274C482.845 302.535 482.046 302.535 481.555 302.274C481.064 302.012 481.064 301.581 481.555 301.32C482.046 301.058 482.845 301.058 483.336 301.32Z" fill="black"></path><path d="M487.994 298.81C488.485 299.071 488.485 299.503 487.994 299.764C487.503 300.026 486.703 300.026 486.212 299.764C485.721 299.503 485.721 299.071 486.212 298.81C486.703 298.548 487.503 298.548 487.994 298.81Z" fill="black"></path><path d="M492.666 296.301C493.157 296.562 493.157 296.993 492.666 297.255C492.175 297.516 491.375 297.516 490.884 297.255C490.393 296.993 490.393 296.562 490.884 296.301C491.375 296.039 492.175 296.039 492.666 296.301Z" fill="black"></path><path d="M430.224 323.921C430.715 323.66 431.515 323.66 432.006 323.921C432.497 324.183 432.497 324.614 432.006 324.875C431.515 325.137 430.715 325.137 430.224 324.875C429.733 324.614 429.733 324.183 430.224 323.921Z" fill="black"></path><path d="M436.677 321.398C437.168 321.66 437.168 322.091 436.677 322.352C436.186 322.614 435.387 322.614 434.896 322.352C434.405 322.091 434.405 321.66 434.896 321.398C435.387 321.137 436.186 321.137 436.677 321.398Z" fill="black"></path><path d="M441.349 318.888C441.84 319.15 441.84 319.581 441.349 319.843C440.858 320.104 440.058 320.104 439.567 319.843C439.076 319.581 439.076 319.15 439.567 318.888C440.058 318.627 440.858 318.627 441.349 318.888Z" fill="black"></path><path d="M446.007 316.379C446.498 316.64 446.498 317.072 446.007 317.333C445.516 317.594 444.716 317.594 444.225 317.333C443.734 317.072 443.734 316.64 444.225 316.379C444.716 316.117 445.516 316.117 446.007 316.379Z" fill="black"></path><path d="M450.678 313.869C451.169 314.13 451.169 314.562 450.678 314.823C450.187 315.085 449.388 315.085 448.897 314.823C448.406 314.562 448.406 314.13 448.897 313.869C449.388 313.607 450.187 313.607 450.678 313.869Z" fill="black"></path><path d="M455.35 311.359C455.841 311.621 455.841 312.052 455.35 312.313C454.859 312.575 454.059 312.575 453.568 312.313C453.077 312.052 453.077 311.621 453.568 311.359C454.059 311.098 454.859 311.098 455.35 311.359Z" fill="black"></path><path d="M460.007 308.849C460.498 309.111 460.498 309.542 460.007 309.804C459.516 310.065 458.716 310.065 458.225 309.804C457.734 309.542 457.734 309.111 458.225 308.849C458.716 308.588 459.516 308.588 460.007 308.849Z" fill="black"></path><path d="M464.678 306.34C465.169 306.601 465.169 307.032 464.678 307.294C464.187 307.555 463.388 307.555 462.897 307.294C462.406 307.032 462.406 306.601 462.897 306.34C463.388 306.078 464.187 306.078 464.678 306.34Z" fill="black"></path><path d="M469.336 303.83C469.827 304.091 469.827 304.523 469.336 304.784C468.845 305.046 468.045 305.046 467.554 304.784C467.063 304.523 467.063 304.091 467.554 303.83C468.045 303.568 468.845 303.568 469.336 303.83Z" fill="black"></path><path d="M474.007 301.32C474.498 301.581 474.498 302.012 474.007 302.274C473.516 302.535 472.717 302.535 472.226 302.274C471.735 302.012 471.735 301.581 472.226 301.32C472.717 301.058 473.516 301.058 474.007 301.32Z" fill="black"></path><path d="M478.665 298.81C479.156 299.071 479.156 299.503 478.665 299.764C478.174 300.026 477.374 300.026 476.883 299.764C476.392 299.503 476.392 299.071 476.883 298.81C477.374 298.548 478.174 298.548 478.665 298.81Z" fill="black"></path><path d="M483.336 296.3C483.827 296.562 483.827 296.993 483.336 297.254C482.845 297.516 482.046 297.516 481.555 297.254C481.064 296.993 481.064 296.562 481.555 296.3C482.046 296.039 482.845 296.039 483.336 296.3Z" fill="black"></path><path d="M487.994 293.79C488.485 294.052 488.485 294.483 487.994 294.745C487.503 295.006 486.703 295.006 486.212 294.745C485.721 294.483 485.721 294.052 486.212 293.79C486.703 293.529 487.503 293.529 487.994 293.79Z" fill="black"></path><path d="M492.666 291.281C493.157 291.542 493.157 291.973 492.666 292.235C492.175 292.496 491.375 292.496 490.884 292.235C490.393 291.973 490.393 291.542 490.884 291.281C491.375 291.019 492.175 291.019 492.666 291.281Z" fill="black"></path><path d="M425.567 321.411C426.058 321.15 426.858 321.15 427.349 321.411C427.84 321.673 427.84 322.104 427.349 322.366C426.858 322.627 426.058 322.627 425.567 322.366C425.076 322.104 425.076 321.673 425.567 321.411Z" fill="black"></path><path d="M432.02 318.888C432.511 319.15 432.511 319.581 432.02 319.843C431.529 320.104 430.729 320.104 430.238 319.843C429.747 319.581 429.747 319.15 430.238 318.888C430.729 318.627 431.529 318.627 432.02 318.888Z" fill="black"></path><path d="M436.677 316.379C437.168 316.64 437.168 317.072 436.677 317.333C436.186 317.594 435.387 317.594 434.896 317.333C434.405 317.072 434.405 316.64 434.896 316.379C435.387 316.117 436.186 316.117 436.677 316.379Z" fill="black"></path><path d="M441.349 313.869C441.84 314.13 441.84 314.562 441.349 314.823C440.858 315.085 440.058 315.085 439.567 314.823C439.076 314.562 439.076 314.13 439.567 313.869C440.058 313.607 440.858 313.607 441.349 313.869Z" fill="black"></path><path d="M446.007 311.359C446.498 311.621 446.498 312.052 446.007 312.313C445.516 312.575 444.716 312.575 444.225 312.313C443.734 312.052 443.734 311.621 444.225 311.359C444.716 311.098 445.516 311.098 446.007 311.359Z" fill="black"></path><path d="M450.678 308.849C451.169 309.111 451.169 309.542 450.678 309.804C450.187 310.065 449.388 310.065 448.897 309.804C448.406 309.542 448.406 309.111 448.897 308.849C449.388 308.588 450.187 308.588 450.678 308.849Z" fill="black"></path><path d="M455.35 306.34C455.841 306.601 455.841 307.032 455.35 307.294C454.859 307.555 454.059 307.555 453.568 307.294C453.077 307.032 453.077 306.601 453.568 306.34C454.059 306.078 454.859 306.078 455.35 306.34Z" fill="black"></path><path d="M460.007 303.83C460.498 304.091 460.498 304.523 460.007 304.784C459.516 305.046 458.716 305.046 458.225 304.784C457.734 304.523 457.734 304.091 458.225 303.83C458.716 303.568 459.516 303.568 460.007 303.83Z" fill="black"></path><path d="M464.678 301.32C465.169 301.581 465.169 302.012 464.678 302.274C464.187 302.535 463.388 302.535 462.897 302.274C462.406 302.012 462.406 301.581 462.897 301.32C463.388 301.058 464.187 301.058 464.678 301.32Z" fill="black"></path><path d="M469.336 298.81C469.827 299.071 469.827 299.503 469.336 299.764C468.845 300.026 468.045 300.026 467.554 299.764C467.063 299.503 467.063 299.071 467.554 298.81C468.045 298.548 468.845 298.548 469.336 298.81Z" fill="black"></path><path d="M474.007 296.3C474.498 296.562 474.498 296.993 474.007 297.254C473.516 297.516 472.717 297.516 472.226 297.254C471.735 296.993 471.735 296.562 472.226 296.3C472.717 296.039 473.516 296.039 474.007 296.3Z" fill="black"></path><path d="M478.665 293.79C479.156 294.052 479.156 294.483 478.665 294.745C478.174 295.006 477.374 295.006 476.883 294.745C476.392 294.483 476.392 294.052 476.883 293.79C477.374 293.529 478.174 293.529 478.665 293.79Z" fill="black"></path><path d="M483.336 291.281C483.827 291.542 483.827 291.973 483.336 292.235C482.845 292.496 482.046 292.496 481.555 292.235C481.064 291.973 481.064 291.542 481.555 291.281C482.046 291.019 482.845 291.019 483.336 291.281Z" fill="black"></path><path d="M487.994 288.771C488.485 289.032 488.485 289.464 487.994 289.725C487.503 289.986 486.703 289.986 486.212 289.725C485.721 289.464 485.721 289.032 486.212 288.771C486.703 288.509 487.503 288.509 487.994 288.771Z" fill="black"></path><path d="M492.666 286.261C493.157 286.522 493.157 286.954 492.666 287.215C492.175 287.477 491.375 287.477 490.884 287.215C490.393 286.954 490.393 286.522 490.884 286.261C491.375 286 492.175 286 492.666 286.261Z" fill="black"></path><path d="M420.896 318.902C421.387 318.64 422.186 318.64 422.677 318.902C423.168 319.163 423.168 319.594 422.677 319.856C422.186 320.117 421.387 320.117 420.896 319.856C420.405 319.594 420.405 319.163 420.896 318.902Z" fill="black"></path><path d="M427.349 316.379C427.84 316.64 427.84 317.072 427.349 317.333C426.858 317.594 426.058 317.594 425.567 317.333C425.076 317.072 425.076 316.64 425.567 316.379C426.058 316.117 426.858 316.117 427.349 316.379Z" fill="black"></path><path d="M432.02 313.869C432.511 314.13 432.511 314.562 432.02 314.823C431.529 315.085 430.729 315.085 430.238 314.823C429.747 314.562 429.747 314.13 430.238 313.869C430.729 313.607 431.529 313.607 432.02 313.869Z" fill="black"></path><path d="M436.677 311.359C437.168 311.621 437.168 312.052 436.677 312.313C436.186 312.575 435.387 312.575 434.896 312.313C434.405 312.052 434.405 311.621 434.896 311.359C435.387 311.098 436.186 311.098 436.677 311.359Z" fill="black"></path><path d="M416.238 316.392C416.729 316.13 417.529 316.13 418.02 316.392C418.511 316.653 418.511 317.085 418.02 317.346C417.529 317.608 416.729 317.608 416.238 317.346C415.747 317.085 415.747 316.653 416.238 316.392Z" fill="black"></path><path d="M422.691 313.869C423.182 314.13 423.182 314.562 422.691 314.823C422.2 315.085 421.401 315.085 420.91 314.823C420.419 314.562 420.419 314.13 420.91 313.869C421.401 313.607 422.2 313.607 422.691 313.869Z" fill="black"></path><path d="M427.349 311.359C427.84 311.621 427.84 312.052 427.349 312.313C426.858 312.575 426.058 312.575 425.567 312.313C425.076 312.052 425.076 311.621 425.567 311.359C426.058 311.098 426.858 311.098 427.349 311.359Z" fill="black"></path><path d="M432.02 308.849C432.511 309.111 432.511 309.542 432.02 309.804C431.529 310.065 430.729 310.065 430.238 309.804C429.747 309.542 429.747 309.111 430.238 308.849C430.729 308.588 431.529 308.588 432.02 308.849Z" fill="black"></path><path d="M411.566 313.882C412.057 313.621 412.857 313.621 413.348 313.882C413.839 314.144 413.839 314.575 413.348 314.836C412.857 315.098 412.057 315.098 411.566 314.836C411.075 314.575 411.075 314.144 411.566 313.882Z" fill="black"></path><path d="M418.02 311.359C418.511 311.621 418.511 312.052 418.02 312.313C417.529 312.575 416.729 312.575 416.238 312.313C415.747 312.052 415.747 311.621 416.238 311.359C416.729 311.098 417.529 311.098 418.02 311.359Z" fill="black"></path><path d="M422.691 308.849C423.182 309.111 423.182 309.542 422.691 309.804C422.2 310.065 421.401 310.065 420.91 309.804C420.419 309.542 420.419 309.111 420.91 308.849C421.401 308.588 422.2 308.588 422.691 308.849Z" fill="black"></path><path d="M406.867 311.346C407.358 311.085 408.158 311.085 408.649 311.346C409.14 311.607 409.14 312.039 408.649 312.3C408.158 312.562 407.358 312.562 406.867 312.3C406.376 312.039 406.376 311.607 406.867 311.346Z" fill="black"></path><path d="M413.32 308.823C413.811 309.084 413.811 309.516 413.32 309.777C412.829 310.039 412.029 310.039 411.538 309.777C411.047 309.516 411.047 309.084 411.538 308.823C412.029 308.562 412.829 308.562 413.32 308.823Z" fill="black"></path><path d="M403.977 308.823C404.468 309.085 404.468 309.516 403.977 309.777C403.486 310.039 402.687 310.039 402.196 309.777C401.705 309.516 403.486 308.549 403.977 308.81V308.823Z" fill="black"></path><path d="M492.707 246.117C493.198 246.379 493.198 246.81 492.707 247.072C492.216 247.333 491.417 247.333 490.926 247.072C490.435 246.81 490.435 246.379 490.926 246.117C491.417 245.856 492.216 245.856 492.707 246.117Z" fill="black"></path><path d="M488.036 243.608C488.527 243.869 488.527 244.301 488.036 244.562C487.545 244.823 486.745 244.823 486.254 244.562C485.763 244.301 485.763 243.869 486.254 243.608C486.745 243.346 487.545 243.346 488.036 243.608Z" fill="black"></path><path d="M492.707 241.098C493.198 241.359 493.198 241.791 492.707 242.052C492.216 242.314 491.417 242.314 490.926 242.052C490.435 241.791 490.435 241.359 490.926 241.098C491.417 240.836 492.216 240.836 492.707 241.098Z" fill="black"></path><path d="M483.378 241.098C483.869 241.359 483.869 241.791 483.378 242.052C482.887 242.314 482.088 242.314 481.597 242.052C481.106 241.791 481.106 241.359 481.597 241.098C482.088 240.836 482.887 240.836 483.378 241.098Z" fill="black"></path><path d="M488.036 238.588C488.527 238.85 488.527 239.281 488.036 239.542C487.545 239.804 486.745 239.804 486.254 239.542C485.763 239.281 485.763 238.85 486.254 238.588C486.745 238.327 487.545 238.327 488.036 238.588Z" fill="black"></path><path d="M492.707 236.078C493.198 236.34 493.198 236.771 492.707 237.033C492.216 237.294 491.417 237.294 490.926 237.033C490.435 236.771 490.435 236.34 490.926 236.078C491.417 235.817 492.216 235.817 492.707 236.078Z" fill="black"></path><path d="M478.665 238.562C479.156 238.823 479.156 239.255 478.665 239.516C478.174 239.777 477.374 239.777 476.883 239.516C476.392 239.255 476.392 238.823 476.883 238.562C477.374 238.3 478.174 238.3 478.665 238.562Z" fill="black"></path><path d="M483.336 236.052C483.827 236.313 483.827 236.745 483.336 237.006C482.845 237.268 482.046 237.268 481.555 237.006C481.064 236.745 481.064 236.313 481.555 236.052C482.046 235.791 482.845 235.791 483.336 236.052Z" fill="black"></path><path d="M487.994 233.542C488.485 233.804 488.485 234.235 487.994 234.497C487.503 234.758 486.703 234.758 486.212 234.497C485.721 234.235 485.721 233.804 486.212 233.542C486.703 233.281 487.503 233.281 487.994 233.542Z" fill="black"></path><path d="M492.665 231.033C493.156 231.294 493.156 231.725 492.665 231.987C492.174 232.248 491.375 232.248 490.884 231.987C490.393 231.725 490.393 231.294 490.884 231.033C491.375 230.771 492.174 230.771 492.665 231.033Z" fill="black"></path><path d="M474.007 236.052C474.498 236.313 474.498 236.745 474.007 237.006C473.516 237.268 472.717 237.268 472.226 237.006C471.735 236.745 471.735 236.313 472.226 236.052C472.717 235.791 473.516 235.791 474.007 236.052Z" fill="black"></path><path d="M478.665 233.542C479.156 233.804 479.156 234.235 478.665 234.497C478.174 234.758 477.374 234.758 476.883 234.497C476.392 234.235 476.392 233.804 476.883 233.542C477.374 233.281 478.174 233.281 478.665 233.542Z" fill="black"></path><path d="M483.336 231.033C483.827 231.294 483.827 231.725 483.336 231.987C482.845 232.248 482.046 232.248 481.555 231.987C481.064 231.725 481.064 231.294 481.555 231.033C482.046 230.771 482.845 230.771 483.336 231.033Z" fill="black"></path><path d="M487.994 228.523C488.485 228.784 488.485 229.216 487.994 229.477C487.503 229.738 486.703 229.738 486.212 229.477C485.721 229.216 485.721 228.784 486.212 228.523C486.703 228.261 487.503 228.261 487.994 228.523Z" fill="black"></path><path d="M492.665 226.013C493.156 226.274 493.156 226.706 492.665 226.967C492.174 227.229 491.375 227.229 490.884 226.967C490.393 226.706 490.393 226.274 490.884 226.013C491.375 225.752 492.174 225.752 492.665 226.013Z" fill="black"></path><path d="M469.336 233.542C469.827 233.804 469.827 234.235 469.336 234.497C468.845 234.758 468.045 234.758 467.554 234.497C467.063 234.235 467.063 233.804 467.554 233.542C468.045 233.281 468.845 233.281 469.336 233.542Z" fill="black"></path><path d="M474.007 231.033C474.498 231.294 474.498 231.725 474.007 231.987C473.516 232.248 472.717 232.248 472.226 231.987C471.735 231.725 471.735 231.294 472.226 231.033C472.717 230.771 473.516 230.771 474.007 231.033Z" fill="black"></path><path d="M478.665 228.523C479.156 228.784 479.156 229.216 478.665 229.477C478.174 229.738 477.374 229.738 476.883 229.477C476.392 229.216 476.392 228.784 476.883 228.523C477.374 228.261 478.174 228.261 478.665 228.523Z" fill="black"></path><path d="M483.336 226.013C483.827 226.274 483.827 226.706 483.336 226.967C482.845 227.229 482.046 227.229 481.555 226.967C481.064 226.706 481.064 226.274 481.555 226.013C482.046 225.752 482.845 225.752 483.336 226.013Z" fill="black"></path><path d="M487.994 223.503C488.485 223.765 488.485 224.196 487.994 224.457C487.503 224.719 486.703 224.719 486.212 224.457C485.721 224.196 485.721 223.765 486.212 223.503C486.703 223.242 487.503 223.242 487.994 223.503Z" fill="black"></path><path d="M492.665 220.993C493.156 221.255 493.156 221.686 492.665 221.948C492.174 222.209 491.375 222.209 490.884 221.948C490.393 221.686 490.393 221.255 490.884 220.993C491.375 220.732 492.174 220.732 492.665 220.993Z" fill="black"></path><path d="M469.336 228.523C469.827 228.784 469.827 229.216 469.336 229.477C468.845 229.738 468.045 229.738 467.554 229.477C467.063 229.216 467.063 228.784 467.554 228.523C468.045 228.261 468.845 228.261 469.336 228.523Z" fill="black"></path><path d="M474.007 226.013C474.498 226.274 474.498 226.706 474.007 226.967C473.516 227.229 472.717 227.229 472.226 226.967C471.735 226.706 471.735 226.274 472.226 226.013C472.717 225.752 473.516 225.752 474.007 226.013Z" fill="black"></path><path d="M478.665 223.503C479.156 223.765 479.156 224.196 478.665 224.457C478.174 224.719 477.374 224.719 476.883 224.457C476.392 224.196 476.392 223.765 476.883 223.503C477.374 223.242 478.174 223.242 478.665 223.503Z" fill="black"></path><path d="M483.336 220.993C483.827 221.255 483.827 221.686 483.336 221.948C482.845 222.209 482.046 222.209 481.555 221.948C481.064 221.686 481.064 221.255 481.555 220.993C482.046 220.732 482.845 220.732 483.336 220.993Z" fill="black"></path><path d="M487.994 218.484C488.485 218.745 488.485 219.176 487.994 219.438C487.503 219.699 486.703 219.699 486.212 219.438C485.721 219.176 485.721 218.745 486.212 218.484C486.703 218.222 487.503 218.222 487.994 218.484Z" fill="black"></path><path d="M492.665 215.974C493.156 216.235 493.156 216.667 492.665 216.928C492.174 217.19 491.375 217.19 490.884 216.928C490.393 216.667 490.393 216.235 490.884 215.974C491.375 215.712 492.174 215.712 492.665 215.974Z" fill="black"></path><path d="M447.157 334.458V326.588L436.313 326.484L413.643 314.288C410.108 312.379 404.749 312.17 401.677 313.83L379.189 325.922L367.307 326.458V333.686C367.124 335.046 368.106 336.51 370.211 337.647L400.807 354.105C404.356 356.013 409.701 356.222 412.773 354.562L445.095 337.177C446.456 336.445 447.129 335.477 447.157 334.458V334.458Z" fill="#FEBD33"></path><path d="M407.569 356.379C405.1 356.379 402.504 355.817 400.442 354.706L369.846 338.249C367.545 337.007 366.353 335.321 366.592 333.608V325.804L378.979 325.242L401.312 313.229C404.637 311.438 410.22 311.647 414.008 313.687L436.523 325.791L447.901 326.471V334.484C447.859 335.778 446.989 336.955 445.46 337.765L413.138 355.151C411.623 355.961 409.631 356.366 407.569 356.366V356.379ZM368.036 327.098V333.687C367.882 334.889 368.836 336.118 370.576 337.059L401.172 353.517C404.511 355.308 409.547 355.517 412.409 353.974L444.73 336.589C445.81 336.013 446.4 335.268 446.428 334.445V327.255L436.117 327.151L435.948 327.059L413.264 314.863C409.925 313.072 404.889 312.863 402.027 314.406L379.385 326.589L368.036 327.098V327.098Z" fill="black"></path><path d="M445.095 329.268L412.773 346.654C409.701 348.301 404.342 348.092 400.807 346.196L370.211 329.739C366.662 327.83 366.283 324.955 369.355 323.294L401.677 305.909C404.749 304.262 410.108 304.471 413.643 306.366L444.239 322.824C447.788 324.732 448.167 327.608 445.095 329.268V329.268Z" fill="#FEBD33"></path><path d="M444.239 326.641L413.643 310.183C410.094 308.275 404.749 308.066 401.677 309.726L369.355 327.111C368.78 327.425 368.359 327.791 368.022 328.17V331.778C368.513 332.405 369.229 333.02 370.211 333.543L400.807 350C404.356 351.909 409.701 352.118 412.773 350.458L445.095 333.072C448.167 331.425 447.774 328.536 444.239 326.628V326.641Z" fill="#FFEECC"></path><path d="M407.569 348.458C405.1 348.458 402.504 347.896 400.442 346.784L369.846 330.327C367.756 329.203 366.549 327.66 366.549 326.092C366.549 324.758 367.419 323.556 368.99 322.706L401.312 305.32C404.637 303.53 410.22 303.739 414.008 305.778L444.604 322.235C446.694 323.36 447.901 324.902 447.901 326.471C447.901 327.804 447.031 329.007 445.46 329.856L413.138 347.242C411.623 348.052 409.631 348.458 407.569 348.458ZM406.867 305.464C405.058 305.464 403.318 305.804 402.041 306.497L369.72 323.883C368.612 324.484 368.008 325.242 368.008 326.092C368.008 327.151 368.948 328.262 370.576 329.137L401.172 345.595C404.51 347.386 409.547 347.595 412.408 346.052L444.73 328.667C445.838 328.066 446.442 327.307 446.442 326.458C446.442 325.399 445.502 324.288 443.874 323.412L413.278 306.954C411.441 305.974 409.098 305.464 406.881 305.464H406.867Z" fill="black"></path><path d="M407.232 347.765L407.218 356.366L412.773 354.562L446.428 336.157L447.157 334.196L447.606 327.765L412.142 347.098L407.232 347.765Z" fill="black"></path><path d="M398.632 313.177V327.752C398.632 328.928 399.474 330.118 401.144 331.02C404.496 332.824 409.939 332.824 413.292 331.02C414.976 330.118 415.803 328.928 415.803 327.752V313.177H398.618H398.632Z" fill="#FEBD33"></path><path d="M413.292 309.909C416.645 311.713 416.645 314.641 413.292 316.445C409.939 318.248 404.496 318.248 401.144 316.445C397.791 314.641 397.791 311.713 401.144 309.909C404.496 308.105 409.939 308.105 413.292 309.909Z" fill="#FEBD33"></path><path d="M413.292 312.746C416.645 314.549 416.645 317.478 413.292 319.281C409.939 321.085 404.496 321.085 401.144 319.281C397.791 317.478 397.791 314.549 401.144 312.746C404.496 310.942 409.939 310.942 413.292 312.746Z" fill="#FFEECC"></path><path d="M407.218 318.484C404.903 318.484 402.588 318 400.779 317.02C398.913 316.026 397.903 314.654 397.903 313.164C397.903 311.673 398.927 310.301 400.779 309.307C404.398 307.36 410.052 307.36 413.657 309.307C415.523 310.301 416.533 311.673 416.533 313.164C416.533 314.654 415.509 316.026 413.657 317.02C411.847 317.987 409.532 318.484 407.218 318.484V318.484ZM407.218 309.216C405.156 309.216 403.079 309.634 401.508 310.484C400.119 311.229 399.362 312.183 399.362 313.164C399.362 314.144 400.119 315.098 401.508 315.843C404.651 317.543 409.785 317.53 412.927 315.843C414.316 315.098 415.074 314.144 415.074 313.164C415.074 312.183 414.316 311.229 412.927 310.484C411.356 309.634 409.28 309.216 407.218 309.216Z" fill="black"></path><path d="M416.547 313.334L415.817 314.222L414.723 315.556L409.252 317.7L409.21 327.477C409.21 328.654 408.368 329.843 406.699 330.745C406.068 331.085 405.38 331.177 404.637 331.164C403.346 331.151 402.069 330.798 401.003 330.118C399.937 329.425 399.362 328.601 399.362 327.752V314.784C399.123 314.432 398.59 313.647 398.127 312.994H397.889V327.752C397.889 329.242 398.913 330.615 400.779 331.608C402.588 332.575 404.903 333.072 407.218 333.072C409.533 333.072 411.847 332.588 413.657 331.608C415.523 330.601 416.533 329.242 416.533 327.752V313.334H416.547Z" fill="black"></path><path d="M403.023 88.0654V312.052C403.023 312.628 403.43 313.203 404.258 313.647C405.899 314.523 408.551 314.523 410.178 313.647C410.992 313.203 411.398 312.628 411.398 312.052V88.0654H403.023Z" fill="#FEBD33"></path><path d="M412.142 87.3857H402.294V312.052C402.294 312.902 402.883 313.686 403.893 314.235C404.833 314.732 406.026 314.994 407.218 314.994C408.41 314.994 409.617 314.745 410.543 314.235C411.553 313.686 412.142 312.902 412.142 312.052V87.3857ZM407.947 88.7452V310.366C407.947 310.941 407.541 311.516 406.727 311.961C406.18 312.262 405.591 312.445 404.903 312.418C404.286 312.392 403.781 311.922 403.781 311.333L403.753 88.7452H407.933H407.947Z" fill="black"></path><path d="M464.342 196.039L308.752 112.327V5.38574L464.342 89.0851V196.039Z" fill="#FEBD33"></path><path d="M358.455 76.3267V119.843L420.545 153.242V109.725L358.455 76.3267ZM414.358 144.065L364.641 117.32V85.5162L414.358 112.261V144.065V144.065Z" fill="#FFEECC"></path><path d="M464.342 89.0849L472.226 84.3137L316.987 0.797363L308.752 5.3856L464.342 89.0849Z" fill="#FEBD33"></path><path d="M464.37 92.3266L472.254 87.5554L317.015 4.03906L311.221 7.26782V9.98677L464.37 92.3266Z" fill="#FFEECC"></path><path d="M311.221 9.98682V116.941L466.811 200.653V93.6992L311.221 9.98682ZM458.927 188.863L319.091 113.634V21.7777L458.927 97.0064V188.876V188.863Z" fill="#FFEECC"></path><path d="M457.201 185.438L456.107 184.85L315.906 109.425V15.9868L457.201 91.9999V185.438ZM317.365 108.64L455.728 183.072V92.7842L317.365 18.3528V108.627V108.64Z" fill="black"></path><path d="M316.987 0L308.022 4.99346V112.719L464.356 196.824L472.955 191.869V83.9085L316.987 0ZM463.626 194.85L309.495 111.935V6.56209L406.839 58.9281L463.626 89.4771V194.85ZM407.428 57.6732L310.197 5.37255L316.987 1.5817L470.823 84.3399L464.314 88.2876L407.414 57.6732H407.428Z" fill="black"></path><path d="M418.328 149.869L354.779 115.673V70.5752L418.328 104.771V149.869ZM356.238 114.889L416.855 147.503V105.556L356.238 72.9412V114.889Z" fill="black"></path><path d="M412.142 140.68L360.966 113.15V79.7646L412.142 107.294V140.68ZM362.425 112.353L410.669 138.314V108.091L362.425 82.1307V112.353Z" fill="black"></path><path d="M478.96 106.013H477.501V82.6404C477.501 81.3463 476.757 80.1436 475.551 79.5031L465.548 74.1306L466.278 72.9541L476.28 78.3266C477.935 79.2155 478.96 80.8757 478.96 82.6534V106.026V106.013Z" fill="black"></path><path d="M478.946 110.235H477.487V119.163H478.946V110.235Z" fill="black"></path><path d="M379.694 154.275C376.678 159.817 372.61 168.366 369.804 176.301L366.746 160.588L361.499 180.013L354.26 164.615L347.695 181.778L340.919 164.811L333.695 179.19L325.46 160.588L323.819 172.784C320.438 164.798 316.005 157.02 314.405 154.275L313.003 153.255L312.526 153.935C312.652 154.144 325.025 174.758 326.456 186.235C327.901 197.817 328.167 203.517 328.167 203.543C328.167 204.392 328.378 205.216 328.757 206.013L333.274 201.856L340.078 211.503C340.246 211.752 340.625 211.765 340.821 211.556L348.312 203.582L355.705 210.811C355.916 211.02 356.28 210.981 356.449 210.732L361.948 202.353L365.034 207.543C366.044 206.314 366.577 204.967 366.577 203.595C366.577 203.503 367.082 196.34 367.868 190.301L367.91 189.961C368.064 188.824 368.219 187.739 368.387 186.758C369.902 177.987 376.285 163.294 381.518 153.922L381.967 152.536L379.666 154.288L379.694 154.275ZM361.836 199.634L356.365 192.928L361.724 183.517L366.325 190.17L361.822 199.634H361.836ZM354.415 168.327L360.882 182.092L355.383 191.752L348.537 183.66L354.401 168.327H354.415ZM348.326 201.347L340.877 192.523L347.695 184.876L354.597 193.02L348.326 201.347ZM346.881 183.647L340.078 191.268L334.48 180.876L340.765 168.353L346.867 183.66L346.881 183.647ZM333.554 199.425L328.476 190.628C328.462 190.458 328.434 190.301 328.42 190.131L333.554 182.379L339.082 192.432L333.554 199.425ZM324.941 175.517L326.231 165.883L332.839 180.811L328.139 187.909C328.069 187.307 327.999 186.693 327.915 186.052C327.522 182.954 326.4 179.268 324.941 175.503V175.517ZM329.626 203.334C329.584 202.641 329.416 199.608 328.855 194.183L332.558 200.588L329.64 203.347L329.626 203.334ZM340.597 209.7L334.354 200.719L339.951 193.621L347.4 202.458L340.597 209.7V209.7ZM355.902 208.954L349.308 202.418L355.537 194.144L361.12 200.994L355.902 208.954ZM365.132 203.53C365.132 203.922 365.062 204.301 364.95 204.68L362.832 200.928L365.932 194.392C365.427 199.137 365.132 203.438 365.132 203.53ZM366.97 186.51C366.886 187.033 366.788 187.582 366.704 188.144L362.481 181.987L366.521 167.033L368.864 179.098C368.022 181.739 367.349 184.249 366.97 186.497V186.51Z" fill="black"></path><path d="M370.267 146.745L366.76 128.68L361.513 148.105L354.274 132.706L347.709 149.869L340.933 132.902L333.709 147.281L325.474 128.68L323.496 143.399L317.674 147.176L318.516 148.301L323.973 144.758L327.578 156.379L328.28 156.183L326.652 158.64L327.045 158.863L328.013 159.203L333.232 151.32L338.703 161.477L337.819 162.601L339.25 163.098L339.587 162.667L340.232 163.438L342.869 164.353L340.512 161.555L347.344 153.908L354.232 162.052L353.054 163.621L355.074 163.32L355.172 163.176L355.256 163.281L356.898 163.033L356.014 161.948L361.387 152.497L365.974 159.189L364.698 161.895L366.423 161.634L367.644 159.072L365.539 156L369.902 148.431L373.199 152.131L374.321 151.255L370.295 146.732L370.267 146.745ZM328.799 155.412L325.011 143.189L326.245 134L332.951 149.15L328.799 155.425V155.412ZM339.699 160.314L334.059 149.843L340.779 136.457L347.022 152.118L339.699 160.327V160.314ZM355.004 160.797L348.172 152.732L354.415 136.431L360.952 150.353L355.004 160.81V160.797ZM362.201 151.189L366.535 135.15L368.892 147.294L364.613 154.719L362.201 151.203V151.189Z" fill="black"></path><path d="M389.332 141.883L376.72 135.151L390.692 134.667L391.211 139.935L389.332 141.883Z" fill="#FEBD33"></path><path d="M389.332 142.667L388.602 142.275L374.139 134.562L391.366 133.961L391.983 140.183L389.809 142.418L389.346 142.667H389.332ZM379.301 135.752L389.177 141.02L390.454 139.713L390.019 135.373L379.301 135.752V135.752Z" fill="black"></path><path d="M379.582 122.471L392.867 129.66L379.203 136.876L365.918 129.699L379.582 122.471Z" fill="#FEBD33"></path><path d="M379.582 126.274L392.867 133.464L379.203 140.68L365.918 133.49L379.582 126.274Z" fill="#FFEECC"></path><path d="M379.582 121.686L364.445 129.686L378.474 137.268V141.752L385.249 138.262C386.203 137.752 387.059 137.647 387.662 137.974C388.265 138.301 388.602 139.046 388.602 140.065V142.262L389.332 142.654L393.596 140.353V129.255L379.582 121.673V121.686ZM367.391 129.699L379.582 123.255L391.394 129.647L379.217 136.092L367.405 129.699H367.391Z" fill="black"></path><path d="M381.995 142.967C382.401 148.052 378.992 153.203 371.782 157.085C358.118 164.431 335.953 164.431 322.289 157.085C315.528 153.451 312.119 148.693 312.049 143.922V149.542L312.077 149.608C312.427 154.17 315.822 158.667 322.289 162.157C335.953 169.503 358.118 169.503 371.782 162.157C378.614 158.484 382.037 153.66 382.037 148.85V143.006L381.995 142.967V142.967Z" fill="#FEBD33"></path><path d="M347.036 168.34C337.945 168.34 328.855 166.484 321.925 162.758C315.528 159.32 311.782 154.719 311.347 149.791L311.305 149.556V143.935H312.778C312.848 148.654 316.355 153.124 322.654 156.51C336.094 163.739 357.964 163.739 371.417 156.51C378.067 152.928 381.658 148.026 381.265 143.033L381.097 140.876L382.766 142.771V148.85C382.766 154.131 378.993 159.072 372.147 162.758C365.231 166.484 356.126 168.34 347.036 168.34V168.34ZM312.778 149.425L312.806 149.569C313.143 154.079 316.65 158.34 322.654 161.569C336.094 168.798 357.964 168.798 371.417 161.569C377.576 158.262 381.055 153.922 381.293 149.333C379.596 152.471 376.481 155.347 372.161 157.673C358.315 165.124 335.785 165.124 321.939 157.673C317.59 155.334 314.476 152.484 312.792 149.347V149.425H312.778Z" fill="black"></path><path d="M371.782 130.34C358.118 122.993 335.953 122.993 322.29 130.34C308.626 137.686 308.626 149.608 322.29 156.967C335.953 164.314 358.118 164.314 371.782 156.967C385.446 149.621 385.446 137.699 371.782 130.34V130.34ZM368.191 155.033C356.505 161.32 337.567 161.32 325.881 155.033C314.195 148.745 314.195 138.562 325.881 132.275C337.567 125.987 356.505 125.987 368.191 132.275C379.876 138.562 379.876 148.745 368.191 155.033Z" fill="#FEBD33"></path><path d="M325.881 137.347C337.567 131.059 356.505 131.059 368.191 137.347C372.834 139.843 375.612 142.954 376.58 146.183C378.039 141.268 375.247 136.052 368.191 132.262C356.505 125.974 337.567 125.974 325.881 132.262C318.839 136.052 316.047 141.268 317.492 146.183C318.446 142.941 321.237 139.83 325.881 137.347Z" fill="#FEBD33"></path><path d="M376.215 148.17L375.864 146.379C374.924 143.189 372.147 140.274 367.826 137.948C356.365 131.778 337.707 131.778 326.245 137.948C321.925 140.274 319.147 143.189 318.207 146.379L317.688 148.157L316.804 146.379C315.205 140.98 318.474 135.49 325.53 131.686C337.398 125.307 356.701 125.307 368.569 131.686C375.626 135.49 378.894 140.98 377.295 146.379L376.229 148.17H376.215ZM347.036 128.248C339.502 128.248 331.983 129.791 326.245 132.876C320.802 135.804 317.87 139.608 317.842 143.582C319.343 141.006 321.939 138.68 325.502 136.758C337.37 130.379 356.673 130.379 368.541 136.758C372.105 138.68 374.714 141.006 376.201 143.582C376.187 139.595 373.241 135.791 367.798 132.876C362.074 129.791 354.541 128.248 347.008 128.248H347.036Z" fill="black"></path><path d="M371.866 131.791C358.202 124.445 336.037 124.445 322.374 131.791C308.71 139.137 308.71 151.059 322.374 158.419C336.037 165.765 358.202 165.765 371.866 158.419C385.53 151.072 385.53 139.151 371.866 131.791ZM368.275 156.484C356.589 162.771 337.651 162.771 325.965 156.484C314.279 150.196 314.279 140.013 325.965 133.726C337.651 127.438 356.589 127.438 368.275 133.726C379.96 140.013 379.96 150.196 368.275 156.484Z" fill="#FFEECC"></path><path d="M347.036 163.137C337.945 163.137 328.855 161.281 321.925 157.556C315.079 153.869 311.305 148.941 311.305 143.66C311.305 138.379 315.079 133.438 321.925 129.752C335.771 122.301 358.301 122.301 372.147 129.752C378.993 133.438 382.766 138.379 382.766 143.66C382.766 148.941 378.993 153.883 372.147 157.569C365.231 161.294 356.126 163.15 347.036 163.15V163.137ZM347.036 125.503C338.212 125.503 329.374 127.307 322.654 130.928C316.285 134.353 312.764 138.876 312.764 143.647C312.764 148.418 316.271 152.941 322.654 156.366C336.094 163.595 357.964 163.595 371.417 156.366C377.786 152.941 381.307 148.418 381.307 143.647C381.307 138.876 377.8 134.353 371.417 130.928C364.698 127.307 355.874 125.503 347.036 125.503ZM347.036 160.405C339.236 160.405 331.45 158.811 325.516 155.621C319.624 152.458 316.383 148.196 316.383 143.647C316.383 139.098 319.624 134.837 325.516 131.673C337.384 125.294 356.687 125.294 368.555 131.673C374.447 134.837 377.688 139.098 377.688 143.647C377.688 148.196 374.447 152.458 368.555 155.621C362.621 158.811 354.836 160.405 347.036 160.405V160.405ZM347.036 128.235C339.502 128.235 331.983 129.778 326.246 132.863C320.831 135.778 317.856 139.608 317.856 143.647C317.856 147.686 320.845 151.53 326.246 154.432C337.707 160.601 356.365 160.601 367.826 154.432C373.241 151.517 376.215 147.686 376.215 143.647C376.215 139.608 373.227 135.765 367.826 132.863C362.088 129.778 354.569 128.235 347.036 128.235Z" fill="black"></path><path d="M369.958 157.896L362.215 160.85L360.994 161.033V166.34L371.431 162.484L379.287 157.582L381.995 151.974V147.503L377.941 153.255L369.958 157.896Z" fill="black"></path><path d="M335.897 128.85L332.699 129.386L323.847 133.477L318.165 139.124L317.365 145.098L323.328 138.915L331.899 134.667L335.897 134.065V128.85Z" fill="black"></path><path d="M221.2 145.255L222.28 146.183C232.142 136.183 240.531 139.268 240.882 139.399L241.457 138.144C241.065 137.987 231.806 134.51 221.2 145.268V145.255Z" fill="black"></path><path d="M202.248 184.863L203.665 185.19C207.298 171.399 211.801 160.445 217.062 152.641L215.813 151.909C210.482 159.843 205.909 170.928 202.234 184.863H202.248Z" fill="black"></path><path d="M191.614 268.314C190.337 250.013 187.686 235.909 183.73 226.366L182.355 226.863C186.227 236.196 188.836 250.013 190.113 267.974C190.183 268.941 190.211 269.922 190.211 270.889V271.255L191.474 271.203L192.933 271.255C193.424 258.771 194.195 246.954 195.219 236.118L193.76 236C192.806 246.013 192.077 256.876 191.586 268.327L191.614 268.314Z" fill="black"></path><path d="M194.644 227.804L196.103 227.948C197.548 215.098 199.442 203.412 201.729 193.19L200.298 192.915C198.011 203.176 196.103 214.915 194.658 227.804H194.644Z" fill="black"></path><path d="M192.203 279.516V279.49H191.684H191.221V279.516H190.744C190.899 283.869 190.955 287.791 190.969 291.007C190.927 293.974 190.885 296.967 190.871 299.987L192.33 300.013C192.33 300.013 192.442 296.497 192.428 291.02C192.484 287.124 192.568 283.281 192.68 279.529H192.203V279.516Z" fill="black"></path><path d="M126.129 285.124L127.574 285.385C131.123 268.666 135.262 254.601 139.891 243.555L138.53 243.059C133.887 254.17 129.72 268.327 126.143 285.124H126.129Z" fill="black"></path><path d="M117.824 338.34L119.283 338.484C120.981 323.111 123.099 308.614 125.582 295.373L124.137 295.137C121.654 308.405 119.522 322.941 117.824 338.34Z" fill="black"></path><path d="M168.116 212.039C165.184 212.039 162.014 213.059 158.661 215.072C152.994 218.47 147.691 224.745 142.921 233.712L144.24 234.314C148.897 225.568 154.018 219.477 159.461 216.222C162.575 214.353 165.493 213.412 168.13 213.412C171.539 213.412 174.626 215.006 177.319 218.157L178.469 217.307C175.481 213.817 172.002 212.052 168.13 212.052L168.116 212.039Z" fill="black"></path><path d="M115.173 368.889L116.632 368.954C116.632 368.876 117.067 360.81 118.245 348.549L116.786 348.431C115.608 360.706 115.173 368.81 115.173 368.889Z" fill="black"></path><path d="M270.669 142.183C279.337 131.438 277.015 116.179 265.484 108.102C253.952 100.026 237.577 102.189 228.909 112.935C220.241 123.68 222.563 138.939 234.094 147.015C245.626 155.092 262.002 152.929 270.669 142.183Z" fill="#FEBD33"></path><path d="M247.91 108.144C236.183 110 227.639 118.876 226.349 129.36C231.371 133.634 238.371 135.804 245.596 134.654C257.857 132.706 266.147 122 264.366 110.588C259.484 108.209 253.76 107.216 247.91 108.144Z" fill="#FFEECC"></path><path d="M276.276 123.36C275.07 116.771 271.184 111.007 265.334 107.137C259.484 103.268 252.372 101.752 245.287 102.876C230.684 105.19 220.822 118.144 223.305 131.739C224.511 138.327 228.397 144.092 234.247 147.961C238.834 150.994 244.207 152.588 249.734 152.588C251.249 152.588 252.778 152.471 254.293 152.222C261.364 151.098 267.55 147.477 271.703 142.026C275.855 136.575 277.483 129.948 276.276 123.347V123.36ZM274.929 130.928C273.961 126.615 271.703 123.608 269.641 120.902C268.617 119.569 267.663 118.288 266.891 116.928C271.086 117.098 272.909 118.314 273.316 118.641C274.003 120.222 274.523 121.869 274.845 123.582C275.294 126.052 275.308 128.51 274.943 130.915L274.929 130.928ZM272.25 116.523C270.945 116.026 268.967 115.569 266.176 115.543C264.731 112.288 264.913 109.935 265.194 108.771C268.168 110.876 270.553 113.516 272.25 116.523ZM263.917 107.909C263.538 109.02 263.019 111.699 264.604 115.582C263.987 115.608 263.314 115.66 262.626 115.739C259.765 108.432 254.181 105.268 250.155 103.909C255.037 103.961 259.779 105.333 263.917 107.922V107.909ZM245.47 104.248C246.325 104.314 256.777 105.307 261.125 115.922C259.975 116.079 258.825 116.275 257.688 116.484C256.833 114.392 255.304 112.732 253.115 111.556C246.83 108.196 236.814 109.595 232.227 110.484C235.762 107.32 240.293 105.072 245.47 104.235V104.248ZM230.431 112.288C232.367 111.83 245.273 108.941 252.372 112.745C254.181 113.713 255.444 115.085 256.201 116.784C248.921 118.314 241.738 120.954 235.509 124.458C230.838 127.085 226.699 130.392 224.862 131.935C224.834 131.791 224.792 131.647 224.764 131.503C223.459 124.353 225.774 117.412 230.431 112.262V112.288ZM225.226 133.49C226.503 132.379 231.048 128.588 236.281 125.647C242.411 122.196 249.51 119.595 256.692 118.105C259.596 129.294 241.415 144.17 236.688 147.804C236.155 147.503 235.622 147.203 235.117 146.863C230.179 143.595 226.728 138.902 225.241 133.49H225.226ZM254.055 150.889C248.514 151.765 242.944 150.915 238.048 148.51C243.492 144.262 261.097 129.438 258.123 117.804C259.302 117.582 260.48 117.386 261.644 117.229C265.628 128.575 263.931 136.601 262.276 141.673C260.789 146.248 258.334 149.294 257.702 150.026C256.524 150.379 255.318 150.693 254.055 150.889V150.889ZM270.51 141.255C267.845 144.758 264.268 147.438 260.157 149.15C261.238 147.608 262.64 145.203 263.664 142.079C265.362 136.876 267.116 128.654 263.117 117.072C263.875 117.007 264.576 116.954 265.236 116.941C266.105 118.628 267.228 120.131 268.434 121.713C271.072 125.164 273.793 128.745 273.947 134.902C273.162 137.137 272.011 139.281 270.51 141.268V141.255Z" fill="black"></path><path d="M275.434 123.49C274.859 120.314 273.625 117.386 271.913 114.797C273.597 127.621 264.198 139.542 250.394 141.725C239.578 143.438 229.211 138.693 223.781 130.497C223.838 130.876 223.852 131.268 223.922 131.647C226.335 144.902 239.83 153.817 254.055 151.569C268.28 149.32 277.847 136.745 275.434 123.49V123.49Z" fill="black"></path><path d="M265.362 134.052C264.829 134.601 264.282 135.124 263.693 135.634C263.342 137.987 262.795 140 262.248 141.686C260.761 146.261 258.306 149.307 257.674 150.039C257.674 150.039 258.642 149.83 260.143 149.163C261.224 147.621 262.626 145.216 263.65 142.091C264.352 139.935 265.053 137.268 265.362 134.065V134.052Z" fill="#FEBD33"></path><path d="M245.484 142.066C244.838 142.066 244.193 142.026 243.548 141.961C240.672 144.641 238.063 146.719 236.66 147.804C236.66 147.804 237.221 148.144 238.02 148.523C239.676 147.229 242.481 144.941 245.47 142.066H245.484Z" fill="#FEBD33"></path><path d="M271.366 123.32C271.212 123.922 271.029 124.523 270.833 125.111C272.502 127.699 273.821 130.693 273.919 134.915C273.919 134.915 274.733 132.392 274.901 130.954C274.2 127.856 272.839 125.438 271.366 123.32Z" fill="#FEBD33"></path><path d="M259.203 305.307C259.694 305.569 259.694 306 259.203 306.262C258.712 306.523 257.912 306.523 257.421 306.262C256.93 306 256.93 305.569 257.421 305.307C257.912 305.046 258.712 305.046 259.203 305.307Z" fill="black"></path><path d="M249.874 305.307C250.365 305.569 250.365 306 249.874 306.262C249.383 306.523 248.584 306.523 248.093 306.262C247.602 306 247.602 305.569 248.093 305.307C248.584 305.046 249.383 305.046 249.874 305.307Z" fill="black"></path><path d="M254.532 302.798C255.023 303.059 255.023 303.49 254.532 303.752C254.041 304.013 253.241 304.013 252.75 303.752C252.259 303.49 252.259 303.059 252.75 302.798C253.241 302.536 254.041 302.536 254.532 302.798Z" fill="black"></path><path d="M240.545 305.307C241.036 305.569 241.036 306 240.545 306.262C240.054 306.523 239.255 306.523 238.764 306.262C238.273 306 238.273 305.569 238.764 305.307C239.255 305.046 240.054 305.046 240.545 305.307Z" fill="black"></path><path d="M245.203 302.798C245.694 303.059 245.694 303.49 245.203 303.752C244.712 304.013 243.912 304.013 243.421 303.752C242.93 303.49 242.93 303.059 243.421 302.798C243.912 302.536 244.712 302.536 245.203 302.798Z" fill="black"></path><path d="M249.874 300.287C250.365 300.549 250.365 300.98 249.874 301.242C249.383 301.503 248.584 301.503 248.093 301.242C247.602 300.98 247.602 300.549 248.093 300.287C248.584 300.026 249.383 300.026 249.874 300.287Z" fill="black"></path><path d="M235.874 302.798C236.365 303.059 236.365 303.49 235.874 303.752C235.383 304.013 234.583 304.013 234.092 303.752C233.601 303.49 233.601 303.059 234.092 302.798C234.583 302.536 235.383 302.536 235.874 302.798Z" fill="black"></path><path d="M240.545 300.287C241.036 300.549 241.036 300.98 240.545 301.242C240.054 301.503 239.255 301.503 238.764 301.242C238.273 300.98 238.273 300.549 238.764 300.287C239.255 300.026 240.054 300.026 240.545 300.287Z" fill="black"></path><path d="M245.203 297.778C245.694 298.039 245.694 298.47 245.203 298.732C244.712 298.993 243.912 298.993 243.421 298.732C242.93 298.47 242.93 298.039 243.421 297.778C243.912 297.516 244.712 297.516 245.203 297.778Z" fill="black"></path><path d="M231.174 300.262C231.665 300.523 231.665 300.954 231.174 301.216C230.683 301.477 229.884 301.477 229.393 301.216C228.902 300.954 228.902 300.523 229.393 300.262C229.884 300 230.683 300 231.174 300.262Z" fill="black"></path><path d="M235.832 297.752C236.323 298.013 236.323 298.445 235.832 298.706C235.341 298.967 234.541 298.967 234.05 298.706C233.559 298.445 233.559 298.013 234.05 297.752C234.541 297.49 235.341 297.49 235.832 297.752Z" fill="black"></path><path d="M240.503 295.242C240.994 295.503 240.994 295.935 240.503 296.196C240.012 296.458 239.213 296.458 238.722 296.196C238.231 295.935 238.231 295.503 238.722 295.242C239.213 294.981 240.012 294.981 240.503 295.242Z" fill="black"></path><path d="M231.174 295.242C231.665 295.503 231.665 295.935 231.174 296.196C230.683 296.458 229.884 296.458 229.393 296.196C228.902 295.935 228.902 295.503 229.393 295.242C229.884 294.981 230.683 294.981 231.174 295.242Z" fill="black"></path><path d="M235.832 292.732C236.323 292.994 236.323 293.425 235.832 293.686C235.341 293.948 234.541 293.948 234.05 293.686C233.559 293.425 233.559 292.994 234.05 292.732C234.541 292.471 235.341 292.471 235.832 292.732Z" fill="black"></path><path d="M231.174 290.222C231.665 290.484 231.665 290.915 231.174 291.177C230.683 291.438 229.884 291.438 229.393 291.177C228.902 290.915 228.902 290.484 229.393 290.222C229.884 289.961 230.683 289.961 231.174 290.222Z" fill="black"></path><path d="M262.093 302.837C262.584 302.575 263.384 302.575 263.875 302.837C264.366 303.098 264.366 303.53 263.875 303.791C263.384 304.052 262.584 304.052 262.093 303.791C261.602 303.53 261.602 303.098 262.093 302.837Z" fill="black"></path><path d="M268.546 300.314C269.037 300.575 269.037 301.007 268.546 301.268C268.055 301.529 267.255 301.529 266.764 301.268C266.273 301.007 266.273 300.575 266.764 300.314C267.255 300.052 268.055 300.052 268.546 300.314Z" fill="black"></path><path d="M257.421 300.327C257.912 300.065 258.712 300.065 259.203 300.327C259.694 300.588 259.694 301.02 259.203 301.281C258.712 301.543 257.912 301.543 257.421 301.281C256.93 301.02 256.93 300.588 257.421 300.327Z" fill="black"></path><path d="M263.875 297.804C264.366 298.065 264.366 298.497 263.875 298.758C263.384 299.02 262.584 299.02 262.093 298.758C261.602 298.497 261.602 298.065 262.093 297.804C262.584 297.543 263.384 297.543 263.875 297.804Z" fill="black"></path><path d="M268.546 295.294C269.037 295.556 269.037 295.987 268.546 296.248C268.055 296.51 267.255 296.51 266.764 296.248C266.273 295.987 266.273 295.556 266.764 295.294C267.255 295.033 268.055 295.033 268.546 295.294Z" fill="black"></path><path d="M252.764 297.817C253.255 297.556 254.055 297.556 254.546 297.817C255.037 298.079 255.037 298.51 254.546 298.771C254.055 299.033 253.255 299.033 252.764 298.771C252.273 298.51 252.273 298.079 252.764 297.817Z" fill="black"></path><path d="M259.217 295.294C259.708 295.556 259.708 295.987 259.217 296.248C258.726 296.51 257.927 296.51 257.436 296.248C256.945 295.987 256.945 295.556 257.436 295.294C257.927 295.033 258.726 295.033 259.217 295.294Z" fill="black"></path><path d="M263.875 292.784C264.366 293.046 264.366 293.477 263.875 293.739C263.384 294 262.584 294 262.093 293.739C261.602 293.477 261.602 293.046 262.093 292.784C262.584 292.523 263.384 292.523 263.875 292.784Z" fill="black"></path><path d="M268.546 290.275C269.037 290.536 269.037 290.967 268.546 291.229C268.055 291.49 267.255 291.49 266.764 291.229C266.273 290.967 266.273 290.536 266.764 290.275C267.255 290.013 268.055 290.013 268.546 290.275Z" fill="black"></path><path d="M248.093 295.307C248.584 295.046 249.383 295.046 249.874 295.307C250.365 295.569 250.365 296 249.874 296.262C249.383 296.523 248.584 296.523 248.093 296.262C247.602 296 247.602 295.569 248.093 295.307Z" fill="black"></path><path d="M254.546 292.784C255.037 293.046 255.037 293.477 254.546 293.739C254.055 294 253.255 294 252.764 293.739C252.273 293.477 252.273 293.046 252.764 292.784C253.255 292.523 254.055 292.523 254.546 292.784Z" fill="black"></path><path d="M259.217 290.275C259.708 290.536 259.708 290.967 259.217 291.229C258.726 291.49 257.927 291.49 257.436 291.229C256.945 290.967 256.945 290.536 257.436 290.275C257.927 290.013 258.726 290.013 259.217 290.275Z" fill="black"></path><path d="M263.875 287.765C264.366 288.026 264.366 288.458 263.875 288.719C263.384 288.981 262.584 288.981 262.093 288.719C261.602 288.458 261.602 288.026 262.093 287.765C262.584 287.503 263.384 287.503 263.875 287.765Z" fill="black"></path><path d="M243.393 292.771C243.884 292.51 244.684 292.51 245.175 292.771C245.666 293.033 245.666 293.464 245.175 293.726C244.684 293.987 243.884 293.987 243.393 293.726C242.902 293.464 242.902 293.033 243.393 292.771Z" fill="black"></path><path d="M249.846 290.248C250.337 290.51 250.337 290.941 249.846 291.203C249.355 291.464 248.556 291.464 248.065 291.203C247.574 290.941 247.574 290.51 248.065 290.248C248.556 289.987 249.355 289.987 249.846 290.248Z" fill="black"></path><path d="M254.504 287.739C254.995 288 254.995 288.431 254.504 288.693C254.013 288.954 253.213 288.954 252.722 288.693C252.231 288.431 252.231 288 252.722 287.739C253.213 287.477 254.013 287.477 254.504 287.739Z" fill="black"></path><path d="M259.175 285.229C259.666 285.49 259.666 285.922 259.175 286.183C258.684 286.444 257.885 286.444 257.394 286.183C256.903 285.922 256.903 285.49 257.394 285.229C257.885 284.967 258.684 284.967 259.175 285.229Z" fill="black"></path><path d="M238.722 290.262C239.213 290 240.012 290 240.503 290.262C240.994 290.523 240.994 290.954 240.503 291.216C240.012 291.477 239.213 291.477 238.722 291.216C238.231 290.954 238.231 290.523 238.722 290.262Z" fill="black"></path><path d="M245.175 287.739C245.666 288 245.666 288.431 245.175 288.693C244.684 288.954 243.884 288.954 243.393 288.693C242.902 288.431 242.902 288 243.393 287.739C243.884 287.477 244.684 287.477 245.175 287.739Z" fill="black"></path><path d="M249.846 285.229C250.337 285.49 250.337 285.922 249.846 286.183C249.355 286.444 248.556 286.444 248.065 286.183C247.574 285.922 247.574 285.49 248.065 285.229C248.556 284.967 249.355 284.967 249.846 285.229Z" fill="black"></path><path d="M234.064 287.752C234.555 287.49 235.355 287.49 235.846 287.752C236.337 288.013 236.337 288.445 235.846 288.706C235.355 288.967 234.555 288.967 234.064 288.706C233.573 288.445 233.573 288.013 234.064 287.752Z" fill="black"></path><path d="M240.517 285.229C241.008 285.49 241.008 285.922 240.517 286.183C240.026 286.444 239.227 286.444 238.736 286.183C238.245 285.922 238.245 285.49 238.736 285.229C239.227 284.967 240.026 284.967 240.517 285.229Z" fill="black"></path></g><defs><clipPath id="clip0_1526_3757"><rect width="493" height="380" rx="20" fill="white"></rect></clipPath></defs></svg> 