<?xml version="1.0" encoding="UTF-8"?> <svg xmlns="http://www.w3.org/2000/svg" width="461" height="317" viewBox="0 0 461 317" fill="none"><g clip-path="url(#clip0_1526_4657)"><path d="M32.8068 117.23C37.8371 114.326 45.9993 114.326 51.0295 117.23C56.0598 120.134 56.0598 124.837 51.0295 127.709C45.9993 130.613 37.8371 130.613 32.8068 127.709C27.7766 124.805 27.7766 120.102 32.8068 117.23Z" fill="black"></path><path d="M0 122.469C0 129.666 4.61895 136.295 13.0027 141.124C21.1016 145.795 31.5417 148.131 41.9502 148.131C52.3586 148.131 62.7671 145.795 70.8977 141.124C79.2814 136.295 83.9003 129.666 83.9003 122.469C83.9003 115.273 79.2814 108.644 70.8977 103.815C54.6681 94.4719 29.2639 94.4719 13.0343 103.815C4.61895 108.676 0 115.273 0 122.469ZM6.89678 122.469C6.89678 117.829 10.2819 113.316 16.451 109.781C23.4744 105.74 32.7123 103.72 41.9502 103.72C51.1881 103.72 60.426 105.74 67.4493 109.781C73.6184 113.316 77.0035 117.829 77.0035 122.469C77.0035 127.109 73.6184 131.623 67.4493 135.19C53.4026 143.27 30.5293 143.27 16.4827 135.19C10.3135 131.655 6.92842 127.109 6.92842 122.469H6.89678Z" fill="black"></path><path d="M32.8068 110.349C37.8371 107.445 45.9993 107.445 51.0295 110.349C56.0598 113.253 56.0598 117.956 51.0295 120.828C45.9993 123.732 37.8371 123.732 32.8068 120.828C27.7766 117.924 27.7766 113.221 32.8068 110.349Z" fill="#FEBD33"></path><path d="M0 115.589C0 122.785 4.61895 129.414 13.0027 134.243C21.1016 138.915 31.5417 141.25 41.9502 141.25C52.3586 141.25 62.7671 138.915 70.866 134.243C79.2497 129.414 83.8687 122.785 83.8687 115.589C83.8687 108.392 79.2497 101.763 70.866 96.934C54.6365 87.591 29.2322 87.591 13.0027 96.934C4.61895 101.763 0 108.392 0 115.589ZM6.89678 115.589C6.89678 110.949 10.2819 106.435 16.451 102.9C23.4744 98.8594 32.7123 96.8393 41.9502 96.8393C51.1881 96.8393 60.426 98.8594 67.4493 102.9C73.6184 106.435 77.0035 110.949 77.0035 115.589C77.0035 120.228 73.6184 124.742 67.4493 128.309C53.4026 136.389 30.5293 136.389 16.4827 128.309C10.3135 124.774 6.92842 120.228 6.92842 115.589H6.89678Z" fill="#FEBD33"></path><path d="M583.094 317C576.704 317 570.345 315.359 564.65 312.013L321.681 170.226C314.12 165.807 304.692 165.776 297.099 170.131L218.577 215.332C207.283 221.834 193.3 221.802 182.037 215.268L84.7227 158.895C81.6223 157.095 80.5783 153.15 82.3815 150.057C84.1848 146.963 88.1394 145.922 91.2398 147.721L188.554 204.095C195.83 208.293 204.847 208.324 212.123 204.126L290.645 158.926C302.288 152.266 316.682 152.298 328.261 159.052L571.199 300.839C578.476 305.1 587.555 305.132 594.863 300.902L650.828 269.149C653.929 267.381 657.883 268.454 659.655 271.579C661.427 274.672 660.351 278.618 657.219 280.385L601.286 312.108C595.686 315.327 589.39 316.968 583.094 316.968V317Z" fill="#FEEDCC"></path><path d="M291.69 114.263L290.741 113.411C289.38 112.527 288.305 112.432 287.103 112.558C285.394 113 283.781 113.695 282.262 114.642C281.44 115.178 280.491 115.778 279.668 116.441C279.067 116.914 279.51 117.135 280.237 116.914C282.579 116.251 284.508 117.041 284.508 119.597C284.508 125.026 282.262 126.131 282.262 126.131C281.724 126.541 281.187 126.952 280.649 127.33C281.123 129.698 281.345 132.191 281.44 133.896C281.661 137.684 284.793 139.356 288.431 137.21C292.07 135.095 292.513 128.972 292.354 125.279C292.259 123.416 292.576 121.933 292.987 120.639C293.43 119.25 293.62 115.936 291.722 114.231L291.69 114.263Z" fill="black"></path><path d="M251.765 178.622L250.721 177.833C250.657 178.086 250.626 178.275 250.626 178.275C244.868 182.946 242.748 179.222 242.748 179.222C242.748 177.391 235.883 187.365 233.447 190.238C231.011 193.142 232.15 196.487 236.231 197.434C240.344 198.381 244.868 194.246 247.304 191.469C248.506 190.08 250.025 189.038 251.227 188.375C252.492 187.649 253.315 186.324 253.315 184.872V181.747C253.315 180.548 252.745 179.411 251.765 178.685V178.622Z" fill="black"></path><path d="M227.278 91.0946C227.278 91.0946 223.481 95.3873 223.829 101.164C223.829 101.227 223.829 101.29 223.829 101.321C224.082 104.793 227.847 105.835 229.682 103.057C230.125 102.395 231.011 102.616 231.58 102.363C233.32 101.605 235.092 93.5881 234.174 92.2309L231.991 92.5781L227.246 91.063L227.278 91.0946Z" fill="black"></path><path d="M283.654 124.363C283.654 124.363 285.268 120.165 283.939 116.599C283.813 116.22 283.37 116.03 282.99 116.157L273.151 118.997L263.185 124.395C263.185 124.395 259.547 134.369 264.514 135.032C268.342 135.569 279.542 128.593 283.654 124.395V124.363Z" fill="#FFEECC"></path><path d="M264.325 136.358C263.027 136.168 261.983 135.505 261.351 134.432C259.358 131.118 261.635 124.584 261.888 123.858L262.078 123.353L272.771 117.608L282.61 114.768C283.686 114.452 284.857 115.02 285.268 116.062C286.755 120.102 285.047 124.616 284.983 124.805L284.667 125.279C280.807 129.256 269.861 136.389 264.926 136.389C264.704 136.389 264.514 136.389 264.325 136.358V136.358ZM282.832 117.577L273.816 120.165L264.325 125.279C263.629 127.393 262.743 131.402 263.723 132.98C263.945 133.359 264.23 133.548 264.704 133.612C267.741 134.085 278.15 127.835 282.452 123.574C282.705 122.753 283.465 120.007 282.832 117.577V117.577Z" fill="black"></path><path d="M237.812 95.0085C237.812 95.0085 233.636 114.2 238.888 129.855C238.888 129.855 241.577 135.947 249.55 135.032C249.55 135.032 248.537 144.533 247.968 150.088C247.968 150.088 245.437 161.262 242.843 179.948C242.779 180.358 243.032 180.769 243.475 180.863C244.899 181.211 248.126 181.526 250.657 178.275C250.657 178.275 254.928 166.091 258.376 159.936C262.805 152.077 259.863 146.774 259.863 146.774C259.863 146.774 263.533 137.557 269.512 127.015C277.105 113.631 277.327 101.763 276.156 96.4289C274.985 91.0945 254.295 88.3169 254.295 88.3169L237.812 94.977V95.0085Z" fill="black"></path><path d="M244.171 180.327C244.171 180.327 248.442 168.143 251.89 161.988C256.319 154.128 253.377 148.825 253.377 148.825C253.377 148.825 257.047 139.609 263.026 129.066C270.619 115.683 270.84 103.815 269.67 98.4804C268.721 94.1245 254.801 91.4731 249.676 90.6524L254.643 88.6323C254.643 88.6323 275.333 91.4415 276.503 96.7443C277.674 102.079 277.453 113.947 269.86 127.33C263.88 137.873 260.211 147.089 260.211 147.089C260.211 147.089 263.153 152.392 258.724 160.252C255.244 166.375 251.004 178.591 251.004 178.591C248.473 181.81 245.246 181.494 243.823 181.179C243.696 181.179 243.633 181.053 243.538 180.989C243.728 180.768 243.949 180.579 244.139 180.327H244.171Z" fill="#FFEECC"></path><path d="M243.127 182.189C242.02 181.936 241.324 180.863 241.451 179.727C243.981 161.23 246.544 149.899 246.576 149.899L247.999 136.452C241.957 136.452 238.572 132.57 237.559 130.234C232.244 114.42 236.262 95.4818 236.452 94.6611L236.61 93.9351L254.105 86.8647H254.485C258.091 87.4013 276.219 90.1474 277.548 96.1131C278.972 102.647 278.054 114.831 270.746 127.677C265.684 136.578 262.267 144.596 261.382 146.711C262.078 148.478 263.501 153.655 259.578 160.599C256.225 166.565 251.986 178.591 251.954 178.685L251.732 179.096C249.613 181.779 247.082 182.41 245.184 182.41C244.329 182.41 243.602 182.284 243.127 182.157V182.189ZM257.142 159.273C261.097 152.266 258.724 147.626 258.629 147.468L258.313 146.9L258.566 146.3C258.566 146.3 262.331 136.863 268.31 126.383C275.238 114.199 276.124 102.836 274.796 96.7759C274.194 94.093 263.849 91.0944 254.453 89.7687L239.015 96.0184C238.35 99.5851 235.661 115.967 240.153 129.287C240.248 129.508 242.558 134.401 249.391 133.643L251.1 133.454L249.296 150.404C249.296 150.404 246.765 161.546 244.266 179.632C245.595 179.853 247.651 179.695 249.391 177.612C250.024 175.844 253.884 165.081 257.142 159.305V159.273Z" fill="black"></path><path d="M250.911 135.221C252.492 125.626 255.624 112.969 255.656 112.811L252.967 112.148C252.967 112.148 249.772 125.058 248.158 134.748L250.911 135.19V135.221Z" fill="black"></path><path d="M270.272 38.3506C270.272 38.3506 280.933 39.1397 284.445 46.4626C287.546 52.9648 293.588 66.0009 294.948 68.9048C295.138 69.2836 295.233 69.6939 295.296 70.1358L298.334 92.8621C298.429 93.5565 297.922 94.1562 297.258 94.2193L291.595 94.8191C290.994 94.8822 290.456 94.4719 290.298 93.9037L285.805 74.7442C285.268 72.44 284.287 70.2936 282.895 68.3998C280.554 65.2118 276.916 59.8143 274.828 56.216C274.669 55.9319 274.227 55.995 274.163 56.3106C273.499 59.1514 271.632 68.0526 272.265 73.9551C273.024 81.0255 278.308 86.928 277.643 95.545C277.643 95.545 271.537 104.793 251.828 101.132C236.927 98.3543 236.041 92.4202 236.104 90.9367C236.104 90.621 234.934 93.0199 234.617 92.9883L228.67 91.852C228.037 91.7258 227.626 91.1576 227.689 90.5263L231.137 65.0855C231.137 65.0855 231.833 47.5358 238.414 42.1383L259.61 36.0464L270.272 38.3506V38.3506Z" fill="#FEBD33"></path><path d="M230.283 91.7259C230.283 91.8837 230.283 92.1046 230.315 92.3571L229.872 92.2624C230.094 91.8837 230.283 91.568 230.283 91.6943V91.7259Z" fill="#FFEECC"></path><path d="M271.822 96.3342C272.455 87.7172 267.171 81.8462 266.444 74.7443C265.811 68.8418 267.709 59.9406 268.342 57.0998C268.405 56.7842 268.848 56.7211 269.006 57.0051C269.892 58.5202 271.062 60.3825 272.296 62.2132C271.664 65.9378 271.157 70.5147 271.537 74.0499C272.296 81.1203 277.58 87.0228 276.915 95.6398C276.915 95.6398 273.056 101.385 261.793 102.016C269.133 100.311 271.822 96.3342 271.822 96.3342Z" fill="#FFEECC"></path><path d="M292.545 93.651L289.507 70.9248C289.444 70.5144 289.318 70.1041 289.159 69.6938C287.799 66.7899 281.756 53.7538 278.656 47.2516C275.144 39.8971 264.483 39.1395 264.483 39.1395L255.34 37.151L258.946 36.1094L269.608 38.4136C269.608 38.4136 280.269 39.2027 283.781 46.5256C286.882 53.0278 292.924 66.0639 294.285 68.9678C294.474 69.3466 294.569 69.7569 294.633 70.1988L297.67 92.9251C297.765 93.6195 297.258 94.2192 296.594 94.2823L292.038 94.7874C292.418 94.5348 292.639 94.1245 292.576 93.651H292.545Z" fill="#FFEECC"></path><path d="M251.575 102.521C240.913 100.532 236.959 96.8705 235.503 94.0929C235.187 94.3454 234.807 94.4401 234.333 94.3454L228.385 93.2091C227.056 92.9566 226.139 91.7256 226.297 90.3367L229.714 65.0222C229.714 64.2647 230.505 46.778 237.496 41.0334L259.547 34.5942L270.462 36.9616C271.696 37.0563 282.009 38.1926 285.679 45.8627C288.779 52.3649 294.854 65.401 296.182 68.3364C296.404 68.8415 296.562 69.3781 296.657 69.9462L299.694 92.6725C299.789 93.3669 299.599 94.0929 299.156 94.6295C298.713 95.1661 298.049 95.5133 297.385 95.5764L291.69 96.1761C290.488 96.3024 289.222 95.4502 288.938 94.1876L284.445 75.0281C283.939 72.9133 283.053 70.9563 281.756 69.1887C279.858 66.6004 277.074 62.4971 274.954 59.0881C274.195 62.9074 273.119 69.3149 273.594 73.7971C273.879 76.5432 274.923 79.163 276.03 81.9406C277.675 86.044 279.383 90.2736 278.972 95.6395L278.751 96.3024C278.529 96.6496 273.879 103.373 260.496 103.373C257.87 103.373 254.897 103.12 251.543 102.489L251.575 102.521ZM273.499 82.9823C272.36 80.1731 271.189 77.2376 270.873 74.1127C270.24 68.1155 272.012 59.4669 272.803 55.9948C272.961 55.3004 273.531 54.7638 274.258 54.6376C274.954 54.5429 275.682 54.8585 276.03 55.4898C278.118 59.025 281.724 64.3909 284.034 67.5473C285.552 69.6306 286.596 71.9348 287.198 74.3968L291.468 93.43L296.973 93.0197L293.936 70.2934C293.905 70.0094 293.81 69.7253 293.683 69.4728C292.354 66.5688 286.28 53.5328 283.18 47.0621C280.079 40.5599 270.272 39.7392 270.177 39.7392L259.674 37.4666L239.078 43.3691C233.257 48.5141 232.529 64.9591 232.498 65.2747L228.923 90.4946L234.08 91.4731C234.206 91.2837 234.301 91.0943 234.428 90.9049C234.871 90.1474 235.377 89.2636 236.452 89.5792L237.496 89.8948V90.968C237.465 91.5993 237.718 97.1231 252.049 99.7745C268.785 102.899 275.081 96.4602 276.251 95.0398C276.504 90.4946 274.954 86.6753 273.467 82.9507L273.499 82.9823Z" fill="black"></path><path d="M262.204 31.5957C258.249 33.963 254.516 34.2787 251.922 34.0893L250.435 34.4365L249.581 39.6446C249.581 39.6446 250.214 46.0521 255.56 47.5988C260.907 49.1454 264.956 39.3921 264.956 39.3921L262.204 31.5957Z" fill="#FFEECC"></path><path d="M255.212 48.9245C249.043 47.1569 248.284 40.0866 248.252 39.7709V39.5815L249.264 33.2687L251.859 32.6374H252.08C254.358 32.8583 257.838 32.5743 261.539 30.3648L262.995 29.481L266.506 39.3921L266.316 39.8972C266.158 40.3075 262.425 49.1139 256.794 49.1139C256.288 49.1139 255.781 49.0508 255.244 48.893L255.212 48.9245ZM261.444 33.5843C257.806 35.3519 254.421 35.6044 252.048 35.4782L251.669 35.5729L251.004 39.6762C251.131 40.6231 251.985 45.1368 255.971 46.2731C259.483 47.3148 262.647 41.1282 263.469 39.3606L261.444 33.6159V33.5843Z" fill="black"></path><path d="M244.488 12.2788C244.488 12.2788 239.299 13.857 240.217 21.464C241.134 29.071 235.06 27.9347 236.42 37.7512C236.578 38.9822 236.99 40.1185 237.591 41.1601C237.939 41.7914 238.698 42.0755 239.394 41.8545L247.936 39.14C249.644 38.6034 250.91 37.0883 251.1 35.2892L251.985 27.335L247.778 19.5386C247.778 19.5386 244.741 18.1182 244.456 12.3104L244.488 12.2788Z" fill="#FFEECC"></path><path d="M236.389 38.0982C235.029 28.2817 241.103 29.418 240.185 21.811C239.932 19.6647 240.185 18.0549 240.628 16.7607C240.976 17.0764 241.261 17.2026 241.261 17.2026L245.469 24.999L244.583 32.9532C244.393 34.7524 243.128 36.2675 241.419 36.8041L236.452 38.3823C236.452 38.3823 236.389 38.1929 236.389 38.0982V38.0982Z" fill="#FEBD33"></path><path d="M236.357 41.8544C235.629 40.6234 235.186 39.2977 234.997 37.972C234.206 32.1957 235.787 29.7968 237.211 27.6505C238.318 26.0091 239.173 24.6834 238.825 21.6532C238.002 14.7407 241.893 11.6474 244.076 10.9845L245.785 10.4795L245.88 12.2471C246.101 17.0449 248.347 18.2759 248.41 18.3074L248.822 18.4968L253.441 27.0823L252.492 35.4784C252.238 37.8142 250.593 39.7711 248.379 40.4971L239.837 43.2116C239.552 43.3063 239.267 43.3379 238.951 43.3379C237.939 43.3379 236.926 42.8013 236.42 41.8859L236.357 41.8544ZM246.734 20.5169C245.88 19.9172 244.045 18.2759 243.349 14.6144C242.273 15.656 241.134 17.6446 241.577 21.306C242.051 25.3463 240.723 27.3664 239.552 29.1655C238.287 31.0594 237.116 32.8586 237.781 37.5616C237.907 38.5401 238.255 39.5186 238.951 40.5287L247.493 37.8142C248.695 37.4354 249.549 36.3938 249.708 35.1312L250.562 27.5873L246.734 20.4854V20.5169Z" fill="black"></path><path d="M246.481 21.0216C245.848 23.7993 245.943 27.6501 248.094 32.7004C248.284 33.1739 248.695 33.5211 249.17 33.6473C251.1 34.1524 256.446 35.0677 262.236 31.6272C262.236 31.6272 261.635 28.9127 262.236 25.9457L252.934 14.5825C249.771 15.4032 247.24 17.8652 246.512 21.0532L246.481 21.0216Z" fill="#FFEECC"></path><path d="M248.822 34.9415C247.936 34.7206 247.177 34.0577 246.829 33.2055C244.867 28.6287 244.298 24.3991 245.152 20.6745C245.974 17.013 248.822 14.1407 252.586 13.1622L253.472 12.9097L263.754 25.4722L263.628 26.1035C263.121 28.7549 263.628 31.2169 263.628 31.2485L263.817 32.227L262.963 32.732C259.388 34.8784 255.94 35.4781 253.251 35.4781C251.289 35.4781 249.739 35.1625 248.822 34.9415V34.9415ZM260.749 26.2614L252.46 16.1292C250.15 17.013 248.379 18.97 247.841 21.3058C247.113 24.4306 247.651 28.0921 249.549 32.2586C251.289 32.732 255.75 33.458 260.717 30.8382C260.591 29.7966 260.496 28.1236 260.749 26.2614V26.2614Z" fill="black"></path><path d="M246.133 7.19677C246.133 7.19677 240.691 11.8683 245.437 18.9387L246.829 19.7909C246.829 19.7909 248.094 15.6876 252.935 14.5197C252.935 14.5197 254.611 25.5356 262.299 27.0823C262.299 27.0823 261.255 32.7638 264.988 39.3923C264.988 39.3923 270.873 42.17 276.251 40.4024C277.105 40.1183 277.39 39.0451 276.82 38.3191C275.017 36.0781 272.581 30.9331 273.309 24.3362C274.321 15.2141 269.069 4.79788 259.072 3.40905C249.107 2.02023 246.101 7.19677 246.101 7.19677H246.133Z" fill="#FFEECC"></path><path d="M245.468 6.97549C245.468 6.97549 246.923 4.5766 251.004 3.50342C251.89 3.50342 252.776 3.56655 253.788 3.6928C263.754 5.08163 269.037 15.4663 268.025 24.6199C267.297 31.2169 269.702 36.3618 271.537 38.6029C272.106 39.2973 271.821 40.4021 270.967 40.6861C270.904 40.6861 270.841 40.6861 270.777 40.7177C267.202 40.4967 264.323 39.171 264.323 39.171C260.59 32.5426 261.634 26.861 261.634 26.861C253.947 25.3143 252.27 14.2984 252.27 14.2984C250.34 14.7719 249.011 15.7188 248.062 16.6657C247.777 15.561 247.651 14.8034 247.651 14.8034C245.943 15.2138 244.677 16.0029 243.76 16.8551C240.976 10.8263 245.468 6.97549 245.468 6.97549Z" fill="#FEBD33"></path><path d="M264.387 40.6548L263.976 40.4654L263.754 40.0866C260.843 34.9101 260.654 30.3017 260.78 28.1553C254.959 26.1984 252.65 19.5067 251.859 16.3819C249.011 17.6444 248.157 20.138 248.126 20.2643L247.588 21.9687L244.677 20.1696L244.266 19.7592C240.058 13.5095 242.842 8.33297 245.057 6.34442C245.816 5.27124 249.518 0.725984 259.262 2.08325C270.176 3.59833 275.744 14.8983 274.669 24.5254C273.973 30.8067 276.345 35.6361 277.864 37.4668C278.433 38.1612 278.623 39.0766 278.37 39.9604C278.117 40.8126 277.484 41.4755 276.662 41.7595C275.175 42.2646 273.688 42.454 272.296 42.454C268.088 42.454 264.577 40.8126 264.387 40.7179V40.6548ZM247.303 7.92264L247.018 8.26984C246.828 8.42767 242.811 12.0576 246.291 17.7391C247.24 16.1925 249.106 14.0461 252.586 13.1939L254.073 12.8467L254.295 14.3302C254.295 14.3302 255.908 24.3992 262.552 25.7565L263.881 26.009L263.628 27.3347C263.628 27.3347 262.773 32.3534 265.937 38.2875C267.266 38.8241 271.695 40.4338 275.713 39.1713C273.498 36.4567 271.157 30.8699 271.916 24.1467C272.865 15.8137 268.12 6.02878 258.882 4.76621C257.775 4.60839 256.731 4.54526 255.813 4.54526C249.423 4.54526 247.398 7.73325 247.303 7.89107V7.92264Z" fill="black"></path><path d="M241.609 51.6709C241.609 51.6709 237.085 59.1201 240.533 68.8734C243.982 78.6268 237.623 84.0243 235.978 90.5581L241.609 51.6709Z" fill="#FFEECC"></path><path d="M237.307 90.8736C237.781 89.0113 238.667 87.2122 239.616 85.3183C241.862 80.8362 244.393 75.7228 241.831 68.3999C238.667 59.4041 242.748 52.4283 242.78 52.3652L240.407 50.9448C240.217 51.2605 235.598 59.0568 239.205 69.3152C241.388 75.5334 239.331 79.6683 237.117 84.0557C236.136 86.0127 235.124 88.0328 234.586 90.1792L237.275 90.8736H237.307Z" fill="black"></path><path d="M263.691 27.1455C263.818 23.705 266.191 19.4123 266.222 19.3491L263.786 18.0234C263.66 18.2128 261.097 22.9475 260.907 27.0193L263.691 27.1455V27.1455Z" fill="black"></path><path d="M298.112 94.1562C298.112 94.1562 300.832 99.175 299.187 104.762C299.187 104.825 299.156 104.857 299.124 104.92C298.08 108.234 294.189 108.423 293.05 105.298C292.797 104.572 292.069 104.383 291.563 104.004C290.645 103.341 290.107 102.174 289.854 100.69C289.57 98.9856 289.791 97.218 290.361 95.6082L290.709 94.6297L293.145 94.5666L298.112 94.1562V94.1562Z" fill="black"></path><path d="M228.131 197.498L230.378 195.888C228.037 192.668 232.213 188.06 232.244 188.028L230.188 186.166C229.966 186.419 224.493 192.479 228.131 197.529V197.498Z" fill="black"></path><path d="M280.016 18.7176C280.206 5.93408 270.747 0.22095 270.367 0L268.943 2.39888C269.291 2.61983 277.39 7.57543 277.232 18.6861H280.016V18.7176Z" fill="black"></path></g><defs><clipPath id="clip0_1526_4657"><rect width="461" height="317" fill="white"></rect></clipPath></defs></svg> 