<?xml version="1.0" encoding="UTF-8"?> <svg xmlns="http://www.w3.org/2000/svg" width="198" height="163" viewBox="0 0 198 163" fill="none"><path d="M173.985 112.319C173.985 112.319 180.846 71.0852 177.378 52.3604L141.977 56.6119C141.977 56.6119 141.752 86.5838 129.216 116.269C128.391 118.124 129.426 120.325 132.219 121.938L139.365 126.084C143.328 128.376 149.334 128.632 152.757 126.642L171.673 115.681C173.219 114.792 173.97 113.586 173.985 112.334V112.319Z" fill="#FEBD33"></path><path d="M166.013 90.2619L146.421 79.3315C145.776 78.9848 144.98 79.4521 144.965 80.1909C144.905 84.1258 143.689 95.5236 133.96 118.56C133.135 120.415 134.171 122.616 136.963 124.229L139.981 125.978C143.914 127.832 149.304 127.923 152.486 126.068L171.403 115.108C172.949 114.218 173.7 113.012 173.715 111.761C173.715 111.761 173.895 110.645 174.195 108.685C172.169 105.022 167.575 98.7348 166.013 90.2619V90.2619Z" fill="#FFEECC"></path><path d="M152.547 126.657L171.463 115.696C173.01 114.807 173.76 113.601 173.775 112.349C173.775 112.349 180.636 71.1155 177.168 52.3906L167.95 53.5063L158.387 58.5418C158.387 58.5418 158.267 98.1324 145.731 127.818C145.731 127.818 145.701 127.938 145.671 127.984C148.223 128.149 150.745 127.727 152.547 126.687V126.657Z" fill="black"></path><path d="M146.947 128.421C144.229 128.421 141.362 127.757 139.14 126.461L131.994 122.315C129.397 120.807 128.136 118.742 128.571 116.782H128.496L128.796 116.073C141.152 86.8098 141.512 56.8983 141.512 56.5967V56.2047L177.738 51.8477L177.814 52.2698C181.206 70.6328 174.661 110.962 174.436 112.349C174.406 113.797 173.505 115.108 171.898 116.043L152.982 127.019C151.376 127.953 149.199 128.421 146.947 128.421V128.421ZM129.952 115.711L129.637 116.435C128.886 118.139 129.952 120.098 132.444 121.531L139.59 125.677C143.419 127.893 149.229 128.149 152.532 126.235L171.448 115.259C172.784 114.49 173.52 113.435 173.535 112.289V112.214C173.61 111.806 180.246 71.462 177.003 52.8276L142.398 56.9887C142.308 60.607 141.287 88.3325 129.922 115.696H129.937L129.952 115.711Z" fill="black"></path><path d="M196.565 33.7409C196.565 22.3733 188.623 8.56331 178.819 2.87951C174.195 0.195908 169.977 -0.196078 166.824 1.34171C166.419 1.53771 166.028 1.76385 165.668 2.02015L152.877 9.55835L154.483 13.8099L177.844 53.2347L190.86 45.5306C191.265 45.3346 191.656 45.1085 192.031 44.8371C194.853 42.832 196.58 39.0025 196.58 33.7107L196.565 33.7409Z" fill="#FEBD33"></path><path d="M195.349 38.8669C194.433 27.9817 186.881 15.5286 177.708 10.2067C173.084 7.52306 168.866 7.13107 165.713 8.66886C165.308 8.86486 164.917 9.091 164.557 9.3473L154.708 15.1517L177.288 53.2498L190.304 45.5457C190.71 45.3497 191.1 45.1085 191.475 44.8522C193.292 43.5707 194.628 41.5354 195.379 38.8518L195.349 38.8669Z" fill="#FFEECC"></path><path d="M177.664 53.8677L154.078 14.051L152.307 9.37729L165.428 1.6431C165.773 1.40188 166.194 1.16066 166.614 0.94959C170.052 -0.72389 174.451 -0.166064 179.045 2.48738C188.953 8.23149 197.015 22.2525 197.015 33.7407C197.015 38.9873 195.334 43.058 192.271 45.229C191.881 45.5003 191.461 45.7566 191.04 45.9677L177.679 53.8828L177.664 53.8677ZM153.403 9.76928L154.874 13.659L177.979 52.6315L190.605 45.1536C191.025 44.9425 191.4 44.7314 191.746 44.4751C194.568 42.4851 196.115 38.6557 196.115 33.7257C196.115 22.5239 188.263 8.84962 178.594 3.25628C174.271 0.753597 170.157 0.210846 167.019 1.73356C166.614 1.92956 166.254 2.14062 165.908 2.38185L153.418 9.7542L153.403 9.76928Z" fill="black"></path><path d="M178.194 53.0413C185.124 49.0237 185.125 35.9989 178.198 23.9494C171.27 11.9 160.037 5.38879 153.108 9.4063C146.178 13.4238 146.177 26.4487 153.104 38.4981C160.032 50.5476 171.265 57.0588 178.194 53.0413Z" fill="#FEBD33"></path><path d="M173.58 54.6969C171.073 54.6969 168.296 53.8526 165.428 52.1942C155.519 46.4501 147.458 32.4291 147.458 20.9409C147.458 15.2722 149.379 11.0508 152.877 9.01545C156.375 6.99521 160.984 7.43243 165.863 10.2668C175.772 16.0109 183.834 30.0319 183.834 41.5202C183.834 47.1889 181.912 51.4103 178.414 53.4456C176.973 54.2899 175.337 54.6969 173.565 54.6969H173.58ZM157.726 8.66869C156.12 8.66869 154.634 9.0456 153.328 9.79942C150.115 11.6538 148.358 15.6189 148.358 20.9409C148.358 32.1426 156.21 45.8169 165.878 51.4103C170.472 54.0788 174.766 54.516 177.979 52.6616C181.192 50.8072 182.948 46.8421 182.948 41.5202C182.948 30.3184 175.096 16.6441 165.428 11.0508C162.696 9.46774 160.083 8.66869 157.726 8.66869V8.66869Z" fill="black"></path><path d="M178.354 42.3646C178.354 32.1579 171.222 19.75 162.425 14.6392C158.266 12.2269 154.483 11.8802 151.645 13.2672C151.285 13.4481 150.94 13.6592 150.61 13.8853L115.975 33.7108L117.416 37.5251L138.404 72.9396L159.858 60.3659C160.218 60.1849 173.955 52.5864 174.3 52.3452C176.837 50.536 178.384 47.1137 178.384 42.3496L178.354 42.3646Z" fill="#FEBD33"></path><path d="M177.498 47.535C176.582 37.8107 169.856 26.7447 161.674 21.9956C157.516 19.5834 153.732 19.2366 150.895 20.6236C150.535 20.8046 150.189 21.0156 149.859 21.2418L118.347 39.2731L138.299 72.9387L159.753 60.365C160.113 60.1841 173.85 52.5856 174.195 52.3444C175.696 51.289 176.822 49.6457 177.528 47.5199L177.498 47.535Z" fill="#FFEECC"></path><path d="M174.526 28.5997C174.195 28.8409 160.458 36.4394 160.083 36.6203L138.629 49.194L127.445 47.8824L115.885 33.7106L117.326 37.5249L138.314 72.9393L159.768 60.3656C160.128 60.1847 173.865 52.5862 174.21 52.345C176.747 50.5509 178.294 47.1135 178.294 42.3644C178.294 37.9018 176.928 33.002 174.646 28.4941C174.601 28.5243 174.556 28.5695 174.511 28.5997H174.526Z" fill="black"></path><path d="M138.224 73.5573L117.011 37.766L115.389 33.5144L150.354 13.493C150.655 13.2819 151.03 13.0558 151.42 12.8598C154.513 11.3521 158.491 11.8497 162.635 14.2468C171.553 19.418 178.789 32.0219 178.789 42.3492C178.789 47.0681 177.273 50.7467 174.51 52.7067C174.045 53.0384 160.113 60.7122 160.008 60.7725L138.209 73.5573H138.224ZM116.515 33.9064L117.821 37.3589L138.539 72.3211L159.602 59.9735C160.218 59.6569 173.67 52.1941 174.015 51.9679C176.522 50.1889 177.918 46.7666 177.918 42.3492C177.918 32.3083 170.877 20.0512 162.2 15.0157C158.326 12.7693 154.648 12.2869 151.841 13.6588C151.48 13.8397 151.15 14.0207 150.85 14.2468L116.515 33.9064V33.9064Z" fill="black"></path><path d="M143.388 62.4156C143.388 72.6223 136.257 76.7533 127.46 71.6574C118.662 66.5616 111.531 54.1387 111.531 43.932C111.531 33.7252 118.662 29.5943 127.46 34.6901C136.257 39.7859 143.388 52.2089 143.388 62.4156V62.4156Z" fill="#FEBD33"></path><path d="M134.576 74.2961C132.309 74.2961 129.817 73.5422 127.235 72.0497C118.317 66.8785 111.081 54.2746 111.081 43.9473C111.081 38.8364 112.822 35.0221 115.975 33.1978C119.128 31.3736 123.286 31.7656 127.685 34.3135C136.603 39.4847 143.839 52.0885 143.839 62.4159C143.839 67.5268 142.097 71.3411 138.945 73.1653C137.639 73.9191 136.167 74.2961 134.576 74.2961ZM120.344 32.9566C118.902 32.9566 117.581 33.2883 116.41 33.9667C113.543 35.6251 111.966 39.1681 111.966 43.9322C111.966 53.9731 119.007 66.2453 127.685 71.2657C131.799 73.6478 135.642 74.0398 138.509 72.3814C141.377 70.723 142.953 67.18 142.953 62.4159C142.953 52.375 135.912 40.1179 127.235 35.0824C124.787 33.6652 122.445 32.9566 120.344 32.9566V32.9566Z" fill="black"></path><path d="M138.419 63.0645C138.419 54.2297 132.234 43.4802 124.622 39.0629C120.148 36.4697 116.185 36.6356 113.663 38.9875C107.537 42.2892 89.657 49.164 66.4919 33.6203C65.0357 32.6403 63.2041 34.1329 63.8496 35.7611L98.8149 122.42L105.676 123.777C109.459 124.531 112.897 121.395 112.522 117.535C111.426 106.213 112.522 85.3172 132.249 72.8189C135.972 72.1103 138.434 68.6277 138.434 63.0645H138.419Z" fill="#FEBD33"></path><path d="M131.634 73.0142C134.036 72.5619 135.912 70.9336 136.948 68.3405C135.867 60.1238 130.207 51.0328 123.346 47.0526C118.872 44.4595 114.909 44.6253 112.387 46.9772C106.307 50.2639 88.6062 57.0633 65.6514 41.8965L98.2146 122.615L105.076 123.972C107.493 124.455 109.76 123.354 110.991 121.485C110.886 118.258 111.021 114.565 111.636 110.675C111.831 99.0511 115.51 83.2209 131.649 72.9991L131.634 73.0142Z" fill="#FFEECC"></path><path d="M106.802 124.335C106.396 124.335 105.991 124.289 105.586 124.214L98.4997 122.812L63.4443 35.9266C63.069 35.0069 63.3242 33.9968 64.0899 33.3636C64.8705 32.7304 65.9064 32.6852 66.7321 33.243C89.4318 48.4701 106.892 42.0928 113.393 38.6102C116.185 36.0472 120.344 36.0623 124.832 38.6705C132.564 43.1482 138.855 54.0936 138.855 63.0641C138.855 68.6424 136.438 72.4265 132.399 73.2407C112.942 85.6033 111.861 106.273 112.957 117.49C113.152 119.48 112.417 121.38 110.945 122.721C109.789 123.777 108.318 124.335 106.802 124.335ZM99.1302 122.028L105.751 123.34C107.417 123.671 109.084 123.204 110.345 122.058C111.606 120.912 112.222 119.284 112.056 117.58C110.945 106.137 112.056 85.0606 131.994 72.4416L132.144 72.3813C135.792 71.6878 137.954 68.2051 137.954 63.0641C137.954 54.3801 131.859 43.7965 124.382 39.4545C120.238 37.0573 116.44 36.997 113.948 39.3188L113.858 39.3791C107.252 42.9371 89.3868 49.5255 66.2217 33.9968C65.6212 33.5897 65.0057 33.7707 64.6303 34.0722C64.27 34.3737 63.9698 34.9315 64.24 35.5949L99.1152 122.028H99.1302Z" fill="black"></path><path d="M106.892 140.316C108.168 138.929 108.753 137.918 108.753 137.918C112.642 132.25 114.864 124.395 114.864 114.64C114.864 84.6836 93.9205 48.244 68.0831 33.2581C55.9676 26.2325 44.933 25.1771 36.6158 29.1121C36.3606 29.2176 36.1204 29.3533 35.8502 29.489C35.7301 29.5493 35.61 29.6247 35.4899 29.7C35.1446 29.896 34.7993 30.092 34.469 30.3031C34.4089 30.3483 34.3339 30.3936 34.2738 30.4237C33.9285 30.6499 33.5682 30.876 33.2379 31.1172C19.8163 40.4043 18.8555 57.923 18.8555 57.923L21.2876 60.3051C21.2876 60.3051 21.2876 60.3654 21.2876 60.3956C21.2876 81.1558 31.3463 105.007 46.1041 122.691C51.2835 131.903 58.0544 139.758 66.852 143.693C79.3428 149.271 88.6209 149.316 95.2416 147.432C99.5503 146.361 103.319 144.145 106.366 140.888C106.516 140.723 106.667 140.572 106.817 140.421C106.847 140.391 106.877 140.361 106.907 140.331L106.892 140.316Z" fill="#FEBD33"></path><path d="M104.219 137.104C105.495 135.717 104.339 132.446 104.339 132.446L105.556 134.677C109.444 129.023 114.849 126.973 114.849 117.219C114.849 87.2618 93.9055 50.8221 68.0681 35.8362C55.9526 28.8106 44.918 27.7552 36.6008 31.6902C36.3456 31.7957 36.1054 31.9314 35.8352 32.0671C35.7151 32.1274 35.595 32.2028 35.4749 32.2782C35.1296 32.4742 34.7843 32.6702 34.454 32.8812C34.3939 32.9265 34.3189 32.9717 34.2588 33.0018C33.9135 33.228 33.5532 33.4541 33.2229 33.6953C19.8163 42.9673 18.8555 60.5012 18.8555 60.5012L21.2876 62.8832C21.2876 62.8832 21.2876 62.9436 21.2876 62.9737C21.2876 83.7339 31.3463 107.585 46.1041 125.269C51.2835 134.481 60.0361 137.391 68.8337 141.326C81.3246 146.904 84.9277 145.095 91.5334 143.195C95.8421 142.125 97.7338 142.185 100.781 138.929C100.932 138.763 100.751 132.581 104.219 137.134C104.249 137.165 104.189 137.165 104.219 137.134V137.104Z" fill="#FFEECC"></path><path d="M114.849 114.882C114.849 105.007 112.567 94.4235 108.588 84.1414C107.943 91.559 105.871 97.6649 102.688 102.308C102.688 102.308 102.103 103.334 100.827 104.721C100.797 104.751 100.767 104.781 100.737 104.811C100.601 104.962 100.451 105.128 100.286 105.278C97.2386 108.535 93.4703 110.751 89.1616 111.822C82.5559 113.706 73.2628 113.661 60.772 108.083C51.9744 104.148 45.2035 96.2779 40.024 87.0813C31.3766 76.7238 24.3355 64.2405 19.9967 51.501C18.9758 55.4058 18.8257 58.1647 18.8257 58.1647L21.2578 60.5468C21.2578 60.5468 21.2578 60.6071 21.2578 60.6373C21.2578 81.3975 31.3165 105.248 46.0743 122.933C51.2538 132.145 58.0246 139.999 66.8222 143.934C79.3131 149.513 88.5911 149.558 95.2118 147.673C99.5206 146.603 103.289 144.387 106.336 141.13C106.487 140.964 106.637 140.814 106.787 140.663C106.817 140.633 106.847 140.602 106.877 140.572C108.153 139.185 108.739 138.175 108.739 138.175C112.627 132.506 114.849 124.652 114.849 114.897V114.882Z" fill="black"></path><path d="M86.8946 149C80.7392 149 73.9684 147.356 66.6571 144.1C58.6551 140.527 51.614 133.396 45.6989 122.902C30.4157 104.585 20.8674 80.6584 20.8374 60.5012L18.4053 58.1191V57.9081C18.4203 57.7272 19.5463 40.0576 32.9679 30.7555C33.3132 30.5143 33.6735 30.2881 34.0188 30.062L34.229 29.9263C34.5743 29.7152 34.9196 29.5041 35.2799 29.3232L35.43 29.2328C35.43 29.2328 35.5651 29.1574 35.6402 29.1122C35.9104 28.9614 36.1807 28.8408 36.4359 28.7202C45.1885 24.5591 56.5083 26.0517 68.3085 32.8813C94.2359 47.9124 115.314 84.5933 115.314 114.656C115.314 124.078 113.197 132.159 109.204 138.039L109.144 138.145C109.144 138.145 108.513 139.2 107.222 140.617L107.177 140.662C106.982 140.873 106.832 141.024 106.682 141.19C103.574 144.522 99.7457 146.768 95.3469 147.854C92.6896 148.623 89.8672 149 86.9096 149H86.8946ZM19.3211 57.7573L21.7382 60.1243V60.3203C21.7382 80.387 31.2114 104.147 46.4496 122.405C52.3046 132.793 59.2106 139.788 67.0324 143.286C77.6616 148.035 87.1198 149.286 95.1067 147.01C99.3704 145.954 103.034 143.798 106.036 140.587C106.201 140.421 106.351 140.27 106.487 140.12L106.892 140.331L106.562 140.029C107.402 139.11 107.928 138.371 108.183 137.979L108.378 137.662C112.327 131.918 114.413 123.958 114.413 114.656C114.413 84.8797 93.5303 48.5607 67.8581 33.6652C56.3281 26.9713 45.2936 25.5089 36.8112 29.5343C36.571 29.6398 36.3158 29.7604 36.0756 29.9112L35.7153 30.1223C35.37 30.3032 35.0397 30.4992 34.7094 30.7103L34.5142 30.8309C34.1689 31.0419 33.8236 31.2681 33.4933 31.5093C21.1677 40.0124 19.4862 55.7974 19.3211 57.7573Z" fill="black"></path><path d="M93.8152 144.555C111.056 134.559 111.055 102.144 93.8126 72.1535C76.5705 42.1633 48.6167 25.9547 31.3761 35.9506C14.1355 45.9465 14.1366 78.3617 31.3787 108.352C48.6208 138.342 76.5745 154.551 93.8152 144.555Z" fill="#FEBD33"></path><path d="M73.5184 81.5179C86.7448 89.1917 98.6051 102.806 106.697 118.184C106.727 117.445 106.742 116.706 106.742 115.937C106.742 87.669 86.97 53.2798 62.5889 39.1532C38.2078 25.0115 18.4507 36.4696 18.4507 64.7529C18.4507 77.6885 22.5943 91.9055 29.4252 104.871C30.4461 78.2463 49.7978 67.7682 73.5184 81.5179V81.5179Z" fill="black"></path><path d="M82.3157 147.99C76.1904 147.99 69.4045 145.924 62.3784 141.854C37.9072 127.667 18 93.0365 18 64.6627C18 50.8226 22.669 40.4953 31.1514 35.5653C39.6337 30.6504 50.8785 31.751 62.8138 38.671C87.285 52.8579 107.192 87.4733 107.192 115.847C107.192 129.687 102.523 140.015 94.0408 144.945C90.5578 146.965 86.5944 147.975 82.3157 147.975V147.99ZM42.8765 33.4546C38.748 33.4546 34.9497 34.4195 31.6018 36.3644C23.4047 41.1134 18.9008 51.1694 18.9008 64.6627C18.9008 92.7501 38.5978 127.019 62.8288 141.07C74.4789 147.824 85.4084 148.925 93.6055 144.176C101.803 139.427 106.306 129.371 106.306 115.862C106.306 87.7748 86.6094 53.5062 62.3784 39.455C55.4875 35.4598 48.8517 33.4395 42.8916 33.4395L42.8765 33.4546Z" fill="black"></path><path d="M58.73 75.1857L73.8631 101.102L101.847 89.6138C97.7188 77.9447 91.2332 66.547 83.2913 57.0488L58.9252 74.251C58.6249 74.4621 58.5348 74.8842 58.715 75.2008L58.73 75.1857Z" fill="#FEBD33"></path><path d="M84.6124 62.4766L61.4624 78.8194L74.1784 100.575L101.037 89.5538C96.9531 79.8295 91.2932 70.4972 84.6124 62.4916V62.4766Z" fill="#FFEECC"></path><path d="M73.6681 101.675L58.3248 75.427C58.0246 74.9144 58.1747 74.236 58.6551 73.8892L83.3515 56.4609L83.6217 56.7775C91.6537 66.3812 98.0943 77.6885 102.253 89.4933L102.403 89.9004L73.6531 101.705L73.6681 101.675ZM59.1055 74.9747L74.0434 100.544L101.277 89.3727C97.1935 77.9599 90.9481 66.9993 83.2014 57.667L59.1656 74.628C59.0454 74.7034 59.0154 74.8541 59.0905 74.9747H59.1055Z" fill="black"></path><path d="M76.821 94.242C76.821 87.3219 71.9718 78.8942 65.9966 75.4266C62.4986 73.3913 59.3759 73.527 57.4091 75.3663C56.8837 75.8488 56.4483 76.4669 56.103 77.1755L53.791 80.3868L55.2473 82.9045C55.7427 89.1763 59.8563 96.3225 65.0207 99.8655L66.522 102.474L71.131 101.961C71.3863 101.961 71.6265 101.916 71.8667 101.886C74.8543 101.388 76.821 98.6443 76.821 94.2118V94.242Z" fill="#FEBD33"></path><path d="M65.8762 78.9696C62.3782 76.9343 59.2555 77.07 57.2888 78.9093C56.7633 79.3917 56.3279 80.0099 55.9826 80.7185L54.7065 82.4824L55.1269 83.2061C55.6223 89.4778 59.7359 96.6241 64.9004 100.167L66.4017 102.775L71.0107 102.263C71.2659 102.263 71.5061 102.217 71.7463 102.187C74.3435 101.75 76.1901 99.6092 76.6105 96.1265C75.9349 89.5532 71.401 82.1356 65.8912 78.9395L65.8762 78.9696Z" fill="#FFEECC"></path><path d="M66.2818 102.987L64.6754 100.212C59.4659 96.5941 55.3223 89.4178 54.7968 83.0706L53.2505 80.387L55.7276 76.9345C56.0429 76.2561 56.5083 75.6229 57.0488 75.0952L57.2139 74.8389L57.0488 75.0952C59.2707 73.1956 62.7537 73.0297 66.2217 75.05C72.302 78.5778 77.2563 87.2015 77.2563 94.2573C77.2563 98.7651 75.2595 101.811 71.9267 102.368C71.6714 102.414 71.4162 102.444 71.146 102.459L66.2818 103.002V102.987ZM54.3164 80.4322L55.6826 82.8897C56.163 89.0409 60.2015 96.0363 65.2609 99.519L65.351 99.5793L66.7622 102.022L71.0709 101.539C71.3261 101.539 71.5513 101.494 71.7765 101.464C74.644 100.981 76.3555 98.2827 76.3555 94.2422C76.3555 87.4729 71.5964 79.211 65.7563 75.8189C62.5435 73.9645 59.601 73.9192 57.6943 75.6982H57.6793C57.1989 76.1656 56.7936 76.7234 56.4783 77.3868L54.3014 80.4322H54.3164Z" fill="black"></path><path d="M71.8666 95.6745C71.8666 101.765 67.6029 104.238 62.3483 101.192C57.0938 98.147 52.8301 90.7445 52.8301 84.6537C52.8301 78.5628 57.0938 76.0903 62.3483 79.1357C67.6029 82.1811 71.8666 89.5836 71.8666 95.6745V95.6745Z" fill="#FEBD33"></path><path d="M66.5972 102.956C65.216 102.956 63.6997 102.504 62.1233 101.584C56.7487 98.4785 52.3799 90.88 52.3799 84.6535C52.3799 81.5327 53.4458 79.2109 55.3825 78.0802C57.3192 76.9494 59.8714 77.1907 62.5587 78.7435C67.9334 81.8493 72.2871 89.4478 72.2871 95.6743C72.2871 98.7951 71.2212 101.117 69.2845 102.248C68.4738 102.715 67.573 102.941 66.5822 102.941L66.5972 102.956ZM58.0998 78.2762C57.2741 78.2762 56.5085 78.4722 55.8479 78.8491C54.1965 79.814 53.2807 81.8643 53.2807 84.6384C53.2807 90.5785 57.4543 97.8302 62.5737 100.8C64.9758 102.187 67.1977 102.429 68.8491 101.464C70.5006 100.499 71.4164 98.4484 71.4164 95.6743C71.4164 89.7342 67.2428 82.4825 62.1233 79.5124C60.6971 78.6832 59.3309 78.2611 58.0998 78.2611V78.2762Z" fill="black"></path><path d="M62.6034 39.0784C38.2073 24.9367 18.4502 36.3948 18.4502 64.663C18.4502 92.9312 38.2223 127.32 62.6034 141.447C86.9845 155.589 106.757 144.131 106.757 115.847C106.757 87.564 86.9845 53.1899 62.6034 39.0633V39.0784ZM62.6034 134.617C41.4801 122.36 24.3503 92.5845 24.3503 68.1004C24.3503 43.6164 41.4651 33.681 62.5884 45.923C83.7117 58.1651 100.827 87.956 100.827 112.44C100.827 136.924 83.7117 146.859 62.5884 134.617H62.6034Z" fill="#FEBD33"></path><path d="M106.412 115.923C106.412 114.083 106.322 112.199 106.156 110.314C101.998 84.6391 84.2224 56.8684 62.934 44.5208C38.5529 30.3942 18.7808 41.8523 18.7808 70.1205C18.7808 71.9599 18.8708 73.8444 19.036 75.729C23.1946 101.404 40.97 129.175 62.2584 141.522C86.6395 155.664 106.412 144.206 106.412 115.923ZM24.876 77.9904C24.3206 74.6585 24.0203 71.3568 24.0203 68.1455C24.0203 43.6464 41.1351 33.7261 62.2584 45.9682C82.1206 57.4865 98.4397 84.4883 100.316 108.038C100.872 111.37 101.172 114.671 101.172 117.883C101.172 142.382 84.0573 152.302 62.934 140.06C43.0718 128.542 26.7527 101.54 24.876 77.9904V77.9904Z" fill="#FFEECC"></path><path d="M82.3157 147.99C76.1904 147.99 69.4045 145.924 62.3784 141.854C37.9072 127.667 18 93.0365 18 64.6627C18 50.8226 22.669 40.4953 31.1514 35.5653C39.6337 30.6504 50.8785 31.751 62.8138 38.671C87.285 52.8579 107.192 87.4733 107.192 115.847C107.192 129.687 102.523 140.015 94.0408 144.945C90.5578 146.965 86.5944 147.975 82.3157 147.975V147.99ZM42.8765 33.4546C38.748 33.4546 34.9497 34.4195 31.6018 36.3644C23.4047 41.1134 18.9008 51.1694 18.9008 64.6627C18.9008 92.7501 38.5978 127.019 62.8288 141.07C74.4789 147.824 85.4084 148.925 93.6055 144.176C101.803 139.427 106.306 129.371 106.306 115.862C106.306 87.7748 86.6094 53.5062 62.3784 39.455C55.4875 35.4598 48.8517 33.4395 42.8916 33.4395L42.8765 33.4546ZM79.6734 140.331C74.3588 140.331 68.4587 138.552 62.3634 135.009C41.1651 122.707 23.9001 92.6898 23.9001 68.1002C23.9001 56.0843 27.9536 47.1138 35.325 42.8472C42.6964 38.5806 52.4548 39.5304 62.8138 45.5308C84.0272 57.8331 101.277 87.8502 101.277 112.44C101.277 124.456 97.2236 133.426 89.8522 137.693C86.8196 139.457 83.3816 140.316 79.6734 140.316V140.331ZM45.5188 41.1134C41.9607 41.1134 38.6729 41.9426 35.7754 43.6161C28.6893 47.7169 24.8009 56.416 24.8009 68.0851C24.8009 92.3882 41.8557 122.059 62.8138 134.21C72.8875 140.045 82.3307 141.01 89.4018 136.894C96.473 132.793 100.376 124.094 100.376 112.425C100.376 88.1216 83.3216 58.4513 62.3634 46.2997C56.4033 42.8472 50.6683 41.0983 45.5038 41.0983L45.5188 41.1134Z" fill="black"></path><path d="M169.586 43.9024L169.271 43.7215C168.941 43.4351 168.475 43.4049 167.95 43.7064L162.35 46.9479C161.359 47.5208 160.548 49.0736 160.548 50.4004C160.548 51.0939 160.713 51.5462 161.059 51.7723L161.119 51.8175L163.491 53.28L167.064 50.0385L170.247 46.7971L171.478 45.0332L169.586 43.8874V43.9024Z" fill="black"></path><path d="M163.536 53.8531L160.759 52.1344C160.323 51.8329 160.083 51.26 160.083 50.4157C160.083 48.9231 160.969 47.2195 162.11 46.5712L167.71 43.3298C168.37 42.9378 169.061 42.968 169.541 43.3901L169.796 43.5258L172.093 44.9279L170.592 47.0838L167.364 50.3855L163.521 53.8682L163.536 53.8531ZM168.625 43.9479C168.46 43.9479 168.295 44.0233 168.16 44.0987L162.56 47.3401C161.704 47.8376 160.984 49.2397 160.984 50.4157C160.984 51.2147 161.224 51.3655 161.299 51.4258L161.389 51.5012L163.431 52.7525L166.764 49.7373L169.932 46.5109L170.847 45.1993L169.061 44.1138C168.926 43.9932 168.776 43.963 168.655 43.963L168.625 43.9479Z" fill="#FEBD33"></path><path d="M170.322 49.9786L164.722 53.2351C163.731 53.808 162.92 53.205 162.92 51.8632C162.92 50.5364 163.731 48.9836 164.722 48.4107L170.322 45.1692C171.313 44.5963 172.123 45.1994 172.123 46.5412C172.123 47.8679 171.313 49.4208 170.322 49.9937V49.9786Z" fill="black"></path><path d="M164.002 53.8988C163.761 53.8988 163.521 53.8385 163.311 53.7178C162.77 53.4012 162.47 52.7228 162.47 51.8634C162.47 50.3709 163.356 48.6673 164.497 48.019L170.097 44.7775C170.667 44.4459 171.253 44.4157 171.718 44.6871C172.259 45.0037 172.559 45.6821 172.559 46.5415C172.559 48.034 171.673 49.7377 170.532 50.386L164.932 53.6274C164.617 53.8083 164.287 53.8988 163.987 53.8988H164.002ZM171.043 45.3806C170.862 45.3806 170.697 45.456 170.547 45.5314L164.947 48.7728C164.092 49.2703 163.371 50.6724 163.371 51.8484C163.371 52.376 163.521 52.7831 163.776 52.9188C164.017 53.0545 164.302 52.9339 164.512 52.8283L170.112 49.5869C170.968 49.0894 171.688 47.6873 171.688 46.5113C171.688 45.9837 171.538 45.5766 171.283 45.4409C171.208 45.3957 171.118 45.3806 171.043 45.3806Z" fill="#FEBD33"></path><path d="M154.153 125.315C158.552 113.856 160.879 102.504 161.885 96.6392C162.5 93.0962 164.602 90.0207 167.68 88.2115L177.153 82.6031L177.228 81.5176L167.214 87.4426C163.911 89.3875 161.644 92.6892 160.999 96.4884C159.963 102.489 157.531 114.294 152.907 126.038L154.153 125.315V125.315Z" fill="#FEBD33"></path><path d="M152.652 126.656L152.381 127.38L152.802 127.139L152.652 126.656Z" fill="black"></path><path d="M135.327 51.1387C135.327 51.1387 113.273 58.7975 105.871 75.9393C105.796 76.1203 105.721 76.3012 105.661 76.4821C109.309 84.2012 112.042 92.2219 113.603 100.122C115.615 90.5484 120.764 80.1758 132.474 72.7733C136.198 72.0647 138.66 68.5821 138.66 63.0189C138.66 59.4156 137.068 54.8173 135.342 51.1387H135.327Z" fill="black"></path><path d="M180.696 29.1728L193.982 21.6045L196.114 28.8713L196.565 35.6255L195.484 40.0429L193.532 43.4803L188.623 46.8575L180.186 51.8628L182.948 46.3449L183.383 40.646L182.302 33.7561L180.696 29.1728Z" fill="black"></path><path d="M159.438 60.0646L158.972 60.336L158.927 61.4064L159.858 60.8637C159.858 60.8637 167.079 56.8835 171.328 54.5316L169.992 54.2451C165.863 56.5518 159.858 59.8686 159.438 60.0797V60.0646Z" fill="#FEBD33"></path><path d="M109.309 85.498L109.024 87.3524C110.57 91.7397 111.801 96.1571 112.672 100.529L113.137 98.4336C112.192 94.1217 110.901 89.7948 109.309 85.498V85.498Z" fill="#FEBD33"></path><path d="M74.6743 85.4979L82.6913 81.2463C82.6913 81.2463 83.7572 80.6885 90.9184 76.6631L92.0444 79.0452C95.0319 85.332 97.1938 91.3324 97.1938 91.3324L74.6743 100.273L76.2807 97.8605L76.8212 94.2422L76.3708 88.679L74.6743 85.5129V85.4979Z" fill="black"></path><path d="M96.5179 91.4678L90.6328 93.88L91.2934 94.5886L96.7431 92.3422L96.5179 91.4678Z" fill="#FEBD33"></path></svg> 