<?xml version="1.0" encoding="UTF-8"?> <svg xmlns="http://www.w3.org/2000/svg" width="134" height="248" viewBox="0 0 134 248" fill="none"><g clip-path="url(#clip0_1526_3271)"><path d="M54.7957 220.957C59.6959 218.416 67.6472 218.416 72.5474 220.957C77.4475 223.499 77.4475 227.614 72.5474 230.128C67.6472 232.669 59.6959 232.669 54.7957 230.128C49.8956 227.587 49.8956 223.471 54.7957 220.957Z" fill="black"></path><path d="M22.8369 225.543C22.8369 231.841 27.3365 237.641 35.5034 241.868C43.393 245.956 53.5632 248 63.7026 248C73.842 248 83.9814 245.956 91.9018 241.868C100.069 237.641 104.568 231.841 104.568 225.543C104.568 219.244 100.069 213.444 91.9018 209.217C76.0917 201.041 51.3443 201.041 35.5342 209.217C27.3673 213.444 22.8677 219.244 22.8677 225.543H22.8369ZM29.5554 225.543C29.5554 221.482 32.853 217.532 38.8627 214.438C45.7044 210.902 54.7035 209.134 63.7026 209.134C72.7017 209.134 81.7008 210.902 88.5425 214.438C94.5522 217.532 97.8498 221.482 97.8498 225.543C97.8498 229.603 94.5522 233.553 88.5425 236.675C74.859 243.746 52.577 243.746 38.8935 236.675C32.8838 233.581 29.5862 229.603 29.5862 225.543H29.5554Z" fill="black"></path><path d="M54.7957 214.935C59.6959 212.394 67.6472 212.394 72.5474 214.935C77.4475 217.477 77.4475 221.592 72.5474 224.106C67.6472 226.647 59.6959 226.647 54.7957 224.106C49.8956 221.565 49.8956 217.449 54.7957 214.935Z" fill="#FEBD33"></path><path d="M22.8369 219.521C22.8369 225.819 27.3365 231.619 35.5034 235.846C43.393 239.934 53.5632 241.978 63.7026 241.978C73.842 241.978 83.9813 239.934 91.871 235.846C100.038 231.619 104.537 225.819 104.537 219.521C104.537 213.223 100.038 207.422 91.871 203.195C76.0609 195.019 51.3135 195.019 35.5034 203.195C27.3365 207.422 22.8369 213.223 22.8369 219.521V219.521ZM29.5554 219.521C29.5554 215.46 32.853 211.51 38.8627 208.416C45.7044 204.88 54.7035 203.112 63.7026 203.112C72.7017 203.112 81.7008 204.88 88.5425 208.416C94.5522 211.51 97.8498 215.46 97.8498 219.521C97.8498 223.581 94.5522 227.531 88.5425 230.653C74.859 237.724 52.577 237.724 38.8935 230.653C32.8838 227.559 29.5862 223.581 29.5862 219.521H29.5554Z" fill="#FEBD33"></path><path d="M132.613 92.3992C131.041 58.34 106.078 19.6124 76.8926 5.939C64.0103 -0.11045 52.4841 -0.248565 43.7316 4.36449L18.6143 17.6512L37.7528 26.8221C37.5062 28.8938 37.3829 31.0484 37.3829 33.2859L30.6644 33.8936L15.1626 50.6331L20.0628 86.626L36.7666 111.57L59.4183 122.84L69.8659 121.486L74.0881 130.27L72.1465 133.281L60.8976 178.638L63.1782 187.975L87.8024 174.909C88.0182 174.827 88.2031 174.716 88.388 174.606C89.2817 174.053 90.4837 172.81 91.3158 171.346L124.323 123.696C125.216 122.591 126.172 121.21 126.942 119.912C131.041 112.951 133.137 103.614 132.613 92.344V92.3992ZM69.5269 48.6167L88.3264 79.4993L83.2413 103.504C67.6778 95.6035 50.8199 72.3449 50.7891 54.0584C50.7891 48.8653 53.0697 43.0644 53.1621 41.7385L69.5269 48.6167Z" fill="#F8E7CC"></path><path d="M63.7022 189.052C62.9933 189.412 62.0996 189.052 61.9455 188.362L59.5725 178.666L59.6341 178.418L71.037 132.729L72.6396 130.215L69.0646 122.757L59.1718 124.028L35.842 112.398L18.7992 86.7366L13.8374 50.2465L30.0173 32.7611L36.1194 32.2086C36.1502 30.5512 36.2735 28.9491 36.3967 27.4574L15.9947 17.7065L43.5467 3.1215C52.9156 -1.57442 64.9349 -0.939093 77.4473 4.917C106.972 18.7562 132.274 57.9809 133.876 92.344C134.339 102.565 132.675 111.68 128.976 118.807H129.038L128.052 120.492C127.281 121.79 126.295 123.227 125.34 124.387L92.3944 171.954C91.5623 173.39 90.2371 174.827 89.0968 175.545C88.8195 175.71 88.5729 175.849 88.2955 175.959L63.7022 189.025V189.052ZM62.1921 178.666L75.2284 169.716L98.3425 157.452C98.6198 157.341 98.7431 157.258 98.8664 157.175L98.3425 157.452C98.9897 157.01 100.623 155.684 101.394 154.358L123.244 123.144C124.045 122.149 124.816 121.044 125.463 119.995L125.771 119.442C129.901 112.426 131.812 103.117 131.319 92.4545C129.747 58.8096 105.061 20.4412 76.2762 6.96111C64.3494 1.35362 53.0389 0.801161 44.3788 5.35897L43.8857 5.60758L21.2339 17.596L39.1396 26.1591L39.0472 26.9326C38.8314 28.8938 38.7081 31.0208 38.6773 33.2859V34.308L31.3425 34.9709L16.5186 50.9647L21.3264 86.2117L37.6911 110.686L59.6649 121.625L70.6364 120.216L75.5058 130.353L73.3484 133.696L62.1921 178.639V178.666ZM84.135 105.272L82.5941 104.471C66.969 96.5428 49.4947 73.3117 49.4947 54.0308C49.4947 50.3017 50.6042 46.3792 51.3438 43.7827C51.6212 42.8435 51.8678 41.9595 51.8678 41.6557L51.991 39.9707L70.4515 47.7328L89.6824 79.3059L84.1658 105.272H84.135ZM54.0867 43.3959C53.9943 43.6722 53.9326 44.0037 53.8093 44.3628C53.1005 46.8488 52.0527 50.6056 52.0527 54.0585C52.0527 71.6267 67.986 93.4766 82.2859 101.681L86.9395 79.7203L68.5715 49.5283L54.0867 43.4236V43.3959Z" fill="black"></path><path d="M132.675 92.3992C131.103 58.34 106.14 19.6124 76.9546 5.939C64.0723 -0.11045 52.5461 -0.248565 43.7936 4.36449L18.6763 17.6512L37.8147 26.8221C37.5682 28.8938 37.4449 31.0484 37.4449 33.2859L44.9339 34.6118L53.7788 33.7831L78.3106 53.7269L94.7062 89.9684L98.0346 111.487L132.706 93.6146C132.706 93.2003 132.706 92.8136 132.706 92.3992H132.675Z" fill="#FEBD33"></path><path d="M130.949 102.675C129.347 68.6159 104.414 29.916 75.2289 16.2425C62.3774 10.2207 50.8204 10.055 42.0679 14.668L20.3098 26.1868C18.8613 26.9603 18.8922 28.8663 20.4023 29.5845L34.8563 36.4903C35.6268 36.8494 36.0582 37.5952 35.9966 38.3686C35.9041 39.5288 35.8117 40.689 35.7808 41.9044C35.75 42.8436 36.4897 43.6999 37.5375 43.8656L42.9 44.8048C43.1157 44.8324 43.3314 44.86 43.5472 44.8048L51.0978 44.0866C51.7141 44.0314 52.3305 44.1971 52.7928 44.5838L76.2459 63.6437C76.4924 63.8371 76.6773 64.0857 76.8006 64.3619L92.9188 99.9681C92.9805 100.106 93.0421 100.272 93.0729 100.438L95.9083 118.862C96.124 120.243 97.819 120.989 99.1442 120.299L129.84 104.471C130.24 103.808 130.579 103.31 130.98 102.648L130.949 102.675Z" fill="#F8E7CC"></path><path d="M97.0177 113.31L93.4735 90.2447L77.232 54.3899L53.3167 34.9709L44.8723 35.772L36.1506 34.2251V33.2859C36.1814 31.2418 36.2739 29.3082 36.4588 27.4851L17.2279 18.2866C16.704 18.038 16.704 17.375 17.2279 17.0988L43.6088 3.1215C52.9777 -1.57442 64.997 -0.939093 77.5094 4.917C107.034 18.7562 132.336 57.9809 133.939 92.344C133.939 92.5927 133.939 92.8413 133.939 93.0622V94.25L96.9869 113.31H97.0177ZM54.1796 32.5677L79.4818 53.285L95.9698 89.8027L99.0209 109.636L131.381 92.9518C131.381 92.786 131.381 92.6203 131.381 92.4545C129.809 58.8096 105.123 20.4412 76.3383 6.96111C69.7431 3.86732 63.3328 2.32043 57.4772 2.32043L26.5043 18.7285L39.2017 26.1591L39.1092 26.9326C38.9243 28.6176 38.801 30.4131 38.7394 32.3191L44.9648 33.424L54.1796 32.5677Z" fill="black"></path><path d="M31.0962 105.271L56.8299 92.5925C58.7406 91.6533 61.1445 92.1505 62.4081 93.7526C66.6919 99.2496 77.4476 110.603 93.0111 110.603L64.8119 127.204L46.9062 124.69L31.0962 105.244V105.271Z" fill="#F8E7CC"></path><path d="M9.92393 90.6039L10.078 90.9078C11.0026 92.9519 11.958 94.996 13.0058 97.0125L52.0224 178.445C53.101 182.285 55.9672 186.069 59.2031 187.589C62.4391 189.108 65.0587 187.92 65.8292 184.909L98.8361 137.259C99.7298 136.154 100.562 134.939 101.332 133.668L101.456 133.503C105.555 126.542 107.65 117.205 107.126 105.935C105.555 71.8755 80.5914 33.1479 51.406 19.4745C22.159 5.77343 -0.215448 22.292 1.35631 56.3513C1.88023 67.6215 4.9621 79.3889 9.92393 90.6039V90.6039ZM25.2717 67.5663C24.4087 48.8931 36.6746 39.8603 52.6696 47.3462C68.6645 54.832 82.348 76.0465 83.211 94.7197C84.0739 113.393 71.808 122.453 55.8131 114.94C39.8181 107.454 26.1346 86.2395 25.2717 67.5663V67.5663Z" fill="#FEBD33"></path><path d="M61.8226 189.384C60.8981 189.384 59.8194 189.191 58.5867 188.583C55.1041 186.953 51.9606 182.975 50.7587 178.721L11.8038 97.4543C10.7559 95.4379 9.76973 93.3661 8.87598 91.322L6.84194 86.4604C2.8355 76.2674 0.524096 65.964 0.0926336 56.4065C-0.770292 38.0924 5.301 23.8389 16.7656 17.3198C26.3194 11.8781 38.801 12.2924 51.9298 18.4524C81.4542 32.2915 106.756 71.5163 108.359 105.879C108.821 116.1 107.157 125.216 103.459 132.342L102.503 134.11C101.64 135.519 100.778 136.762 99.853 137.95L67.0002 185.379C66.5071 187.091 65.4284 188.39 63.9491 188.997C63.4252 189.218 62.7164 189.412 61.8534 189.412L61.8226 189.384ZM11.2182 90.4657C12.112 92.5098 13.0982 94.5263 14.1152 96.5428L53.1626 178.003C54.2412 181.788 56.9224 185.24 59.7578 186.566C60.9597 187.119 62.0384 187.257 62.8396 186.898C63.8567 186.484 64.3189 185.434 64.5347 184.66L64.6888 184.301L97.6957 136.652C98.6202 135.491 99.4215 134.331 100.161 133.116L100.254 132.95C104.383 125.934 106.294 116.625 105.801 105.962C104.229 72.3174 79.5434 33.9489 50.7587 20.4688C38.462 14.6956 26.8741 14.2813 18.1524 19.2534C7.48914 25.3029 1.81848 38.8382 2.65059 56.3236C3.14369 67.0413 6.07147 78.7535 11.1258 90.1895L11.249 90.4657H11.2182ZM66.4763 118.724C62.9321 118.724 59.1106 117.813 55.1966 115.962C38.8626 108.31 24.8709 86.6261 23.9772 67.6214C23.5149 57.4009 26.9358 49.4178 33.4077 45.744C38.8318 42.6778 45.8585 42.8712 53.255 46.3517C69.589 54.0033 83.5807 75.6874 84.4744 94.692C84.9367 104.913 81.5158 112.896 75.0439 116.57C72.5167 118.006 69.6198 118.724 66.4763 118.724V118.724ZM26.5351 67.5109C27.3981 85.7698 40.7734 106.598 56.3985 113.918C62.9321 116.984 69.0959 117.232 73.6879 114.608C79.3585 111.376 82.3479 104.139 81.9165 94.7473C81.0535 76.4884 67.6782 55.6606 52.0531 48.3405C45.5195 45.2744 39.3866 45.0258 34.7637 47.6499C29.0931 50.8818 26.1037 58.1191 26.5351 67.5109V67.5109Z" fill="black"></path><path d="M60.9566 82.1832L34.7856 95.3037L36.0043 97.2565L62.1752 84.1359L60.9566 82.1832Z" fill="black"></path><path d="M51.3682 60.4947L25.1973 73.6152L26.4159 75.568L52.5868 62.4475L51.3682 60.4947Z" fill="black"></path><path d="M84.4432 160.131L83.2104 158.17L109.406 145.049L107.989 148.336L84.4432 160.131Z" fill="black"></path><path d="M25.21 69.0574L26.5043 58.0358L28.5076 52.2902L35.411 45.2739L51.1902 45.8816L51.3751 55.9641L25.21 69.0574Z" fill="black"></path></g><defs><clipPath id="clip0_1526_3271"><rect width="134" height="248" fill="white"></rect></clipPath></defs></svg> 