<?xml version="1.0" encoding="UTF-8"?> <svg xmlns="http://www.w3.org/2000/svg" width="235" height="210" viewBox="0 0 235 210" fill="none"><path d="M17.7591 82.418C18.1905 82.6666 18.1905 83.0894 17.7591 83.3381C17.3277 83.5868 16.6128 83.5868 16.1815 83.3381C15.7501 83.0894 15.7501 82.6666 16.1815 82.418C16.6128 82.1693 17.3277 82.1693 17.7591 82.418Z" fill="black"></path><path d="M21.888 80.0058C22.3194 80.2545 22.3194 80.6773 21.888 80.926C21.4566 81.1746 20.7417 81.1746 20.3104 80.926C19.879 80.6773 19.879 80.2545 20.3104 80.0058C20.7417 79.7572 21.4566 79.7572 21.888 80.0058Z" fill="black"></path><path d="M26.0169 77.6064C26.4483 77.8551 26.4483 78.2779 26.0169 78.5266C25.5855 78.7752 24.8707 78.7752 24.4393 78.5266C24.0079 78.2779 24.0079 77.8551 24.4393 77.6064C24.8707 77.3578 25.5855 77.3578 26.0169 77.6064Z" fill="black"></path><path d="M30.1463 75.1943C30.5777 75.443 30.5777 75.8658 30.1463 76.1144C29.7149 76.3631 29 76.3631 28.5687 76.1144C28.1373 75.8658 28.1373 75.443 28.5687 75.1943C29 74.9456 29.7149 74.9456 30.1463 75.1943Z" fill="black"></path><path d="M17.7591 77.6064C18.1905 77.8551 18.1905 78.2779 17.7591 78.5266C17.3277 78.7752 16.6128 78.7752 16.1815 78.5266C15.7501 78.2779 15.7501 77.8551 16.1815 77.6064C16.6128 77.3578 17.3277 77.3578 17.7591 77.6064Z" fill="black"></path><path d="M21.888 75.1943C22.3194 75.443 22.3194 75.8658 21.888 76.1144C21.4566 76.3631 20.7417 76.3631 20.3104 76.1144C19.879 75.8658 19.879 75.443 20.3104 75.1943C20.7417 74.9456 21.4566 74.9456 21.888 75.1943Z" fill="black"></path><path d="M26.0169 73.7143C25.5855 73.963 24.8707 73.963 24.4393 73.7143C24.0079 73.4656 24.0079 73.0429 24.4393 72.7942C24.8707 72.5455 26.4606 73.4656 26.0169 73.7143Z" fill="black"></path><path d="M55.1297 98.8935C55.5611 99.1422 55.5611 99.565 55.1297 99.8137C54.6983 100.062 53.9834 100.062 53.5521 99.8137C53.1207 99.565 53.1207 99.1422 53.5521 98.8935C53.9834 98.6449 54.6983 98.6449 55.1297 98.8935Z" fill="black"></path><path d="M59.2586 96.4932C59.69 96.7418 59.69 97.1646 59.2586 97.4133C58.8272 97.662 58.1124 97.662 57.681 97.4133C57.2496 97.1646 57.2496 96.7418 57.681 96.4932C58.1124 96.2445 58.8272 96.2445 59.2586 96.4932Z" fill="black"></path><path d="M63.3875 94.081C63.8189 94.3297 63.8189 94.7525 63.3875 95.0012C62.9561 95.2498 62.2413 95.2498 61.8099 95.0012C61.3785 94.7525 61.3785 94.3297 61.8099 94.081C62.2413 93.8324 62.9561 93.8324 63.3875 94.081Z" fill="black"></path><path d="M67.5169 91.6816C67.9483 91.9303 67.9483 92.3531 67.5169 92.6017C67.0855 92.8504 66.3707 92.8504 65.9393 92.6017C65.5079 92.3531 65.5079 91.9303 65.9393 91.6816C66.3707 91.4329 67.0855 91.4329 67.5169 91.6816Z" fill="black"></path><path d="M71.6458 89.2695C72.0772 89.5182 72.0772 89.941 71.6458 90.1896C71.2144 90.4383 70.4996 90.4383 70.0682 90.1896C69.6368 89.941 69.6368 89.5182 70.0682 89.2695C70.4996 89.0208 71.2144 89.0208 71.6458 89.2695Z" fill="black"></path><path d="M46.8719 98.8935C47.3033 99.1422 47.3033 99.565 46.8719 99.8137C46.4405 100.062 45.7256 100.062 45.2942 99.8137C44.8629 99.565 44.8629 99.1422 45.2942 98.8935C45.7256 98.6449 46.4405 98.6449 46.8719 98.8935Z" fill="black"></path><path d="M51.0008 96.4932C51.4322 96.7418 51.4322 97.1646 51.0008 97.4133C50.5694 97.662 49.8545 97.662 49.4232 97.4133C48.9918 97.1646 48.9918 96.7418 49.4232 96.4932C49.8545 96.2445 50.5694 96.2445 51.0008 96.4932Z" fill="black"></path><path d="M55.1297 94.081C55.5611 94.3297 55.5611 94.7525 55.1297 95.0012C54.6983 95.2498 53.9834 95.2498 53.5521 95.0012C53.1207 94.7525 53.1207 94.3297 53.5521 94.081C53.9834 93.8324 54.6983 93.8324 55.1297 94.081Z" fill="black"></path><path d="M59.2586 91.6816C59.69 91.9303 59.69 92.3531 59.2586 92.6017C58.8272 92.8504 58.1124 92.8504 57.681 92.6017C57.2496 92.3531 57.2496 91.9303 57.681 91.6816C58.1124 91.4329 58.8272 91.4329 59.2586 91.6816Z" fill="black"></path><path d="M63.3875 89.2695C63.8189 89.5182 63.8189 89.941 63.3875 90.1896C62.9561 90.4383 62.2413 90.4383 61.8099 90.1896C61.3785 89.941 61.3785 89.5182 61.8099 89.2695C62.2413 89.0208 62.9561 89.0208 63.3875 89.2695Z" fill="black"></path><path d="M67.5169 86.8691C67.9483 87.1178 67.9483 87.5406 67.5169 87.7893C67.0855 88.0379 66.3707 88.0379 65.9393 87.7893C65.5079 87.5406 65.5079 87.1178 65.9393 86.8691C66.3707 86.6204 67.0855 86.6204 67.5169 86.8691Z" fill="black"></path><path d="M38.6014 98.8935C39.0328 99.1422 39.0328 99.565 38.6014 99.8137C38.17 100.062 37.4551 100.062 37.0237 99.8137C36.5923 99.565 36.5923 99.1422 37.0237 98.8935C37.4551 98.6449 38.17 98.6449 38.6014 98.8935Z" fill="black"></path><path d="M42.7303 96.4932C43.1617 96.7418 43.1617 97.1646 42.7303 97.4133C42.2989 97.662 41.584 97.662 41.1526 97.4133C40.7213 97.1646 40.7213 96.7418 41.1526 96.4932C41.584 96.2445 42.2989 96.2445 42.7303 96.4932Z" fill="black"></path><path d="M46.8719 94.081C47.3033 94.3297 47.3033 94.7525 46.8719 95.0012C46.4405 95.2498 45.7256 95.2498 45.2942 95.0012C44.8629 94.7525 44.8629 94.3297 45.2942 94.081C45.7256 93.8324 46.4405 93.8324 46.8719 94.081Z" fill="black"></path><path d="M34.4725 96.4932C34.9039 96.7418 34.9039 97.1646 34.4725 97.4133C34.0411 97.662 33.3262 97.662 32.8948 97.4133C32.4634 97.1646 32.4634 96.7418 32.8948 96.4932C33.3262 96.2445 34.0411 96.2445 34.4725 96.4932Z" fill="black"></path><path d="M38.6014 94.081C39.0328 94.3297 39.0328 94.7525 38.6014 95.0012C38.17 95.2498 37.4551 95.2498 37.0237 95.0012C36.5923 94.7525 36.5923 94.3297 37.0237 94.081C37.4551 93.8324 38.17 93.8324 38.6014 94.081Z" fill="black"></path><path d="M42.7303 91.6816C43.1617 91.9303 43.1617 92.3531 42.7303 92.6017C42.2989 92.8504 41.584 92.8504 41.1526 92.6017C40.7213 92.3531 40.7213 91.9303 41.1526 91.6816C41.584 91.4329 42.2989 91.4329 42.7303 91.6816Z" fill="black"></path><path d="M46.8719 90.1896C46.4405 90.4383 45.7256 90.4383 45.2942 90.1896C44.8629 89.941 44.8629 89.5182 45.2942 89.2695C45.7256 89.0208 46.4405 89.0208 46.8719 89.2695C47.3033 89.5182 47.3033 89.941 46.8719 90.1896Z" fill="black"></path><path d="M30.3065 94.0566C30.7379 94.3053 30.7379 94.7281 30.3065 94.9768C29.8751 95.2254 29.1602 95.2254 28.7288 94.9768C28.2974 94.7281 28.2974 94.3053 28.7288 94.0566C29.1602 93.8079 29.8751 93.8079 30.3065 94.0566Z" fill="black"></path><path d="M34.4354 91.6562C34.8668 91.9049 34.8668 92.3277 34.4354 92.5764C34.004 92.825 33.2891 92.825 32.8577 92.5764C32.4263 92.3277 32.4263 91.9049 32.8577 91.6562C33.2891 91.4076 34.004 91.4076 34.4354 91.6562Z" fill="black"></path><path d="M38.5643 89.2441C38.9957 89.4928 38.9957 89.9156 38.5643 90.1642C38.1329 90.4129 37.418 90.4129 36.9866 90.1642C36.5552 89.9156 36.5552 89.4928 36.9866 89.2441C37.418 88.9954 38.1329 88.9954 38.5643 89.2441Z" fill="black"></path><path d="M42.7059 86.8447C43.1373 87.0934 43.1373 87.5162 42.7059 87.7648C42.2745 88.0135 41.5596 88.0135 41.1282 87.7648C40.6968 87.5162 40.6968 87.0934 41.1282 86.8447C41.5596 86.596 42.2745 86.596 42.7059 86.8447Z" fill="black"></path><path d="M46.8348 84.4326C47.2662 84.6813 47.2662 85.104 46.8348 85.3527C46.4034 85.6014 45.6885 85.6014 45.2571 85.3527C44.8257 85.104 44.8257 84.6813 45.2571 84.4326C45.6885 84.1839 46.4034 84.1839 46.8348 84.4326C46.4034 84.1839 47.2662 84.6813 46.8348 84.4326Z" fill="black"></path><path d="M26.1776 91.6562C26.6089 91.9049 26.6089 92.3277 26.1776 92.5764C25.7462 92.825 25.0313 92.825 24.5999 92.5764C24.1685 92.3277 24.1685 91.9049 24.5999 91.6562C25.0313 91.4076 25.7462 91.4076 26.1776 91.6562Z" fill="black"></path><path d="M30.3065 89.2441C30.7379 89.4928 30.7379 89.9156 30.3065 90.1642C29.8751 90.4129 29.1602 90.4129 28.7288 90.1642C28.2974 89.9156 28.2974 89.4928 28.7288 89.2441C29.1602 88.9954 29.8751 88.9954 30.3065 89.2441Z" fill="black"></path><path d="M34.4354 86.8447C34.8668 87.0934 34.8668 87.5162 34.4354 87.7648C34.004 88.0135 33.2891 88.0135 32.8577 87.7648C32.4263 87.5162 32.4263 87.0934 32.8577 86.8447C33.2891 86.596 34.004 86.596 34.4354 86.8447Z" fill="black"></path><path d="M38.5643 84.4326C38.9957 84.6813 38.9957 85.104 38.5643 85.3527C38.1329 85.6014 37.418 85.6014 36.9866 85.3527C36.5552 85.104 36.5552 84.6813 36.9866 84.4326C37.418 84.1839 38.1329 84.1839 38.5643 84.4326Z" fill="black"></path><path d="M42.7059 82.0322C43.1373 82.2809 43.1373 82.7037 42.7059 82.9523C42.2745 83.201 41.5596 83.201 41.1282 82.9523C40.6968 82.7037 40.6968 82.2809 41.1282 82.0322C41.5596 81.7835 42.2745 81.7835 42.7059 82.0322C42.2745 81.7835 43.1373 82.2809 42.7059 82.0322Z" fill="black"></path><path d="M22.0482 89.2441C22.4796 89.4928 22.4796 89.9156 22.0482 90.1642C21.6168 90.4129 20.9019 90.4129 20.4705 90.1642C20.0391 89.9156 20.0391 89.4928 20.4705 89.2441C20.9019 88.9954 21.6168 88.9954 22.0482 89.2441Z" fill="black"></path><path d="M26.1776 86.8447C26.6089 87.0934 26.6089 87.5162 26.1776 87.7648C25.7462 88.0135 25.0313 88.0135 24.5999 87.7648C24.1685 87.5162 24.1685 87.0934 24.5999 86.8447C25.0313 86.596 25.7462 86.596 26.1776 86.8447Z" fill="black"></path><path d="M30.3065 84.4326C30.7379 84.6813 30.7379 85.104 30.3065 85.3527C29.8751 85.6014 29.1602 85.6014 28.7288 85.3527C28.2974 85.104 28.2974 84.6813 28.7288 84.4326C29.1602 84.1839 29.8751 84.1839 30.3065 84.4326Z" fill="black"></path><path d="M34.4354 82.0322C34.8668 82.2809 34.8668 82.7037 34.4354 82.9523C34.004 83.201 33.2891 83.201 32.8577 82.9523C32.4263 82.7037 32.4263 82.2809 32.8577 82.0322C33.2891 81.7835 34.004 81.7835 34.4354 82.0322Z" fill="black"></path><path d="M38.5643 79.6201C38.9957 79.8688 38.9957 80.2915 38.5643 80.5402C38.1329 80.7889 37.418 80.7889 36.9866 80.5402C36.5552 80.2915 36.5552 79.8688 36.9866 79.6201C37.418 79.3714 38.1329 79.3714 38.5643 79.6201C38.1329 79.3714 38.9957 79.8688 38.5643 79.6201Z" fill="black"></path><path d="M17.9193 86.8447C18.3506 87.0934 18.3506 87.5162 17.9193 87.7648C17.4879 88.0135 16.773 88.0135 16.3416 87.7648C15.9102 87.5162 15.9102 87.0934 16.3416 86.8447C16.773 86.596 17.4879 86.596 17.9193 86.8447Z" fill="black"></path><path d="M22.0482 84.4326C22.4796 84.6813 22.4796 85.104 22.0482 85.3527C21.6168 85.6014 20.9019 85.6014 20.4705 85.3527C20.0391 85.104 20.0391 84.6813 20.4705 84.4326C20.9019 84.1839 21.6168 84.1839 22.0482 84.4326Z" fill="black"></path><path d="M26.1776 82.0322C26.6089 82.2809 26.6089 82.7037 26.1776 82.9523C25.7462 83.201 25.0313 83.201 24.5999 82.9523C24.1685 82.7037 24.1685 82.2809 24.5999 82.0322C25.0313 81.7835 25.7462 81.7835 26.1776 82.0322Z" fill="black"></path><path d="M30.3065 79.6201C30.7379 79.8688 30.7379 80.2915 30.3065 80.5402C29.8751 80.7889 29.1602 80.7889 28.7288 80.5402C28.2974 80.2915 28.2974 79.8688 28.7288 79.6201C29.1602 79.3714 29.8751 79.3714 30.3065 79.6201Z" fill="black"></path><path d="M34.4354 77.2207C34.8668 77.4694 34.8668 77.8921 34.4354 78.1408C34.004 78.3895 33.2891 78.3895 32.8577 78.1408C32.4263 77.8921 32.4263 77.4694 32.8577 77.2207C33.2891 76.972 34.004 76.972 34.4354 77.2207C34.004 76.972 34.8668 77.4694 34.4354 77.2207Z" fill="black"></path><path d="M70.0806 84.4949C70.512 84.2462 71.2269 84.2338 71.6583 84.4949C72.0897 84.7436 72.102 85.1663 71.6583 85.415C71.2269 85.6637 70.512 85.6761 70.0806 85.415C69.6492 85.1539 69.6369 84.7436 70.0806 84.4949Z" fill="black"></path><path d="M58.6917 89.2074L58.8519 89.1204L66.2225 83.8981L63.6465 80.4165C64.0286 78.3898 64.1641 76.1516 63.9669 73.6648C62.7837 58.5823 50.8404 41.0876 37.3071 34.5721C35.0762 33.5028 32.9439 32.8189 30.9349 32.4583L28.4328 28.8027L21.1485 33.8634C16.736 36.5367 14.3079 42.2191 14.9365 50.1023C16.1198 65.1848 28.0631 82.6795 41.5963 89.195C48.6711 92.6019 54.6243 92.403 58.6793 89.195L58.6917 89.2074Z" fill="#FEBD33"></path><path d="M64.5587 80.2179C64.9161 78.129 65.0024 75.9033 64.8298 73.603C63.622 58.2718 51.4445 40.4165 37.6893 33.8015C35.6187 32.8068 33.5233 32.0981 31.4527 31.6877L28.6671 27.6094L20.7173 33.1301C15.8857 36.0645 13.4699 42.2816 14.0985 50.1772C15.3064 65.5084 27.4839 83.3637 41.239 89.9786C44.7888 91.6821 48.1413 92.54 51.1733 92.54C54.2054 92.54 56.9416 91.6697 59.1725 89.9413L67.4428 84.1097L64.571 80.2179H64.5587ZM21.654 34.5849L28.2358 30.0216L30.4543 33.2669L30.7994 33.329C32.8331 33.7021 34.9038 34.3859 36.9498 35.3682C50.2243 41.7469 61.958 58.9556 63.1289 73.7397C63.1536 74.0879 63.1659 74.4361 63.1782 74.7718L40.0065 64.9737L25.4132 73.8392C23.281 70.9048 21.3952 67.7714 19.8791 64.5385L27.3114 60.2364L24.6491 53.696L17.3401 57.9236C16.539 55.2752 15.9966 52.6143 15.7994 50.0404C15.2325 42.8162 17.3524 37.196 21.654 34.5725V34.5849Z" fill="black"></path><path d="M71.8183 68.2315C73.0015 83.314 62.9933 90.2646 49.4477 83.7616C35.9144 77.2586 23.9711 59.7514 22.7879 44.6689C21.6046 29.5864 31.6128 22.6358 45.1584 29.1388C58.6917 35.6418 70.635 53.149 71.8183 68.2315V68.2315Z" fill="#FEBD33"></path><path d="M58.9873 87.0687C55.9429 87.0687 52.5904 86.2232 49.0777 84.5322C35.3102 77.9172 23.1327 60.0619 21.9372 44.7307C21.3456 37.1211 23.4779 31.2025 27.9643 28.094C32.4507 24.973 38.6874 25.0725 45.5157 28.3551C59.2831 34.97 71.4606 52.8253 72.6562 68.1565C73.2601 75.7662 71.1155 81.6848 66.6291 84.7933C64.4475 86.3102 61.8591 87.0563 58.975 87.0563L58.9873 87.0687ZM35.6184 27.5593C33.0917 27.5593 30.8238 28.2183 28.9257 29.5239C24.9569 32.2718 23.0834 37.6309 23.6258 44.6064C24.7843 59.3905 36.5304 76.5992 49.8049 82.9779C56.0662 85.987 61.6989 86.1237 65.6553 83.3758C69.6241 80.6279 71.4976 75.2688 70.9553 68.2933C69.7967 53.5092 58.0506 36.3004 44.7761 29.9218C41.4976 28.3426 38.3916 27.5593 35.606 27.5593H35.6184Z" fill="black"></path><path d="M65.8897 67.2488C66.7401 78.0043 59.5914 82.9531 49.9406 78.3152C40.2898 73.6773 31.773 61.2059 30.9349 50.4504C30.0844 39.695 37.2331 34.7462 46.8839 39.3841C56.5347 44.022 65.0516 56.4934 65.8897 67.2488Z" fill="#FFEECC"></path><path d="M56.9293 77.7807C54.7231 77.7807 52.295 77.1714 49.7559 75.9529C39.871 71.2031 31.1323 58.3835 30.2695 47.3794C29.8381 41.8587 31.4034 37.5689 34.6697 35.2935C37.9482 33.018 42.4716 33.0802 47.4264 35.4676C57.3114 40.2174 66.0501 53.0369 66.9252 64.041C67.3566 69.5618 65.7913 73.8515 62.525 76.1269C60.9227 77.2336 59.0246 77.7931 56.9293 77.7931V77.7807ZM40.2654 35.3432C38.5029 35.3432 36.9375 35.7908 35.631 36.6985C32.8825 38.6134 31.576 42.3436 31.9581 47.2302C32.7839 57.6872 41.0912 69.8726 50.4831 74.3862C54.871 76.4875 58.7905 76.5994 61.539 74.6846C64.2876 72.7822 65.5941 69.0395 65.212 64.1529C64.3862 53.6959 56.0789 41.5105 46.6869 36.997C44.3821 35.8903 42.2005 35.3308 40.2531 35.3308L40.2654 35.3432Z" fill="black"></path><path d="M59.7516 60.1491C60.2446 66.4656 56.054 69.3752 50.3843 66.6522C44.7146 63.9291 39.7228 56.6054 39.2298 50.2889C38.7368 43.9724 42.9275 41.0629 48.5971 43.7859C54.2668 46.509 59.2586 53.8326 59.7516 60.1491V60.1491Z" fill="#FEBD33"></path><path d="M54.3777 68.5423C53.0343 68.5423 51.5552 68.1693 50.0145 67.4357C44.1107 64.6007 38.8847 56.9413 38.367 50.3637C38.1082 46.9941 39.0696 44.358 41.1033 42.953C43.137 41.5355 45.9225 41.5604 48.9422 43.0276C54.8461 45.8626 60.0721 53.5219 60.5897 60.0996C60.8609 63.4692 59.8872 66.1052 57.8535 67.5103C56.8551 68.2066 55.6719 68.5547 54.3654 68.5547L54.3777 68.5423ZM44.5914 43.6369C43.63 43.6369 42.7795 43.8855 42.077 44.3705C40.5733 45.4149 39.8584 47.4914 40.0803 50.2269C40.5486 56.2574 45.3432 63.2702 50.7541 65.8814C53.2068 67.0626 55.3884 67.1372 56.8921 66.0928C58.3958 65.0483 59.1107 62.9594 58.8888 60.2363C58.4204 54.2058 53.6259 47.1806 48.215 44.5818C46.9085 43.9601 45.6883 43.6369 44.5914 43.6369V43.6369Z" fill="black"></path><path d="M53.5276 60.1607C53.7124 62.4486 52.1964 63.4931 50.1381 62.5108C48.0921 61.5285 46.2802 58.88 46.0953 56.5922C45.9105 54.3043 47.4265 53.2598 49.4848 54.2421C51.5308 55.2244 53.3427 57.8729 53.5276 60.1607Z" fill="#FFEECC"></path><path d="M51.7772 60.5839C51.2102 60.5839 50.5939 60.4347 49.9653 60.1238C47.6358 59.0048 45.6514 56.0952 45.4419 53.4965C45.331 52.079 45.7624 50.9475 46.6621 50.3134C47.5619 49.6917 48.7698 49.6792 50.0393 50.3009C52.3688 51.42 54.3532 54.3296 54.5627 56.9283C54.6736 58.3458 54.2422 59.4773 53.3425 60.1114C52.8864 60.4223 52.3564 60.5839 51.7772 60.5839V60.5839ZM48.2398 51.5692C48.0056 51.5692 47.7961 51.6189 47.6358 51.7308C47.2661 51.992 47.0812 52.5764 47.1428 53.3597C47.303 55.3367 48.93 57.7116 50.6925 58.5696C51.3827 58.9053 51.999 58.9426 52.3688 58.6815C52.7385 58.4204 52.9234 57.836 52.8618 57.0651C52.7016 55.1005 51.0746 52.7131 49.3121 51.8552C48.9177 51.6687 48.5479 51.5692 48.2398 51.5692V51.5692Z" fill="black"></path><path d="M53.6906 19.5821L52.0054 29.5596L53.6943 29.8499L55.3795 19.8724L53.6906 19.5821Z" fill="#FFEECC"></path><path d="M52.7834 18.0108L51.0981 27.9883L52.787 28.2786L54.4723 18.3011L52.7834 18.0108Z" fill="black"></path><path d="M80.9018 46.286L70.8691 46.3584L70.8814 48.0867L80.914 48.0143L80.9018 46.286Z" fill="#FFEECC"></path><path d="M79.2914 45.1659L69.2588 45.2383L69.271 46.9666L79.3037 46.8941L79.2914 45.1659Z" fill="black"></path><path d="M69.5376 2.57418L60.2012 25.9922L61.7907 26.6371L71.1271 3.21911L69.5376 2.57418Z" fill="#FFEECC"></path><path d="M68.6323 0.99801L59.2959 24.416L60.8854 25.0609L70.2218 1.64294L68.6323 0.99801Z" fill="black"></path><path d="M91.8417 12.5065L56.8804 39.3164L58.4691 41.4249L93.4304 14.6149L91.8417 12.5065Z" fill="#FFEECC"></path><path d="M58.2972 42.6297L55.6719 39.1482L91.9948 11.2959L94.6201 14.7774L58.2972 42.6297ZM58.0507 39.1855L58.7286 40.4413L92.3276 14.678L91.6497 13.4221L58.0507 39.1855V39.1855Z" fill="black"></path><path d="M49.5341 47.6031L63.2892 43.6491L57.6565 40.3292L56.0419 34.0127L48.5604 46.2727C48.1413 46.9566 48.7822 47.8145 49.5464 47.5907L49.5341 47.6031Z" fill="#FEBD33"></path><path d="M55.5117 43.8731L53.8971 37.5566L48.2397 46.82C48.437 47.1184 48.8683 47.7899 49.2751 47.678L58.0508 45.3652L55.5117 43.8731V43.8731Z" fill="#FFEECC"></path><path d="M49.2875 48.5113C48.7575 48.5113 48.2522 48.2626 47.9071 47.8149C47.4757 47.2305 47.4387 46.4596 47.8085 45.8379L56.35 31.8496L58.3836 39.7701L65.4461 43.9231L49.7682 48.4242C49.608 48.4739 49.4477 48.4988 49.2875 48.4988V48.5113ZM55.709 36.214L49.2752 46.7456L49.2998 46.7829L61.1199 43.3884L56.9169 40.914L55.709 36.214Z" fill="black"></path><path d="M94.5217 4.50684L86.0418 11.0099L81.0747 21.5166C80.7789 22.1383 81.3089 22.8222 81.9744 22.7103L93.2892 20.6462L101.769 14.1432L93.0919 13.2107L94.5217 4.51927V4.50684Z" fill="#FEBD33"></path><path d="M92.6236 21.0196L97.714 17.1153L91.7362 16.4687L93.0303 8.47363L84.5505 14.9766L80.6187 22.8723C80.8035 23.0339 81.0254 23.1334 81.2965 23.0837L92.6113 21.0196H92.6236Z" fill="#FFEECC"></path><path d="M94.0779 12.4397L95.7049 2.50488L85.3392 10.4502L80.2858 21.1435C80.0147 21.7155 80.0763 22.3994 80.4707 22.9092C80.7912 23.3319 81.2842 23.5806 81.8142 23.5806C81.9128 23.5806 82.0114 23.5806 82.1223 23.5557L93.6466 21.4544L104 13.509L94.0779 12.4397V12.4397ZM92.9317 19.838L81.8388 21.8896L86.7197 11.5817L88.3097 10.3632L87.299 16.2072L88.9876 16.5056L90.3187 8.82139L93.3384 6.50865L92.1182 13.9567L99.5627 14.7649L92.9563 19.838H92.9317Z" fill="black"></path><path d="M87.7612 205.349C88.3943 205.712 88.3943 206.33 87.7612 206.693C87.1281 207.057 86.0791 207.057 85.446 206.693C84.8129 206.33 84.8129 205.712 85.446 205.349C86.0791 204.985 87.1281 204.985 87.7612 205.349Z" fill="black"></path><path d="M93.8208 201.823C94.4538 202.187 94.4538 202.805 93.8208 203.168C93.1877 203.531 92.1386 203.531 91.5056 203.168C90.8725 202.805 90.8725 202.187 91.5056 201.823C92.1386 201.46 93.1877 201.46 93.8208 201.823Z" fill="black"></path><path d="M99.8804 198.317C100.513 198.68 100.513 199.298 99.8804 199.661C99.2473 200.025 98.1982 200.025 97.5651 199.661C96.9321 199.298 96.9321 198.68 97.5651 198.317C98.1982 197.953 99.2473 197.953 99.8804 198.317Z" fill="black"></path><path d="M105.939 194.791C106.573 195.155 106.573 195.772 105.939 196.136C105.306 196.499 104.257 196.499 103.624 196.136C102.991 195.772 102.991 195.155 103.624 194.791C104.257 194.428 105.306 194.428 105.939 194.791Z" fill="black"></path><path d="M111.999 191.284C112.632 191.648 112.632 192.266 111.999 192.629C111.366 192.992 110.317 192.992 109.684 192.629C109.051 192.266 109.051 191.648 109.684 191.284C110.317 190.921 111.366 190.921 111.999 191.284Z" fill="black"></path><path d="M75.6426 205.349C76.2756 205.712 76.2756 206.33 75.6426 206.693C75.0095 207.057 73.9604 207.057 73.3273 206.693C72.6943 206.33 72.6943 205.712 73.3273 205.349C73.9604 204.985 75.0095 204.985 75.6426 205.349Z" fill="black"></path><path d="M81.7021 201.823C82.3352 202.187 82.3352 202.805 81.7021 203.168C81.0691 203.531 80.02 203.531 79.3869 203.168C78.7538 202.805 78.7538 202.187 79.3869 201.823C80.02 201.46 81.0691 201.46 81.7021 201.823Z" fill="black"></path><path d="M87.7612 198.317C88.3943 198.68 88.3943 199.298 87.7612 199.661C87.1281 200.025 86.0791 200.025 85.446 199.661C84.8129 199.298 84.8129 198.68 85.446 198.317C86.0791 197.953 87.1281 197.953 87.7612 198.317Z" fill="black"></path><path d="M93.8208 194.791C94.4538 195.155 94.4538 195.772 93.8208 196.136C93.1877 196.499 92.1386 196.499 91.5056 196.136C90.8725 195.772 90.8725 195.155 91.5056 194.791C92.1386 194.428 93.1877 194.428 93.8208 194.791Z" fill="black"></path><path d="M99.8804 191.284C100.513 191.648 100.513 192.266 99.8804 192.629C99.2473 192.992 98.1982 192.992 97.5651 192.629C96.9321 192.266 96.9321 191.648 97.5651 191.284C98.1982 190.921 99.2473 190.921 99.8804 191.284Z" fill="black"></path><path d="M105.939 187.759C106.573 188.122 106.573 188.74 105.939 189.104C105.306 189.467 104.257 189.467 103.624 189.104C102.991 188.74 102.991 188.122 103.624 187.759C104.257 187.395 105.306 187.395 105.939 187.759Z" fill="black"></path><path d="M69.5654 201.823C70.1985 202.187 70.1985 202.805 69.5654 203.168C68.9323 203.531 67.8833 203.531 67.2502 203.168C66.6171 202.805 66.6171 202.187 67.2502 201.823C67.8833 201.46 68.9323 201.46 69.5654 201.823Z" fill="black"></path><path d="M75.6426 198.317C76.2756 198.68 76.2756 199.298 75.6426 199.661C75.0095 200.025 73.9604 200.025 73.3273 199.661C72.6943 199.298 72.6943 198.68 73.3273 198.317C73.9604 197.953 75.0095 197.953 75.6426 198.317Z" fill="black"></path><path d="M81.7021 194.791C82.3352 195.155 82.3352 195.772 81.7021 196.136C81.0691 196.499 80.02 196.499 79.3869 196.136C78.7538 195.772 78.7538 195.155 79.3869 194.791C80.02 194.428 81.0691 194.428 81.7021 194.791Z" fill="black"></path><path d="M87.7612 191.284C88.3943 191.648 88.3943 192.266 87.7612 192.629C87.1281 192.992 86.0791 192.992 85.446 192.629C84.8129 192.266 84.8129 191.648 85.446 191.284C86.0791 190.921 87.1281 190.921 87.7612 191.284Z" fill="black"></path><path d="M93.8208 187.759C94.4538 188.122 94.4538 188.74 93.8208 189.104C93.1877 189.467 92.1386 189.467 91.5056 189.104C90.8725 188.74 90.8725 188.122 91.5056 187.759C92.1386 187.395 93.1877 187.395 93.8208 187.759Z" fill="black"></path><path d="M99.8804 184.251C100.513 184.615 100.513 185.232 99.8804 185.596C99.2473 185.959 98.1982 185.959 97.5651 185.596C96.9321 185.232 96.9321 184.615 97.5651 184.251C98.1982 183.888 99.2473 183.888 99.8804 184.251Z" fill="black"></path><path d="M63.4516 198.279C64.0847 198.643 64.0847 199.261 63.4516 199.624C62.8186 199.988 61.7695 199.988 61.1364 199.624C60.5034 199.261 60.5034 198.643 61.1364 198.279C61.7695 197.916 62.8186 197.916 63.4516 198.279Z" fill="black"></path><path d="M69.5293 194.755C70.1623 195.118 70.1623 195.736 69.5293 196.1C68.8962 196.463 67.8471 196.463 67.2141 196.1C66.581 195.736 66.581 195.118 67.2141 194.755C67.8471 194.392 68.8962 194.392 69.5293 194.755Z" fill="black"></path><path d="M75.5884 191.247C76.2214 191.611 76.2214 192.228 75.5884 192.592C74.9553 192.955 73.9062 192.955 73.2731 192.592C72.6401 192.228 72.6401 191.611 73.2731 191.247C73.9062 190.884 74.9553 190.884 75.5884 191.247Z" fill="black"></path><path d="M81.6479 187.723C82.281 188.086 82.281 188.704 81.6479 189.067C81.0149 189.431 79.9658 189.431 79.3327 189.067C78.6996 188.704 78.6996 188.086 79.3327 187.723C79.9658 187.359 81.0149 187.359 81.6479 187.723Z" fill="black"></path><path d="M87.707 184.215C88.3401 184.578 88.3401 185.196 87.707 185.56C87.074 185.923 86.0249 185.923 85.3918 185.56C84.7587 185.196 84.7587 184.578 85.3918 184.215C86.0249 183.852 87.074 183.852 87.707 184.215Z" fill="black"></path><path d="M93.7666 180.69C94.3996 181.053 94.3996 181.671 93.7666 182.034C93.1335 182.398 92.0844 182.398 91.4514 182.034C90.8183 181.671 90.8183 181.053 91.4514 180.69C92.0844 180.326 93.1335 180.326 93.7666 180.69Z" fill="black"></path><path d="M57.3921 194.755C58.0251 195.118 58.0251 195.736 57.3921 196.1C56.759 196.463 55.7099 196.463 55.0769 196.1C54.4438 195.736 54.4438 195.118 55.0769 194.755C55.7099 194.392 56.759 194.392 57.3921 194.755Z" fill="black"></path><path d="M63.4516 191.247C64.0847 191.611 64.0847 192.228 63.4516 192.592C62.8186 192.955 61.7695 192.955 61.1364 192.592C60.5034 192.228 60.5034 191.611 61.1364 191.247C61.7695 190.884 62.8186 190.884 63.4516 191.247Z" fill="black"></path><path d="M69.5293 187.723C70.1623 188.086 70.1623 188.704 69.5293 189.067C68.8962 189.431 67.8471 189.431 67.2141 189.067C66.581 188.704 66.581 188.086 67.2141 187.723C67.8471 187.359 68.8962 187.359 69.5293 187.723Z" fill="black"></path><path d="M75.5884 184.215C76.2214 184.578 76.2214 185.196 75.5884 185.56C74.9553 185.923 73.9062 185.923 73.2731 185.56C72.6401 185.196 72.6401 184.578 73.2731 184.215C73.9062 183.852 74.9553 183.852 75.5884 184.215Z" fill="black"></path><path d="M81.6479 180.69C82.281 181.053 82.281 181.671 81.6479 182.034C81.0149 182.398 79.9658 182.398 79.3327 182.034C78.6996 181.671 78.6996 181.053 79.3327 180.69C79.9658 180.326 81.0149 180.326 81.6479 180.69Z" fill="black"></path><path d="M87.707 177.183C88.3401 177.546 88.3401 178.164 87.707 178.527C87.074 178.891 86.0249 178.891 85.3918 178.527C84.7587 178.164 84.7587 177.546 85.3918 177.183C86.0249 176.819 87.074 176.819 87.707 177.183Z" fill="black"></path><path d="M51.333 191.247C51.9661 191.611 51.9661 192.228 51.333 192.592C50.6999 192.955 49.6508 192.955 49.0178 192.592C48.3847 192.228 48.3847 191.611 49.0178 191.247C49.6508 190.884 50.6999 190.884 51.333 191.247Z" fill="black"></path><path d="M57.3921 187.723C58.0251 188.086 58.0251 188.704 57.3921 189.067C56.759 189.431 55.7099 189.431 55.0769 189.067C54.4438 188.704 54.4438 188.086 55.0769 187.723C55.7099 187.359 56.759 187.359 57.3921 187.723Z" fill="black"></path><path d="M63.4516 184.215C64.0847 184.578 64.0847 185.196 63.4516 185.56C62.8186 185.923 61.7695 185.923 61.1364 185.56C60.5034 185.196 60.5034 184.578 61.1364 184.215C61.7695 183.852 62.8186 183.852 63.4516 184.215Z" fill="black"></path><path d="M69.5293 180.69C70.1623 181.053 70.1623 181.671 69.5293 182.034C68.8962 182.398 67.8471 182.398 67.2141 182.034C66.581 181.671 66.581 181.053 67.2141 180.69C67.8471 180.326 68.8962 180.326 69.5293 180.69Z" fill="black"></path><path d="M75.5884 177.183C76.2214 177.546 76.2214 178.164 75.5884 178.527C74.9553 178.891 73.9062 178.891 73.2731 178.527C72.6401 178.164 72.6401 177.546 73.2731 177.183C73.9062 176.819 74.9553 176.819 75.5884 177.183Z" fill="black"></path><path d="M81.6479 173.657C82.281 174.021 82.281 174.639 81.6479 175.002C81.0149 175.365 79.9658 175.365 79.3327 175.002C78.6996 174.639 78.6996 174.021 79.3327 173.657C79.9658 173.294 81.0149 173.294 81.6479 173.657Z" fill="black"></path><path d="M45.2734 187.723C45.9065 188.086 45.9065 188.704 45.2734 189.067C44.6404 189.431 43.5913 189.431 42.9582 189.067C42.3251 188.704 42.3251 188.086 42.9582 187.723C43.5913 187.359 44.6404 187.359 45.2734 187.723Z" fill="black"></path><path d="M51.333 184.215C51.9661 184.578 51.9661 185.196 51.333 185.56C50.6999 185.923 49.6508 185.923 49.0178 185.56C48.3847 185.196 48.3847 184.578 49.0178 184.215C49.6508 183.852 50.6999 183.852 51.333 184.215Z" fill="black"></path><path d="M57.3921 180.69C58.0251 181.053 58.0251 181.671 57.3921 182.034C56.759 182.398 55.7099 182.398 55.0769 182.034C54.4438 181.671 54.4438 181.053 55.0769 180.69C55.7099 180.326 56.759 180.326 57.3921 180.69Z" fill="black"></path><path d="M63.4516 177.183C64.0847 177.546 64.0847 178.164 63.4516 178.527C62.8186 178.891 61.7695 178.891 61.1364 178.527C60.5034 178.164 60.5034 177.546 61.1364 177.183C61.7695 176.819 62.8186 176.819 63.4516 177.183Z" fill="black"></path><path d="M69.5293 173.657C70.1623 174.021 70.1623 174.639 69.5293 175.002C68.8962 175.365 67.8471 175.365 67.2141 175.002C66.581 174.639 66.581 174.021 67.2141 173.657C67.8471 173.294 68.8962 173.294 69.5293 173.657Z" fill="black"></path><path d="M75.5884 170.15C76.2214 170.514 76.2214 171.132 75.5884 171.495C74.9553 171.859 73.9062 171.859 73.2731 171.495C72.6401 171.132 72.6401 170.514 73.2731 170.15C73.9062 169.787 74.9553 169.787 75.5884 170.15Z" fill="black"></path><path d="M39.2143 184.215C39.8474 184.578 39.8474 185.196 39.2143 185.56C38.5813 185.923 37.5322 185.923 36.8991 185.56C36.266 185.196 36.266 184.578 36.8991 184.215C37.5322 183.852 38.5813 183.852 39.2143 184.215Z" fill="black"></path><path d="M45.2734 180.69C45.9065 181.053 45.9065 181.671 45.2734 182.034C44.6404 182.398 43.5913 182.398 42.9582 182.034C42.3251 181.671 42.3251 181.053 42.9582 180.69C43.5913 180.326 44.6404 180.326 45.2734 180.69Z" fill="black"></path><path d="M51.333 177.183C51.9661 177.546 51.9661 178.164 51.333 178.527C50.6999 178.891 49.6508 178.891 49.0178 178.527C48.3847 178.164 48.3847 177.546 49.0178 177.183C49.6508 176.819 50.6999 176.819 51.333 177.183Z" fill="black"></path><path d="M57.3921 173.657C58.0251 174.021 58.0251 174.639 57.3921 175.002C56.759 175.365 55.7099 175.365 55.0769 175.002C54.4438 174.639 54.4438 174.021 55.0769 173.657C55.7099 173.294 56.759 173.294 57.3921 173.657Z" fill="black"></path><path d="M63.4516 170.15C64.0847 170.514 64.0847 171.132 63.4516 171.495C62.8186 171.859 61.7695 171.859 61.1364 171.495C60.5034 171.132 60.5034 170.514 61.1364 170.15C61.7695 169.787 62.8186 169.787 63.4516 170.15Z" fill="black"></path><path d="M69.5293 166.644C70.1623 167.007 70.1623 167.625 69.5293 167.988C68.8962 168.352 67.8471 168.352 67.2141 167.988C66.581 167.625 66.581 167.007 67.2141 166.644C67.8471 166.28 68.8962 166.28 69.5293 166.644Z" fill="black"></path><path d="M33.1548 180.69C33.7878 181.053 33.7878 181.671 33.1548 182.034C32.5217 182.398 31.4726 182.398 30.8395 182.034C30.2065 181.671 30.2065 181.053 30.8395 180.69C31.4726 180.326 32.5217 180.326 33.1548 180.69Z" fill="black"></path><path d="M39.2143 177.183C39.8474 177.546 39.8474 178.164 39.2143 178.527C38.5813 178.891 37.5322 178.891 36.8991 178.527C36.266 178.164 36.266 177.546 36.8991 177.183C37.5322 176.819 38.5813 176.819 39.2143 177.183Z" fill="black"></path><path d="M45.2734 173.657C45.9065 174.021 45.9065 174.639 45.2734 175.002C44.6404 175.365 43.5913 175.365 42.9582 175.002C42.3251 174.639 42.3251 174.021 42.9582 173.657C43.5913 173.294 44.6404 173.294 45.2734 173.657Z" fill="black"></path><path d="M51.333 170.15C51.9661 170.514 51.9661 171.132 51.333 171.495C50.6999 171.859 49.6508 171.859 49.0178 171.495C48.3847 171.132 48.3847 170.514 49.0178 170.15C49.6508 169.787 50.6999 169.787 51.333 170.15Z" fill="black"></path><path d="M57.3921 166.644C58.0251 167.007 58.0251 167.625 57.3921 167.988C56.759 168.352 55.7099 168.352 55.0769 167.988C54.4438 167.625 54.4438 167.007 55.0769 166.644C55.7099 166.28 56.759 166.28 57.3921 166.644Z" fill="black"></path><path d="M63.4516 163.118C64.0847 163.482 64.0847 164.1 63.4516 164.463C62.8186 164.826 61.7695 164.826 61.1364 164.463C60.5034 164.1 60.5034 163.482 61.1364 163.118C61.7695 162.755 62.8186 162.755 63.4516 163.118Z" fill="black"></path><path d="M27.0952 177.183C27.7283 177.546 27.7283 178.164 27.0952 178.527C26.4621 178.891 25.413 178.891 24.78 178.527C24.1469 178.164 24.1469 177.546 24.78 177.183C25.413 176.819 26.4621 176.819 27.0952 177.183Z" fill="black"></path><path d="M33.1548 173.657C33.7878 174.021 33.7878 174.639 33.1548 175.002C32.5217 175.365 31.4726 175.365 30.8395 175.002C30.2065 174.639 30.2065 174.021 30.8395 173.657C31.4726 173.294 32.5217 173.294 33.1548 173.657Z" fill="black"></path><path d="M39.2143 170.15C39.8474 170.514 39.8474 171.132 39.2143 171.495C38.5813 171.859 37.5322 171.859 36.8991 171.495C36.266 171.132 36.266 170.514 36.8991 170.15C37.5322 169.787 38.5813 169.787 39.2143 170.15Z" fill="black"></path><path d="M45.2734 166.644C45.9065 167.007 45.9065 167.625 45.2734 167.988C44.6404 168.352 43.5913 168.352 42.9582 167.988C42.3251 167.625 42.3251 167.007 42.9582 166.644C43.5913 166.28 44.6404 166.28 45.2734 166.644Z" fill="black"></path><path d="M51.333 163.118C51.9661 163.482 51.9661 164.1 51.333 164.463C50.6999 164.826 49.6508 164.826 49.0178 164.463C48.3847 164.1 48.3847 163.482 49.0178 163.118C49.6508 162.755 50.6999 162.755 51.333 163.118Z" fill="black"></path><path d="M55.0769 159.611C55.7099 159.248 56.759 159.248 57.3921 159.611C58.0251 159.975 58.0251 160.593 57.3921 160.956C56.759 161.32 55.7099 161.32 55.0769 160.956C54.4438 160.593 54.4438 159.975 55.0769 159.611C54.4438 159.975 55.7099 159.248 55.0769 159.611Z" fill="black"></path><path d="M21.0361 173.657C21.6692 174.021 21.6692 174.639 21.0361 175.002C20.403 175.365 19.354 175.365 18.7209 175.002C18.0878 174.639 18.0878 174.021 18.7209 173.657C19.354 173.294 20.403 173.294 21.0361 173.657Z" fill="black"></path><path d="M27.0952 170.15C27.7283 170.514 27.7283 171.132 27.0952 171.495C26.4621 171.859 25.413 171.859 24.78 171.495C24.1469 171.132 24.1469 170.514 24.78 170.15C25.413 169.787 26.4621 169.787 27.0952 170.15Z" fill="black"></path><path d="M33.1548 166.644C33.7878 167.007 33.7878 167.625 33.1548 167.988C32.5217 168.352 31.4726 168.352 30.8395 167.988C30.2065 167.625 30.2065 167.007 30.8395 166.644C31.4726 166.28 32.5217 166.28 33.1548 166.644Z" fill="black"></path><path d="M39.2143 163.118C39.8474 163.482 39.8474 164.1 39.2143 164.463C38.5813 164.826 37.5322 164.826 36.8991 164.463C36.266 164.1 36.266 163.482 36.8991 163.118C37.5322 162.755 38.5813 162.755 39.2143 163.118Z" fill="black"></path><path d="M45.2734 159.611C45.9065 159.975 45.9065 160.593 45.2734 160.956C44.6404 161.32 43.5913 161.32 42.9582 160.956C42.3251 160.593 42.3251 159.975 42.9582 159.611C43.5913 159.248 44.6404 159.248 45.2734 159.611Z" fill="black"></path><path d="M14.9223 170.114C15.5554 170.478 15.5554 171.096 14.9223 171.459C14.2893 171.822 13.2402 171.822 12.6071 171.459C11.9741 171.096 11.9741 170.478 12.6071 170.114C13.2402 169.751 14.2893 169.751 14.9223 170.114Z" fill="black"></path><path d="M20.9819 166.589C21.615 166.952 21.615 167.57 20.9819 167.934C20.3488 168.297 19.2998 168.297 18.6667 167.934C18.0336 167.57 18.0336 166.952 18.6667 166.589C19.2998 166.226 20.3488 166.226 20.9819 166.589Z" fill="black"></path><path d="M27.041 163.082C27.6741 163.446 27.6741 164.063 27.041 164.427C26.4079 164.79 25.3588 164.79 24.7258 164.427C24.0927 164.063 24.0927 163.446 24.7258 163.082C25.3588 162.719 26.4079 162.719 27.041 163.082Z" fill="black"></path><path d="M33.1006 159.575C33.7336 159.939 33.7336 160.557 33.1006 160.92C32.4675 161.283 31.4184 161.283 30.7853 160.92C30.1523 160.557 30.1523 159.939 30.7853 159.575C31.4184 159.212 32.4675 159.212 33.1006 159.575Z" fill="black"></path><path d="M8.86326 166.589C9.49633 166.952 9.49633 167.57 8.86326 167.934C8.2302 168.297 7.18111 168.297 6.54804 167.934C5.91498 167.57 5.91498 166.952 6.54804 166.589C7.18111 166.226 8.2302 166.226 8.86326 166.589Z" fill="black"></path><path d="M14.9223 163.082C15.5554 163.446 15.5554 164.063 14.9223 164.427C14.2893 164.79 13.2402 164.79 12.6071 164.427C11.9741 164.063 11.9741 163.446 12.6071 163.082C13.2402 162.719 14.2893 162.719 14.9223 163.082Z" fill="black"></path><path d="M20.9819 159.575C21.615 159.939 21.615 160.557 20.9819 160.92C20.3488 161.283 19.2998 161.283 18.6667 160.92C18.0336 160.557 18.0336 159.939 18.6667 159.575C19.2998 159.212 20.3488 159.212 20.9819 159.575Z" fill="black"></path><path d="M27.041 156.05C27.6741 156.413 27.6741 157.031 27.041 157.395C26.4079 157.758 25.3588 157.758 24.7258 157.395C24.0927 157.031 24.0927 156.413 24.7258 156.05C25.3588 155.686 26.4079 155.686 27.041 156.05C26.4079 155.686 27.6741 156.413 27.041 156.05Z" fill="black"></path><path d="M2.80369 163.082C3.43676 163.446 3.43676 164.063 2.80369 164.427C2.17062 164.79 1.12154 164.79 0.488473 164.427C-0.144595 164.063 -0.144595 163.446 0.488473 163.082C1.12154 162.719 2.17062 162.719 2.80369 163.082Z" fill="black"></path><path d="M8.86326 159.575C9.49633 159.939 9.49633 160.557 8.86326 160.92C8.2302 161.283 7.18111 161.283 6.54804 160.92C5.91498 160.557 5.91498 159.939 6.54804 159.575C7.18111 159.212 8.2302 159.212 8.86326 159.575Z" fill="black"></path><path d="M14.9223 156.05C15.5554 156.413 15.5554 157.031 14.9223 157.395C14.2893 157.758 13.2402 157.758 12.6071 157.395C11.9741 157.031 11.9741 156.413 12.6071 156.05C13.2402 155.686 14.2893 155.686 14.9223 156.05Z" fill="black"></path><path d="M2.80369 156.05C3.43676 156.413 3.43676 157.031 2.80369 157.395C2.17062 157.758 1.12154 157.758 0.488473 157.395C-0.144595 157.031 -0.144595 156.413 0.488473 156.05C1.12154 155.686 2.17062 155.686 2.80369 156.05Z" fill="black"></path><path d="M8.86326 152.543C9.49633 152.907 9.49633 153.524 8.86326 153.888C8.2302 154.251 7.18111 154.251 6.54804 153.888C5.91498 153.524 5.91498 152.907 6.54804 152.543C7.18111 152.18 8.2302 152.18 8.86326 152.543Z" fill="black"></path><path d="M160.51 177.256C161.143 177.619 161.143 178.237 160.51 178.601C159.877 178.964 158.828 178.964 158.195 178.601C157.561 178.237 157.561 177.619 158.195 177.256C158.828 176.893 159.877 176.893 160.51 177.256Z" fill="black"></path><path d="M166.569 173.748C167.202 174.112 167.202 174.729 166.569 175.093C165.936 175.456 164.887 175.456 164.254 175.093C163.621 174.729 163.621 174.112 164.254 173.748C164.887 173.385 165.936 173.385 166.569 173.748Z" fill="black"></path><path d="M172.629 170.224C173.262 170.587 173.262 171.205 172.629 171.568C171.996 171.932 170.947 171.932 170.314 171.568C169.681 171.205 169.681 170.587 170.314 170.224C170.947 169.86 171.996 169.86 172.629 170.224Z" fill="black"></path><path d="M148.391 177.256C149.024 177.619 149.024 178.237 148.391 178.601C147.758 178.964 146.709 178.964 146.076 178.601C145.443 178.237 145.443 177.619 146.076 177.256C146.709 176.893 147.758 176.893 148.391 177.256Z" fill="black"></path><path d="M154.451 173.748C155.084 174.112 155.084 174.729 154.451 175.093C153.818 175.456 152.769 175.456 152.135 175.093C151.502 174.729 151.502 174.112 152.135 173.748C152.769 173.385 153.818 173.385 154.451 173.748Z" fill="black"></path><path d="M160.51 170.241C161.143 170.605 161.143 171.223 160.51 171.586C159.877 171.949 158.828 171.949 158.195 171.586C157.561 171.223 157.561 170.605 158.195 170.241C158.828 169.878 159.877 169.878 160.51 170.241Z" fill="black"></path><path d="M166.569 166.716C167.202 167.079 167.202 167.697 166.569 168.061C165.936 168.424 164.887 168.424 164.254 168.061C163.621 167.697 163.621 167.079 164.254 166.716C164.887 166.353 165.936 166.353 166.569 166.716Z" fill="black"></path><path d="M172.629 164.554C171.996 164.917 170.947 164.917 170.314 164.554C169.681 164.19 169.681 163.573 170.314 163.209C170.947 162.846 171.996 162.846 172.629 163.209C173.262 163.573 173.262 164.19 172.629 164.554Z" fill="black"></path><path d="M115.761 187.814C116.394 187.45 117.443 187.432 118.076 187.814C118.709 188.177 118.727 188.795 118.076 189.158C117.443 189.522 116.394 189.54 115.761 189.158C115.128 188.795 115.11 188.177 115.761 187.814Z" fill="black"></path><path d="M124.136 184.288C124.769 184.652 124.769 185.269 124.136 185.633C123.503 185.996 122.454 185.996 121.821 185.633C121.187 185.269 121.187 184.652 121.821 184.288C122.454 183.925 123.503 183.925 124.136 184.288Z" fill="black"></path><path d="M130.195 180.78C130.828 181.144 130.828 181.762 130.195 182.125C129.562 182.488 128.513 182.488 127.88 182.125C127.247 181.762 127.247 181.144 127.88 180.78C128.513 180.417 129.562 180.417 130.195 180.78Z" fill="black"></path><path d="M136.254 177.256C136.887 177.619 136.887 178.237 136.254 178.601C135.621 178.964 134.572 178.964 133.939 178.601C133.306 178.237 133.306 177.619 133.939 177.256C134.572 176.893 135.621 176.893 136.254 177.256Z" fill="black"></path><path d="M142.314 173.748C142.947 174.112 142.947 174.729 142.314 175.093C141.681 175.456 140.632 175.456 139.999 175.093C139.366 174.729 139.366 174.112 139.999 173.748C140.632 173.385 141.681 173.385 142.314 173.748Z" fill="black"></path><path d="M148.391 170.241C149.024 170.605 149.024 171.223 148.391 171.586C147.758 171.949 146.709 171.949 146.076 171.586C145.443 171.223 145.443 170.605 146.076 170.241C146.709 169.878 147.758 169.878 148.391 170.241Z" fill="black"></path><path d="M154.451 166.716C155.084 167.079 155.084 167.697 154.451 168.061C153.818 168.424 152.769 168.424 152.135 168.061C151.502 167.697 151.502 167.079 152.135 166.716C152.769 166.353 153.818 166.353 154.451 166.716Z" fill="black"></path><path d="M160.51 163.209C161.143 163.573 161.143 164.19 160.51 164.554C159.877 164.917 158.828 164.917 158.195 164.554C157.561 164.19 157.561 163.573 158.195 163.209C158.828 162.846 159.877 162.846 160.51 163.209Z" fill="black"></path><path d="M166.569 159.684C167.202 160.047 167.202 160.665 166.569 161.028C165.936 161.392 164.887 161.392 164.254 161.028C163.621 160.665 163.621 160.047 164.254 159.684C164.887 159.32 165.936 159.32 166.569 159.684Z" fill="black"></path><path d="M172.629 156.177C173.262 156.54 173.262 157.158 172.629 157.522C171.996 157.885 170.947 157.885 170.314 157.522C169.681 157.158 169.681 156.54 170.314 156.177C170.947 155.813 171.996 155.813 172.629 156.177Z" fill="black"></path><path d="M178.688 152.651C179.321 153.015 179.321 153.633 178.688 153.996C178.055 154.36 177.006 154.36 176.373 153.996C175.74 153.633 175.74 153.015 176.373 152.651C177.006 152.288 178.055 152.288 178.688 152.651Z" fill="black"></path><path d="M184.748 149.145C185.381 149.508 185.381 150.126 184.748 150.489C184.114 150.853 183.065 150.853 182.432 150.489C181.799 150.126 181.799 149.508 182.432 149.145C183.065 148.781 184.114 148.781 184.748 149.145Z" fill="black"></path><path d="M190.807 145.619C191.44 145.983 191.44 146.6 190.807 146.964C190.174 147.327 189.124 147.327 188.491 146.964C187.858 146.6 187.858 145.983 188.491 145.619C189.124 145.256 190.174 145.256 190.807 145.619Z" fill="black"></path><path d="M109.684 184.306C110.317 183.942 111.366 183.924 111.999 184.306C112.632 184.669 112.65 185.287 111.999 185.65C111.366 186.014 110.317 186.032 109.684 185.65C109.051 185.269 109.033 184.669 109.684 184.306Z" fill="black"></path><path d="M118.076 180.78C118.709 181.144 118.709 181.762 118.076 182.125C117.443 182.488 116.394 182.488 115.761 182.125C115.128 181.762 115.128 181.144 115.761 180.78C116.394 180.417 117.443 180.417 118.076 180.78Z" fill="black"></path><path d="M124.136 177.256C124.769 177.619 124.769 178.237 124.136 178.601C123.503 178.964 122.454 178.964 121.821 178.601C121.187 178.237 121.187 177.619 121.821 177.256C122.454 176.893 123.503 176.893 124.136 177.256Z" fill="black"></path><path d="M130.195 173.748C130.828 174.112 130.828 174.729 130.195 175.093C129.562 175.456 128.513 175.456 127.88 175.093C127.247 174.729 127.247 174.112 127.88 173.748C128.513 173.385 129.562 173.385 130.195 173.748Z" fill="black"></path><path d="M136.254 170.241C136.887 170.605 136.887 171.223 136.254 171.586C135.621 171.949 134.572 171.949 133.939 171.586C133.306 171.223 133.306 170.605 133.939 170.241C134.572 169.878 135.621 169.878 136.254 170.241Z" fill="black"></path><path d="M142.314 166.716C142.947 167.079 142.947 167.697 142.314 168.061C141.681 168.424 140.632 168.424 139.999 168.061C139.366 167.697 139.366 167.079 139.999 166.716C140.632 166.353 141.681 166.353 142.314 166.716Z" fill="black"></path><path d="M148.391 163.209C149.024 163.573 149.024 164.19 148.391 164.554C147.758 164.917 146.709 164.917 146.076 164.554C145.443 164.19 145.443 163.573 146.076 163.209C146.709 162.846 147.758 162.846 148.391 163.209Z" fill="black"></path><path d="M154.451 159.684C155.084 160.047 155.084 160.665 154.451 161.028C153.818 161.392 152.769 161.392 152.135 161.028C151.502 160.665 151.502 160.047 152.135 159.684C152.769 159.32 153.818 159.32 154.451 159.684Z" fill="black"></path><path d="M160.51 156.177C161.143 156.54 161.143 157.158 160.51 157.522C159.877 157.885 158.828 157.885 158.195 157.522C157.561 157.158 157.561 156.54 158.195 156.177C158.828 155.813 159.877 155.813 160.51 156.177Z" fill="black"></path><path d="M166.569 152.651C167.202 153.015 167.202 153.633 166.569 153.996C165.936 154.36 164.887 154.36 164.254 153.996C163.621 153.633 163.621 153.015 164.254 152.651C164.887 152.288 165.936 152.288 166.569 152.651Z" fill="black"></path><path d="M172.629 149.145C173.262 149.508 173.262 150.126 172.629 150.489C171.996 150.853 170.947 150.853 170.314 150.489C169.681 150.126 169.681 149.508 170.314 149.145C170.947 148.781 171.996 148.781 172.629 149.145Z" fill="black"></path><path d="M178.688 145.619C179.321 145.983 179.321 146.6 178.688 146.964C178.055 147.327 177.006 147.327 176.373 146.964C175.74 146.6 175.74 145.983 176.373 145.619C177.006 145.256 178.055 145.256 178.688 145.619Z" fill="black"></path><path d="M184.748 142.112C185.381 142.476 185.381 143.094 184.748 143.457C184.114 143.821 183.065 143.821 182.432 143.457C181.799 143.094 181.799 142.476 182.432 142.112C183.065 141.749 184.114 141.749 184.748 142.112V142.112Z" fill="black"></path><path d="M190.807 138.587C191.44 138.95 191.44 139.568 190.807 139.932C190.174 140.295 189.124 140.295 188.491 139.932C187.858 139.568 187.858 138.95 188.491 138.587C189.124 138.224 190.174 138.224 190.807 138.587Z" fill="black"></path><path d="M103.624 180.78C104.257 180.417 105.306 180.399 105.939 180.78C106.572 181.144 106.591 181.762 105.939 182.125C105.306 182.489 104.257 182.507 103.624 182.125C102.991 181.762 102.973 181.144 103.624 180.78Z" fill="black"></path><path d="M112.017 177.256C112.65 177.619 112.65 178.237 112.017 178.601C111.384 178.964 110.335 178.964 109.702 178.601C109.069 178.237 109.069 177.619 109.702 177.256C110.335 176.893 111.384 176.893 112.017 177.256Z" fill="black"></path><path d="M118.076 173.748C118.709 174.112 118.709 174.729 118.076 175.093C117.443 175.456 116.394 175.456 115.761 175.093C115.128 174.729 115.128 174.112 115.761 173.748C116.394 173.385 117.443 173.385 118.076 173.748Z" fill="black"></path><path d="M124.136 170.241C124.769 170.605 124.769 171.223 124.136 171.586C123.503 171.949 122.454 171.949 121.821 171.586C121.187 171.223 121.187 170.605 121.821 170.241C122.454 169.878 123.503 169.878 124.136 170.241Z" fill="black"></path><path d="M130.195 166.716C130.828 167.079 130.828 167.697 130.195 168.061C129.562 168.424 128.513 168.424 127.88 168.061C127.247 167.697 127.247 167.079 127.88 166.716C128.513 166.353 129.562 166.353 130.195 166.716Z" fill="black"></path><path d="M136.254 163.209C136.887 163.573 136.887 164.19 136.254 164.554C135.621 164.917 134.572 164.917 133.939 164.554C133.306 164.19 133.306 163.573 133.939 163.209C134.572 162.846 135.621 162.846 136.254 163.209Z" fill="black"></path><path d="M142.314 159.684C142.947 160.047 142.947 160.665 142.314 161.028C141.681 161.392 140.632 161.392 139.999 161.028C139.366 160.665 139.366 160.047 139.999 159.684C140.632 159.32 141.681 159.32 142.314 159.684Z" fill="black"></path><path d="M148.391 156.177C149.024 156.54 149.024 157.158 148.391 157.522C147.758 157.885 146.709 157.885 146.076 157.522C145.443 157.158 145.443 156.54 146.076 156.177C146.709 155.813 147.758 155.813 148.391 156.177Z" fill="black"></path><path d="M154.451 152.651C155.084 153.015 155.084 153.633 154.451 153.996C153.818 154.36 152.769 154.36 152.135 153.996C151.502 153.633 151.502 153.015 152.135 152.651C152.769 152.288 153.818 152.288 154.451 152.651Z" fill="black"></path><path d="M160.51 149.145C161.143 149.508 161.143 150.126 160.51 150.489C159.877 150.853 158.828 150.853 158.195 150.489C157.561 150.126 157.561 149.508 158.195 149.145C158.828 148.781 159.877 148.781 160.51 149.145Z" fill="black"></path><path d="M166.569 145.619C167.202 145.983 167.202 146.6 166.569 146.964C165.936 147.327 164.887 147.327 164.254 146.964C163.621 146.6 163.621 145.983 164.254 145.619C164.887 145.256 165.936 145.256 166.569 145.619Z" fill="black"></path><path d="M172.629 142.112C173.262 142.476 173.262 143.094 172.629 143.457C171.996 143.821 170.947 143.821 170.314 143.457C169.681 143.094 169.681 142.476 170.314 142.112C170.947 141.749 171.996 141.749 172.629 142.112V142.112Z" fill="black"></path><path d="M178.688 138.587C179.321 138.95 179.321 139.568 178.688 139.932C178.055 140.295 177.006 140.295 176.373 139.932C175.74 139.568 175.74 138.95 176.373 138.587C177.006 138.224 178.055 138.224 178.688 138.587Z" fill="black"></path><path d="M184.748 135.08C185.381 135.444 185.381 136.061 184.748 136.425C184.114 136.788 183.065 136.788 182.432 136.425C181.799 136.061 181.799 135.444 182.432 135.08C183.065 134.717 184.114 134.717 184.748 135.08Z" fill="black"></path><path d="M97.5109 177.237C98.144 176.874 99.1931 176.856 99.8261 177.237C100.459 177.601 100.477 178.219 99.8261 178.582C99.1931 178.946 98.144 178.964 97.5109 178.582C96.8778 178.219 96.8597 177.601 97.5109 177.237Z" fill="black"></path><path d="M105.903 173.712C106.536 174.075 106.536 174.693 105.903 175.057C105.27 175.42 104.221 175.42 103.588 175.057C102.955 174.693 102.955 174.075 103.588 173.712C104.221 173.349 105.27 173.349 105.903 173.712Z" fill="black"></path><path d="M111.963 170.187C112.596 170.55 112.596 171.168 111.963 171.531C111.33 171.895 110.281 171.895 109.648 171.531C109.015 171.168 109.015 170.55 109.648 170.187C110.281 169.823 111.33 169.823 111.963 170.187Z" fill="black"></path><path d="M118.022 166.68C118.655 167.043 118.655 167.661 118.022 168.024C117.389 168.388 116.34 168.388 115.707 168.024C115.074 167.661 115.074 167.043 115.707 166.68C116.34 166.316 117.389 166.316 118.022 166.68Z" fill="black"></path><path d="M124.082 163.173C124.715 163.536 124.715 164.154 124.082 164.518C123.448 164.881 122.399 164.881 121.766 164.518C121.133 164.154 121.133 163.536 121.766 163.173C122.399 162.81 123.448 162.81 124.082 163.173Z" fill="black"></path><path d="M130.141 159.648C130.774 160.011 130.774 160.629 130.141 160.992C129.508 161.356 128.458 161.356 127.825 160.992C127.192 160.629 127.192 160.011 127.825 159.648C128.458 159.284 129.508 159.284 130.141 159.648Z" fill="black"></path><path d="M136.2 156.141C136.833 156.504 136.833 157.122 136.2 157.485C135.567 157.849 134.518 157.849 133.885 157.485C133.252 157.122 133.252 156.504 133.885 156.141C134.518 155.777 135.567 155.777 136.2 156.141Z" fill="black"></path><path d="M142.278 152.615C142.911 152.979 142.911 153.597 142.278 153.96C141.645 154.323 140.596 154.323 139.963 153.96C139.33 153.597 139.33 152.979 139.963 152.615C140.596 152.252 141.645 152.252 142.278 152.615Z" fill="black"></path><path d="M148.337 149.109C148.97 149.472 148.97 150.09 148.337 150.453C147.704 150.817 146.655 150.817 146.022 150.453C145.389 150.09 145.389 149.472 146.022 149.109C146.655 148.745 147.704 148.745 148.337 149.109Z" fill="black"></path><path d="M154.396 145.583C155.03 145.947 155.03 146.564 154.396 146.928C153.763 147.291 152.714 147.291 152.081 146.928C151.448 146.564 151.448 145.947 152.081 145.583C152.714 145.22 153.763 145.22 154.396 145.583Z" fill="black"></path><path d="M160.456 142.076C161.089 142.44 161.089 143.058 160.456 143.421C159.822 143.784 158.773 143.784 158.14 143.421C157.507 143.058 157.507 142.44 158.14 142.076C158.773 141.713 159.822 141.713 160.456 142.076Z" fill="black"></path><path d="M166.515 138.551C167.148 138.914 167.148 139.532 166.515 139.896C165.882 140.259 164.833 140.259 164.2 139.896C163.567 139.532 163.567 138.914 164.2 138.551C164.833 138.187 165.882 138.187 166.515 138.551Z" fill="black"></path><path d="M91.4513 173.712C92.0844 173.349 93.1335 173.33 93.7666 173.712C94.3996 174.075 94.4177 174.693 93.7666 175.057C93.1335 175.42 92.0844 175.438 91.4513 175.057C90.8183 174.693 90.8002 174.075 91.4513 173.712Z" fill="black"></path><path d="M99.8437 170.187C100.477 170.55 100.477 171.168 99.8437 171.531C99.2107 171.895 98.1616 171.895 97.5285 171.531C96.8954 171.168 96.8954 170.55 97.5285 170.187C98.1616 169.823 99.2107 169.823 99.8437 170.187Z" fill="black"></path><path d="M105.903 166.68C106.536 167.043 106.536 167.661 105.903 168.024C105.27 168.388 104.221 168.388 103.588 168.024C102.955 167.661 102.955 167.043 103.588 166.68C104.221 166.316 105.27 166.316 105.903 166.68Z" fill="black"></path><path d="M111.963 163.173C112.596 163.536 112.596 164.154 111.963 164.518C111.33 164.881 110.281 164.881 109.648 164.518C109.015 164.154 109.015 163.536 109.648 163.173C110.281 162.81 111.33 162.81 111.963 163.173Z" fill="black"></path><path d="M118.022 159.648C118.655 160.011 118.655 160.629 118.022 160.992C117.389 161.356 116.34 161.356 115.707 160.992C115.074 160.629 115.074 160.011 115.707 159.648C116.34 159.284 117.389 159.284 118.022 159.648Z" fill="black"></path><path d="M124.082 156.141C124.715 156.504 124.715 157.122 124.082 157.485C123.448 157.849 122.399 157.849 121.766 157.485C121.133 157.122 121.133 156.504 121.766 156.141C122.399 155.777 123.448 155.777 124.082 156.141Z" fill="black"></path><path d="M130.141 152.615C130.774 152.979 130.774 153.597 130.141 153.96C129.508 154.323 128.458 154.323 127.825 153.96C127.192 153.597 127.192 152.979 127.825 152.615C128.458 152.252 129.508 152.252 130.141 152.615Z" fill="black"></path><path d="M136.2 149.109C136.833 149.472 136.833 150.09 136.2 150.453C135.567 150.817 134.518 150.817 133.885 150.453C133.252 150.09 133.252 149.472 133.885 149.109C134.518 148.745 135.567 148.745 136.2 149.109Z" fill="black"></path><path d="M142.278 145.583C142.911 145.947 142.911 146.564 142.278 146.928C141.645 147.291 140.596 147.291 139.963 146.928C139.33 146.564 139.33 145.947 139.963 145.583C140.596 145.22 141.645 145.22 142.278 145.583Z" fill="black"></path><path d="M146.022 142.076C146.655 141.713 147.704 141.713 148.337 142.076C148.97 142.44 148.97 143.058 148.337 143.421C147.704 143.784 146.655 143.784 146.022 143.421C145.389 143.058 145.389 142.44 146.022 142.076C145.389 142.44 146.655 141.713 146.022 142.076Z" fill="black"></path><path d="M85.3918 170.205C86.0248 169.842 87.0739 169.824 87.707 170.205C88.3401 170.569 88.3581 171.186 87.707 171.55C87.0739 171.913 86.0248 171.931 85.3918 171.55C84.7587 171.186 84.7406 170.569 85.3918 170.205Z" fill="black"></path><path d="M93.7846 166.68C94.4177 167.043 94.4177 167.661 93.7846 168.024C93.1516 168.388 92.1025 168.388 91.4694 168.024C90.8364 167.661 90.8364 167.043 91.4694 166.68C92.1025 166.316 93.1516 166.316 93.7846 166.68Z" fill="black"></path><path d="M99.8437 163.173C100.477 163.536 100.477 164.154 99.8437 164.518C99.2107 164.881 98.1616 164.881 97.5285 164.518C96.8954 164.154 96.8954 163.536 97.5285 163.173C98.1616 162.81 99.2107 162.81 99.8437 163.173Z" fill="black"></path><path d="M105.903 159.648C106.536 160.011 106.536 160.629 105.903 160.992C105.27 161.356 104.221 161.356 103.588 160.992C102.955 160.629 102.955 160.011 103.588 159.648C104.221 159.284 105.27 159.284 105.903 159.648Z" fill="black"></path><path d="M111.963 156.141C112.596 156.504 112.596 157.122 111.963 157.485C111.33 157.849 110.281 157.849 109.648 157.485C109.015 157.122 109.015 156.504 109.648 156.141C110.281 155.777 111.33 155.777 111.963 156.141Z" fill="black"></path><path d="M118.022 152.615C118.655 152.979 118.655 153.597 118.022 153.96C117.389 154.323 116.34 154.323 115.707 153.96C115.074 153.597 115.074 152.979 115.707 152.615C116.34 152.252 117.389 152.252 118.022 152.615Z" fill="black"></path><path d="M124.082 149.109C124.715 149.472 124.715 150.09 124.082 150.453C123.448 150.817 122.399 150.817 121.766 150.453C121.133 150.09 121.133 149.472 121.766 149.109C122.399 148.745 123.448 148.745 124.082 149.109Z" fill="black"></path><path d="M130.141 145.583C130.774 145.947 130.774 146.564 130.141 146.928C129.508 147.291 128.458 147.291 127.825 146.928C127.192 146.564 127.192 145.947 127.825 145.583C128.458 145.22 129.508 145.22 130.141 145.583Z" fill="black"></path><path d="M79.3327 166.68C79.9657 166.316 81.0148 166.298 81.6479 166.68C82.281 167.043 82.2991 167.661 81.6479 168.024C81.0148 168.388 79.9657 168.406 79.3327 168.024C78.6996 167.661 78.6815 167.043 79.3327 166.68Z" fill="black"></path><path d="M87.7251 163.173C88.3581 163.536 88.3581 164.154 87.7251 164.518C87.092 164.881 86.0429 164.881 85.4099 164.518C84.7768 164.154 84.7768 163.536 85.4099 163.173C86.0429 162.81 87.092 162.81 87.7251 163.173Z" fill="black"></path><path d="M93.7846 159.648C94.4177 160.011 94.4177 160.629 93.7846 160.992C93.1516 161.356 92.1025 161.356 91.4694 160.992C90.8364 160.629 90.8364 160.011 91.4694 159.648C92.1025 159.284 93.1516 159.284 93.7846 159.648Z" fill="black"></path><path d="M99.8437 156.141C100.477 156.504 100.477 157.122 99.8437 157.485C99.2107 157.849 98.1616 157.849 97.5285 157.485C96.8954 157.122 96.8954 156.504 97.5285 156.141C98.1616 155.777 99.2107 155.777 99.8437 156.141Z" fill="black"></path><path d="M105.903 152.615C106.536 152.979 106.536 153.597 105.903 153.96C105.27 154.323 104.221 154.323 103.588 153.96C102.955 153.597 102.955 152.979 103.588 152.615C104.221 152.252 105.27 152.252 105.903 152.615Z" fill="black"></path><path d="M111.963 149.109C112.596 149.472 112.596 150.09 111.963 150.453C111.33 150.817 110.281 150.817 109.648 150.453C109.015 150.09 109.015 149.472 109.648 149.109C110.281 148.745 111.33 148.745 111.963 149.109Z" fill="black"></path><path d="M118.022 145.583C118.655 145.947 118.655 146.564 118.022 146.928C117.389 147.291 116.34 147.291 115.707 146.928C115.074 146.564 115.074 145.947 115.707 145.583C116.34 145.22 117.389 145.22 118.022 145.583Z" fill="black"></path><path d="M73.2731 163.173C73.9062 162.81 74.9553 162.791 75.5883 163.173C76.2214 163.536 76.2395 164.154 75.5883 164.518C74.9553 164.881 73.9062 164.899 73.2731 164.518C72.64 164.154 72.622 163.536 73.2731 163.173Z" fill="black"></path><path d="M81.666 159.648C82.2991 160.011 82.2991 160.629 81.666 160.992C81.0329 161.356 79.9838 161.356 79.3508 160.992C78.7177 160.629 78.7177 160.011 79.3508 159.648C79.9838 159.284 81.0329 159.284 81.666 159.648Z" fill="black"></path><path d="M87.7251 156.141C88.3581 156.504 88.3581 157.122 87.7251 157.485C87.092 157.849 86.0429 157.849 85.4099 157.485C84.7768 157.122 84.7768 156.504 85.4099 156.141C86.0429 155.777 87.092 155.777 87.7251 156.141Z" fill="black"></path><path d="M93.7846 152.615C94.4177 152.979 94.4177 153.597 93.7846 153.96C93.1516 154.323 92.1025 154.323 91.4694 153.96C90.8364 153.597 90.8364 152.979 91.4694 152.615C92.1025 152.252 93.1516 152.252 93.7846 152.615Z" fill="black"></path><path d="M99.8437 149.109C100.477 149.472 100.477 150.09 99.8437 150.453C99.2107 150.817 98.1616 150.817 97.5285 150.453C96.8954 150.09 96.8954 149.472 97.5285 149.109C98.1616 148.745 99.2107 148.745 99.8437 149.109Z" fill="black"></path><path d="M105.903 145.583C106.536 145.947 106.536 146.564 105.903 146.928C105.27 147.291 104.221 147.291 103.588 146.928C102.955 146.564 102.955 145.947 103.588 145.583C104.221 145.22 105.27 145.22 105.903 145.583Z" fill="black"></path><path d="M67.214 159.648C67.8471 159.284 68.8962 159.266 69.5292 159.648C70.1623 160.029 70.1804 160.629 69.5292 160.992C68.8962 161.356 67.8471 161.374 67.214 160.992C66.581 160.629 66.5629 160.011 67.214 159.648Z" fill="black"></path><path d="M73.2731 156.141C73.9062 155.777 74.9553 155.777 75.5884 156.141C76.2214 156.504 76.2214 157.122 75.5884 157.485C74.9553 157.849 73.9062 157.849 73.2731 157.485C72.6401 157.122 72.6401 156.504 73.2731 156.141C72.6401 156.504 73.9062 155.777 73.2731 156.141Z" fill="black"></path><path d="M81.666 152.615C82.299 152.979 82.299 153.597 81.666 153.96C81.0329 154.324 79.9838 154.324 79.3507 153.96C78.7177 153.597 81.0329 152.252 81.666 152.615Z" fill="black"></path><path d="M227.471 208.383C228.104 208.746 228.104 209.364 227.471 209.728C226.838 210.091 225.789 210.091 225.155 209.728C224.522 209.364 224.522 208.746 225.155 208.383C225.789 208.019 226.838 208.019 227.471 208.383Z" fill="black"></path><path d="M233.53 204.858C234.163 205.221 234.163 205.839 233.53 206.202C232.897 206.566 231.848 206.566 231.215 206.202C230.581 205.839 230.581 205.221 231.215 204.858C231.848 204.494 232.897 204.494 233.53 204.858Z" fill="black"></path><path d="M215.333 208.383C215.967 208.746 215.967 209.364 215.333 209.728C214.7 210.091 213.651 210.091 213.018 209.728C212.385 209.364 212.385 208.746 213.018 208.383C213.651 208.019 214.7 208.019 215.333 208.383Z" fill="black"></path><path d="M221.411 204.858C222.044 205.221 222.044 205.839 221.411 206.202C220.778 206.566 219.729 206.566 219.096 206.202C218.463 205.839 218.463 205.221 219.096 204.858C219.729 204.494 220.778 204.494 221.411 204.858Z" fill="black"></path><path d="M227.471 201.351C228.104 201.714 228.104 202.332 227.471 202.695C226.838 203.059 225.789 203.059 225.155 202.695C224.522 202.332 224.522 201.714 225.155 201.351C225.789 200.987 226.838 200.987 227.471 201.351Z" fill="black"></path><path d="M233.53 197.825C234.163 198.189 234.163 198.807 233.53 199.17C232.897 199.533 231.848 199.533 231.215 199.17C230.581 198.807 230.581 198.189 231.215 197.825C231.848 197.462 232.897 197.462 233.53 197.825Z" fill="black"></path><path d="M209.274 204.858C209.907 205.221 209.907 205.839 209.274 206.202C208.641 206.566 207.592 206.566 206.959 206.202C206.326 205.839 206.326 205.221 206.959 204.858C207.592 204.494 208.641 204.494 209.274 204.858Z" fill="black"></path><path d="M215.333 201.351C215.967 201.714 215.967 202.332 215.333 202.695C214.7 203.059 213.651 203.059 213.018 202.695C212.385 202.332 212.385 201.714 213.018 201.351C213.651 200.987 214.7 200.987 215.333 201.351Z" fill="black"></path><path d="M221.411 197.825C222.044 198.189 222.044 198.807 221.411 199.17C220.778 199.533 219.729 199.533 219.096 199.17C218.463 198.807 218.463 198.189 219.096 197.825C219.729 197.462 220.778 197.462 221.411 197.825Z" fill="black"></path><path d="M227.471 194.318C228.104 194.682 228.104 195.3 227.471 195.663C226.838 196.027 225.789 196.027 225.155 195.663C224.522 195.3 224.522 194.682 225.155 194.318C225.789 193.955 226.838 193.955 227.471 194.318Z" fill="black"></path><path d="M203.215 201.351C203.848 201.714 203.848 202.332 203.215 202.695C202.582 203.059 201.533 203.059 200.9 202.695C200.267 202.332 200.267 201.714 200.9 201.351C201.533 200.987 202.582 200.987 203.215 201.351Z" fill="black"></path><path d="M209.274 197.825C209.907 198.189 209.907 198.807 209.274 199.17C208.641 199.533 207.592 199.533 206.959 199.17C206.326 198.807 206.326 198.189 206.959 197.825C207.592 197.462 208.641 197.462 209.274 197.825Z" fill="black"></path><path d="M215.333 194.318C215.967 194.682 215.967 195.3 215.333 195.663C214.7 196.027 213.651 196.027 213.018 195.663C212.385 195.3 212.385 194.682 213.018 194.318C213.651 193.955 214.7 193.955 215.333 194.318Z" fill="black"></path><path d="M221.411 190.793C222.044 191.157 222.044 191.774 221.411 192.138C220.778 192.501 219.729 192.501 219.096 192.138C218.463 191.774 218.463 191.157 219.096 190.793C219.729 190.43 220.778 190.43 221.411 190.793Z" fill="black"></path><path d="M197.156 197.825C197.789 198.189 197.789 198.807 197.156 199.17C196.523 199.533 195.474 199.533 194.841 199.17C194.207 198.807 194.207 198.189 194.841 197.825C195.474 197.462 196.523 197.462 197.156 197.825Z" fill="black"></path><path d="M203.215 194.318C203.848 194.682 203.848 195.3 203.215 195.663C202.582 196.027 201.533 196.027 200.9 195.663C200.267 195.3 200.267 194.682 200.9 194.318C201.533 193.955 202.582 193.955 203.215 194.318Z" fill="black"></path><path d="M209.274 190.793C209.907 191.157 209.907 191.774 209.274 192.138C208.641 192.501 207.592 192.501 206.959 192.138C206.326 191.774 206.326 191.157 206.959 190.793C207.592 190.43 208.641 190.43 209.274 190.793Z" fill="black"></path><path d="M215.333 187.286C215.967 187.65 215.967 188.267 215.333 188.631C214.7 188.994 213.651 188.994 213.018 188.631C212.385 188.267 212.385 187.65 213.018 187.286C213.651 186.923 214.7 186.923 215.333 187.286C214.7 186.923 215.967 187.65 215.333 187.286Z" fill="black"></path><path d="M191.096 194.318C191.729 194.682 191.729 195.3 191.096 195.663C190.463 196.027 189.414 196.027 188.781 195.663C188.148 195.3 188.148 194.682 188.781 194.318C189.414 193.955 190.463 193.955 191.096 194.318Z" fill="black"></path><path d="M197.156 190.793C197.789 191.157 197.789 191.774 197.156 192.138C196.523 192.501 195.474 192.501 194.841 192.138C194.207 191.774 194.207 191.157 194.841 190.793C195.474 190.43 196.523 190.43 197.156 190.793Z" fill="black"></path><path d="M203.215 187.286C203.848 187.65 203.848 188.267 203.215 188.631C202.582 188.994 201.533 188.994 200.9 188.631C200.267 188.267 200.267 187.65 200.9 187.286C201.533 186.923 202.582 186.923 203.215 187.286Z" fill="black"></path><path d="M209.274 183.761C209.907 184.124 209.907 184.742 209.274 185.106C208.641 185.469 207.592 185.469 206.959 185.106C206.326 184.742 206.326 184.124 206.959 183.761C207.592 183.397 208.641 183.397 209.274 183.761C208.641 183.397 209.907 184.124 209.274 183.761Z" fill="black"></path><path d="M184.982 190.757C185.615 191.12 185.615 191.738 184.982 192.102C184.349 192.465 183.3 192.465 182.667 192.102C182.034 191.738 182.034 191.12 182.667 190.757C183.3 190.394 184.349 190.394 184.982 190.757Z" fill="black"></path><path d="M191.042 187.25C191.675 187.614 191.675 188.231 191.042 188.595C190.409 188.958 189.36 188.958 188.727 188.595C188.094 188.231 188.094 187.614 188.727 187.25C189.36 186.887 190.409 186.887 191.042 187.25Z" fill="black"></path><path d="M197.102 183.725C197.735 184.088 197.735 184.706 197.102 185.069C196.468 185.433 195.419 185.433 194.786 185.069C194.153 184.706 194.153 184.088 194.786 183.725C195.419 183.361 196.468 183.361 197.102 183.725Z" fill="black"></path><path d="M203.161 181.563C202.528 181.926 201.478 181.926 200.845 181.563C200.212 181.199 200.212 180.581 200.845 180.218C201.478 179.855 203.812 181.199 203.161 181.563Z" fill="black"></path><path d="M178.923 187.25C179.556 187.614 179.556 188.231 178.923 188.595C178.29 188.958 177.241 188.958 176.608 188.595C175.975 188.231 175.975 187.614 176.608 187.25C177.241 186.887 178.29 186.887 178.923 187.25Z" fill="black"></path><path d="M184.982 183.725C185.615 184.088 185.615 184.706 184.982 185.069C184.349 185.433 183.3 185.433 182.667 185.069C182.034 184.706 182.034 184.088 182.667 183.725C183.3 183.361 184.349 183.361 184.982 183.725Z" fill="black"></path><path d="M191.042 180.218C191.675 180.581 191.675 181.199 191.042 181.563C190.409 181.926 189.36 181.926 188.727 181.563C188.094 181.199 188.094 180.581 188.727 180.218C189.36 179.854 190.409 179.854 191.042 180.218Z" fill="black"></path><path d="M172.864 183.725C173.497 184.088 173.497 184.706 172.864 185.069C172.231 185.433 171.182 185.433 170.549 185.069C169.915 184.706 169.915 184.088 170.549 183.725C171.182 183.361 172.231 183.361 172.864 183.725Z" fill="black"></path><path d="M178.923 180.218C179.556 180.581 179.556 181.199 178.923 181.563C178.29 181.926 177.241 181.926 176.608 181.563C175.975 181.199 175.975 180.581 176.608 180.218C177.241 179.854 178.29 179.854 178.923 180.218Z" fill="black"></path><path d="M184.982 176.692C185.615 177.056 185.615 177.674 184.982 178.037C184.349 178.401 183.3 178.401 182.667 178.037C182.034 177.674 182.034 177.056 182.667 176.692C183.3 176.329 184.349 176.329 184.982 176.692Z" fill="black"></path><path d="M166.805 180.218C167.438 180.581 167.438 181.199 166.805 181.563C166.172 181.926 165.123 181.926 164.489 181.563C163.856 181.199 163.856 180.581 164.489 180.218C165.123 179.854 166.172 179.854 166.805 180.218Z" fill="black"></path><path d="M172.864 176.692C173.497 177.056 173.497 177.674 172.864 178.037C172.231 178.401 171.182 178.401 170.549 178.037C169.915 177.674 169.915 177.056 170.549 176.692C171.182 176.329 172.231 176.329 172.864 176.692Z" fill="black"></path><path d="M178.923 173.186C179.556 173.549 179.556 174.167 178.923 174.53C178.29 174.894 177.241 174.894 176.608 174.53C175.975 174.167 175.975 173.549 176.608 173.186C177.241 172.822 178.29 172.822 178.923 173.186Z" fill="black"></path><path d="M78.8439 196.735L3.762 153.178C2.76718 152.597 2.89379 151.598 4.03331 150.925L108.67 90.2514C109.81 89.5791 111.546 89.5064 112.541 90.0879L187.623 133.644C188.618 134.226 188.491 135.225 187.352 135.898L82.7327 196.571C81.5932 197.244 79.8568 197.316 78.8619 196.735H78.8439Z" fill="#FFEECC"></path><path d="M80.5442 193.464C79.8207 193.464 79.1334 193.319 78.5908 193.01L3.5089 149.453C2.912 149.108 2.58643 148.599 2.58643 148.018C2.58643 147.364 3.02053 146.746 3.7983 146.292L108.399 85.6179C109.702 84.8547 111.637 84.782 112.795 85.4543L187.876 129.011C188.473 129.356 188.799 129.865 188.799 130.446C188.799 131.101 188.365 131.718 187.587 132.173L82.9861 192.846C82.2806 193.264 81.3943 193.464 80.5442 193.464V193.464ZM110.859 86.0358C110.19 86.0358 109.466 86.1994 108.924 86.5083L4.30475 147.2C3.88874 147.455 3.61742 147.764 3.61742 148.018C3.61742 148.272 3.87065 148.454 4.03344 148.545L79.1153 192.101C79.9473 192.592 81.4848 192.519 82.4615 191.938L187.081 131.264C187.497 131.01 187.768 130.701 187.768 130.446C187.768 130.192 187.515 130.01 187.352 129.919L112.288 86.3629C111.908 86.1448 111.402 86.0358 110.877 86.0358H110.859Z" fill="black"></path><path d="M96.5699 137.424L69.348 121.633C68.9863 121.433 69.0405 121.07 69.4565 120.815L107.151 98.9552C107.567 98.7189 108.2 98.6826 108.544 98.9007L135.766 114.691C136.128 114.891 136.073 115.255 135.657 115.509L97.9446 137.387C97.5286 137.624 96.8955 137.66 96.5518 137.442L96.5699 137.424Z" fill="black"></path><path d="M97.185 134.952C96.8594 134.952 96.5519 134.88 96.3168 134.734L69.0948 118.943C68.7693 118.762 68.5884 118.471 68.5884 118.144C68.5884 117.781 68.8054 117.453 69.1853 117.235L106.898 95.3754C107.477 95.0483 108.309 95.0119 108.815 95.3209L136.037 111.112C136.363 111.293 136.544 111.584 136.544 111.911C136.544 112.275 136.327 112.602 135.947 112.82L98.2341 134.698C97.9266 134.88 97.5467 134.971 97.185 134.971V134.952ZM69.746 118.126L96.8413 133.844C97.0222 133.953 97.4563 133.935 97.7276 133.789L135.404 111.929L108.309 96.2112C108.128 96.1022 107.694 96.1204 107.423 96.2658L69.746 118.126V118.126Z" fill="black"></path><path d="M97.8359 134.844L133.848 113.947L132.799 113.348L97.3113 133.936C97.04 134.099 96.6059 134.099 96.425 133.99L71.5183 119.544L70.4692 120.144L95.9005 134.899C96.1356 135.044 96.4431 135.117 96.7687 135.117C97.1304 135.117 97.5103 135.026 97.8178 134.844H97.8359Z" fill="#FEBD33"></path><path d="M165.864 138.096L137.828 121.833C137.701 121.76 137.719 121.615 137.864 121.524L142.693 118.726C142.838 118.635 143.073 118.635 143.218 118.708L171.254 134.971C171.38 135.044 171.362 135.189 171.218 135.28L166.388 138.078C166.225 138.169 166.008 138.169 165.864 138.096Z" fill="#FEBD33"></path><path d="M166.081 135.825C165.9 135.825 165.737 135.789 165.592 135.698L137.557 119.434C137.34 119.307 137.213 119.089 137.213 118.853C137.213 118.599 137.358 118.362 137.593 118.235L142.422 115.437C142.748 115.255 143.164 115.237 143.471 115.419L171.507 131.682C171.724 131.809 171.851 132.027 171.851 132.263C171.851 132.518 171.706 132.754 171.453 132.881L166.623 135.679C166.461 135.77 166.262 135.825 166.063 135.825H166.081ZM138.606 118.853L166.063 134.789L170.422 132.281L142.929 116.327L138.588 118.853H138.606Z" fill="black"></path><path d="M157.29 143.075L129.254 126.812C129.127 126.739 129.146 126.594 129.29 126.503L134.12 123.704C134.264 123.614 134.5 123.614 134.644 123.686L162.68 139.949C162.807 140.022 162.789 140.168 162.644 140.258L157.815 143.057C157.67 143.148 157.435 143.148 157.29 143.075Z" fill="#FEBD33"></path><path d="M157.525 140.786C157.344 140.786 157.181 140.749 157.037 140.659L129.001 124.395C128.784 124.268 128.657 124.05 128.657 123.814C128.657 123.559 128.802 123.323 129.037 123.196L133.866 120.398C134.192 120.216 134.608 120.198 134.916 120.379L162.951 136.643C163.168 136.77 163.295 136.988 163.295 137.224C163.295 137.479 163.15 137.697 162.915 137.842L158.086 140.64C157.923 140.731 157.724 140.786 157.543 140.786H157.525ZM130.05 123.814L157.507 139.75L161.884 137.242L134.391 121.288L130.05 123.814Z" fill="black"></path><path d="M148.717 148.036L120.681 131.773C120.554 131.7 120.572 131.555 120.717 131.464L125.546 128.665C125.691 128.574 125.926 128.574 126.071 128.647L154.107 144.91C154.233 144.983 154.215 145.128 154.071 145.219L149.241 148.018C149.097 148.109 148.861 148.109 148.717 148.036Z" fill="#FEBD33"></path><path d="M148.952 145.764C148.771 145.764 148.608 145.728 148.464 145.637L120.428 129.374C120.211 129.247 120.084 129.029 120.084 128.792C120.084 128.538 120.229 128.302 120.464 128.175L125.293 125.376C125.601 125.194 126.035 125.176 126.324 125.358L154.36 141.621C154.577 141.748 154.704 141.967 154.704 142.203C154.704 142.457 154.559 142.693 154.324 142.821L149.495 145.619C149.332 145.71 149.133 145.764 148.934 145.764H148.952ZM121.477 128.792L148.952 144.729L153.311 142.221L125.818 126.267L121.477 128.792V128.792Z" fill="black"></path><path d="M140.161 153.014L112.125 136.751C111.999 136.678 112.017 136.533 112.161 136.442L116.991 133.644C117.135 133.553 117.371 133.553 117.515 133.626L145.551 149.889C145.678 149.962 145.66 150.107 145.515 150.198L140.686 152.996C140.541 153.087 140.306 153.087 140.161 153.014V153.014Z" fill="#FEBD33"></path><path d="M140.378 150.725C140.197 150.725 140.034 150.689 139.89 150.598L111.854 134.335C111.637 134.208 111.51 133.99 111.51 133.753C111.51 133.499 111.655 133.263 111.908 133.135L116.738 130.337C117.063 130.155 117.479 130.137 117.787 130.319L145.823 146.582C146.04 146.709 146.166 146.927 146.166 147.164C146.166 147.418 146.021 147.654 145.786 147.782L140.957 150.58C140.794 150.671 140.595 150.725 140.396 150.725H140.378ZM112.903 133.753L140.36 149.689L144.737 147.182L117.244 131.228L112.903 133.753V133.753Z" fill="black"></path><path d="M131.587 157.976L103.551 141.713C103.425 141.64 103.443 141.495 103.588 141.404L108.417 138.606C108.562 138.515 108.797 138.515 108.942 138.588L136.977 154.851C137.104 154.924 137.086 155.069 136.941 155.16L132.112 157.958C131.967 158.049 131.732 158.049 131.587 157.976Z" fill="#FEBD33"></path><path d="M131.822 155.705C131.642 155.705 131.479 155.668 131.334 155.577L103.298 139.314C103.081 139.187 102.955 138.969 102.955 138.733C102.955 138.478 103.099 138.26 103.334 138.115L108.164 135.316C108.489 135.135 108.905 135.135 109.195 135.298L137.231 151.561C137.448 151.689 137.574 151.907 137.574 152.143C137.574 152.397 137.43 152.634 137.176 152.761L132.347 155.559C132.184 155.65 131.985 155.705 131.804 155.705H131.822ZM104.347 138.733L131.804 154.669L136.164 152.161L108.67 136.207L104.329 138.733H104.347Z" fill="black"></path><path d="M118.311 165.535L55.4566 129.083C55.2576 128.974 55.2757 128.774 55.5109 128.629L60.069 125.976C60.3041 125.849 60.6478 125.831 60.8467 125.94L123.701 162.391C123.9 162.5 123.882 162.7 123.647 162.846L119.089 165.499C118.854 165.626 118.51 165.644 118.311 165.535V165.535Z" fill="#FEBD33"></path><path d="M118.655 163.282C118.438 163.282 118.221 163.228 118.058 163.137L55.2036 126.685C54.9504 126.54 54.8057 126.304 54.8057 126.031C54.8057 125.74 54.9685 125.486 55.2579 125.322L59.8159 122.669C60.2139 122.433 60.7565 122.433 61.1183 122.633L123.973 159.084C124.226 159.23 124.371 159.466 124.371 159.739C124.371 160.029 124.208 160.284 123.919 160.447L119.361 163.1C119.162 163.228 118.908 163.282 118.673 163.282H118.655ZM118.565 162.228C118.565 162.228 118.746 162.228 118.818 162.192L123.014 159.757L60.5937 123.56C60.5937 123.56 60.4128 123.56 60.3405 123.596L56.1442 126.031L118.583 162.246L118.565 162.228Z" fill="black"></path><path d="M109.756 170.514L46.8829 134.044C46.6839 133.935 46.702 133.735 46.9371 133.59L51.4952 130.937C51.7304 130.81 52.074 130.792 52.273 130.901L115.128 167.352C115.327 167.461 115.308 167.661 115.073 167.806L110.515 170.459C110.28 170.587 109.936 170.605 109.737 170.496L109.756 170.514Z" fill="#FEBD33"></path><path d="M110.081 168.261C109.864 168.261 109.647 168.206 109.484 168.115L46.6299 131.646C46.3766 131.5 46.2319 131.264 46.2319 130.991C46.2319 130.701 46.3947 130.446 46.6841 130.283L51.2422 127.63C51.6401 127.412 52.1828 127.393 52.5445 127.593L115.399 164.045C115.652 164.19 115.797 164.426 115.797 164.699C115.797 164.99 115.634 165.244 115.345 165.408L110.787 168.061C110.588 168.188 110.335 168.242 110.099 168.242L110.081 168.261ZM109.991 167.207C109.991 167.207 110.172 167.207 110.244 167.17L114.44 164.735L52.02 128.52C52.02 128.52 51.8391 128.52 51.7668 128.556L47.5704 130.991L110.009 167.207H109.991Z" fill="black"></path><path d="M101.182 175.475L38.3272 139.024C38.1283 138.915 38.1463 138.715 38.3815 138.57L42.9396 135.917C43.1747 135.789 43.5184 135.771 43.7173 135.88L106.572 172.332C106.771 172.441 106.753 172.641 106.518 172.786L101.96 175.439C101.724 175.566 101.381 175.584 101.182 175.475V175.475Z" fill="#FEBD33"></path><path d="M101.526 173.222C101.309 173.222 101.092 173.167 100.929 173.077L38.0742 136.607C37.821 136.461 37.6763 136.225 37.6763 135.953C37.6763 135.662 37.8391 135.408 38.1285 135.244L42.6866 132.609C43.0664 132.391 43.6271 132.373 43.9889 132.573L106.843 169.024C107.097 169.17 107.241 169.406 107.241 169.678C107.241 169.969 107.079 170.224 106.789 170.387L102.231 173.04C102.032 173.167 101.779 173.222 101.544 173.222H101.526ZM101.435 172.168C101.435 172.168 101.616 172.168 101.688 172.132L105.885 169.697L43.4643 133.481C43.4643 133.481 43.2834 133.481 43.2111 133.518L39.0148 135.953L101.453 172.168H101.435Z" fill="black"></path><path d="M60.4312 161.773L29.646 143.929C29.5013 143.856 29.5194 143.711 29.6821 143.62L34.4935 140.84C34.6562 140.749 34.8914 140.731 35.0361 140.821L65.8213 158.666C65.966 158.738 65.9479 158.884 65.7851 158.975L60.9738 161.755C60.811 161.846 60.5759 161.864 60.4312 161.773V161.773Z" fill="#FEBD33"></path><path d="M60.6661 159.502C60.4852 159.502 60.3043 159.465 60.1596 159.374L29.3744 141.512C29.1574 141.385 29.0127 141.167 29.0127 140.931C29.0127 140.676 29.1574 140.44 29.4106 140.295L34.2219 137.496C34.5475 137.315 34.9816 137.296 35.2891 137.478L66.0743 155.322C66.2914 155.449 66.4361 155.668 66.4361 155.904C66.4361 156.158 66.2914 156.394 66.0381 156.54L61.2268 159.338C61.064 159.429 60.847 159.484 60.6661 159.484V159.502ZM30.4416 140.931L60.6661 158.466L65.0433 155.958L34.8007 138.405L30.4597 140.931H30.4416Z" fill="black"></path><path d="M51.8574 166.735L21.0722 148.891C20.9275 148.818 20.9456 148.673 21.1084 148.582L25.9197 145.802C26.0825 145.711 26.3177 145.693 26.4624 145.783L57.2475 163.628C57.3922 163.7 57.3742 163.846 57.2114 163.936L52.4001 166.717C52.2373 166.808 52.0021 166.826 51.8574 166.735Z" fill="#FEBD33"></path><path d="M52.1104 164.463C51.9296 164.463 51.7487 164.427 51.604 164.336L20.8188 146.492C20.6017 146.364 20.457 146.146 20.457 145.892C20.457 145.638 20.6017 145.401 20.855 145.256L25.6663 142.476C25.9919 142.294 26.426 142.276 26.7334 142.458L57.5186 160.32C57.7357 160.447 57.8804 160.665 57.8804 160.901C57.8804 161.156 57.7357 161.392 57.4825 161.537L52.6711 164.318C52.5084 164.408 52.3094 164.463 52.1104 164.463ZM21.886 145.892L52.1104 163.427L56.4876 160.92L26.2451 143.366L21.904 145.892H21.886Z" fill="black"></path><path d="M84.2339 185.523L68.4433 176.365C68.3348 176.31 68.3529 176.201 68.4795 176.147L73.4536 173.258C73.5621 173.185 73.743 173.185 73.8515 173.258L89.6421 182.416C89.7506 182.47 89.7325 182.579 89.6059 182.634L84.6318 185.523C84.5233 185.596 84.3424 185.596 84.2339 185.523Z" fill="#FEBD33"></path><path d="M84.3969 183.215C84.2341 183.215 84.0894 183.179 83.9628 183.106L68.1723 173.948C67.9733 173.821 67.8467 173.621 67.8467 173.403C67.8467 173.185 67.9733 172.949 68.2084 172.821L73.1825 169.932C73.4539 169.769 73.8337 169.769 74.0869 169.932L89.8774 179.091C90.0764 179.2 90.203 179.418 90.203 179.636C90.203 179.872 90.0764 180.09 89.8413 180.217L84.8672 183.106C84.7225 183.197 84.5597 183.234 84.3788 183.234L84.3969 183.215ZM69.2937 173.385L84.3969 182.143L88.756 179.617L73.6528 170.859L69.2937 173.385V173.385Z" fill="black"></path><path d="M97.691 134.389L105.342 129.955C105.83 127.975 105.035 125.958 103.081 124.286L96.4067 118.562L87.6161 114.891C84.487 113.583 80.5439 113.074 76.7455 113.51H76.6189L69.1487 117.853C68.7688 118.071 68.7688 118.435 69.1487 118.671L96.2801 134.407C96.66 134.625 97.293 134.625 97.6729 134.407L97.691 134.389Z" fill="#FEBD33"></path><path d="M97.456 138.169L105.342 133.59C105.831 131.555 105.035 129.465 103.027 127.757L96.1536 121.851L87.1098 118.072C83.8721 116.727 79.8386 116.218 75.9316 116.654H75.805L68.1178 121.124C67.7199 121.361 67.7199 121.724 68.1178 121.96L96.027 138.151C96.425 138.387 97.0761 138.387 97.456 138.151V138.169Z" fill="#FFEECC"></path><path d="M97.0039 135.08C96.6602 135.08 96.3165 135.007 96.0452 134.843L68.9137 119.107C68.5701 118.907 68.3711 118.598 68.3711 118.253C68.3711 117.908 68.5701 117.599 68.9137 117.399L76.7095 112.983C80.5803 112.547 84.6319 113.056 87.8334 114.401L96.7506 118.162L103.425 123.886C105.523 125.685 106.373 127.884 105.849 130.083L105.794 130.301L97.9444 134.862C97.6731 135.025 97.3294 135.098 96.9858 135.098L97.0039 135.08ZM69.5287 118.253L96.5697 133.953C96.7868 134.08 97.2209 134.08 97.438 133.953L104.89 129.628C105.216 127.902 104.474 126.158 102.756 124.686L96.1356 119.016L87.4355 115.382C84.3968 114.11 80.526 113.619 76.818 114.037L69.5287 118.271V118.253Z" fill="black"></path><path d="M102.05 122.197C102.05 122.197 102.177 122.143 102.231 122.125L111.438 118.436C112.614 118.127 113.735 117.691 114.694 117.127C119.053 114.602 119.053 110.495 114.694 107.951C110.334 105.425 103.244 105.425 98.885 107.951C97.9083 108.514 97.1667 109.15 96.624 109.841L90.221 115.219C90.221 115.219 90.1668 115.256 90.1487 115.292H90.1125V115.31C87.9601 117.237 88.3399 119.853 91.2701 121.543C94.1822 123.233 98.686 123.451 102.014 122.215H102.032L102.05 122.197Z" fill="#FEBD33"></path><path d="M102.141 125.831C102.141 125.831 102.268 125.777 102.322 125.758L111.529 122.07C112.704 121.761 113.826 121.325 114.784 120.761C119.144 118.235 119.144 114.129 114.784 111.585C110.425 109.059 103.335 109.059 98.9758 111.585C97.9991 112.148 97.2575 112.784 96.7149 113.475L90.3118 118.853C90.3118 118.853 90.2576 118.89 90.2395 118.926H90.2033V118.944C88.0509 120.87 88.4307 123.487 91.3609 125.177C94.273 126.867 98.7769 127.085 102.105 125.849H102.123L102.141 125.831Z" fill="#FFEECC"></path><path d="M97.3477 123.524C95.0506 123.524 92.7716 122.997 91.0171 121.979C89.3892 121.034 88.3944 119.744 88.2497 118.345C88.1411 117.309 88.521 116.273 89.2987 115.365L89.2264 115.31L89.7871 114.856L90.185 115.147L89.8775 114.765L96.2263 109.423C96.8232 108.678 97.6191 108.005 98.5958 107.442C103.1 104.825 110.425 104.825 114.929 107.442C117.208 108.768 118.456 110.549 118.456 112.475C118.456 114.402 117.208 116.182 114.929 117.509C113.952 118.072 112.813 118.526 111.547 118.872L102.195 122.615C100.694 123.178 98.9937 123.451 97.3297 123.451L97.3477 123.524ZM90.5287 115.655L90.4744 115.71C89.6062 116.491 89.2083 117.382 89.2987 118.272C89.4073 119.326 90.2031 120.325 91.5416 121.107C94.2548 122.688 98.5958 122.942 101.833 121.743L101.942 121.706L111.239 117.981C112.487 117.654 113.536 117.218 114.441 116.709C116.376 115.583 117.461 114.111 117.461 112.584C117.461 111.058 116.394 109.586 114.441 108.46C110.226 106.025 103.371 106.006 99.1565 108.46C98.2883 108.968 97.5829 109.568 97.0583 110.222L96.986 110.295L90.5468 115.692L90.5287 115.655Z" fill="black"></path><path d="M174.438 145.419L174.564 136.806L170.802 136.752C170.802 136.752 170.73 136.661 170.693 136.624L167.546 145.656H166.262L163.042 149.998L148.97 155.595L129.345 157.485L115.074 155.105L101.888 143.911C101.96 143.548 102.051 143.184 102.141 142.821L98.2524 135.534C98.2524 135.534 98.1619 135.643 98.1077 135.698L94.2912 135.643L94.1465 145.401C94.1465 145.528 94.1465 145.637 94.1465 145.765V146.219L94.2008 146.946C94.671 152.452 98.4875 157.921 105.668 162.246C121.224 171.568 146.655 171.949 162.464 163.082C169.771 158.975 173.75 153.633 174.365 148.127L174.42 147.945C174.474 146.764 174.474 146.328 174.42 145.456L174.438 145.419Z" fill="#FEBD33"></path><path d="M135.024 170.514C124.208 170.514 113.319 168.043 105.144 163.137C97.9266 158.812 93.676 153.088 93.1514 147.001L93.0972 146.274L93.26 134.535L97.6553 134.608L98.3426 133.79L99.2289 135.026L103.317 142.694L103.208 143.112C103.172 143.239 103.136 143.384 103.1 143.512L115.562 154.087L129.399 156.395L148.735 154.542L162.391 149.108L165.755 144.547H166.804L170.313 134.462L171.308 135.68L175.649 135.734L175.505 145.383C175.577 146.292 175.577 146.764 175.505 147.964L175.468 148.2C174.763 154.269 170.331 159.866 163.006 163.991C155.228 168.352 145.135 170.514 135.006 170.514H135.024ZM95.3943 136.734L95.2496 146.219L95.3039 146.837C95.756 152.198 99.6449 157.322 106.247 161.283C121.477 170.423 146.474 170.787 161.975 162.101C168.704 158.339 172.737 153.306 173.334 147.964L173.388 147.727C173.443 146.692 173.443 146.31 173.388 145.51V145.401L173.497 137.86L171.435 137.824L168.342 146.728H166.841L163.766 150.871L149.115 156.649L129.345 158.539L114.64 156.086L100.766 144.311L100.875 143.693C100.929 143.439 100.983 143.166 101.038 142.912L97.7457 136.734L95.3943 136.697V136.734Z" fill="black"></path><path d="M97.3477 136.715C98.867 138.823 100.585 141.222 102.05 143.239C103.009 139.259 106.138 135.443 111.474 132.463C124.316 125.268 144.936 125.576 157.561 133.136C162.753 136.243 165.773 140.095 166.641 144.057L171.037 137.061C170.621 136.497 170.15 135.952 169.644 135.407C170.603 135.843 171.272 136.134 171.525 136.279C170.241 135.007 160.058 120.252 160.058 120.252L136.815 114.438L115.164 117.272L101.001 128.775L100.007 133.299L98.4329 133.826C97.1487 134.971 98.252 135.48 97.3477 136.715V136.715Z" fill="black"></path><path d="M166.171 146.855L165.611 144.293C164.76 140.459 161.794 136.915 157.019 134.062C144.701 126.685 124.515 126.394 111.999 133.408C107.097 136.152 104.022 139.641 103.1 143.493L102.557 145.765L101.182 143.875C99.7172 141.84 97.9808 139.459 96.4795 137.351L96.0273 136.715L96.4976 136.079C96.6966 135.807 96.6966 135.698 96.6966 135.371C96.6966 134.662 96.7509 133.899 97.7457 133.027L98.1074 132.808L99.1022 132.463L100.061 128.175L114.748 116.254L136.905 113.365L160.745 119.325L160.98 119.652C164.887 125.322 171.435 134.644 172.321 135.516L172.972 136.17L172.357 137.006L166.171 146.855V146.855ZM133.776 126.194C142.603 126.194 151.466 128.211 158.122 132.209C162.481 134.825 165.502 138.005 166.967 141.531L169.716 137.133C169.445 136.806 169.156 136.479 168.848 136.152L165.249 132.282L168.07 133.553C165.086 129.429 160.636 123.014 159.388 121.233L136.725 115.564L115.562 118.326L101.924 129.392L100.875 134.135L98.9395 134.789C98.7586 134.971 98.7586 135.044 98.7767 135.334C98.7767 135.661 98.7767 136.116 98.5777 136.643C99.5725 138.024 100.64 139.514 101.653 140.913C103.172 137.297 106.337 134.08 110.913 131.518C117.244 127.957 125.474 126.194 133.722 126.194H133.776Z" fill="black"></path><path d="M168.45 168.333L174.564 157.776L167.51 153.16C167.51 153.16 167.437 153.106 167.383 153.087C166.605 152.651 165.556 152.706 164.381 153.36C161.993 154.705 160.003 158.03 159.967 160.774C159.967 161.991 160.311 162.9 160.926 163.409C161.034 163.5 161.161 163.572 161.288 163.645L168.468 168.333H168.45Z" fill="#FEBD33"></path><path d="M156.639 129.229C168.848 136.552 168.667 148.109 156.259 155.068C143.851 162.028 123.9 161.737 111.691 154.414C99.482 147.091 99.6629 135.534 112.071 128.575C124.479 121.615 144.43 121.906 156.639 129.229V129.229Z" fill="#FEBD33"></path><path d="M106.319 119.126C90.5107 127.993 90.2937 142.748 105.849 152.07C121.404 161.392 146.836 161.773 162.644 152.906C178.453 144.038 178.67 129.283 163.115 119.961C147.559 110.64 122.128 110.258 106.319 119.126V119.126ZM157.327 149.708C144.484 156.904 123.864 156.595 111.239 149.035C98.614 141.476 98.7949 129.501 111.619 122.306C124.461 115.11 145.081 115.419 157.706 122.978C170.332 130.537 170.151 142.512 157.327 149.708Z" fill="#FFEECC"></path><path d="M135.169 160.356C124.353 160.356 113.464 157.885 105.306 152.978C97.4381 148.254 93.1513 142.021 93.2598 135.388C93.3503 128.756 97.8179 122.65 105.813 118.162C121.893 109.131 147.866 109.513 163.675 118.998C171.543 123.723 175.812 129.955 175.721 136.588C175.631 143.22 171.163 149.326 163.169 153.814C155.391 158.175 145.298 160.338 135.169 160.338V160.356ZM133.812 113.765C124.063 113.765 114.35 115.854 106.862 120.052C99.5543 124.141 95.4846 129.61 95.4123 135.425C95.3218 141.24 99.2288 146.818 106.41 151.125C121.639 160.265 146.636 160.628 162.138 151.943C169.445 147.854 173.515 142.384 173.587 136.57C173.678 130.755 169.771 125.176 162.59 120.87C154.722 116.145 144.249 113.765 133.83 113.765H133.812ZM135.042 155.958C126.216 155.958 117.353 153.941 110.696 149.944C104.257 146.073 100.748 140.949 100.82 135.498C100.893 130.046 104.547 125.013 111.112 121.342C124.226 113.983 145.388 114.292 158.267 122.033C164.706 125.903 168.215 131.027 168.143 136.479C168.07 141.93 164.417 146.964 157.851 150.634C151.502 154.196 143.29 155.958 135.024 155.958H135.042ZM133.939 118.162C126.053 118.162 118.203 119.852 112.161 123.232C106.301 126.521 103.045 130.882 102.973 135.534C102.901 140.186 106.048 144.638 111.8 148.09C124.099 155.468 144.303 155.758 156.82 148.744C162.68 145.455 165.936 141.094 166.008 136.442C166.081 131.791 162.933 127.339 157.182 123.886C150.833 120.07 142.368 118.162 133.939 118.162V118.162Z" fill="black"></path><path d="M134.934 135.171C139.293 137.787 139.22 141.912 134.807 144.402C130.376 146.891 123.267 146.782 118.908 144.166C114.549 141.549 114.621 137.424 119.035 134.935C123.466 132.445 130.575 132.554 134.934 135.171V135.171Z" fill="#FFEECC"></path><path d="M127.102 141.822C123.955 141.822 120.789 141.077 118.347 139.623C115.906 138.151 114.567 136.17 114.603 134.026C114.639 131.882 116.014 129.938 118.51 128.538C123.303 125.849 130.774 125.958 135.476 128.793C137.936 130.265 139.257 132.245 139.221 134.39C139.184 136.534 137.81 138.478 135.314 139.877C132.998 141.186 130.05 141.822 127.084 141.822H127.102ZM126.722 128.738C124.135 128.738 121.549 129.302 119.541 130.41C117.75 131.409 116.756 132.7 116.738 134.044C116.72 135.389 117.678 136.697 119.433 137.769C123.484 140.204 130.141 140.295 134.265 137.987C136.055 136.988 137.05 135.698 137.068 134.353C137.086 133.008 136.128 131.7 134.373 130.628C132.275 129.374 129.489 128.738 126.722 128.738V128.738Z" fill="black"></path><path d="M161.342 156.431L168.269 160.792L173.569 157.122L166.135 152.561L161.342 156.431Z" fill="#FFEECC"></path><path d="M168.812 169.859L160.691 164.553C160.564 164.48 160.383 164.371 160.238 164.244C159.352 163.499 158.864 162.263 158.882 160.773C158.936 157.63 161.107 153.959 163.838 152.433C165.321 151.597 166.768 151.506 167.908 152.16L168.107 152.287L176.011 157.43L168.83 169.859H168.812ZM166.225 153.905C165.828 153.905 165.375 154.05 164.887 154.323C162.825 155.486 161.07 158.448 161.034 160.828C161.034 161.664 161.233 162.3 161.613 162.609L161.866 162.772L168.088 166.843L173.117 158.157L166.913 154.105C166.714 153.977 166.479 153.923 166.225 153.923V153.905Z" fill="black"></path><path d="M174.564 157.776C173.804 157.376 172.755 157.431 171.616 158.085C169.228 159.43 167.238 162.755 167.202 165.499C167.184 166.898 167.672 167.879 168.45 168.334L181.311 179.509L190.626 164.717L174.564 157.776V157.776Z" fill="#FEBD33"></path><path d="M168.83 160.792L183.373 168.788L189.559 164.081L173.117 157.431L168.83 160.792Z" fill="#FFEECC"></path><path d="M181.564 181.144L167.763 169.151C166.768 168.605 166.117 167.224 166.135 165.48C166.189 162.336 168.36 158.666 171.091 157.139C172.502 156.34 173.895 156.231 175.034 156.794L192.218 164.226L181.564 181.144ZM173.497 158.593C173.099 158.593 172.629 158.738 172.14 159.011C170.078 160.174 168.306 163.136 168.288 165.516C168.288 166.443 168.541 167.133 168.993 167.406L181.076 177.873L189.052 165.207L174.058 158.72C173.895 158.629 173.696 158.593 173.497 158.593V158.593Z" fill="black"></path><path d="M213.543 181.053C213.416 180.962 213.253 180.889 213.109 180.817L191.548 165.117C190.409 164.39 188.817 164.426 187.008 165.425C183.517 167.388 180.623 172.24 180.569 176.274C180.533 178.2 181.166 179.581 182.215 180.29C182.432 180.435 182.649 180.544 182.884 180.635L206.434 192.482C206.434 192.482 206.724 192.646 206.886 192.719L215.116 196.825L221.085 186.195L213.543 181.053V181.053Z" fill="#FEBD33"></path><path d="M183.373 168.787L215.116 188.83L219.837 185.341L190.644 164.717L184.385 167.388L183.373 168.787Z" fill="#FFEECC"></path><path d="M215.55 198.243L182.414 181.599C182.215 181.544 181.907 181.381 181.618 181.181C180.225 180.236 179.466 178.473 179.502 176.256C179.574 171.822 182.631 166.644 186.502 164.481C188.564 163.318 190.626 163.227 192.145 164.209L222.514 185.851L215.55 198.243V198.243ZM189.794 165.681C189.142 165.681 188.365 165.917 187.551 166.371C184.403 168.134 181.708 172.677 181.654 176.293C181.636 177.764 182.052 178.873 182.83 179.4C182.975 179.491 183.119 179.563 183.264 179.618L214.7 195.391L219.674 186.523L190.933 165.99C190.608 165.79 190.228 165.681 189.794 165.681V165.681Z" fill="black"></path><path d="M228.067 190.775L221.212 186.268C221.212 186.268 221.121 186.214 221.085 186.177C220.308 185.741 219.258 185.796 218.083 186.45C215.695 187.795 213.706 191.12 213.669 193.864C213.651 195.372 214.212 196.39 215.116 196.789L222.152 201.405L228.049 190.738L228.067 190.775Z" fill="#FEBD33"></path><path d="M215.496 189.103L222.876 194.045L226.982 190.048L219.674 185.923L215.496 189.103Z" fill="#FFEECC"></path><path d="M221.827 202.513L214.52 197.734C213.308 197.225 212.548 195.79 212.584 193.882C212.639 190.738 214.809 187.068 217.54 185.541C219.023 184.705 220.452 184.615 221.61 185.269L221.809 185.396L229.478 190.447L221.827 202.531V202.513ZM219.928 186.995C219.53 186.995 219.078 187.14 218.607 187.413C216.545 188.558 214.773 191.538 214.755 193.9C214.755 194.899 215.026 195.59 215.569 195.826L221.809 199.897L226.675 191.12L220.669 187.177C220.47 187.049 220.235 186.995 219.964 186.995H219.928Z" fill="black"></path><path d="M228.917 189.993C227.778 189.303 226.313 189.393 224.793 190.229C222.062 191.756 219.873 195.426 219.837 198.57C219.819 200.296 220.434 201.641 221.574 202.331C222.08 202.64 222.659 202.786 223.274 202.786C224.034 202.786 224.848 202.549 225.698 202.077C228.429 200.551 230.618 196.88 230.654 193.736C230.672 192.01 230.057 190.665 228.917 189.975V189.993Z" fill="black"></path><path d="M157.109 129.846C151.936 129.846 146.727 128.647 142.729 126.23C138.642 123.777 136.417 120.434 136.453 116.8C136.507 113.183 138.823 109.894 143.001 107.55C150.887 103.135 163.132 103.298 170.892 107.95C174.98 110.403 177.223 113.747 177.168 117.381C177.114 120.997 174.799 124.286 170.621 126.63C166.804 128.774 161.975 129.828 157.109 129.828V129.846ZM156.494 108.732C152.334 108.732 148.21 109.604 145.081 111.348C142.313 112.893 140.776 114.873 140.74 116.89C140.704 118.907 142.187 120.924 144.918 122.542C151.267 126.339 162.065 126.503 168.522 122.887C171.29 121.342 172.827 119.362 172.864 117.345C172.9 115.328 171.417 113.311 168.685 111.675C165.411 109.713 160.944 108.713 156.494 108.713V108.732Z" fill="black"></path><path d="M157.109 125.449C151.936 125.449 146.727 124.25 142.729 121.833C138.642 119.38 136.417 116.036 136.453 112.402C136.507 108.786 138.823 105.497 143.001 103.153C150.887 98.7373 163.132 98.9008 170.892 103.553C174.98 106.006 177.223 109.349 177.168 112.984C177.114 116.6 174.799 119.889 170.621 122.233C166.804 124.377 161.975 125.431 157.109 125.431V125.449ZM156.494 104.334C152.334 104.334 148.21 105.206 145.081 106.951C142.313 108.495 140.776 110.476 140.74 112.493C140.704 114.51 142.187 116.527 144.918 118.144C151.267 121.942 162.065 122.106 168.522 118.489C171.29 116.945 172.827 114.964 172.864 112.947C172.9 110.93 171.417 108.913 168.685 107.278C165.411 105.315 160.944 104.316 156.494 104.316V104.334Z" fill="#FFEECC"></path></svg> 