<?xml version="1.0" encoding="UTF-8"?> <svg xmlns="http://www.w3.org/2000/svg" width="126" height="215" viewBox="0 0 126 215" fill="none"><g clip-path="url(#clip0_1526_833)"><path d="M18.3163 165.637L16.32 166.792C16.1204 166.909 15.7544 166.893 15.5215 166.759L13.6416 165.67C13.4087 165.536 13.3754 165.319 13.5917 165.202L15.588 164.046C15.7876 163.929 16.1536 163.946 16.3865 164.08L18.2664 165.168C18.4993 165.302 18.5326 165.52 18.3163 165.637Z" fill="#150035"></path><path d="M23.2074 162.807L21.2111 163.962C21.0115 164.079 20.6455 164.063 20.4126 163.929L18.5327 162.84C18.2998 162.706 18.2665 162.489 18.4828 162.371L20.4791 161.216C20.6787 161.099 21.0447 161.116 21.2776 161.25L23.1575 162.338C23.3904 162.472 23.4237 162.69 23.2074 162.807V162.807Z" fill="#150035"></path><path d="M22.9579 168.333L20.9616 169.489C20.762 169.606 20.396 169.589 20.1631 169.455L18.2832 168.367C18.0503 168.233 18.017 168.015 18.2333 167.898L20.2296 166.742C20.4292 166.625 20.7952 166.642 21.0281 166.776L22.908 167.864C23.1409 167.998 23.1742 168.216 22.9579 168.333V168.333Z" fill="#150035"></path><path d="M18.0668 171.18L16.0705 172.335C15.8708 172.452 15.5049 172.436 15.2719 172.302L13.3921 171.213C13.1592 171.079 13.1259 170.862 13.3422 170.745L15.3385 169.589C15.5381 169.472 15.9041 169.489 16.137 169.623L18.0169 170.711C18.2498 170.845 18.283 171.063 18.0668 171.18V171.18Z" fill="#150035"></path><path d="M27.8485 165.503L25.8522 166.658C25.6526 166.776 25.2866 166.759 25.0537 166.625L23.1738 165.537C22.9409 165.403 22.9077 165.185 23.1239 165.068L25.1202 163.912C25.3199 163.795 25.6858 163.812 25.9188 163.946L27.7986 165.034C28.0315 165.168 28.0648 165.386 27.8485 165.503V165.503Z" fill="#150035"></path><path d="M32.723 162.656L30.7267 163.812C30.5271 163.929 30.1611 163.912 29.9282 163.778L28.0483 162.69C27.8154 162.556 27.7822 162.338 27.9984 162.221L29.9947 161.066C30.1944 160.948 30.5604 160.965 30.7933 161.099L32.6731 162.188C32.906 162.322 32.9393 162.539 32.723 162.656Z" fill="#150035"></path><path d="M27.8651 171.18L25.8688 172.335C25.6692 172.452 25.3032 172.436 25.0703 172.302L23.1904 171.213C22.9575 171.079 22.9243 170.862 23.1405 170.745L25.1368 169.589C25.3365 169.472 25.7025 169.489 25.9354 169.623L27.8152 170.711C28.0481 170.845 28.0814 171.063 27.8651 171.18V171.18Z" fill="#150035"></path><path d="M22.9745 174.026L20.9782 175.181C20.7786 175.298 20.4126 175.281 20.1797 175.147L18.2998 174.059C18.0669 173.925 18.0336 173.707 18.2499 173.59L20.2462 172.435C20.4458 172.318 20.8118 172.334 21.0447 172.468L22.9246 173.557C23.1575 173.691 23.1908 173.908 22.9745 174.026Z" fill="#150035"></path><path d="M32.7562 168.35L30.7599 169.505C30.5603 169.622 30.1943 169.606 29.9614 169.472L28.0815 168.383C27.8486 168.249 27.8154 168.032 28.0316 167.914L30.0279 166.759C30.2276 166.642 30.5936 166.659 30.8265 166.793L32.7063 167.881C32.9392 168.015 32.9725 168.233 32.7562 168.35Z" fill="#150035"></path><path d="M37.6307 165.503L35.6344 166.658C35.4348 166.776 35.0688 166.759 34.8359 166.625L32.9561 165.537C32.7232 165.403 32.6899 165.185 32.9062 165.068L34.9025 163.912C35.1021 163.795 35.4681 163.812 35.701 163.946L37.5808 165.034C37.8137 165.168 37.847 165.386 37.6307 165.503Z" fill="#150035"></path><path d="M42.5214 162.673L40.5251 163.828C40.3254 163.946 39.9594 163.929 39.7265 163.795L37.8467 162.707C37.6138 162.573 37.5805 162.355 37.7968 162.238L39.7931 161.082C39.9927 160.965 40.3587 160.982 40.5916 161.116L42.4715 162.204C42.7044 162.338 42.7376 162.556 42.5214 162.673Z" fill="#150035"></path><path d="M32.5067 173.875L30.5104 175.031C30.3108 175.148 29.9448 175.131 29.7119 174.997L27.832 173.909C27.5991 173.775 27.5659 173.557 27.7821 173.44L29.7784 172.284C29.9781 172.167 30.3441 172.184 30.577 172.318L32.4568 173.406C32.6897 173.54 32.723 173.758 32.5067 173.875Z" fill="#150035"></path><path d="M37.3812 171.045L35.3849 172.2C35.1853 172.318 34.8193 172.301 34.5864 172.167L32.7066 171.079C32.4736 170.945 32.4404 170.727 32.6566 170.61L34.6529 169.454C34.8526 169.337 35.2186 169.354 35.4515 169.488L37.3313 170.576C37.5642 170.71 37.5975 170.928 37.3812 171.045Z" fill="#150035"></path><path d="M42.2719 168.198L40.2755 169.354C40.0759 169.471 39.7099 169.454 39.477 169.32L37.5972 168.232C37.3643 168.098 37.331 167.88 37.5473 167.763L39.5436 166.608C39.7432 166.49 40.1092 166.507 40.3421 166.641L42.2219 167.73C42.4548 167.864 42.4881 168.081 42.2719 168.198Z" fill="#150035"></path><path d="M47.1464 165.369L45.1501 166.525C44.9504 166.642 44.5844 166.625 44.3515 166.491L42.4717 165.403C42.2388 165.269 42.2055 165.051 42.4218 164.934L44.4181 163.779C44.6177 163.661 44.9837 163.678 45.2166 163.812L47.0965 164.9C47.3294 165.034 47.3626 165.252 47.1464 165.369Z" fill="#150035"></path><path d="M42.0223 173.741L40.026 174.897C39.8264 175.014 39.4604 174.997 39.2275 174.863L37.3477 173.775C37.1148 173.641 37.0815 173.423 37.2978 173.306L39.2941 172.151C39.4937 172.033 39.8597 172.05 40.0926 172.184L41.9724 173.273C42.2053 173.406 42.2386 173.624 42.0223 173.741Z" fill="#150035"></path><path d="M46.8969 170.895L44.9005 172.05C44.7009 172.167 44.3349 172.151 44.102 172.017L42.2222 170.928C41.9893 170.794 41.956 170.577 42.1723 170.459L44.1686 169.304C44.3682 169.187 44.7342 169.203 44.9671 169.337L46.8469 170.426C47.0798 170.56 47.1131 170.777 46.8969 170.895Z" fill="#150035"></path><path d="M82.6141 199.981L80.6178 201.136C80.4182 201.253 80.0522 201.236 79.8193 201.103L77.9395 200.014C77.7066 199.88 77.6733 199.662 77.8896 199.545L79.8859 198.39C80.0855 198.273 80.4515 198.289 80.6844 198.423L82.5642 199.512C82.7971 199.646 82.8304 199.863 82.6141 199.981Z" fill="#150035"></path><path d="M82.3646 205.506L80.3683 206.661C80.1687 206.779 79.8027 206.762 79.5698 206.628L77.69 205.54C77.457 205.406 77.4238 205.188 77.64 205.071L79.6363 203.915C79.836 203.798 80.202 203.815 80.4349 203.949L82.3147 205.037C82.5476 205.171 82.5809 205.389 82.3646 205.506Z" fill="#150035"></path><path d="M87.2391 202.676L85.2428 203.831C85.0432 203.949 84.6772 203.932 84.4443 203.798L82.5645 202.709C82.3316 202.575 82.2983 202.358 82.5146 202.241L84.5109 201.085C84.7105 200.968 85.0765 200.985 85.3094 201.119L87.1892 202.207C87.4221 202.341 87.4554 202.559 87.2391 202.676Z" fill="#150035"></path><path d="M87.2557 208.369L85.2594 209.525C85.0598 209.642 84.6938 209.625 84.4609 209.491L82.5811 208.403C82.3482 208.269 82.3149 208.051 82.5312 207.934L84.5275 206.779C84.7271 206.661 85.0931 206.678 85.326 206.812L87.2058 207.9C87.4387 208.034 87.472 208.252 87.2557 208.369Z" fill="#150035"></path><path d="M92.1464 205.523L90.1501 206.678C89.9504 206.795 89.5844 206.778 89.3515 206.645L87.4717 205.556C87.2388 205.422 87.2055 205.204 87.4218 205.087L89.4181 203.932C89.6177 203.815 89.9837 203.831 90.2166 203.965L92.0965 205.054C92.3294 205.188 92.3626 205.405 92.1464 205.523Z" fill="#150035"></path><path d="M91.8969 211.066L89.9005 212.221C89.7009 212.338 89.3349 212.321 89.102 212.187L87.2222 211.099C86.9893 210.965 86.956 210.747 87.1723 210.63L89.1686 209.475C89.3682 209.358 89.7342 209.374 89.9671 209.508L91.8469 210.597C92.0798 210.731 92.1131 210.948 91.8969 211.066Z" fill="#150035"></path><path d="M96.788 208.219L94.7917 209.374C94.592 209.492 94.226 209.475 93.9931 209.341L92.1133 208.252C91.8804 208.118 91.8471 207.901 92.0634 207.784L94.0597 206.628C94.2593 206.511 94.6253 206.528 94.8582 206.662L96.7381 207.75C96.971 207.884 97.0042 208.102 96.788 208.219Z" fill="#150035"></path><path d="M96.5385 213.761L94.5422 214.916C94.3425 215.034 93.9765 215.017 93.7436 214.883L91.8638 213.794C91.6309 213.66 91.5976 213.443 91.8139 213.326L93.8102 212.17C94.0098 212.053 94.3758 212.07 94.6087 212.204L96.4885 213.292C96.7214 213.426 96.7547 213.644 96.5385 213.761V213.761Z" fill="#150035"></path><path d="M101.412 210.914L99.4162 212.07C99.2165 212.187 98.8506 212.17 98.6176 212.036L96.7378 210.948C96.5049 210.814 96.4716 210.596 96.6879 210.479L98.6842 209.324C98.8838 209.206 99.2498 209.223 99.4827 209.357L101.363 210.445C101.595 210.579 101.629 210.797 101.412 210.914Z" fill="#150035"></path><path d="M106.304 208.085L104.307 209.241C104.108 209.358 103.742 209.341 103.509 209.207L101.629 208.119C101.396 207.985 101.363 207.767 101.579 207.65L103.575 206.494C103.775 206.377 104.141 206.394 104.374 206.528L106.254 207.616C106.487 207.75 106.52 207.968 106.304 208.085Z" fill="#150035"></path><path d="M111.195 205.238L109.198 206.394C108.999 206.511 108.633 206.494 108.4 206.36L106.52 205.272C106.287 205.138 106.254 204.92 106.47 204.803L108.466 203.648C108.666 203.531 109.032 203.547 109.265 203.681L111.145 204.77C111.378 204.904 111.411 205.121 111.195 205.238Z" fill="#150035"></path><path d="M116.069 202.392L114.072 203.547C113.873 203.664 113.507 203.648 113.274 203.514L111.394 202.425C111.161 202.291 111.128 202.074 111.344 201.956L113.34 200.801C113.54 200.684 113.906 200.701 114.139 200.835L116.019 201.923C116.252 202.057 116.285 202.275 116.069 202.392Z" fill="#150035"></path><path d="M120.96 199.562L118.964 200.717C118.764 200.834 118.398 200.818 118.165 200.684L116.285 199.595C116.052 199.461 116.019 199.244 116.235 199.126L118.232 197.971C118.431 197.854 118.797 197.87 119.03 198.004L120.91 199.093C121.143 199.227 121.176 199.444 120.96 199.562Z" fill="#150035"></path><path d="M106.32 213.761L104.324 214.916C104.124 215.034 103.758 215.017 103.525 214.883L101.646 213.794C101.413 213.66 101.379 213.443 101.596 213.326L103.592 212.17C103.792 212.053 104.158 212.07 104.39 212.204L106.27 213.292C106.503 213.426 106.536 213.644 106.32 213.761V213.761Z" fill="#150035"></path><path d="M111.211 210.931L109.215 212.086C109.015 212.203 108.649 212.187 108.416 212.053L106.537 210.964C106.304 210.83 106.27 210.613 106.487 210.495L108.483 209.34C108.683 209.223 109.049 209.24 109.282 209.374L111.161 210.462C111.394 210.596 111.428 210.814 111.211 210.931Z" fill="#150035"></path><path d="M116.085 208.085L114.089 209.241C113.889 209.358 113.523 209.341 113.29 209.207L111.411 208.119C111.178 207.985 111.144 207.767 111.361 207.65L113.357 206.494C113.557 206.377 113.923 206.394 114.156 206.528L116.035 207.616C116.268 207.75 116.302 207.968 116.085 208.085Z" fill="#150035"></path><path d="M120.976 205.255L118.98 206.41C118.781 206.528 118.415 206.511 118.182 206.377L116.302 205.289C116.069 205.155 116.036 204.937 116.252 204.82L118.248 203.664C118.448 203.547 118.814 203.564 119.047 203.698L120.927 204.786C121.159 204.92 121.193 205.138 120.976 205.255Z" fill="#150035"></path><path d="M43.9852 180.138L41.9889 181.293C41.7893 181.41 41.4233 181.394 41.1904 181.26L39.3106 180.171C39.0777 180.037 39.0444 179.82 39.2606 179.703L41.2569 178.547C41.4566 178.43 41.8226 178.447 42.0555 178.581L43.9353 179.669C44.1682 179.803 44.2015 180.021 43.9852 180.138Z" fill="#150035"></path><path d="M43.7357 185.663L41.7394 186.819C41.5398 186.936 41.1738 186.919 40.9409 186.785L39.061 185.697C38.8281 185.563 38.7949 185.345 39.0111 185.228L41.0074 184.073C41.2071 183.955 41.5731 183.972 41.806 184.106L43.6858 185.194C43.9187 185.328 43.952 185.546 43.7357 185.663Z" fill="#150035"></path><path d="M48.6102 182.833L46.6139 183.989C46.4143 184.106 46.0483 184.089 45.8154 183.955L43.9356 182.867C43.7027 182.733 43.6694 182.515 43.8856 182.398L45.882 181.242C46.0816 181.125 46.4476 181.142 46.6805 181.276L48.5603 182.364C48.7932 182.498 48.8265 182.716 48.6102 182.833Z" fill="#150035"></path><path d="M48.6434 188.51L46.6471 189.665C46.4475 189.783 46.0815 189.766 45.8486 189.632L43.9688 188.543C43.7359 188.409 43.7026 188.192 43.9188 188.075L45.9152 186.919C46.1148 186.802 46.4808 186.819 46.7137 186.953L48.5935 188.041C48.8264 188.175 48.8597 188.393 48.6434 188.51Z" fill="#150035"></path><path d="M53.5175 185.68L51.5212 186.835C51.3215 186.952 50.9555 186.936 50.7226 186.802L48.8428 185.713C48.6099 185.579 48.5766 185.362 48.7929 185.244L50.7892 184.089C50.9888 183.972 51.3548 183.989 51.5877 184.123L53.4675 185.211C53.7005 185.345 53.7337 185.563 53.5175 185.68Z" fill="#150035"></path><path d="M53.2679 191.206L51.2716 192.362C51.072 192.479 50.706 192.462 50.4731 192.328L48.5933 191.24C48.3604 191.106 48.3271 190.888 48.5434 190.771L50.5397 189.615C50.7393 189.498 51.1053 189.515 51.3382 189.649L53.218 190.737C53.4509 190.871 53.4842 191.089 53.2679 191.206Z" fill="#150035"></path><path d="M58.1591 188.376L56.1628 189.532C55.9631 189.649 55.5971 189.632 55.3642 189.498L53.4844 188.41C53.2515 188.276 53.2182 188.058 53.4345 187.941L55.4308 186.785C55.6304 186.668 55.9964 186.685 56.2293 186.819L58.1092 187.907C58.3421 188.041 58.3753 188.259 58.1591 188.376Z" fill="#150035"></path><path d="M57.9095 193.902L55.9132 195.057C55.7136 195.174 55.3476 195.157 55.1147 195.023L53.2349 193.935C53.002 193.801 52.9687 193.583 53.185 193.466L55.1813 192.311C55.3809 192.194 55.7469 192.21 55.9798 192.344L57.8596 193.433C58.0925 193.567 58.1258 193.784 57.9095 193.902Z" fill="#150035"></path><path d="M62.8002 191.071L60.8039 192.227C60.6042 192.344 60.2383 192.327 60.0053 192.193L58.1255 191.105C57.8926 190.971 57.8593 190.753 58.0756 190.636L60.0719 189.481C60.2715 189.364 60.6375 189.38 60.8704 189.514L62.7503 190.603C62.9832 190.737 63.0164 190.954 62.8002 191.071Z" fill="#150035"></path><path d="M67.6747 188.226L65.6784 189.381C65.4787 189.498 65.1128 189.482 64.8799 189.348L63 188.259C62.7671 188.125 62.7338 187.908 62.9501 187.79L64.9464 186.635C65.146 186.518 65.512 186.535 65.7449 186.669L67.6248 187.757C67.8577 187.891 67.891 188.109 67.6747 188.226Z" fill="#150035"></path><path d="M72.5658 185.396L70.5695 186.551C70.3699 186.668 70.0039 186.652 69.771 186.518L67.8911 185.429C67.6582 185.295 67.6249 185.078 67.8412 184.96L69.8375 183.805C70.0371 183.688 70.4031 183.704 70.636 183.838L72.5159 184.927C72.7488 185.061 72.7821 185.278 72.5658 185.396Z" fill="#150035"></path><path d="M77.4398 182.549L75.4435 183.704C75.2439 183.822 74.8779 183.805 74.645 183.671L72.7651 182.582C72.5322 182.449 72.499 182.231 72.7152 182.114L74.7115 180.958C74.9112 180.841 75.2772 180.858 75.5101 180.992L77.3899 182.08C77.6228 182.214 77.6561 182.432 77.4398 182.549Z" fill="#150035"></path><path d="M82.3309 179.719L80.3346 180.874C80.135 180.992 79.769 180.975 79.5361 180.841L77.6563 179.752C77.4234 179.618 77.3901 179.401 77.6064 179.284L79.6026 178.128C79.8023 178.011 80.1683 178.028 80.4012 178.162L82.281 179.25C82.5139 179.384 82.5472 179.602 82.3309 179.719Z" fill="#150035"></path><path d="M67.7079 193.918L65.7116 195.074C65.512 195.191 65.146 195.174 64.9131 195.04L63.0332 193.952C62.8003 193.818 62.767 193.6 62.9833 193.483L64.9796 192.327C65.1792 192.21 65.5452 192.227 65.7781 192.361L67.658 193.449C67.8909 193.583 67.9242 193.801 67.7079 193.918Z" fill="#150035"></path><path d="M72.5824 191.071L70.5861 192.227C70.3865 192.344 70.0205 192.327 69.7876 192.193L67.9077 191.105C67.6748 190.971 67.6415 190.753 67.8578 190.636L69.8541 189.481C70.0537 189.364 70.4197 189.38 70.6526 189.514L72.5325 190.603C72.7654 190.737 72.7987 190.954 72.5824 191.071Z" fill="#150035"></path><path d="M77.473 188.242L75.4767 189.398C75.2771 189.515 74.9111 189.498 74.6782 189.364L72.7983 188.276C72.5654 188.142 72.5322 187.924 72.7484 187.807L74.7447 186.652C74.9444 186.534 75.3104 186.551 75.5433 186.685L77.4231 187.774C77.656 187.907 77.6893 188.125 77.473 188.242Z" fill="#150035"></path><path d="M82.3475 185.396L80.3512 186.551C80.1516 186.668 79.7856 186.652 79.5527 186.518L77.6729 185.429C77.44 185.295 77.4067 185.078 77.623 184.96L79.6193 183.805C79.8189 183.688 80.1849 183.704 80.4178 183.838L82.2976 184.927C82.5305 185.061 82.5638 185.278 82.3475 185.396Z" fill="#150035"></path><path d="M87.2885 176.839L85.2921 177.994C85.0925 178.112 84.7265 178.095 84.4936 177.961L82.6138 176.873C82.3809 176.739 82.3476 176.521 82.5639 176.404L84.5602 175.248C84.7598 175.131 85.1258 175.148 85.3587 175.282L87.2385 176.37C87.4714 176.504 87.5047 176.722 87.2885 176.839Z" fill="#150035"></path><path d="M87.3051 182.532L85.3088 183.688C85.1091 183.805 84.7431 183.788 84.5102 183.654L82.6304 182.566C82.3975 182.432 82.3642 182.214 82.5805 182.097L84.5768 180.942C84.7764 180.824 85.1424 180.841 85.3753 180.975L87.2552 182.064C87.4881 182.198 87.5213 182.415 87.3051 182.532Z" fill="#150035"></path><path d="M87.2386 186.282L85.2423 187.438C85.0427 187.555 84.6767 187.538 84.4438 187.404L82.564 186.316C82.3311 186.182 82.2978 185.964 82.5141 185.847L84.5104 184.692C84.71 184.574 85.076 184.591 85.3089 184.725L87.1887 185.814C87.4216 185.948 87.4549 186.165 87.2386 186.282Z" fill="#150035"></path><path d="M92.1298 183.436L90.1335 184.591C89.9338 184.708 89.5678 184.692 89.3349 184.558L87.4551 183.469C87.2222 183.335 87.1889 183.118 87.4052 183L89.4015 181.845C89.6011 181.728 89.9671 181.745 90.2 181.878L92.0799 182.967C92.3128 183.101 92.346 183.319 92.1298 183.436Z" fill="#150035"></path><path d="M92.1464 189.129L90.1501 190.284C89.9504 190.402 89.5844 190.385 89.3515 190.251L87.4717 189.163C87.2388 189.029 87.2055 188.811 87.4218 188.694L89.4181 187.538C89.6177 187.421 89.9837 187.438 90.2166 187.572L92.0965 188.66C92.3294 188.794 92.3626 189.012 92.1464 189.129Z" fill="#150035"></path><path d="M97.037 186.282L95.0407 187.438C94.8411 187.555 94.4751 187.538 94.2422 187.404L92.3623 186.316C92.1294 186.182 92.0961 185.964 92.3124 185.847L94.3087 184.692C94.5083 184.574 94.8743 184.591 95.1072 184.725L96.9871 185.814C97.22 185.948 97.2533 186.165 97.037 186.282Z" fill="#150035"></path><path d="M96.7875 191.825L94.7912 192.981C94.5915 193.098 94.2256 193.081 93.9927 192.947L92.1128 191.859C91.8799 191.725 91.8466 191.507 92.0629 191.39L94.0592 190.235C94.2588 190.117 94.6248 190.134 94.8577 190.268L96.7376 191.357C96.9705 191.49 97.0037 191.708 96.7875 191.825Z" fill="#150035"></path><path d="M101.662 188.979L99.6657 190.134C99.4661 190.251 99.1001 190.235 98.8672 190.101L96.9873 189.012C96.7544 188.878 96.7211 188.661 96.9374 188.543L98.9337 187.388C99.1333 187.271 99.4993 187.287 99.7322 187.421L101.612 188.51C101.845 188.644 101.878 188.861 101.662 188.979Z" fill="#150035"></path><path d="M101.412 194.521L99.4162 195.676C99.2165 195.793 98.8506 195.777 98.6176 195.643L96.7378 194.554C96.5049 194.42 96.4716 194.203 96.6879 194.085L98.6842 192.93C98.8838 192.813 99.2498 192.829 99.4827 192.963L101.363 194.052C101.595 194.186 101.629 194.403 101.412 194.521Z" fill="#150035"></path><path d="M106.303 191.674L104.307 192.829C104.107 192.947 103.741 192.93 103.508 192.796L101.628 191.707C101.396 191.574 101.362 191.356 101.579 191.239L103.575 190.083C103.774 189.966 104.14 189.983 104.373 190.117L106.253 191.205C106.486 191.339 106.519 191.557 106.303 191.674Z" fill="#150035"></path><path d="M111.194 188.845L109.198 190C108.998 190.117 108.632 190.101 108.399 189.967L106.52 188.878C106.287 188.744 106.253 188.527 106.47 188.41L108.466 187.254C108.666 187.137 109.032 187.154 109.264 187.288L111.144 188.376C111.377 188.51 111.41 188.728 111.194 188.845Z" fill="#150035"></path><path d="M116.069 185.998L114.072 187.154C113.873 187.271 113.507 187.254 113.274 187.12L111.394 186.032C111.161 185.898 111.128 185.68 111.344 185.563L113.34 184.407C113.54 184.29 113.906 184.307 114.139 184.441L116.019 185.529C116.252 185.663 116.285 185.881 116.069 185.998Z" fill="#150035"></path><path d="M120.959 183.168L118.963 184.324C118.763 184.441 118.397 184.424 118.165 184.29L116.285 183.202C116.052 183.068 116.019 182.85 116.235 182.733L118.231 181.577C118.431 181.46 118.797 181.477 119.03 181.611L120.909 182.699C121.142 182.833 121.176 183.051 120.959 183.168Z" fill="#150035"></path><path d="M125.834 180.321L123.838 181.477C123.638 181.594 123.272 181.577 123.039 181.443L121.159 180.355C120.926 180.221 120.893 180.003 121.109 179.886L123.106 178.731C123.305 178.614 123.671 178.63 123.904 178.764L125.784 179.853C126.017 179.987 126.05 180.204 125.834 180.321Z" fill="#150035"></path><path d="M111.211 194.521L109.215 195.676C109.015 195.793 108.649 195.777 108.416 195.643L106.536 194.554C106.303 194.42 106.27 194.203 106.486 194.085L108.483 192.93C108.682 192.813 109.048 192.829 109.281 192.963L111.161 194.052C111.394 194.186 111.427 194.403 111.211 194.521Z" fill="#150035"></path><path d="M116.085 191.691L114.089 192.846C113.889 192.963 113.523 192.946 113.29 192.812L111.411 191.724C111.178 191.59 111.144 191.372 111.361 191.255L113.357 190.1C113.557 189.983 113.923 189.999 114.156 190.133L116.035 191.222C116.268 191.356 116.302 191.573 116.085 191.691Z" fill="#150035"></path><path d="M120.976 188.845L118.98 190C118.78 190.117 118.414 190.101 118.181 189.967L116.301 188.878C116.068 188.744 116.035 188.527 116.251 188.41L118.248 187.254C118.447 187.137 118.813 187.154 119.046 187.288L120.926 188.376C121.159 188.51 121.192 188.728 120.976 188.845Z" fill="#150035"></path><path d="M125.867 186.015L123.871 187.17C123.671 187.287 123.305 187.271 123.072 187.137L121.192 186.048C120.959 185.914 120.926 185.697 121.142 185.579L123.139 184.424C123.338 184.307 123.704 184.324 123.937 184.458L125.817 185.546C126.05 185.68 126.083 185.898 125.867 186.015Z" fill="#150035"></path><path d="M35.1518 82.317L14.7729 93.988C13.9245 94.4736 12.4605 94.4233 11.4957 93.854L5.78956 90.5386C4.82468 89.9693 4.70822 89.1153 5.55665 88.6297L25.9356 76.9588C26.784 76.4732 28.248 76.5402 29.2128 77.0927L34.9189 80.4082C35.8838 80.9775 36.0003 81.8314 35.1518 82.317Z" fill="#FEBD33"></path><path d="M13.3587 94.8917C12.6101 94.8917 11.8449 94.7075 11.2293 94.3559L5.52323 91.0405C4.84115 90.6386 4.44189 90.0693 4.44189 89.4832C4.44189 88.9474 4.74134 88.4786 5.29032 88.1772L25.6693 76.5062C26.684 75.9201 28.3643 75.9871 29.4955 76.6402L35.2016 79.9556C35.8837 80.3574 36.2829 80.9268 36.2829 81.5128C36.2829 82.0486 35.9835 82.5175 35.4345 82.8356L15.0556 94.5066C14.5898 94.7745 13.9909 94.9085 13.3587 94.9085V94.8917ZM27.3495 77.1927C26.9169 77.1927 26.501 77.2765 26.2016 77.4439L5.82267 89.1149C5.73949 89.1651 5.53986 89.299 5.53986 89.4497C5.53986 89.5837 5.67295 89.8181 6.05557 90.0358L11.7617 93.3512C12.5602 93.8201 13.8079 93.887 14.4733 93.4852L34.8522 81.8142C34.9354 81.764 35.1351 81.63 35.1351 81.4793C35.1351 81.3454 35.002 81.111 34.6193 80.8933L28.9132 77.5779C28.4641 77.3099 27.8818 77.176 27.3328 77.176L27.3495 77.1927Z" fill="#FFEECC"></path><path d="M17.4344 21.2151L39.8928 8.17112C40.9076 7.58506 41.7228 8.20461 41.7228 9.56092V19.9258C41.7228 21.2821 40.9076 22.8561 39.8928 23.4589L37.3143 24.9659C37.0814 26.1045 36.2163 29.1688 33.3383 30.8098C33.1886 30.8935 33.0888 30.7595 33.1553 30.5753C33.4049 29.8888 33.7875 28.4655 33.4714 27.1929L17.4344 36.5196C16.4196 37.1057 15.6045 36.4862 15.6045 35.1298V24.765C15.6045 23.4087 16.4196 21.8347 17.4344 21.2319V21.2151Z" fill="#FEBD33"></path><path d="M16.7193 37.2735C16.4531 37.2735 16.2035 37.2065 15.9706 37.0726C15.3884 36.7377 15.0557 36.0177 15.0557 35.0967V24.7318C15.0557 23.1746 15.9873 21.3997 17.1684 20.7132L39.6268 7.66915C40.2424 7.30077 40.8745 7.26728 41.3902 7.56868C41.9725 7.90357 42.3052 8.62359 42.3052 9.54454V19.9094C42.3052 21.4667 41.3736 23.2416 40.1924 23.9281L37.8135 25.3012C37.4808 26.7077 36.4827 29.638 33.6379 31.279C33.3717 31.4297 33.0557 31.4129 32.8394 31.2287C32.6065 31.0278 32.5233 30.6929 32.6398 30.3748C32.7895 29.9561 33.0723 29.0352 33.039 28.0808L17.7174 36.9889C17.368 37.1898 17.0353 37.2903 16.7026 37.2903L16.7193 37.2735ZM17.734 21.7011C16.8856 22.1867 16.1869 23.5765 16.1869 24.7318V35.0967C16.1869 35.5823 16.32 35.9674 16.5363 36.1014C16.7359 36.2186 17.0187 36.1014 17.1851 36.0009L33.8708 26.3058L34.0538 27.0258C34.2867 27.9468 34.1869 28.9012 34.0205 29.6547C35.9337 28.0808 36.5991 25.8202 36.7987 24.8156L36.8486 24.5644L39.6435 22.9402C40.4919 22.4546 41.1906 21.0648 41.1906 19.9094V9.56128C41.1906 9.07569 41.0575 8.69057 40.8412 8.55661C40.6416 8.4394 40.3588 8.55661 40.1924 8.65708L17.734 21.7011V21.7011Z" fill="#FFEECC"></path><path d="M36.0631 15.8046L20.7324 24.71L21.2896 25.6816L36.6202 16.7762L36.0631 15.8046Z" fill="#FFEECC"></path><path d="M36.0709 19.3505L20.7402 28.2559L21.2974 29.2275L36.628 20.3221L36.0709 19.3505Z" fill="#FFEECC"></path><path d="M5.73916 8.52332L19.2974 0.787334C20.3122 0.201275 21.1273 0.820823 21.1273 2.17713V6.69816C21.1273 8.05447 20.3122 9.62846 19.2974 10.2313L16.07 12.1066C15.8205 13.2788 14.9388 16.276 12.1107 17.917C11.961 18.0007 11.8612 17.8668 11.9277 17.6826C12.1772 16.9961 12.5432 15.5895 12.2438 14.3337L5.72252 17.9672C4.70774 18.5533 3.89258 17.9338 3.89258 16.5774V12.0732C3.89258 10.7169 4.70774 9.14286 5.72252 8.54006L5.73916 8.52332Z" fill="#FEBD33"></path><path d="M5.00734 18.7371C4.74116 18.7371 4.49162 18.6701 4.25872 18.5361C3.67647 18.2012 3.34375 17.4812 3.34375 16.5603V12.0392C3.34375 10.482 4.27536 8.70707 5.4565 8.02054L19.0147 0.301303C19.6303 -0.0503324 20.2624 -0.100566 20.7615 0.200836C21.3437 0.535727 21.6765 1.25574 21.6765 2.17669V6.69772C21.6765 8.25496 20.7449 10.0299 19.5637 10.7164L16.5526 12.4578C16.2199 13.8644 15.2051 16.7612 12.377 18.3854C12.1108 18.5361 11.7948 18.5194 11.5785 18.3352C11.3456 18.1342 11.2624 17.7994 11.3789 17.4812C11.5286 17.0793 11.7948 16.1584 11.7781 15.204L5.98885 18.4356C5.65613 18.6366 5.30678 18.7371 4.9907 18.7371H5.00734ZM6.00549 9.00847C5.15706 9.49406 4.45835 10.8839 4.45835 12.0392V16.5603C4.45835 17.0459 4.59144 17.431 4.80771 17.5649C5.00734 17.6821 5.29015 17.5649 5.4565 17.4645L12.6266 13.4625L12.7929 14.1825C13.0092 15.0867 12.9094 16.0244 12.7596 16.7779C14.6561 15.2207 15.3216 12.9769 15.5212 11.989L15.5711 11.7378L19.0147 9.74523C19.8632 9.25964 20.5619 7.86984 20.5619 6.71447V2.17669C20.5619 1.6911 20.4288 1.30598 20.2125 1.17202C20.0129 1.05481 19.7301 1.17202 19.5803 1.27249L6.02212 9.00847H6.00549Z" fill="#FFEECC"></path><path d="M2.39537 53.264L24.8538 40.22C25.8686 39.6339 26.6837 40.2534 26.6837 41.6097V60.8827C26.6837 62.239 25.8686 63.813 24.8538 64.4158L10.9296 72.5202C10.5969 74.1946 10.9795 75.1826 11.229 75.5844C11.2956 75.7017 11.1957 75.9528 11.046 76.0365C8.13475 77.7277 7.28632 75.6012 7.07005 74.764L2.39537 77.4766C1.38059 78.0626 0.56543 77.4431 0.56543 76.0868V56.8138C0.56543 55.4575 1.38059 53.8835 2.39537 53.2807V53.264Z" fill="#FEBD33"></path><path d="M1.66359 78.247C1.39741 78.247 1.14787 78.1801 0.914972 78.0461C0.332717 77.7112 0 76.9912 0 76.0703V56.7973C0 55.24 0.931608 53.4651 2.11275 52.7786L24.5712 39.7346C25.1867 39.3662 25.8189 39.3327 26.3346 39.6341C26.9168 39.969 27.2495 40.689 27.2495 41.61V60.8829C27.2495 62.4402 26.3179 64.2151 25.1368 64.9016L11.4288 72.872C11.1959 74.3121 11.5786 75.0823 11.7116 75.3C11.8115 75.4675 11.8447 75.6851 11.7948 75.9028C11.7283 76.1707 11.5619 76.4051 11.3457 76.5224C10.1146 77.2424 9.04991 77.4266 8.18484 77.0582C7.45286 76.7568 7.03697 76.1372 6.78743 75.5847L2.69501 77.9624C2.34566 78.1633 2.01294 78.2638 1.68022 78.2638L1.66359 78.247ZM2.67837 53.7498C1.82994 54.2354 1.13124 55.6252 1.13124 56.7805V76.0535C1.13124 76.5391 1.26433 76.9242 1.48059 77.0582C1.68022 77.1754 1.96303 77.0582 2.12939 76.9577L7.43623 73.8767L7.61922 74.5967C7.7024 74.9316 7.96858 75.7186 8.60074 75.9865C9.09982 76.1875 9.78188 76.0703 10.6303 75.6014C10.3808 75.0656 10.0647 74.0107 10.3808 72.3697L10.4307 72.1185L24.5878 63.897C25.4362 63.4114 26.1349 62.0216 26.1349 60.8662V41.5932C26.1349 41.1076 26.0018 40.7225 25.7856 40.5885C25.586 40.4713 25.3031 40.5885 25.1534 40.689L2.67837 53.7498V53.7498Z" fill="#FFEECC"></path><path d="M21.005 48.5936L5.67432 57.499L6.23145 58.4707L21.5621 49.5653L21.005 48.5936Z" fill="#FFEECC"></path><path d="M21.0128 52.1395L5.68213 61.0449L6.23926 62.0166L21.5699 53.1112L21.0128 52.1395Z" fill="#FFEECC"></path><path d="M21.0113 55.6593L5.68213 64.5674L6.23943 65.539L21.5686 56.6309L21.0113 55.6593Z" fill="#FFEECC"></path><path d="M21.0118 59.1971L5.68115 68.1025L6.23828 69.0742L21.569 60.1688L21.0118 59.1971Z" fill="#FFEECC"></path><path d="M42.9036 160.312L37.9794 161.535L32.5894 159.475L33.2881 158.186L35.0182 157.6C35.0182 157.6 37.264 157.231 37.5968 156.059C37.9295 154.887 41.1735 156.059 41.1735 156.059L43.4027 157.985L42.9036 160.329V160.312Z" fill="#FEBD33"></path><path d="M37.9296 162.305L31.5581 159.86L32.8058 157.583L34.9185 156.88C35.6672 156.762 36.7818 156.327 36.9149 155.858C37.0147 155.49 37.2642 155.205 37.6136 155.038C38.7115 154.468 40.8243 155.155 41.4398 155.389L41.6727 155.523L44.2346 157.734L43.5359 160.949L37.9463 162.322L37.9296 162.305ZM33.6376 159.09L38.0295 160.764L42.3049 159.709L42.621 158.236L40.8243 156.695C39.743 156.327 38.5285 156.143 38.2624 156.327C37.8797 157.75 35.6672 158.219 35.2014 158.303L33.7873 158.772L33.621 159.073L33.6376 159.09Z" fill="black"></path><path d="M60.1882 131.963C60.1882 131.963 50.1734 128.681 47.4784 126.22C47.4784 126.22 49.2252 129.853 47.0958 135.848C45.4156 140.553 44.6337 151.638 44.1013 155.623C43.9683 156.645 43.203 157.415 42.2714 157.482L41.3897 157.599C40.2917 157.666 38.0792 156.712 38.0459 155.489C37.813 147.385 37.1975 119.79 39.0607 117.312C41.24 114.398 48.4599 111.485 52.0533 112.138C55.6633 112.791 66.3435 114.482 66.3435 114.482L60.1882 131.98V131.963Z" fill="#FFEECC"></path><path d="M41.3067 158.336C40.2586 158.336 38.9111 157.8 38.1292 157.08C37.6301 156.611 37.3473 156.076 37.3307 155.523C36.9647 142.161 36.6154 119.372 38.4786 116.877C40.8242 113.745 48.3936 110.731 52.1865 111.418C55.7466 112.054 66.3603 113.745 66.4601 113.762L67.3252 113.896L60.6375 132.884L59.9721 132.667C59.6228 132.55 52.5692 130.222 48.7263 127.978C49.0091 129.72 49.059 132.516 47.7947 136.099C46.547 139.599 45.7817 146.95 45.2826 151.806C45.1163 153.397 44.9832 154.77 44.8501 155.724C44.6671 157.08 43.6191 158.135 42.3381 158.202L41.5063 158.319C41.5063 158.319 41.3899 158.319 41.3233 158.319L41.3067 158.336ZM50.9056 112.774C47.3455 112.774 41.5229 115.252 39.6431 117.747C38.5285 119.238 38.1791 134.057 38.778 155.473C38.778 155.624 38.8945 155.808 39.1107 155.992C39.7096 156.544 40.791 156.896 41.3566 156.863L42.1884 156.745C42.8205 156.712 43.303 156.193 43.4028 155.523C43.5359 154.569 43.669 153.229 43.8353 151.655C44.3843 146.431 45.1163 139.264 46.4305 135.614C48.4268 130.021 46.863 126.588 46.8464 126.555L45.2993 123.256L47.9943 125.701C50.157 127.66 57.51 130.289 59.7725 131.059L65.3954 115.068C62.7669 114.65 54.9148 113.394 51.9536 112.858C51.6375 112.808 51.2882 112.774 50.9222 112.774H50.9056Z" fill="black"></path><path d="M31.6748 158.287C32.3402 157.182 33.8208 157.282 35.0186 157.6C34.9354 157.65 34.8688 157.701 34.7857 157.751C34.1535 158.27 34.7358 159.057 35.8836 159.66C38.1461 160.849 40.7579 160.497 42.0223 158.571L42.1553 158.17V157.801H42.172C42.5712 157.349 43.1701 156.746 43.6359 156.294C44.0518 155.892 44.7173 156.026 44.9502 156.596C45.3162 157.5 45.5823 159.124 44.7339 161.686L44.318 165.587C44.2847 165.839 44.1683 166.073 43.9853 166.224C43.952 166.274 43.9021 166.291 43.8189 166.324C43.586 166.441 43.0204 166.358 42.8041 166.24C42.355 166.157 41.9724 166.056 41.5065 165.906C41.2903 165.839 41.1572 165.604 41.1738 165.353L41.2736 163.528C41.2736 163.243 41.0241 163.059 40.7912 163.176L40.2256 163.545C39.7099 163.879 39.1276 164.08 38.5287 164.131C37.8799 164.181 37.2311 164.047 36.6489 163.762C33.8541 162.356 30.4437 160.279 31.6415 158.287H31.6748Z" fill="black"></path><path d="M43.5194 166.943C43.2199 166.943 42.8872 166.876 42.6543 166.776C42.2218 166.692 41.8392 166.592 41.3567 166.441C40.9075 166.29 40.6081 165.838 40.6414 165.336L40.7245 163.929L40.5748 164.03C39.9759 164.415 39.3105 164.649 38.6118 164.7C37.8632 164.767 37.1146 164.616 36.4325 164.264C33.0554 162.556 31.3752 161.166 30.9593 159.76C30.7763 159.14 30.8595 158.554 31.1922 157.985C31.658 157.198 32.7393 156.411 35.1682 157.047L36.3826 157.365L35.3345 158.052C35.2514 158.102 35.2014 158.136 35.1515 158.186C35.1016 158.337 35.3512 158.722 36.1663 159.157C38.2292 160.229 40.475 159.877 41.5397 158.32L41.6229 158.069V157.55L41.7892 157.399C42.122 157.014 42.621 156.511 43.2698 155.875C43.6026 155.557 44.0517 155.423 44.4843 155.507C44.9334 155.607 45.2994 155.925 45.4824 156.361C45.8817 157.349 46.1811 159.073 45.2994 161.786L44.9002 165.637C44.8669 166.022 44.6839 166.374 44.4011 166.608C44.3013 166.726 44.1682 166.809 43.9852 166.86C43.8687 166.927 43.7024 166.943 43.5194 166.943V166.943ZM40.9741 162.59C41.1404 162.59 41.2902 162.64 41.4233 162.724C41.7061 162.908 41.8724 163.226 41.8392 163.561L41.7393 165.386C42.1552 165.52 42.5046 165.604 42.9038 165.671L43.0868 165.738C43.1867 165.788 43.5027 165.821 43.6026 165.788H43.6192C43.6192 165.788 43.7356 165.621 43.7523 165.52L44.1848 161.501C44.9833 159.09 44.7504 157.617 44.4177 156.813C44.3678 156.679 44.268 156.645 44.2181 156.629C44.1682 156.629 44.085 156.629 44.0018 156.696C43.4528 157.232 43.0037 157.684 42.6876 158.035L42.6543 158.37L42.4547 158.889C41.0905 160.999 38.2125 161.535 35.6007 160.162C35.0184 159.86 34.0203 159.224 33.9371 158.353C33.9371 158.219 33.9371 158.085 33.9704 157.968C33.2218 157.885 32.4732 157.968 32.1072 158.571C31.9408 158.856 31.8909 159.14 31.9907 159.442C32.2902 160.48 33.9371 161.769 36.8817 163.26C37.3807 163.511 37.9131 163.628 38.4621 163.578C38.9612 163.544 39.4602 163.36 39.8928 163.092L40.4584 162.724C40.6081 162.64 40.7745 162.607 40.9242 162.607L40.9741 162.59Z" fill="black"></path><path d="M40.7412 160.264L40.4316 162.554L41.5361 162.705L41.8456 160.415L40.7412 160.264Z" fill="#FEBD33"></path><path d="M98.0351 163.36C98.0351 163.36 98.0351 128.967 98.0351 128.347C98.0351 128.28 97.9852 128.23 97.9353 128.213L81.4824 129.703C81.4824 129.703 81.4658 129.703 81.4492 129.703L79.9353 120.561C79.9353 120.561 79.8355 120.527 79.8022 120.561L45.8151 140.118C45.8151 140.118 45.7486 140.135 45.7153 140.118L42.8207 139.315C42.7375 139.281 42.6377 139.348 42.6377 139.449C42.6377 140.185 42.6377 174.227 42.6377 174.311C42.6876 174.83 42.9371 175.299 43.4196 175.583L58.6747 184.491C59.9723 185.245 61.5859 185.262 62.8835 184.491L97.2033 164.75C97.719 164.448 97.9852 163.929 98.0018 163.393V163.36H98.0351Z" fill="#FEBD33"></path><path d="M60.8041 185.781C59.9557 185.781 59.0906 185.563 58.3254 185.111L43.0703 176.203C42.4215 175.818 42.0056 175.165 41.9224 174.411C41.9224 174.344 41.9169 165.911 41.9058 149.11C41.9058 143.802 41.9058 139.7 41.9058 139.449C41.9058 139.164 42.0222 138.913 42.2551 138.762C42.4714 138.595 42.7542 138.544 43.0204 138.611L45.6821 139.348L79.4529 119.925C79.7191 119.774 80.0518 119.774 80.318 119.925L80.6174 120.092L82.0814 128.916L98.0352 127.476L98.1682 127.51C98.5509 127.61 98.8004 127.945 98.8004 128.347C98.8004 128.699 98.8004 163.343 98.8004 163.393V163.477C98.7671 164.231 98.3346 164.967 97.6359 165.369L63.3161 185.111C62.5509 185.546 61.7024 185.764 60.854 185.764L60.8041 185.781ZM43.3531 140.219C43.3531 141.692 43.3531 145.041 43.3531 149.11C43.3531 159.006 43.3531 173.959 43.3531 174.294C43.3697 174.428 43.4529 174.746 43.7856 174.947L59.0407 183.855C60.1054 184.475 61.4529 184.492 62.5176 183.855L96.854 164.113C97.2366 163.896 97.2865 163.527 97.2865 163.377H98.0185H97.2865C97.2865 163.142 97.2865 133.856 97.2865 129.034L81.4159 130.457L81.0998 130.356L80.7671 130.189L79.3531 121.649L45.8651 140.905L45.4658 140.822L43.3364 140.219H43.3531Z" fill="black"></path><path d="M97.9352 128.229L81.4823 129.72C81.4823 129.72 81.4657 129.72 81.4491 129.72L60.6875 146.163V185.06C61.4527 185.077 62.218 184.91 62.9001 184.508L97.2198 164.766C97.7356 164.465 98.0017 163.946 98.0184 163.41V163.376C98.0184 163.376 98.0184 128.983 98.0184 128.363C98.0184 128.296 97.9685 128.246 97.9186 128.229H97.9352Z" fill="black"></path><path d="M60.804 185.781C60.804 185.781 60.7042 185.781 60.6543 185.781H59.9556V145.795L81.3992 128.816L81.6487 128.967L98.0018 127.493L98.1182 127.527C98.5009 127.627 98.767 127.979 98.767 128.364C98.767 128.716 98.767 163.343 98.767 163.41C98.7338 164.247 98.3012 164.984 97.6025 165.386L63.2827 185.128C62.5341 185.563 61.7023 185.781 60.8206 185.781H60.804ZM61.4029 146.498V184.257C61.8021 184.19 62.1848 184.056 62.5341 183.839L96.8705 164.097C97.2532 163.879 97.3031 163.511 97.3031 163.36C97.3031 163.109 97.3031 133.839 97.3031 129.017L81.6986 130.423L61.4029 146.498V146.498Z" fill="black"></path><path d="M44.9834 141.408C44.9834 141.408 45.2163 140.788 45.4991 140.001L42.8207 139.248C42.7375 139.214 42.6377 139.281 42.6377 139.382C42.6377 140.119 42.6377 174.16 42.6377 174.244C42.6876 174.763 42.9371 175.232 43.4196 175.517L44.9501 176.421V145.176V141.425L44.9834 141.408Z" fill="black"></path><path d="M45.6987 177.66L43.0703 176.119C42.4215 175.734 42.0056 175.081 41.9224 174.328C41.9224 174.261 41.9169 165.827 41.9058 149.027C41.9058 143.719 41.9058 139.616 41.9058 139.365C41.9058 139.08 42.0222 138.829 42.2551 138.678C42.4714 138.511 42.7542 138.461 43.0204 138.528L46.4474 139.482L46.1812 140.219C45.9649 140.805 45.7986 141.291 45.7154 141.508V177.643L45.6987 177.66ZM43.3531 140.152C43.3531 141.625 43.3531 144.974 43.3531 149.043C43.3531 158.939 43.3531 173.892 43.3531 174.227C43.3697 174.361 43.4529 174.679 43.7856 174.88L44.2348 175.148V141.291L44.2847 141.173C44.2847 141.173 44.3845 140.905 44.5342 140.504L43.3531 140.169V140.152Z" fill="black"></path><path d="M58.7748 149.528L43.4365 140.57C42.3552 139.934 42.3552 138.376 43.4365 137.74L77.8394 117.948C79.1038 117.211 80.6509 117.211 81.8986 117.948L97.2369 126.906C98.3182 127.543 98.3182 129.1 97.2369 129.736L62.8339 149.528C61.5696 150.265 60.0224 150.265 58.7748 149.528V149.528Z" fill="#FFEECC"></path><path d="M60.8041 150.818C59.9723 150.818 59.1405 150.6 58.4085 150.165L43.0703 141.223C42.3383 140.788 41.9058 140.035 41.9058 139.164C41.9058 138.31 42.3383 137.54 43.0869 137.121L77.4899 117.329C78.9705 116.475 80.8004 116.475 82.281 117.329L97.6193 126.271C98.3512 126.706 98.7838 127.476 98.7838 128.33C98.7838 129.184 98.3346 129.954 97.6026 130.373L63.1997 150.165C62.4677 150.6 61.6359 150.801 60.8041 150.801V150.818ZM79.8688 118.149C79.2865 118.149 78.7209 118.3 78.2052 118.602L43.8022 138.394C43.403 138.628 43.3531 139.013 43.3531 139.181C43.3531 139.331 43.403 139.733 43.8022 139.968L59.1405 148.909C60.1719 149.512 61.4363 149.512 62.4843 148.909L96.8873 129.117C97.2865 128.883 97.3364 128.498 97.3364 128.33C97.3364 128.179 97.2865 127.778 96.8873 127.543L81.549 118.602C81.0333 118.3 80.451 118.149 79.8688 118.149Z" fill="black"></path><path d="M36.1992 84.9619L33.2713 83.053C32.1734 82.3497 30.9257 82.0148 29.6614 82.0985C28.0144 82.2158 26.9331 82.5674 26.0846 84.1414L26.0015 84.8949L28.8795 85.8996L28.9793 86.3349L28.0477 86.7703C28.0477 86.7703 28.8961 89.801 34.0865 89.081C38.861 88.4112 36.2325 84.9619 36.2325 84.9619H36.1992Z" fill="#FFEECC"></path><path d="M32.5229 89.935C28.181 89.935 27.3492 87.1051 27.3159 86.9712L27.1496 86.3684L27.4989 86.2009L25.1865 85.3972L25.4194 83.7897C26.4009 81.9646 27.7484 81.5125 29.5784 81.3785C31.0091 81.278 32.4065 81.6464 33.6375 82.4334L36.7484 84.5097C36.8815 84.6939 38.0627 86.3182 37.4305 87.8587C36.998 88.8968 35.8834 89.5499 34.12 89.801C33.5211 89.8847 32.9887 89.9182 32.4897 89.9182L32.5229 89.935ZM29.0128 87.1219C29.5285 87.7917 30.8427 88.7964 33.9536 88.361C34.7854 88.2438 35.8501 87.9591 36.1163 87.3061C36.3658 86.7033 35.9333 85.8661 35.6838 85.4977L32.8723 83.6558C31.9074 83.0362 30.8094 82.7348 29.6948 82.8185C28.2642 82.919 27.449 83.1869 26.7669 84.359V84.3925L29.4619 85.3302L29.7614 86.7368L28.9961 87.0884L29.0128 87.1219Z" fill="black"></path><path d="M39.0444 86.017L37.3476 85.0124C37.0814 84.8617 36.7819 84.8784 36.549 85.0793C36.0001 85.5482 35.0185 86.5696 34.4529 88.1603C34.3032 88.5622 34.5028 89.031 34.8688 89.1985L36.782 90.1027C37.1147 90.2534 37.4973 90.1362 37.6969 89.818L39.3106 87.2226C39.5601 86.8208 39.4437 86.2514 39.0444 86.017V86.017Z" fill="black"></path><path d="M37.0812 90.9066C36.8816 90.9066 36.6653 90.8564 36.4657 90.7727L34.5526 89.8685C33.8372 89.5336 33.4879 88.6796 33.7541 87.9261C34.3862 86.1679 35.4676 85.046 36.0665 84.5269C36.5323 84.1251 37.1811 84.0748 37.7134 84.393L39.4103 85.3977C39.7596 85.6153 40.0092 85.9502 40.1256 86.3688C40.2254 86.7875 40.1589 87.2563 39.926 87.6247L38.3123 90.2201C38.0295 90.6722 37.5637 90.9234 37.0812 90.9234V90.9066ZM36.9814 85.6488C36.5323 86.0507 35.6506 86.9716 35.1348 88.4117C35.1348 88.4619 35.1515 88.5289 35.1848 88.5289L37.0979 89.4331L38.6949 86.8209C38.6949 86.8209 38.7282 86.7372 38.6949 86.7037L38.6616 86.6368L36.9648 85.6321L36.9814 85.6488Z" fill="black"></path><path d="M58.5581 84.0744C58.1422 85.3469 59.1736 82.4501 58.5581 84.0744C56.8613 88.6121 54.8317 93.535 54.8317 93.535C54.8317 93.535 49.9574 91.1406 46.3807 89.8512C43.2032 88.7126 40.5415 86.7702 39.9925 86.3516C39.9093 86.2846 39.8428 86.2846 39.743 86.3181C39.194 86.5023 37.1311 87.373 36.998 90.0019C36.998 90.1191 37.0313 90.2364 37.1145 90.3033C38.3788 91.4587 49.5082 101.589 57.7762 103.448C57.7762 103.448 62.5507 99.0607 64.913 90.8392C67.2753 82.6343 59.5729 80.9599 58.5581 84.0744V84.0744Z" fill="#FEBD33"></path><path d="M57.9924 104.252L57.6265 104.168C49.1754 102.276 37.8797 92.0117 36.632 90.8563C36.3991 90.6386 36.266 90.3205 36.2826 89.9856C36.4157 87.5409 38.046 86.1511 39.5266 85.6488C39.8427 85.5483 40.1754 85.5985 40.4416 85.7995C40.9407 86.1678 43.5359 88.0935 46.6302 89.1986C49.4416 90.2033 52.9851 91.861 54.4656 92.5642C55.0812 91.0405 56.595 87.3065 57.876 83.8571C57.9093 83.7734 57.9259 83.7064 57.9592 83.6227C58.0756 83.338 58.1921 83.0868 58.3917 82.9361C59.2235 81.9817 60.7041 81.6301 62.2679 82.0989C64.9795 82.9361 67.059 86.0171 65.6117 91.0572C63.2327 99.3625 58.4749 103.817 58.2752 104.001L57.9924 104.252V104.252ZM37.7466 89.9019C39.4601 91.4759 49.7577 100.685 57.5599 102.644C58.5747 101.59 62.2679 97.4369 64.2143 90.6386C65.4619 86.285 63.7152 84.0748 61.8353 83.4887C60.9203 83.204 59.8057 83.3213 59.3732 84.0413C59.3732 84.0748 59.3566 84.0915 59.3399 84.125C59.2568 84.3427 59.1902 84.5771 59.0738 84.7613C57.4268 89.1316 55.5137 93.7866 55.4971 93.8368L55.1976 94.5569L54.4989 94.222C54.4989 94.222 49.6246 91.8442 46.1144 90.5716C43.12 89.5 40.5747 87.7251 39.7429 87.1055C39.1107 87.3734 37.8797 88.1102 37.73 89.9019H37.7466Z" fill="black"></path><path d="M21.6102 155.874C21.6102 155.874 20.2128 157.398 18.2831 157.365C16.3533 157.331 15.272 159.056 15.272 159.056L17.9171 162.304L23.1906 162.12L26.0354 160.027L26.8173 156.494L23.5566 155.021L21.6102 155.891V155.874Z" fill="#FEBD33"></path><path d="M17.5843 163.041L14.3735 159.106L14.6563 158.654C14.6563 158.654 15.9706 156.628 18.2331 156.628C18.2663 156.628 18.2996 156.628 18.3495 156.628C19.88 156.628 21.0612 155.389 21.0778 155.372L21.1776 155.255L23.5565 154.2L27.649 156.059L26.6674 160.429L23.4234 162.824L17.5676 163.025L17.5843 163.041ZM16.2035 159.039L18.2497 161.551L22.941 161.384L25.3865 159.592L25.9854 156.913L23.5565 155.808L22.026 156.494C21.6268 156.896 20.1794 158.085 18.2663 158.102H18.2331C17.2848 158.102 16.5861 158.654 16.2035 159.056V159.039Z" fill="black"></path><path d="M77.3234 129.753C77.3234 129.753 64.5637 151.471 32.7393 127.208C32.6062 127.107 32.4398 127.208 32.4731 127.392C32.7725 128.665 33.8206 132.935 31.8742 137.372C29.8779 141.91 27.9315 151.839 27.1163 155.757C26.9167 156.762 26.0849 157.465 25.1533 157.449L24.2716 157.482C23.1736 157.449 21.6764 156.427 21.7263 155.205C22.0757 147.1 23.1903 119.639 25.1699 117.278C28.1977 113.662 35.3511 113.98 38.8945 114.934C42.438 115.889 62.8502 121.598 62.8502 121.598L77.3067 129.77L77.3234 129.753Z" fill="#FFEECC"></path><path d="M24.305 158.202C23.39 158.185 22.3919 157.717 21.7431 157.013C21.2274 156.461 20.9612 155.824 20.9945 155.171V154.703C22.0425 130.222 23.1571 118.534 24.6211 116.793C27.8485 112.942 35.2181 113.159 39.0943 114.214C42.6045 115.169 62.8503 120.828 63.0666 120.879L63.2329 120.946L78.3383 129.468L77.9557 130.105C77.7893 130.389 73.7302 137.137 64.5305 138.963C55.5971 140.738 45.1664 137.271 33.5046 128.665C33.854 130.724 34.1035 134.107 32.5564 137.64C30.7265 141.809 28.8965 150.717 28.0315 154.987L27.8485 155.875C27.5823 157.197 26.4843 158.152 25.22 158.152C25.2034 158.152 25.1867 158.152 25.1534 158.152L24.3217 158.185L24.305 158.202ZM33.7542 115.018C30.6433 115.018 27.3993 115.738 25.7191 117.747C24.9039 118.718 23.6729 125.935 22.4584 154.77V155.238C22.4252 155.556 22.6248 155.841 22.7912 156.025C23.1738 156.444 23.8059 156.745 24.2717 156.762L25.1035 156.729C25.7191 156.729 26.2514 156.277 26.3845 155.623L26.5675 154.736C27.4492 150.399 29.2958 141.391 31.1923 137.087C33.0222 132.935 32.074 128.933 31.7745 127.627C31.6747 127.191 31.8244 126.806 32.1405 126.605C32.4566 126.387 32.8558 126.404 33.1719 126.639C44.9668 135.63 55.4141 139.314 64.2311 137.573C71.2181 136.183 75.061 131.696 76.2754 130.038L62.5841 122.302C61.1368 121.9 42.1054 116.575 38.7117 115.671C37.3143 115.286 35.5509 115.051 33.7542 115.051V115.018Z" fill="black"></path><path d="M13.6912 159.357C14.157 157.482 15.9869 157.13 18.2827 157.381C17.5507 157.599 17.218 157.951 16.7189 158.453C16.0868 159.073 16.8021 159.843 18.0831 160.345C20.5285 161.3 23.157 160.68 24.3548 158.637C24.4879 158.503 24.621 158.369 24.7374 158.219L25.12 157.716C25.12 157.716 25.1866 157.633 25.2199 157.582C25.5692 157.08 26.1016 156.427 26.5507 155.908C27.0165 155.339 27.8483 155.489 28.1644 156.159C28.6136 157.113 28.9463 158.754 28.3308 161.383L28.2808 165.586C28.2808 165.871 28.1644 166.122 27.9814 166.306C27.8317 166.44 27.6653 166.524 27.499 166.541C27.2328 166.691 26.5008 166.608 25.669 166.44C25.4361 166.39 25.2531 166.172 25.2199 165.904L25.0535 163.761C25.0535 163.56 24.8206 163.46 24.6875 163.594L24.3382 163.912C23.9722 164.247 23.5563 164.515 23.1071 164.699C22.1589 165.101 21.1108 165.134 20.1293 164.782C17.1016 163.694 13.0091 161.969 13.6579 159.34L13.6912 159.357Z" fill="black"></path><path d="M27.0665 167.177C26.7338 167.177 26.2679 167.127 25.5859 166.993C25.1034 166.893 24.7374 166.474 24.6875 165.955L24.5711 164.481C24.1885 164.8 23.7892 165.051 23.34 165.235C22.2753 165.687 21.0609 165.721 19.963 165.335C17.6672 164.515 12.3105 162.606 13.1256 159.224C13.8243 156.344 17.2014 156.695 18.316 156.812L21.1275 157.097L18.4158 157.901C17.8502 158.068 17.584 158.336 17.1515 158.772C17.0517 158.872 17.0184 158.922 17.0184 158.939C17.0517 159.106 17.4177 159.475 18.2495 159.793C20.5119 160.664 22.8077 160.061 23.8391 158.319L23.9223 158.202C24.0387 158.085 24.1718 157.951 24.2883 157.817L24.6543 157.348L25.2033 157.566L24.7541 157.248C25.0535 156.812 25.5193 156.243 26.1016 155.523C26.4343 155.121 26.9334 154.92 27.4325 154.987C27.9482 155.054 28.3973 155.406 28.6302 155.908C29.0794 156.879 29.4953 158.638 28.8631 161.451L28.8132 165.587C28.8132 166.005 28.6469 166.424 28.3474 166.708C28.1478 166.909 27.9149 167.027 27.6487 167.094C27.5156 167.144 27.3326 167.194 27.0332 167.194L27.0665 167.177ZM24.8705 162.974C24.9703 162.974 25.0702 162.991 25.1533 163.025C25.4362 163.142 25.6191 163.41 25.6524 163.711L25.8188 165.855C26.9999 166.106 27.2827 166.039 27.2994 166.022L27.4657 165.972C27.4657 165.972 27.5822 165.938 27.6321 165.888C27.7153 165.804 27.7652 165.687 27.7652 165.553L27.8317 161.233C28.414 158.705 28.0813 157.198 27.6986 156.36C27.6321 156.21 27.499 156.109 27.3659 156.076C27.2495 156.076 27.1164 156.109 27.0332 156.226C26.4676 156.913 26.0184 157.482 25.7356 157.867L25.2199 158.52C25.0868 158.688 24.9537 158.805 24.8373 158.939C23.5064 161.116 20.6783 161.886 17.9167 160.814C17.2846 160.563 16.17 160.011 15.987 159.14C15.9038 158.738 16.0369 158.319 16.353 158.001C16.4029 157.951 16.4528 157.901 16.5027 157.851C14.8557 158.001 14.4232 158.755 14.2569 159.441C13.7411 161.585 17.5008 163.192 20.3789 164.214C21.2273 164.515 22.1256 164.481 22.9408 164.147C23.3234 163.979 23.6894 163.745 24.0221 163.46L24.3715 163.142C24.5212 163.008 24.7042 162.941 24.8872 162.941L24.8705 162.974Z" fill="black"></path><path d="M25.6859 160.095H24.5713V162.891H25.6859V160.095Z" fill="#FEBD33"></path><path d="M31.758 127.459C31.758 127.459 31.5584 125.651 30.2441 124.546L31.1757 123.424C32.9558 124.914 33.1887 127.208 33.2053 127.309L31.758 127.443L32.4733 127.376L31.758 127.443V127.459Z" fill="black"></path><path d="M79.0871 94.3551C79.0871 94.3551 81.7488 111.97 83.2128 121.582C84.6768 131.193 72.3662 136.25 64.4309 137.221C56.4956 138.192 48.1943 133.872 45.7156 129.787C43.2368 125.701 39.4438 123.692 39.4438 123.692C39.4438 123.692 49.5252 116.609 52.4032 98.491C55.2978 80.3734 65.3292 77.4766 65.8949 77.4766C66.4605 77.4766 79.0871 94.3383 79.0871 94.3383V94.3551Z" fill="black"></path><path d="M62.1517 138.092C54.8319 138.092 47.5454 134.207 45.1 130.172C42.7543 126.304 39.1443 124.361 39.111 124.345L38.063 123.792L39.0445 123.106C39.1443 123.039 48.9096 115.956 51.7044 98.3906C54.8153 78.9 65.8116 76.7734 65.9281 76.7734C66.3772 76.7734 66.843 76.7734 79.6859 93.9366L79.8024 94.0873L79.8356 94.2715C79.8356 94.2715 82.4974 111.887 83.9613 121.498C84.4105 124.412 83.6952 127.108 81.8818 129.536C78.2552 134.358 70.5528 137.255 64.5473 137.975C63.7654 138.075 62.9669 138.109 62.185 138.109L62.1517 138.092ZM40.7247 123.625C42.0556 124.512 44.5343 126.421 46.3476 129.418C48.5436 133.035 56.4456 137.472 64.3476 136.518C70.0537 135.831 77.3236 133.119 80.7007 128.648C82.2811 126.555 82.8966 124.227 82.514 121.716C81.1332 112.674 78.7044 96.5487 78.405 94.6566C74.0464 88.8463 67.1092 79.7205 65.7118 78.2804C64.3476 78.6991 55.7802 81.9977 53.1351 98.6251C50.6896 113.946 43.27 121.465 40.7247 123.641V123.625Z" fill="black"></path><path d="M43.1038 125.165L42.4883 124.228C50.54 118.819 54.3996 106.395 54.4495 106.261L55.5142 106.596C55.3478 107.115 51.4883 119.539 43.1038 125.165V125.165Z" fill="#FEBD33"></path><path d="M25.1198 89.9176C25.1198 89.9176 24.0884 87.0375 22.7576 85.9659C21.7594 85.1789 20.9775 86.0496 20.6448 86.5352C20.5283 86.7026 20.3454 86.7361 20.179 86.6524L17.2012 84.9947C16.8518 84.7938 16.4359 84.8942 16.1864 85.2291C15.7206 85.8822 15.2049 87.1547 15.9868 89.1306C17.1845 92.1949 22.3084 93.3335 22.3084 93.3335L25.1531 89.9009L25.1198 89.9176Z" fill="#FFEECC"></path><path d="M22.5581 94.1543L22.1256 94.0538C21.9093 94.0036 16.6191 92.7813 15.2883 89.3989C14.3733 87.0546 15.072 85.5141 15.5711 84.7941C16.0202 84.1578 16.852 83.9569 17.5341 84.342L20.2291 85.849C20.5618 85.4472 21.0443 85.0285 21.6764 84.9281C22.0424 84.8778 22.5914 84.9113 23.2069 85.3802C24.6542 86.5356 25.7023 89.3319 25.8021 89.65L25.9352 90.0519L22.5415 94.1376L22.5581 94.1543ZM16.8354 85.6313C16.3696 86.2341 16.0202 87.2556 16.6524 88.8798C17.5008 91.0733 20.8446 92.1952 22.0258 92.5301L24.2883 89.784C23.9056 88.863 23.1237 87.2053 22.3086 86.5523C22.0757 86.3681 21.9426 86.3848 21.9093 86.4016C21.7263 86.4351 21.4602 86.6528 21.2439 86.9709C20.9278 87.4398 20.3123 87.5905 19.8298 87.3058L16.852 85.6481L16.8354 85.6313Z" fill="black"></path><path d="M27.1329 91.2236L25.5858 89.5827C25.3529 89.3315 25.0036 89.2478 24.7041 89.3817C23.9888 89.6999 22.6579 90.4701 21.6098 91.9939C21.3437 92.379 21.4435 92.9483 21.7762 93.2497L23.5895 94.8572C23.9056 95.1251 24.3381 95.1251 24.6542 94.8572L27.083 92.6134C27.4657 92.2618 27.4823 91.6088 27.1329 91.2404V91.2236Z" fill="black"></path><path d="M24.1218 95.795C23.7725 95.795 23.4065 95.661 23.1237 95.4098L21.3104 93.8024C20.6782 93.2498 20.5617 92.2786 21.0275 91.5921C22.1754 89.9176 23.656 89.0804 24.4213 88.7288C25.0035 88.4609 25.669 88.6116 26.1181 89.0804L27.6653 90.7214C27.9647 91.0395 28.1311 91.4916 28.1144 91.9605C28.1144 92.4126 27.8982 92.8479 27.5821 93.1493L25.1532 95.3931C24.8538 95.661 24.4878 95.795 24.1218 95.795V95.795ZM25.0534 90.0851C24.3714 90.3362 23.1569 91.0228 22.2087 92.4126C22.1588 92.4795 22.1921 92.6303 22.2586 92.6972L24.0719 94.3047L26.6006 92.0609C26.6006 92.0609 26.6671 91.9605 26.6671 91.8935C26.6671 91.8265 26.6505 91.7595 26.6172 91.726L25.0701 90.0851H25.0534Z" fill="black"></path><path d="M57.6268 86.4679C57.0778 85.5637 56.113 85.2288 55.198 85.413C54.7488 85.5135 54.3163 85.7312 53.9337 86.066C52.8856 87.054 51.1056 88.9294 49.3422 91.709C46.5973 96.0123 40.625 103.882 40.625 103.882C40.625 103.882 36.3995 100.031 33.1888 97.67C30.3274 95.5602 28.198 92.8308 27.7488 92.2448C27.6989 92.1778 27.6157 92.1276 27.5159 92.1276C26.9337 92.1276 24.6546 92.362 23.8727 94.9574C23.8394 95.0579 23.8727 95.1751 23.9059 95.2588C24.8209 96.7323 32.7396 109.24 40.2091 114.046C40.7082 114.364 41.357 114.297 41.8061 113.895C44.1684 111.802 51.4217 105.138 55.0483 98.9928C59.4235 91.5917 58.6416 88.1926 57.6435 86.5014C57.6435 86.4847 57.6268 86.4679 57.6102 86.4512L57.6268 86.4679Z" fill="#FEBD33"></path><path d="M40.9076 115.001C40.525 115.001 40.159 114.901 39.8263 114.683C32.207 109.793 24.1886 97.0843 23.2902 95.661C23.1239 95.3931 23.074 95.0582 23.1738 94.7568C23.9058 92.3456 25.8854 91.4581 27.4991 91.4247C27.8152 91.4247 28.1146 91.5586 28.3143 91.8265C28.7135 92.3456 30.8096 95.0415 33.6045 97.1011C36.0998 98.943 39.244 101.689 40.525 102.844C41.9889 100.902 46.4972 94.874 48.7431 91.3577C50.5065 88.5948 52.2699 86.686 53.451 85.5808C53.9002 85.1455 54.4658 84.8608 55.0647 84.7436C56.329 84.4757 57.5934 85.0282 58.2588 86.1334L58.3087 86.2004C60.0555 89.1809 59.207 93.5177 55.6969 99.4286C51.9871 105.691 44.5176 112.556 42.305 114.499C41.9058 114.85 41.4067 115.034 40.9242 115.034L40.9076 115.001ZM24.6045 95.0247C25.8189 96.9671 33.4547 108.856 40.6082 113.444C40.8411 113.594 41.1072 113.561 41.3401 113.36C43.5028 111.451 50.8392 104.72 54.4326 98.6416C57.5934 93.3 58.4584 89.3483 57.0277 86.9036L57.6266 86.485L57.0111 86.8701C56.6618 86.2841 56.013 86.0162 55.3475 86.1501C55.0148 86.2171 54.6987 86.3846 54.4492 86.6357C53.3346 87.6906 51.6377 89.499 49.9741 92.1279C47.2459 96.4145 41.2736 104.268 41.2237 104.351L40.7412 104.988L40.159 104.452C40.159 104.452 35.9335 100.601 32.7727 98.2899C30.061 96.2973 27.9815 93.7522 27.3327 92.9149C26.6507 92.9819 25.2366 93.3335 24.6377 95.0582L24.6045 95.0247Z" fill="black"></path><path d="M39.6765 107.399C39.3604 105.791 39.8928 103.782 39.9261 103.698L41.3235 104.083C41.3235 104.083 40.8577 105.858 41.1072 107.114L39.6765 107.399Z" fill="black"></path><path d="M58.9908 75.0493C58.9908 75.0493 60.2884 79.4196 59.1737 81.496C58.0591 83.5723 63.3327 83.003 63.3327 83.003L68.6895 79.1182C68.6895 79.1182 67.0924 76.4893 67.1922 74.2456C67.292 72.0018 67.5416 71.7841 67.0259 71.9348C66.5102 72.1023 58.9741 75.0326 58.9741 75.0326L58.9908 75.0493Z" fill="#FEBD33"></path><path d="M61.8354 83.8067C60.571 83.8067 59.0904 83.6058 58.5415 82.7853C58.3585 82.5174 58.1256 81.948 58.5415 81.1443C59.34 79.654 58.6413 76.3889 58.2919 75.2502L58.0923 74.5972L58.7244 74.346C59.5063 74.0446 66.2938 71.3822 66.8261 71.2315C66.9758 71.1813 67.4084 71.0473 67.7577 71.3487C68.1403 71.6669 68.1071 72.0688 68.0405 72.7553C68.0073 73.1069 67.9574 73.5925 67.9407 74.2623C67.8409 76.2549 69.3215 78.6829 69.3381 78.7163L69.6875 79.3024L63.6154 83.6895H63.4324C63.0331 83.7565 62.4675 83.8067 61.852 83.8067H61.8354ZM59.8723 75.4847C60.205 76.8744 60.8039 79.9889 59.8224 81.8308C59.7559 81.948 59.7559 82.015 59.7559 82.015C59.9721 82.2829 61.5692 82.4169 63.083 82.2829L67.7577 78.9005C67.2586 77.9461 66.4102 76.0037 66.4768 74.2121C66.51 73.6595 66.5433 73.2241 66.5599 72.8892C65.1792 73.4083 62.1847 74.5637 59.8557 75.4847H59.8723Z" fill="black"></path><path d="M59.4229 53.7666C59.4229 53.7666 52.8185 53.4987 50.6724 59.2086C48.5264 64.9017 52.9016 69.2386 52.9016 69.2386C52.9016 69.2386 58.4913 67.4804 59.4562 64.8348C60.4044 62.1891 59.4229 53.7834 59.4229 53.7834V53.7666Z" fill="#FFEECC"></path><path d="M52.7022 70.0593L52.3861 69.7579C52.1865 69.5737 47.6948 65.0192 49.9906 58.9409C52.2863 52.8291 59.3732 53.0301 59.4564 53.0301H60.0719L60.1384 53.6831C60.1717 54.0347 61.1366 62.2898 60.1384 65.0694C59.0904 67.9829 53.7336 69.7411 53.1181 69.9253L52.7022 70.0593V70.0593ZM58.7743 54.5036C57.1606 54.604 52.9351 55.2571 51.3547 59.46C49.7244 63.8135 52.2364 67.3299 53.1181 68.3848C54.7983 67.782 58.1421 66.2917 58.7577 64.5671C59.4397 62.6917 59.0405 57.1827 58.7577 54.5036H58.7743Z" fill="black"></path><path d="M63.2327 54.5364C63.2327 54.5364 67.8076 50.6517 69.5876 60.3133C70.8187 67.0446 68.2401 71.0633 63.2493 74.8978C61.7022 76.0867 59.9554 76.2876 58.4249 75.8355C56.3621 75.216 54.9148 73.2401 54.2493 70.9796C53.0848 66.9609 52.8519 63.2101 53.6172 59.4761C52.6689 55.4909 55.2641 56.0769 59.9721 54.7541L63.2327 54.5364V54.5364Z" fill="#FEBD33"></path><path d="M59.9722 76.807C59.3899 76.807 58.8077 76.7232 58.2254 76.5391C56.096 75.9028 54.3493 73.8934 53.5674 71.1975C52.3696 67.0951 52.1533 63.2606 52.9019 59.4931C52.6191 58.1703 52.6857 57.2158 53.1348 56.5126C53.8335 55.4074 55.2143 55.106 57.1274 54.7042C57.926 54.5367 58.8077 54.3358 59.8058 54.0679L59.9555 54.0344L62.9999 53.8167C63.5156 53.4651 64.8964 52.6613 66.4435 53.2139C68.2901 53.8837 69.6043 56.2279 70.3363 60.1796C71.5008 66.5258 69.5877 70.9631 63.7319 75.4842C62.6006 76.3549 61.3197 76.7902 60.0054 76.7902L59.9722 76.807ZM60.1053 55.4912C59.1071 55.7758 58.2088 55.96 57.4103 56.1274C55.8465 56.4623 54.7152 56.6968 54.3493 57.2828C54.1163 57.6679 54.1163 58.321 54.3493 59.3089L54.3825 59.4596L54.3493 59.6271C53.6173 63.1936 53.8169 66.844 54.9648 70.7789C55.6136 73.006 56.9944 74.6302 58.6413 75.1325C60.0886 75.5679 61.5692 75.2832 62.8169 74.3288C67.3419 70.8459 70.1034 67.1454 68.8724 60.4475C68.0905 56.2279 66.8428 54.9386 65.9278 54.6037C64.8132 54.2018 63.7152 55.0893 63.6986 55.0893L63.5156 55.24L60.1053 55.4744V55.4912Z" fill="black"></path><path d="M60.1719 86.2175C58.0757 86.5021 54.682 83.823 56.3123 82.3327C56.3955 82.2658 56.4621 82.1988 56.5452 82.1486C57.9759 81.2276 62.1349 82.5504 64.8133 80.7922C66.8262 79.4862 66.8262 78.1299 66.6931 77.5438C66.5933 77.1084 66.743 76.6396 67.0591 76.3717C67.292 76.1708 67.658 76.02 68.1903 76.0703C69.6543 76.1875 70.7689 78.0796 70.1534 79.888C69.5378 81.6964 67.3253 84.1412 64.7467 85.0621C62.7837 85.7654 62.2846 85.9328 60.1719 86.2175V86.2175Z" fill="#FEBD33"></path><path d="M59.8726 86.9715C58.1924 86.9715 56.0796 85.6989 55.3809 84.2086C54.965 83.3044 55.1314 82.4337 55.8301 81.7974C55.9299 81.6969 56.0463 81.6132 56.1461 81.5462C56.928 81.0439 58.1092 81.0439 59.4899 81.0606C61.1535 81.0606 63.05 81.0941 64.4308 80.1899C66.0944 79.1015 66.0777 78.0969 65.9946 77.7117C65.8448 77.0085 66.0777 76.255 66.6101 75.8196C66.9095 75.5684 67.4419 75.2838 68.257 75.3508C69.1055 75.4177 69.904 75.9201 70.4363 76.7238C71.0851 77.7117 71.2349 78.9843 70.8522 80.1229C70.1868 82.0988 67.8079 84.7444 64.9964 85.7491C63.0167 86.4524 62.4844 86.6366 60.2718 86.938C60.1387 86.9547 60.0057 86.9715 59.8726 86.9715V86.9715ZM58.941 82.5174C58.0925 82.5174 57.294 82.5509 56.9447 82.7686C56.8948 82.8021 56.8615 82.8356 56.8116 82.8691C56.6619 83.003 56.5288 83.1705 56.7118 83.5891C57.1942 84.6272 58.9909 85.6319 60.0888 85.4812C62.1517 85.1965 62.6009 85.0458 64.514 84.3593C66.8929 83.5221 68.9391 81.2616 69.4881 79.6374C69.7376 78.9173 69.6378 78.1303 69.2386 77.5108C68.9558 77.0754 68.5565 76.8075 68.1572 76.7908C67.8911 76.774 67.6748 76.8243 67.5417 76.9247C67.4419 77.0085 67.3753 77.1926 67.4253 77.3768C67.575 78.0634 67.6582 79.8215 65.2293 81.3955C63.4826 82.5342 61.27 82.5174 59.4899 82.5007C59.3069 82.5007 59.124 82.5007 58.941 82.5007V82.5174Z" fill="black"></path><path d="M61.5361 50.7366C57.9095 51.2055 53.6507 54.1358 52.8688 56.6809C51.9372 59.6782 52.3198 61.4196 55.3808 61.0847C56.5953 60.9508 57.5768 64.283 58.0259 65.4551C58.2921 66.1416 59.3568 66.6272 59.7561 66.577C60.7043 66.4597 62.0185 67.7658 62.1516 69.2393C62.2681 70.4449 61.8688 71.8682 61.1868 72.2868C63.2163 77.126 53.684 82.4508 63.1165 86.2518C63.3661 86.3523 56.5953 95.7962 65.3624 100.97C72.6655 105.274 87.4381 103.716 90.7154 95.2939C96.4381 80.6089 76.3587 77.846 75.4104 65.2876C74.6618 55.4753 67.4252 49.9999 61.5361 50.7534V50.7366Z" fill="#FFEECC"></path><path d="M75.1277 104.034C71.368 104.034 67.7081 103.214 64.9798 101.606C61.2867 99.4294 57.8264 95.059 62.1351 86.6365C60.1221 85.7156 58.8911 84.6272 58.392 83.3379C57.66 81.4457 58.575 79.5034 59.4733 77.6447C60.3384 75.8363 61.1536 74.1284 60.5048 72.5711L60.2552 71.9851L60.7876 71.6502C61.1037 71.4492 61.5029 70.3776 61.4031 69.3059C61.3366 68.6864 60.9706 68.0166 60.4715 67.598C60.172 67.3636 59.9225 67.2966 59.8227 67.2966C59.1074 67.3803 57.7266 66.744 57.3273 65.7226C57.2608 65.5551 57.1776 65.3375 57.0944 65.0863C56.1628 62.4909 55.6804 61.8881 55.4142 61.8211C53.917 61.9886 52.8689 61.7039 52.2367 60.9337C51.5048 60.0294 51.4715 58.6229 52.1369 56.4796C53.0186 53.6498 57.5269 50.5185 61.4197 50.0162C64.2977 49.6478 67.4752 50.6692 70.087 52.8293C73.5806 55.6926 75.7099 60.0964 76.1092 65.2203C76.5085 70.3943 80.4512 73.9274 84.2608 77.3433C89.4345 81.9815 94.7913 86.7872 91.3643 95.5614C90.1 98.7931 87.222 101.288 83.0297 102.745C80.5343 103.616 77.7894 104.034 75.0944 104.034H75.1277ZM62.0186 72.4874C62.5842 74.48 61.636 76.4726 60.7876 78.2643C59.9891 79.922 59.2404 81.4792 59.7562 82.7853C60.1554 83.8402 61.3532 84.7444 63.3828 85.5649L63.6822 85.6821L63.7987 86.0002C63.9318 86.3351 63.7987 86.5528 63.5159 87.1389C60.3218 93.2674 61.0537 97.5875 65.7284 100.334C69.9872 102.845 77.0741 103.281 82.5972 101.355C85.2257 100.434 88.6526 98.5921 90.0501 95.0256C93.1111 87.2058 88.3532 82.9527 83.3292 78.4484C79.3033 74.8316 75.1277 71.0976 74.6952 65.3542C74.3292 60.6323 72.3828 56.5801 69.2053 53.9847C66.8929 52.0758 64.1314 51.1716 61.636 51.4897C58.3421 51.9083 54.2663 54.6544 53.5676 56.9317C52.9521 58.9076 53.1351 59.7113 53.4013 60.0294C53.7506 60.4648 54.6323 60.4648 55.3144 60.3811C56.9281 60.1969 57.8264 62.7421 58.4918 64.6007C58.575 64.8351 58.6416 65.0361 58.7081 65.2035C58.8245 65.5217 59.4567 65.8566 59.7062 65.8566C60.2386 65.7896 60.8541 66.0072 61.4197 66.4594C62.2349 67.1124 62.8005 68.1506 62.8837 69.172C62.9835 70.2939 62.7173 71.7004 62.0519 72.5041L62.0186 72.4874Z" fill="black"></path><path d="M54.6487 61.1846C54.1164 57.3334 56.279 55.3073 57.4934 54.7715L58.0757 56.111C57.9759 56.1613 55.5803 57.2999 56.0794 60.9837L54.6321 61.1846H54.6487Z" fill="black"></path><path d="M63.7987 86.4693L62.418 86.0172C62.967 84.326 63.7488 82.9195 64.7304 81.8311L65.795 82.819C64.9466 83.7567 64.2645 84.9958 63.7821 86.486L63.7987 86.4693Z" fill="black"></path><path d="M71.3512 64.9856C70.8355 60.0627 68.2403 57.618 68.207 57.5845L69.1885 56.4961C69.305 56.6133 72.2163 59.3092 72.7985 64.8181L71.3512 64.9688V64.9856Z" fill="black"></path><path d="M82.9629 98.4418L82.2476 97.1692C85.8742 95.0761 86.0572 91.4593 86.0572 91.4258L87.5045 91.476C87.5045 91.6602 87.2882 95.9468 82.9629 98.4418V98.4418Z" fill="black"></path><path d="M121.242 175.467C121.242 175.467 121.242 157.952 121.242 157.349C121.242 157.282 121.192 157.232 121.143 157.215L104.69 158.705C104.69 158.705 104.673 158.705 104.656 158.705L103.143 149.563C103.143 149.563 103.043 149.529 103.009 149.563L87.8542 158.303C87.8542 158.303 87.7877 158.32 87.7544 158.303L84.8597 157.5C84.7766 157.483 84.6768 157.533 84.6768 157.634C84.6768 158.37 84.6768 175.517 84.6768 175.601V175.634C84.7267 176.12 84.9762 176.588 85.4586 176.873L100.714 185.781C102.011 186.535 103.625 186.551 104.923 185.781L120.411 176.84C120.926 176.538 121.192 176.019 121.209 175.483V175.45L121.242 175.467Z" fill="#FEBD33"></path><path d="M102.86 187.087C102.011 187.087 101.146 186.87 100.381 186.418L85.1259 177.509C84.4771 177.124 84.0612 176.471 83.9781 175.718C83.9781 175.617 83.9781 175.601 83.9614 162.59C83.9614 159.961 83.9614 157.902 83.9614 157.65C83.9614 157.366 84.0779 157.115 84.3108 156.964C84.527 156.796 84.8099 156.746 85.076 156.813L87.7378 157.55L102.677 148.927C102.943 148.776 103.276 148.776 103.542 148.927L103.841 149.094L105.305 157.918L121.242 156.478L121.375 156.512C121.758 156.612 122.008 156.964 122.008 157.349C122.008 157.533 122.008 175.45 122.008 175.5V175.584C121.974 176.337 121.542 177.074 120.843 177.476L105.355 186.418C104.59 186.853 103.741 187.087 102.893 187.087H102.86ZM85.4087 158.421C85.4087 159.291 85.4087 160.798 85.4087 162.573C85.4087 167.647 85.4087 175.333 85.4087 175.584C85.4254 175.735 85.5086 176.036 85.8413 176.237L101.096 185.145C102.161 185.781 103.492 185.781 104.573 185.145L120.061 176.203C120.444 175.986 120.494 175.617 120.494 175.467H121.226H120.494C120.494 175.282 120.494 161.284 120.494 158.002L104.607 159.442L104.241 159.291L103.974 159.124L102.577 150.634L87.9374 159.09L87.5215 159.007L85.3921 158.404L85.4087 158.421Z" fill="black"></path><path d="M121.159 157.215L104.706 158.705C104.706 158.705 104.69 158.705 104.673 158.705L102.743 164.348V186.367C103.508 186.384 104.274 186.216 104.956 185.815L120.444 176.873C120.959 176.572 121.226 176.052 121.242 175.517V175.483C121.242 175.483 121.242 157.968 121.242 157.366C121.242 157.299 121.192 157.248 121.142 157.232L121.159 157.215Z" fill="black"></path><path d="M102.86 187.087C102.86 187.087 102.76 187.087 102.71 187.087H102.011L102.061 164.097L104.274 157.634L104.856 157.969L121.226 156.495L121.359 156.529C121.741 156.629 121.991 156.981 121.991 157.366C121.991 157.55 121.991 175.467 121.991 175.517C121.958 176.354 121.525 177.091 120.826 177.493L105.338 186.434C104.606 186.87 103.758 187.087 102.876 187.087H102.86ZM103.459 164.466V185.58C103.858 185.513 104.24 185.379 104.59 185.162L120.078 176.22C120.46 176.003 120.51 175.634 120.51 175.483C120.51 175.299 120.51 161.284 120.51 158.019L105.172 159.409L103.442 164.466H103.459Z" fill="black"></path><path d="M87.039 159.593C87.039 159.593 87.2719 158.973 87.5547 158.186L84.8764 157.433C84.7932 157.416 84.6934 157.466 84.6934 157.567C84.6934 158.304 84.6934 175.45 84.6934 175.534C84.7433 176.053 84.9928 176.522 85.4752 176.806L87.0057 177.711V163.344V159.593H87.039Z" fill="black"></path><path d="M87.7544 178.967L85.1259 177.426C84.4771 177.041 84.0612 176.388 83.9781 175.634C83.9781 175.534 83.9781 175.517 83.9614 162.507C83.9614 159.878 83.9614 157.818 83.9614 157.567C83.9614 157.282 84.0779 157.031 84.3108 156.881C84.527 156.713 84.8099 156.663 85.076 156.73L88.503 157.684L88.2368 158.421C88.0206 159.007 87.8542 159.493 87.771 159.71V178.967H87.7544ZM85.4087 158.337C85.4087 159.208 85.4087 160.715 85.4087 162.49C85.4087 167.58 85.4087 175.249 85.4087 175.501C85.4254 175.651 85.5086 175.953 85.8413 176.154L86.2904 176.421L86.3404 159.325C86.3404 159.325 86.4402 159.057 86.5899 158.656L85.4087 158.321V158.337Z" fill="black"></path><path d="M100.83 167.714L85.4922 158.773C84.4108 158.136 84.4108 156.579 85.4922 155.943L101.047 146.968C102.311 146.231 103.858 146.231 105.106 146.968L120.444 155.926C121.525 156.562 121.525 158.119 120.444 158.756L104.89 167.748C103.625 168.484 102.078 168.484 100.83 167.748V167.714Z" fill="#FFEECC"></path><path d="M102.86 168.987C102.028 168.987 101.196 168.769 100.464 168.334L85.1259 159.392C84.394 158.957 83.9614 158.203 83.9614 157.349C83.9614 156.495 84.394 155.725 85.1426 155.307L100.697 146.315C102.178 145.444 104.008 145.461 105.488 146.315L120.826 155.256C121.558 155.692 121.991 156.445 121.991 157.299C121.991 158.153 121.558 158.923 120.81 159.342L105.255 168.334C104.523 168.769 103.692 168.97 102.86 168.97V168.987ZM103.076 147.118C102.494 147.118 101.928 147.269 101.412 147.571L85.8579 156.562C85.4587 156.797 85.4087 157.182 85.4087 157.349C85.4087 157.517 85.4587 157.902 85.8579 158.136L101.196 167.078C102.228 167.681 103.509 167.681 104.54 167.078L120.095 158.086C120.494 157.852 120.544 157.467 120.544 157.299C120.544 157.132 120.494 156.747 120.095 156.512L104.756 147.571C104.241 147.269 103.658 147.118 103.076 147.118Z" fill="black"></path><path d="M84.66 160.33H83.5454V171.248H84.66V160.33Z" fill="#FEBD33"></path><path d="M111.211 142.112L103.891 137.791C103.575 137.607 103.309 137.624 103.093 137.758L94.1926 143.334C94.0262 143.434 93.9763 143.652 94.0761 143.819L102.66 153.079C102.66 153.079 102.71 153.196 102.71 153.263V156.261C102.71 157.131 106.187 154.62 106.836 154.988C106.836 154.988 106.936 155.055 106.969 155.122L102.594 157.868C102.693 158.036 102.91 158.086 103.093 157.985L112.026 152.393C112.026 152.393 112.409 151.924 112.409 151.455V144.372C112.409 143.501 111.876 142.48 111.228 142.112H111.211Z" fill="#FFEECC"></path><path d="M102.893 158.789C102.81 158.789 102.727 158.789 102.644 158.755C102.361 158.688 102.128 158.504 101.978 158.253L101.612 157.633L102.494 157.081C102.494 157.081 102.444 157.047 102.427 157.047C102.161 156.88 102.011 156.595 102.011 156.277V153.447L93.4773 144.204C93.1778 143.702 93.3442 143.032 93.8432 142.731L102.743 137.155C103.176 136.853 103.758 136.853 104.291 137.171L111.61 141.492C112.492 142.011 113.157 143.25 113.157 144.388V151.471C113.157 152.158 112.692 152.761 112.609 152.878L112.426 153.028L103.509 158.621C103.342 158.738 103.143 158.789 102.943 158.789H102.893ZM94.9745 143.735L103.292 152.744C103.392 152.911 103.442 153.095 103.442 153.296V155.557C103.742 155.423 104.091 155.256 104.374 155.105C105.771 154.402 106.603 154.033 107.218 154.385C107.268 154.418 107.318 154.435 107.352 154.469L111.511 151.856C111.594 151.722 111.677 151.555 111.677 151.455V144.372C111.677 143.702 111.244 142.965 110.862 142.731L103.542 138.411L94.9911 143.702L94.9745 143.735Z" fill="black"></path><path d="M96.3551 151.789C96.3551 151.789 96.3385 152.007 96.2886 152.376L102.527 157.667C102.693 157.951 103.076 158.052 103.359 157.868L112.076 152.392C112.076 152.392 112.459 151.923 112.459 151.455V144.824C112.459 144.64 112.242 144.522 112.093 144.623L103.292 150.149C103.292 150.149 103.226 150.199 103.209 150.232L96.3718 151.789H96.3551Z" fill="black"></path><path d="M103.043 158.688C102.943 158.688 102.827 158.688 102.727 158.654C102.427 158.587 102.161 158.403 101.978 158.169L95.5234 152.693L95.6898 151.203L102.843 149.562C102.843 149.562 102.876 149.528 102.91 149.528L111.71 144.003C112.01 143.819 112.376 143.802 112.692 143.969C112.991 144.137 113.191 144.472 113.191 144.823V151.454C113.191 152.141 112.725 152.743 112.642 152.861L112.459 153.011L103.742 158.487C103.525 158.621 103.292 158.688 103.043 158.688V158.688ZM97.3534 152.308L103.093 157.164L111.577 151.839C111.66 151.705 111.743 151.538 111.743 151.437V145.677L103.791 150.667L103.692 150.835L97.37 152.275L97.3534 152.308Z" fill="black"></path><path d="M101.995 158.152L94.6748 153.832C94.026 153.446 93.4937 152.442 93.4937 151.571V144.488C93.4937 143.617 94.026 143.215 94.6748 143.584L101.995 147.904C102.643 148.289 103.176 149.294 103.176 150.164V157.247C103.176 158.118 102.643 158.52 101.995 158.152Z" fill="#FEBD33"></path><path d="M102.46 159.023C102.194 159.023 101.895 158.939 101.629 158.788L94.3089 154.468C93.4272 153.966 92.7617 152.71 92.7617 151.571V144.488C92.7617 143.768 93.0445 143.182 93.527 142.898C93.9595 142.646 94.5085 142.663 95.0242 142.965L102.344 147.285C103.226 147.787 103.891 149.043 103.891 150.181V157.264C103.891 157.984 103.608 158.57 103.126 158.855C102.926 158.972 102.693 159.039 102.46 159.039V159.023ZM102.361 157.516C102.361 157.516 102.427 157.549 102.444 157.549C102.427 157.516 102.444 157.415 102.444 157.248V150.165C102.444 149.495 102.011 148.758 101.629 148.54L94.3089 144.22C94.3089 144.22 94.259 144.187 94.2423 144.187C94.259 144.22 94.2423 144.321 94.2423 144.488V151.571C94.2423 152.241 94.6748 152.978 95.0575 153.212L102.377 157.532L102.361 157.516Z" fill="black"></path><path d="M111.504 148.637L103.663 153.383L104.237 154.344L112.079 149.598L111.504 148.637Z" fill="#FEBD33"></path><path d="M97.2705 125.551C96.9877 125.551 96.7714 125.785 96.8047 126.07L98.1854 140.068C98.1854 140.906 99.0006 141.743 100.631 142.145C101.529 142.362 102.477 142.362 103.376 142.145C105.006 141.743 105.821 140.906 105.821 140.068L107.202 126.07C107.235 125.785 107.019 125.551 106.736 125.551H97.2705Z" fill="#FEBD33"></path><path d="M102.011 143.049C101.496 143.049 100.963 142.982 100.464 142.865C98.5845 142.396 97.4699 141.358 97.4699 140.069L96.0891 126.137C96.0558 125.802 96.1723 125.467 96.3886 125.216C96.6215 124.965 96.9375 124.814 97.2703 124.814H106.736C107.069 124.814 107.402 124.965 107.618 125.216C107.851 125.467 107.95 125.802 107.917 126.137L106.536 140.136C106.536 141.341 105.422 142.396 103.542 142.865C103.043 142.999 102.511 143.049 101.995 143.049H102.011ZM97.5697 126.271L98.9172 139.985C98.9172 140.504 99.4995 141.107 100.814 141.425C101.596 141.626 102.427 141.626 103.209 141.425C104.523 141.107 105.106 140.504 105.106 140.052L106.47 126.254H97.5697V126.271Z" fill="black"></path><path d="M105.721 123.392C107.768 124.581 107.768 126.523 105.721 127.712C103.675 128.901 100.348 128.901 98.3017 127.712C96.2555 126.523 96.2555 124.581 98.3017 123.392C100.348 122.203 103.675 122.203 105.721 123.392Z" fill="#FEBD33"></path><path d="M102.011 129.336C100.547 129.336 99.0834 129.001 97.9355 128.331C96.7045 127.611 96.0391 126.623 96.0391 125.535C96.0391 124.446 96.7211 123.458 97.9355 122.738C100.215 121.415 103.808 121.415 106.087 122.738C107.318 123.458 107.984 124.446 107.984 125.535C107.984 126.623 107.302 127.611 106.087 128.331C104.939 129.001 103.475 129.319 102.011 129.319V129.336ZM102.011 123.241C100.797 123.241 99.5659 123.508 98.6675 124.028C97.9189 124.463 97.4864 125.015 97.4864 125.551C97.4864 126.087 97.9189 126.64 98.6675 127.075C100.481 128.13 103.558 128.13 105.372 127.075C106.12 126.64 106.553 126.087 106.553 125.551C106.553 125.015 106.12 124.463 105.372 124.028C104.457 123.508 103.242 123.241 102.028 123.241H102.011Z" fill="black"></path><path d="M109.39 114.162L101.237 127.809L102.763 128.732L110.916 115.085L109.39 114.162Z" fill="black"></path><path d="M101.934 118.064L100.236 128.134L102.008 128.436L103.705 118.366L101.934 118.064Z" fill="black"></path><path d="M117.349 194.404C117.349 194.404 117.349 187.02 117.349 186.417C117.349 186.35 117.299 186.3 117.25 186.283L100.797 187.774C100.797 187.774 100.78 187.774 100.763 187.774L99.2495 178.631C99.2495 178.631 99.1497 178.598 99.1164 178.631L83.9611 187.372C83.9611 187.372 83.8946 187.388 83.8613 187.372L80.9667 186.568C80.8835 186.535 80.7837 186.601 80.7837 186.702C80.7837 187.439 80.7837 194.455 80.7837 194.538C80.8336 195.057 81.0831 195.526 81.5656 195.811L96.8207 204.719C98.1183 205.473 99.7319 205.489 101.03 204.719L116.518 195.778C117.033 195.476 117.299 194.957 117.316 194.421V194.388L117.349 194.404Z" fill="#FEBD33"></path><path d="M98.9667 206.025C98.1183 206.025 97.2532 205.807 96.488 205.355L81.2329 196.447C80.5841 196.062 80.1682 195.409 80.085 194.656C80.085 194.555 80.085 194.522 80.0684 188.895V186.719C80.0684 186.451 80.1848 186.2 80.4011 186.032C80.6173 185.865 80.9001 185.814 81.1497 185.881L83.8114 186.635L98.7504 178.011C99.0166 177.861 99.3493 177.861 99.6155 178.011L99.9149 178.179L101.379 187.003L117.333 185.563L117.466 185.597C117.848 185.714 118.098 186.049 118.098 186.434V194.572C118.065 195.292 117.615 196.029 116.917 196.43L101.429 205.372C100.664 205.807 99.8151 206.042 98.9667 206.042V206.025ZM81.5157 187.489V188.895C81.5157 191.156 81.5157 194.337 81.5157 194.522C81.5323 194.672 81.6155 194.99 81.9482 195.175L97.2033 204.083C98.2846 204.719 99.6155 204.719 100.68 204.083L116.168 195.141C116.551 194.923 116.601 194.555 116.601 194.404V193.869V187.07L100.697 188.51L100.414 188.41L100.081 188.242L98.6673 179.703L84.0443 188.159L83.6451 188.092L81.4824 187.489H81.5157Z" fill="black"></path><path d="M117.249 186.301L100.797 187.791C100.797 187.791 100.78 187.791 100.763 187.791L98.8335 193.434V205.323C99.5987 205.339 100.364 205.172 101.046 204.77L116.534 195.828C117.05 195.527 117.316 195.008 117.333 194.472V194.439C117.333 194.439 117.333 187.054 117.333 186.451C117.333 186.384 117.283 186.334 117.233 186.318L117.249 186.301Z" fill="black"></path><path d="M98.9666 206.025C98.9666 206.025 98.8668 206.025 98.8169 206.025H98.1182L98.1681 193.166L100.381 186.669L100.98 187.02L117.333 185.547L117.449 185.58C117.832 185.681 118.098 186.032 118.098 186.418V194.522C118.065 195.275 117.615 196.012 116.917 196.414L101.429 205.356C100.697 205.791 99.8483 206.009 98.9666 206.009V206.025ZM99.5655 193.534V204.518C99.9647 204.451 100.347 204.318 100.697 204.1L116.185 195.158C116.567 194.941 116.617 194.572 116.617 194.421V193.886V187.087L101.279 188.477L99.5488 193.534H99.5655Z" fill="black"></path><path d="M83.1293 188.662C83.1293 188.662 83.3622 188.042 83.6451 187.255L80.9667 186.502C80.8835 186.468 80.7837 186.535 80.7837 186.636C80.7837 187.373 80.7837 194.389 80.7837 194.472C80.8336 194.991 81.0831 195.46 81.5656 195.745L83.0961 196.649V192.413V188.662H83.1293Z" fill="black"></path><path d="M83.8447 197.905L81.2163 196.364C80.5675 195.979 80.1516 195.326 80.0684 194.572C80.0684 194.472 80.0684 194.438 80.0518 188.812V186.635C80.0518 186.351 80.1682 186.1 80.3845 185.949C80.6007 185.781 80.8836 185.731 81.1497 185.798L84.5767 186.753L84.3105 187.489C84.1109 188.075 83.9279 188.561 83.8447 188.779V197.905V197.905ZM81.4991 187.406V188.812C81.4991 191.073 81.4991 194.254 81.4991 194.438C81.5157 194.589 81.5989 194.907 81.9316 195.091L82.3808 195.359L82.4307 188.394C82.4307 188.394 82.5305 188.126 82.6636 187.724L81.4824 187.389L81.4991 187.406Z" fill="black"></path><path d="M96.9203 196.783L81.582 187.824C80.5007 187.188 80.5007 185.631 81.582 184.994L97.1365 176.019C98.4008 175.283 99.948 175.283 101.196 176.019L116.534 184.978C117.615 185.614 117.615 187.171 116.534 187.808L100.979 196.783C99.7151 197.519 98.1679 197.519 96.9203 196.783Z" fill="#FFEECC"></path><path d="M98.9667 198.072C98.1349 198.072 97.3031 197.854 96.5711 197.418L81.2329 188.46C80.5009 188.025 80.0684 187.271 80.0684 186.417C80.0684 185.563 80.5009 184.793 81.2495 184.374L96.804 175.383C98.2846 174.529 100.115 174.529 101.595 175.383L116.933 184.324C117.665 184.76 118.098 185.513 118.098 186.367C118.098 187.221 117.665 187.991 116.917 188.41L101.362 197.402C100.63 197.837 99.7985 198.038 98.9667 198.038V198.072ZM99.183 176.203C98.6007 176.203 98.0351 176.354 97.5194 176.655L81.9648 185.647C81.5656 185.882 81.5157 186.267 81.5157 186.434C81.5157 186.602 81.5656 186.987 81.9648 187.221L97.3031 196.179C98.3345 196.782 99.6155 196.782 100.647 196.179L116.201 187.188C116.601 186.953 116.651 186.568 116.651 186.401C116.651 186.233 116.601 185.848 116.201 185.614L100.863 176.672C100.347 176.371 99.7652 176.22 99.183 176.22V176.203Z" fill="black"></path><path d="M89.2183 186.25L97.2867 190.938L102.011 188.175L94.026 183.437L89.2183 186.25Z" fill="#FFEECC"></path><path d="M97.2867 191.776L87.771 186.25L94.0261 182.583L103.459 188.176L97.2867 191.776V191.776ZM90.6656 186.25L97.2867 190.085L100.581 188.176L94.0261 184.291L90.6656 186.267V186.25Z" fill="black"></path></g><defs><clipPath id="clip0_1526_833"><rect width="126" height="215" fill="white"></rect></clipPath></defs></svg> 